<?xml version="1.0" encoding="iso-8859-1"?>
<!-- Generator: Adobe Illustrator 16.0.0, SVG Export Plug-In . SVG Version: 6.00 Build 0)  -->
<!DOCTYPE svg PUBLIC "-//W3C//DTD SVG 1.1//EN" "http://www.w3.org/Graphics/SVG/1.1/DTD/svg11.dtd">
<svg version="1.1" id="Layer_1" xmlns="http://www.w3.org/2000/svg" xmlns:xlink="http://www.w3.org/1999/xlink" x="0px" y="0px"
	 width="32px" height="32px" viewBox="0 0 32 32" style="enable-background:new 0 0 32 32;" xml:space="preserve">
<path style="fill-rule:evenodd;clip-rule:evenodd;fill:#121111;" d="M10.445,9.25c0.844,0.319,0.28-0.646,0.545-0.946
	c0.284-0.32,0.711-0.52,0.815-0.987c-0.393,0-0.786,0-1.181,0c-0.013,0.09,0.006,0.232-0.043,0.262
	C9.735,8.092,10.088,9.115,10.445,9.25z"/>
<path style="fill-rule:evenodd;clip-rule:evenodd;fill:#121111;" d="M11.675,26.932c0.313-0.135,0.58,0.04,0.799,0.238
	c0.49,0.443,1.042,0.348,1.644,0.338c1.91-0.03,3.924-0.441,5.707,0.208c2.579,0.938,5.021,0.896,7.63,0.151
	c-2.071-2.311-2.071-2.311-2.071-4.93c0-0.295,0.046-0.598-0.008-0.882c-0.237-1.264,0.314-1.669,1.504-1.46
	c1.088,0.19,1.663-0.126,1.664-1.392c0.002-1.755,0.083-1.747-1.773-1.695c-0.263,0.007-0.529-0.104-0.794-0.167
	c0,0.004,0,0.008,0,0.013l-0.03-0.021c0.009,0.002,0.02,0.006,0.029,0.008c0.038-1.39-0.99-2.563-0.784-4.044
	c0.045-0.328,0.61-1.731-0.738-1.604c-0.789,0.075-1.224-0.685-1.98-0.548c-0.451,0.082-0.904,0.072-0.994,0.651
	c-0.232,1.507-1.569,0.708-2.346,1.066c-0.706,0.325-0.876-0.613-1.176-1.05c-0.288-0.42-0.439-0.959-0.551-1.469
	c-0.109-0.499-0.343-0.872-0.839-0.861c-1.664,0.032-3.332-0.218-4.992,0.04c-0.914,0.141-1.278,0.432-0.63,1.418
	c0.542,0.826,1.367,1.977,1.007,2.761c-0.546,1.195-0.02,1.934,0.415,2.777c0.518,1.002,0.751,2.22-0.012,2.877
	c-1.689,1.456-1.768,3.5-2.464,5.324c-0.305,0.8-0.41,1.765-0.065,2.39C10.134,27.626,11.049,27.204,11.675,26.932z"/>
</svg>
