<?xml version="1.0" encoding="iso-8859-1"?>
<!-- Generator: Adobe Illustrator 16.0.0, SVG Export Plug-In . SVG Version: 6.00 Build 0)  -->
<!DOCTYPE svg PUBLIC "-//W3C//DTD SVG 1.1//EN" "http://www.w3.org/Graphics/SVG/1.1/DTD/svg11.dtd">
<svg version="1.1" id="Layer_1" xmlns="http://www.w3.org/2000/svg" xmlns:xlink="http://www.w3.org/1999/xlink" x="0px" y="0px"
	 width="32px" height="32px" viewBox="0 0 32 32" style="enable-background:new 0 0 32 32;" xml:space="preserve">
<path style="fill-rule:evenodd;clip-rule:evenodd;fill:#121111;" d="M10.369,20.336c1.174-0.685,2.355-1.273,3.411,0.207
	c0.212,0.295,0.536,0.417,0.898,0.422c2.295,0.033,4.581,1.584,6.896,0.047c0.138-0.095,0.385-0.016,0.581-0.03
	c2.235-0.158,3.223-1.113,3.616-3.489c-0.015,0.005-0.027,0.01-0.042,0.015c-0.003,0.002,0.044-0.026,0.044-0.026
	c0,0.005-0.002,0.007-0.002,0.012c0.814-0.245,1.373-0.594,1.436-1.152c0.011-0.092-0.002-0.193-0.02-0.297
	c-0.004-0.021,0.001-0.042-0.004-0.066c-0.027-0.12-0.077-0.252-0.145-0.392c-0.004-0.009-0.005-0.017-0.009-0.026
	c-0.075-0.149-0.173-0.308-0.296-0.478c-0.117-0.161-0.104-0.472-0.052-0.688c0.216-0.884-0.495-1.134-0.998-1.076
	c-1.177,0.135-2.17-0.36-3.237-0.622c-0.593-0.146-1.2-0.417-1.599,0.521c-0.257,0.604-1.204,1.047-1.733,0.667
	c-0.813-0.583-1.375-0.225-1.865,0.193c-0.612,0.519-1.371,0.859-1.906,1.376c-0.7,0.672,0.363,1.389,0.413,2.138
	c0.002,0.033-0.063,0.069-0.211,0.23c-0.493-0.67-1.237-0.734-1.984-0.637c-1.462,0.192-2.813,1.333-4.406,0.485
	c-0.146-0.076-0.587,0.061-0.635,0.19c-0.301,0.825-0.621,0.516-1.027,0.095c-0.332-0.343-0.865-0.517-1.145-0.119
	c-0.242,0.343-0.436,0.887-0.163,1.378C6.552,19.88,9.731,20.708,10.369,20.336z"/>
</svg>
