<?xml version="1.0" encoding="iso-8859-1"?>
<!-- Generator: Adobe Illustrator 16.0.0, SVG Export Plug-In . SVG Version: 6.00 Build 0)  -->
<!DOCTYPE svg PUBLIC "-//W3C//DTD SVG 1.1//EN" "http://www.w3.org/Graphics/SVG/1.1/DTD/svg11.dtd">
<svg version="1.1" id="Layer_1" xmlns="http://www.w3.org/2000/svg" xmlns:xlink="http://www.w3.org/1999/xlink" x="0px" y="0px"
	 width="32px" height="32px" viewBox="0 0 32 32" style="enable-background:new 0 0 32 32;" xml:space="preserve">
<path style="fill-rule:evenodd;clip-rule:evenodd;fill:#121111;" d="M12.531,20.77c0.034,0.347,0.418,0.701,0.878,0.655
	c1.011-0.101,1.453,0.577,1.932,1.283c0.467,0.687,1.003,1.328,1.527,1.977c0.643,0.795,1.316,0.767,2.162,0.213
	c2.067-1.347,1.914-3.72,2.701-5.653c0.063-0.153-0.149-0.451-0.283-0.648c-0.931-1.369-0.679-3.019-1.084-4.513
	c-0.125-0.456,0.222-0.743,0.549-0.948c1.194-0.76,2.406-1.49,3.933-2.429c-0.144,2.637,0.05,4.893,0.828,7.09
	c0.544,1.54,1.455,2.281,3.084,2.161c0.93-0.069,1.472-0.379,0.719-1.345c-0.458-0.588-0.506-1.296-0.484-1.962
	c0.063-1.85-0.686-3.421-1.487-5.001c-0.342-0.677-0.752-1.129-1.58-1.019c-0.58,0.078-0.873-0.04-0.807-0.785
	c0.119-1.354-0.227-1.568-1.455-1.004c-1.65,0.757-3.23,1.631-4.591,2.867c-1.537,1.396-3.317,2.396-5.203,3.271
	c-1.617,0.752-3.335,0.717-5.501,0.894C10.812,17.029,12.297,18.398,12.531,20.77z"/>
</svg>
