<?xml version="1.0" encoding="iso-8859-1"?>
<!-- Generator: Adobe Illustrator 16.0.0, SVG Export Plug-In . SVG Version: 6.00 Build 0)  -->
<!DOCTYPE svg PUBLIC "-//W3C//DTD SVG 1.1//EN" "http://www.w3.org/Graphics/SVG/1.1/DTD/svg11.dtd">
<svg version="1.1" id="Layer_1" xmlns="http://www.w3.org/2000/svg" xmlns:xlink="http://www.w3.org/1999/xlink" x="0px" y="0px"
	 width="32px" height="32px" viewBox="0 0 32 32" style="enable-background:new 0 0 32 32;" xml:space="preserve">
<path style="fill-rule:evenodd;clip-rule:evenodd;fill:#121111;" d="M20.556,10.582c-0.456,0.128-0.767,0.161-0.689-0.469
	c0.21-1.704-0.374-2.461-2.077-2.658c-0.291-0.036-0.64,0.063-0.824-0.196c-1.35-1.91-3.59-1.427-5.426-2.016
	c-1.05-0.339-1.613,0.108-1.592,1.33c0.055,3.099,0.033,6.197,0.005,9.296c-0.008,0.665,0.117,1.088,0.828,1.307
	c0.668,0.203,1.261,0.605,1.259,1.436c-0.003,2.109,0.15,4.237-0.104,6.314c-0.146,1.189-0.008,1.533,1.141,1.387
	c0.291-0.036,0.589-0.005,0.884-0.005c0.245,0,0.505,0.05,0.735-0.01c1.064-0.264,2.788,0.55,2.706-1.629
	c-0.007-0.221,0.205-0.144,0.327-0.186c1.542-0.499,2.284-1.846,2.729-3.155c0.295-0.867,0.753-1.356,1.414-1.42
	c1.789-0.165,2.294-1.488,2.469-2.813c0.148-1.124,0.637-1.872,1.389-2.558c0.632-0.576,0.812-1.264,0.42-1.98
	C25.7,11.732,21.538,10.312,20.556,10.582z"/>
</svg>
