<?xml version="1.0" encoding="iso-8859-1"?>
<!-- Generator: Adobe Illustrator 16.0.0, SVG Export Plug-In . SVG Version: 6.00 Build 0)  -->
<!DOCTYPE svg PUBLIC "-//W3C//DTD SVG 1.1//EN" "http://www.w3.org/Graphics/SVG/1.1/DTD/svg11.dtd">
<svg version="1.1" id="Layer_1" xmlns="http://www.w3.org/2000/svg" xmlns:xlink="http://www.w3.org/1999/xlink" x="0px" y="0px"
	 width="32px" height="32px" viewBox="0 0 32 32" style="enable-background:new 0 0 32 32;" xml:space="preserve">
<path style="fill-rule:evenodd;clip-rule:evenodd;fill:#121111;" d="M21.408,27.498c0.375,0.034,0.747,0.137,1.04-0.308
	c0.324-0.496,0.063-0.815-0.189-1.165c-0.539-0.743-1.475-1.068-1.994-2.226c-0.23,0.804-0.391,1.216-0.461,1.644
	C19.638,26.439,20.401,27.406,21.408,27.498z"/>
<path style="fill-rule:evenodd;clip-rule:evenodd;fill:#121111;" d="M8.313,10.91c0.879-0.209,1.521-0.717,2.006-1.39
	C10.076,8.915,9.63,8.465,9.202,8.682c-0.678,0.342-1.881,0.176-1.813,1.451C7.418,10.68,7.638,11.071,8.313,10.91z"/>
<path style="fill-rule:evenodd;clip-rule:evenodd;fill:#121111;" d="M27.58,16.596c-1.167-0.254-0.766,0.855-0.998,1.328
	c-0.27,0.546,0.389,0.812,0.764,0.809c0.711-0.005,1.417-0.317,1.46-1.146C28.842,16.872,28.292,16.596,27.58,16.596z"/>
<path style="fill-rule:evenodd;clip-rule:evenodd;fill:#121111;" d="M15.531,14.363c0.609-1.043,1.647-0.047,2.474-0.603
	c-0.81-0.802-1.811-0.377-2.599-0.786c-0.279-0.145-0.615,0.116-0.531,0.457C14.974,13.819,15.461,14.483,15.531,14.363z"/>
<path style="fill-rule:evenodd;clip-rule:evenodd;fill:#121111;" d="M14.983,28.301c0.579-0.024,0.864-0.346,0.881-0.917
	c-0.182-0.423-0.215-1.02-0.896-0.898c-0.533,0.097-1.095,0.336-1.007,0.981C14.027,27.936,14.404,28.324,14.983,28.301z"/>
<path style="fill-rule:evenodd;clip-rule:evenodd;fill:#121111;" d="M24.749,25.695c0.495-0.044,0.655-0.351,0.603-0.843
	c0.036-0.434-0.17-0.745-0.647-0.742c-0.563,0.004-0.498,0.473-0.548,0.851C24.098,25.421,24.192,25.747,24.749,25.695z"/>
<path style="fill-rule:evenodd;clip-rule:evenodd;fill:#121111;" d="M9.424,11.616c0.002,0.353,0.434,0.455,0.823,0.457
	c0.313-0.063,0.831,0.071,0.766-0.527c-0.035-0.32-0.216-0.715-0.644-0.632C9.969,10.991,9.421,11.096,9.424,11.616z"/>
<path style="fill-rule:evenodd;clip-rule:evenodd;fill:#121111;" d="M26.976,13.621c0.238-0.788,0.262-1.441-0.067-2.027
	c-0.118-0.209-0.502,0.013-0.576,0.214C26.07,12.503,26.279,13.071,26.976,13.621z"/>
</svg>
