<?xml version="1.0" encoding="iso-8859-1"?>
<!-- Generator: Adobe Illustrator 16.0.0, SVG Export Plug-In . SVG Version: 6.00 Build 0)  -->
<!DOCTYPE svg PUBLIC "-//W3C//DTD SVG 1.1//EN" "http://www.w3.org/Graphics/SVG/1.1/DTD/svg11.dtd">
<svg version="1.1" id="Layer_1" xmlns="http://www.w3.org/2000/svg" xmlns:xlink="http://www.w3.org/1999/xlink" x="0px" y="0px"
	 width="32px" height="32px" viewBox="0 0 32 32" style="enable-background:new 0 0 32 32;" xml:space="preserve">
<path style="fill-rule:evenodd;clip-rule:evenodd;fill:#121111;" d="M11.514,25.772c0.271-2.229,1.554-2.439,3.265-2.04
	c0.478,0.112,0.746-0.218,0.835-0.849c0.25-1.728,1.329-2.167,2.631-1.118c0.406,0.328,0.819,0.515,1.29,0.605
	c1.144,0.219,2.124-0.061,3.281-0.407c1.864-0.559,3.905-1.424,6.03-0.8c0.301,0.088,0.976-0.12,0.995-0.262
	c0.058-0.393,0-0.901-0.474-1.122c-0.609-0.285-0.79-0.991-1.184-1.328c-0.976-0.829-1.653-1.943-2.751-2.649
	c-0.833-0.537-1.99-0.829-1.635-2.399c0.211-0.931-0.716-1.768-1.534-2.119c-0.762-0.326-1.314,0.317-1.853,0.998
	c-0.925,1.167-1.962,2.359-3.741,2.176c-0.213-0.021-0.633,0.117-0.641,0.208c-0.199,2.385-2.57,1.076-3.547,2.104
	c-3.038-0.525-4.59,3.08-3.273,5.532C9.848,23.491,11.163,24.197,11.514,25.772z"/>
</svg>
