<?xml version="1.0" encoding="iso-8859-1"?>
<!-- Generator: Adobe Illustrator 16.0.0, SVG Export Plug-In . SVG Version: 6.00 Build 0)  -->
<!DOCTYPE svg PUBLIC "-//W3C//DTD SVG 1.1//EN" "http://www.w3.org/Graphics/SVG/1.1/DTD/svg11.dtd">
<svg version="1.1" id="Layer_1" xmlns="http://www.w3.org/2000/svg" xmlns:xlink="http://www.w3.org/1999/xlink" x="0px" y="0px"
	 width="32px" height="32px" viewBox="0 0 32 32" style="enable-background:new 0 0 32 32;" xml:space="preserve">
<path style="fill-rule:evenodd;clip-rule:evenodd;fill:#121111;" d="M27.087,14.738c-0.704-0.099-1.099-0.625-1.523-1.081
	c-1.947-2.106-4.086-4.088-4.702-7.179c-1.267,1.44-2.618,1.397-3.922,0.203c-0.874-0.799-2.101-1.302-3.191-0.907
	c-0.988,0.357-1.75,0.303-2.637-0.063C9.57,5.075,7.959,4.081,6.741,6.243c-0.057,0.101-0.256,0.122-0.388,0.18
	c0,0.099,0,0.197,0,0.296C6.887,7.328,8.479,7.29,7.521,8.806c-1.342,2.123-0.657,3.908,1.744,4.629
	c0.442,0.134,0.794,0.3,1.112,0.634c0.926,0.972,1.562,0.826,2.329-0.263c0.339-0.482-0.45-0.943,0.164-1.292
	c0.597,0.255,1.358,0.622,1.28,1.247c-0.184,1.463,0.827,1.537,1.739,1.827c1.55,0.497,2.946,1.283,4.172,2.347
	c0.678,0.587,0.973,1.328,0.612,2.236c-0.613,1.542-0.428,1.856,1.262,2.255c0.319,0.075,0.706,0.392,0.937,0.054
	c0.26-0.382-0.077-0.724-0.361-1.009c-0.137-0.14-0.255-0.296-0.382-0.445c0.075-0.066,0.149-0.134,0.224-0.203
	c0.62,0.142,1.361,0.37,1.381,1.032c0.033,1.129,0.799,1.662,1.453,2.327c0.057,0.125,0.114,0.25,0.171,0.373
	c0.262-0.156,0.162-0.363,0.078-0.566c-0.251-0.567-1.031-1.11,0.112-1.662c0.485-0.236,0.354-0.88,0.104-1.322
	c-0.303-0.537-0.219-0.953,0.298-1.239c0.956-0.528,0.416-0.925-0.123-1.236c-1.121-0.651-0.61-1.689-0.499-2.5
	c0.098-0.719,0.755-1.031,1.526-0.505c0.212,0.144,0.505-0.026,0.592-0.276C27.539,14.974,27.332,14.771,27.087,14.738z
	 M10.748,11.404c0.01-0.048,0.021-0.096,0.03-0.146c-0.01,0.051-0.02,0.099-0.03,0.149L10.748,11.404L10.748,11.404
	c-0.034-0.051-0.068-0.101-0.102-0.154C10.68,11.304,10.714,11.354,10.748,11.404z M10.782,11.467
	c0.889-0.063,1.458,0.396,1.824,1.179C12.24,11.863,11.671,11.407,10.782,11.467z"/>
</svg>
