<?xml version="1.0" encoding="iso-8859-1"?>
<!-- Generator: Adobe Illustrator 16.0.0, SVG Export Plug-In . SVG Version: 6.00 Build 0)  -->
<!DOCTYPE svg PUBLIC "-//W3C//DTD SVG 1.1//EN" "http://www.w3.org/Graphics/SVG/1.1/DTD/svg11.dtd">
<svg version="1.1" id="Layer_1" xmlns="http://www.w3.org/2000/svg" xmlns:xlink="http://www.w3.org/1999/xlink" x="0px" y="0px"
	 width="32px" height="32px" viewBox="0 0 32 32" style="enable-background:new 0 0 32 32;" xml:space="preserve">
<path style="fill-rule:evenodd;clip-rule:evenodd;fill:#121111;" d="M27.641,18.16c-0.17-0.597-0.584-1.309-1.251-1.49
	c-0.5-0.134-0.958-0.535-1.535-0.377c-0.354,0.097-0.648-0.144-0.696-0.394c-0.274-1.384-1.698-0.603-2.356-1.28
	c-0.148-0.151-0.25,0.202-0.204,0.38c0.178,0.688-0.591,0.862-0.725,0.762c-0.426-0.319-0.976-0.656-1.033-1.153
	c0.196-0.355,0.353-0.627,0.166-0.706c-1.417-0.596-2.822-1.354-4.302-1.566c-0.385-0.055-1.014,0.617-1.596-0.108
	c-0.093-0.115-0.54-0.12-0.667-0.004c-1.481,1.348-3.354,1.859-5.193,2.39c-0.538,0.153-0.861,1.062-1.604,0.495
	c-0.24,0.771,0.328,1.081,0.818,1.44c0.171,0.125,0.212,0.299,0.16,0.514c-0.227,0.962,0.424,1.53,1.041,2.016
	c1.137,0.894,2.354,1.679,3.514,2.536c1.15,0.855,2.366,0.892,3.132-0.223c0.587-0.848,1.18-0.921,1.879-0.499
	c1.371,0.825,3.063,0.218,4.414,1.063c0.064,0.04,0.357-0.133,0.421-0.265c0.24-0.519,0.646-0.497,1.112-0.454
	c1.039,0.099,1.771-0.514,2.269-1.28c0.346-0.533,0.879-0.761,1.264-1.188C26.952,18.452,27.813,18.766,27.641,18.16z"/>
</svg>
