<?xml version="1.0" encoding="iso-8859-1"?>
<!-- Generator: Adobe Illustrator 16.0.0, SVG Export Plug-In . SVG Version: 6.00 Build 0)  -->
<!DOCTYPE svg PUBLIC "-//W3C//DTD SVG 1.1//EN" "http://www.w3.org/Graphics/SVG/1.1/DTD/svg11.dtd">
<svg version="1.1" id="Layer_1" xmlns="http://www.w3.org/2000/svg" xmlns:xlink="http://www.w3.org/1999/xlink" x="0px" y="0px"
	 width="32px" height="32px" viewBox="0 0 32 32" style="enable-background:new 0 0 32 32;" xml:space="preserve">
<path style="fill:#121111;" d="M27.002,21.165c-0.329-0.187-0.639-0.334-0.841,0.12c-0.226,0.507,0.132,0.734,0.522,0.845
	c0.271,0.077,0.574,0.024,0.862,0.032c0-0.297,0-0.592,0-0.887C27.365,21.241,27.154,21.253,27.002,21.165z"/>
<path style="fill:#121111;" d="M7.667,20.494c0.298,0.132,0.341,0.624,0.223,1.064c-0.196,0.731,0.116,1.01,0.914,1.248
	c1.186,0.354,2.264,0.104,3.386-0.061c0.497,0.063,0.918,0.015,0.909-0.643c0.285,0.006,0.573,0.008,0.861,0.011
	c0.084,0.192,0.171,0.385,0.257,0.577c-0.233-0.006-0.466-0.01-0.696-0.016c0.005,0.086-0.023,0.221,0.02,0.254
	c0.287,0.2,0.545,0.121,0.766-0.131c0.267-0.016,0.533-0.029,0.8-0.042c0.766,1.275,1.482,1.4,2.47,0.435
	c0.708-0.289,1.414-0.58,2.116-0.865c-0.35-0.629-0.85-0.271-1.324-0.186c0.076-0.828,1.617-1.053,0.632-2.041
	c-0.017-0.018,0.092-0.222,0.13-0.219c1.467,0.129,0.667-0.842,0.723-1.428c0.054-0.549,0.072-0.996-0.646-1.018
	c-0.659-0.019-1.317,0.08-1.444,0.842c-0.06,0.363-0.057,0.648-0.455,0.83c-0.235-1.896-0.816-0.705-1.372-0.19
	c-0.248,0.229-1.105,0.168-0.86,0.427c0.592,0.631,0.053,1.939,1.084,2.045c1.021,0.105,0.991,0.734,1.13,1.383
	c-0.755,0.229-1.306-0.637-2.067-0.389c-0.062-0.367-0.023-0.807-0.583-0.824c-0.257-2.02-0.507-2.188-2.486-1.75
	c-0.168,0.035-0.351,0.015-0.53,0.015c0.002-0.015,0-0.026,0.002-0.044c0.002-0.002,0.005-0.006,0.007-0.01
	c0.644-0.711,0.892-1.808,1.667-2.396c0.024-0.019,0.041-0.038,0.063-0.054c0.109-0.076,0.239-0.133,0.371-0.186
	c0.039-0.017,0.07-0.041,0.11-0.053c0.181-0.061,0.382-0.1,0.612-0.107c0.327-0.018,0.443-0.482,0.399-0.854
	c-0.043-0.387-0.331-0.457-0.637-0.432c-1.535,0.125-1.368-1.107-1.063-1.759c0.499-1.066,0.482-2.128,0.571-3.212
	c-0.003,0-0.003,0-0.005,0l0,0c-0.091,0.004-0.185,0.013-0.278,0.018c-0.102,0.008-0.201,0.008-0.305,0.02
	c-0.092,0.012-0.177,0.035-0.265,0.052c-0.101,0.02-0.207,0.031-0.303,0.061c-0.138,0.041-0.258,0.101-0.378,0.163
	c-0.04,0.02-0.085,0.029-0.122,0.051c-0.148,0.091-0.278,0.204-0.38,0.341c-0.852,1.17-1.86,1.728-3.293,1.739
	c-0.797,0.008-1.412,0.521-1.541,1.328c-0.168,1.045,1.013,0.313,1.313,0.857c-0.364,0.538-0.691-0.017-1.016,0.003
	c-0.444,0.028-0.879,0.117-0.764,0.627C6.732,17.497,5.397,19.493,7.667,20.494z"/>
</svg>
