<?xml version="1.0" encoding="iso-8859-1"?>
<!-- Generator: Adobe Illustrator 16.0.0, SVG Export Plug-In . SVG Version: 6.00 Build 0)  -->
<!DOCTYPE svg PUBLIC "-//W3C//DTD SVG 1.1//EN" "http://www.w3.org/Graphics/SVG/1.1/DTD/svg11.dtd">
<svg version="1.1" id="Layer_1" xmlns="http://www.w3.org/2000/svg" xmlns:xlink="http://www.w3.org/1999/xlink" x="0px" y="0px"
	 width="32px" height="32px" viewBox="0 0 32 32" style="enable-background:new 0 0 32 32;" xml:space="preserve">
<path style="fill-rule:evenodd;clip-rule:evenodd;fill:#121111;" d="M27.348,16.188c-0.975-0.773-1.949-1.483-3.195-1.724
	c-1.142-0.219-2.285-0.434-3.428-0.648c-0.008-0.113-0.015-0.227-0.023-0.342c0.483,0,0.965,0.015,1.447-0.005
	c0.253-0.012,0.52-0.125,0.538-0.403c0.027-0.411-0.341-0.444-0.617-0.449c-0.539-0.01-1.081,0.023-1.617,0.077
	c-0.573,0.058-1.064-0.181-1.141-0.694c-0.189-1.249-0.828-1.611-2.015-1.367c-0.275,0.059-0.61-0.29-0.935-0.343
	c-1.426-0.229-2.629-1.376-4.144-1.105c-0.736,0.133-1.38,0.21-2.136,0.015c-1.229-0.316-1.856,0.563-1.907,1.854
	c-0.047,1.198,1.046,2.505-0.232,3.624c-0.048,0.044-0.047,0.212-0.003,0.281c0.828,1.34-0.188,1.725-1.098,2.059
	c0.125,0.972,1.455,1.21,1.286,2.072c-0.197,1.007,0.42,1.674,0.638,2.489c0.224,0.837,1.464,1.309,1.81,0.809
	c0.556-0.804,1.117-1.621,1.528-2.501c0.501-1.08,1.797-1.654,2.768-0.95c0.922,0.67,2.012,0.547,2.604,0.045
	c1.723-1.464,3.645-0.726,5.475-0.792c0.576-0.021,1.431-0.25,1.819,0.298c1.161,1.638,1.859,0.129,2.575-0.38
	C28.044,17.61,28.25,16.904,27.348,16.188z"/>
</svg>
