<?xml version="1.0" encoding="iso-8859-1"?>
<!-- Generator: Adobe Illustrator 16.0.0, SVG Export Plug-In . SVG Version: 6.00 Build 0)  -->
<!DOCTYPE svg PUBLIC "-//W3C//DTD SVG 1.1//EN" "http://www.w3.org/Graphics/SVG/1.1/DTD/svg11.dtd">
<svg version="1.1" id="Layer_1" xmlns="http://www.w3.org/2000/svg" xmlns:xlink="http://www.w3.org/1999/xlink" x="0px" y="0px"
	 width="32px" height="32px" viewBox="0 0 32 32" style="enable-background:new 0 0 32 32;" xml:space="preserve">
<path style="fill-rule:evenodd;clip-rule:evenodd;fill:#121111;" d="M23.798,15.335c-0.1-0.529-0.013-0.757-0.617-0.699
	c-1.117,0.106-0.91-0.614-0.498-1.065c0.704-0.771,0.417-1.27-0.203-1.828c-0.4-0.36-0.804-0.729-1.137-1.148
	c-1.194-1.5-3.023-0.946-4.497-1.146c-0.893-0.122-2.535,0.651-2.534,2.356c0,0.266-0.246,0.348-0.376,0.511
	c-1.161,1.449-2.317,2.931-2.538,4.861c-0.068,0.595,0.13,1.208-0.84,1.126c-0.388-0.032-0.554,0.41-0.608,0.725
	c-0.069,0.414,0.37,0.356,0.61,0.467c0.833,0.383,1.564,1.046,1.824,1.814c0.87,2.571,3.187,3.065,5.245,3.96
	c1.686,0.733,2.997-0.997,4.798-0.654c1.357,0.259,2.652-1.509,4.347-1.198c0.144,0.026,0.356-0.293,0.531-0.458
	c1.278-1.205,2.556-2.41,3.833-3.615c-2.086-0.336-3.728-1.164-5.415-1.77C24.745,17.224,23.988,16.337,23.798,15.335z"/>
</svg>
