<?xml version="1.0" encoding="iso-8859-1"?>
<!-- Generator: Adobe Illustrator 16.0.0, SVG Export Plug-In . SVG Version: 6.00 Build 0)  -->
<!DOCTYPE svg PUBLIC "-//W3C//DTD SVG 1.1//EN" "http://www.w3.org/Graphics/SVG/1.1/DTD/svg11.dtd">
<svg version="1.1" id="Layer_1" xmlns="http://www.w3.org/2000/svg" xmlns:xlink="http://www.w3.org/1999/xlink" x="0px" y="0px"
	 width="32px" height="32px" viewBox="0 0 32 32" style="enable-background:new 0 0 32 32;" xml:space="preserve">
<path style="fill-rule:evenodd;clip-rule:evenodd;fill:#121111;" d="M13.772,25.476c1.47-0.296,2.919-0.701,4.395-0.956
	c0.739-0.125,1.335-0.349,1.96-0.807c1.156-0.846,2.141-1.862,3.186-2.814c1.066-0.979,1.006-1.36-0.202-2.266
	c-0.247-0.188-0.851-0.377-0.586-0.666c0.829-0.898-0.177-1.47-0.419-1.997c-0.214-0.462-0.333-0.947-0.178-1.226
	c0.555-1.004,0.106-1.792-0.438-2.518c-0.486-0.648-0.448-1.134,0.152-1.608c0.741-0.584,0.49-1.199-0.152-1.482
	C19.82,8.4,20.492,7.322,21.003,6.307c0.163-0.327,0.481-0.644,0.088-0.839c-0.704-0.349-1.271-1.061-2.193-0.902
	c-1.107,0.188-2.118,0.535-2.219,1.856c-0.063,0.814-0.833,1.275-1.177,1.142c-1.228-0.477-2.914,0.636-3.779-1.122
	c-0.19-0.385-0.696-0.309-1.085,0.137c-0.52,0.59,0.102,0.665,0.328,0.821c0.478,0.329,0.995,0.631,1.539,0.826
	c0.818,0.29,1.318,0.711,1.309,1.667c-0.009,0.9,0.572,1.686,0.295,2.723c-0.166,0.62,0.641,1.319,1.441,1.564
	c0.666,0.204,0.541,0.729,0.486,1.21c-0.031,0.271-0.186,0.278-0.347,0.082c-0.037-0.139-0.05-0.313-0.247-0.219
	c-0.077,0.036-0.142,0.132-0.177,0.217c-0.518,1.239-1.564,1.94-2.605,2.688c-1.351,0.968-2.478,2.082-1.355,3.958
	c0.123,0.207,0.002,0.574-0.043,0.865C11.086,24.102,12.654,25.698,13.772,25.476z"/>
</svg>
