<?xml version="1.0" encoding="iso-8859-1"?>
<!-- Generator: Adobe Illustrator 16.0.0, SVG Export Plug-In . SVG Version: 6.00 Build 0)  -->
<!DOCTYPE svg PUBLIC "-//W3C//DTD SVG 1.1//EN" "http://www.w3.org/Graphics/SVG/1.1/DTD/svg11.dtd">
<svg version="1.1" id="Layer_1" xmlns="http://www.w3.org/2000/svg" xmlns:xlink="http://www.w3.org/1999/xlink" x="0px" y="0px"
	 width="32px" height="32px" viewBox="0 0 32 32" style="enable-background:new 0 0 32 32;" xml:space="preserve">
<path style="fill-rule:evenodd;clip-rule:evenodd;fill:#121111;" d="M22.177,14.995c-0.33-0.29-1.01-0.749,0.153-0.889
	c0.615-0.075,0.491-0.675,0.442-1.045c-0.123-0.935-0.518-1.843-0.81-2.7c-0.392-1.152-0.682-2.199-0.409-3.364
	c0.088-0.377-0.1-0.73-0.31-0.587c-0.854,0.589-0.973-0.162-1.383-0.57c-0.601-0.599-1.267-0.747-2.076-0.125
	c-0.424,0.326-0.797,1.114-1.653,0.667c-0.871-0.101-1.846,0.452-2.065,1.012c-0.336,0.859-0.766,0.841-1.458,0.973
	c-0.862,0.163-0.186,1.146-0.61,1.664c-0.157,0.192-0.221,0.807,0.34,0.948c2.063,0.521,1.417,2.199,1.508,3.548
	c0.034,0.505-0.928,1.282,0.417,1.391c-0.021,0.195,0.251,0.565-0.166,0.531c-0.471-0.038-0.62,0.112-0.273,0.4
	c0.861,0.716,0.672,1.194-0.171,1.742c-0.643,0.417-0.708,1.261-0.664,1.863c0.113,1.537,0.261,3.127,0.979,4.521
	c0.414,0.805,1.363,1.402,2.164,1.443c0.85,0.041,0.567-1.126,0.857-1.727c0.623-1.292,0.438-3.138,2.406-3.536
	c0.201-0.038,0.467-0.295,0.507-0.492c0.234-1.148,1.16-1.549,2.027-2.085C23.681,17.492,23.718,16.342,22.177,14.995z"/>
</svg>
