<?xml version="1.0" encoding="iso-8859-1"?>
<!-- Generator: Adobe Illustrator 16.0.0, SVG Export Plug-In . SVG Version: 6.00 Build 0)  -->
<!DOCTYPE svg PUBLIC "-//W3C//DTD SVG 1.1//EN" "http://www.w3.org/Graphics/SVG/1.1/DTD/svg11.dtd">
<svg version="1.1" id="Layer_1" xmlns="http://www.w3.org/2000/svg" xmlns:xlink="http://www.w3.org/1999/xlink" x="0px" y="0px"
	 width="32px" height="32px" viewBox="0 0 32 32" style="enable-background:new 0 0 32 32;" xml:space="preserve">
<path style="fill-rule:evenodd;clip-rule:evenodd;fill:#121111;" d="M22.105,22.604c0.562-0.25,0.774-0.57,0.843-1.183
	c0.514-4.575,0.706-9.191,1.68-13.715c0.101-0.465,0.179-0.96-0.596-1.26c-2.577-1.004-5.017-1.744-6.784,1.304
	c-0.072,0.123-0.195,0.222-0.311,0.313c-3.54,2.808-4.716,6.826-5.544,10.983c-0.436,2.184-0.25,4.537-2.128,6.233
	c-0.297,0.266-0.55,0.684-0.458,1.261c3.001-0.044,5.94-0.252,8.667-1.725C18.979,24.005,20.543,23.301,22.105,22.604z"/>
</svg>
