<?xml version="1.0" encoding="iso-8859-1"?>
<!-- Generator: Adobe Illustrator 16.0.0, SVG Export Plug-In . SVG Version: 6.00 Build 0)  -->
<!DOCTYPE svg PUBLIC "-//W3C//DTD SVG 1.1//EN" "http://www.w3.org/Graphics/SVG/1.1/DTD/svg11.dtd">
<svg version="1.1" id="Layer_1" xmlns="http://www.w3.org/2000/svg" xmlns:xlink="http://www.w3.org/1999/xlink" x="0px" y="0px"
	 width="32px" height="32px" viewBox="0 0 32 32" style="enable-background:new 0 0 32 32;" xml:space="preserve">
<path style="fill-rule:evenodd;clip-rule:evenodd;fill:#121111;" d="M20.695,18.943c-0.169-0.347-0.006-0.892-0.635-1.019
	c-0.792-0.162-1.103-0.887-1.45-1.509c-0.39-0.701,0.26-2.826,0.881-3.01c1.073-0.31,1.907-2.935,1.021-3.583
	c-1.028-0.752-1.795-1.982-3.248-2.082c-0.063-0.067-0.132-0.13-0.203-0.186c0.114-2.065-1.626-2.697-2.872-3.703
	c-1.144-0.927-1.434,0.489-2.126,0.799c-0.264,0.12-0.513,0.271-0.761,0.424c-0.425,0.259-0.771,0.614-0.707,1.136
	c0.067,0.548,0.205,1.114,1.062,0.975c-0.399,0.681-0.903,0.785-1.438,0.894C9.706,8.183,8.444,10.45,8.75,10.808
	c0.754,0.88,1.235,2.248,2.8,1.965c0.847-0.153,1.181,0.267,0.928,0.961c-0.273,0.754-0.018,0.889,0.577,1.292
	c0.411,0.281,0.98,1.085,0.376,2.006c-0.68,1.035-1.061,2.219-0.65,3.555c0.475,1.549,1.325,2.762,2.672,3.638
	c0.492,0,0.984,0,1.475,0c-0.011-0.481,0.189-0.856,0.686-0.907c1.612-0.163,2.927-1.585,4.692-1.1
	c0.111,0.028,0.265-0.099,0.409-0.156C21.587,21.296,21.242,20.063,20.695,18.943z"/>
</svg>
