<?xml version="1.0" encoding="iso-8859-1"?>
<!-- Generator: Adobe Illustrator 16.0.0, SVG Export Plug-In . SVG Version: 6.00 Build 0)  -->
<!DOCTYPE svg PUBLIC "-//W3C//DTD SVG 1.1//EN" "http://www.w3.org/Graphics/SVG/1.1/DTD/svg11.dtd">
<svg version="1.1" id="Layer_1" xmlns="http://www.w3.org/2000/svg" xmlns:xlink="http://www.w3.org/1999/xlink" x="0px" y="0px"
	 width="32px" height="32px" viewBox="0 0 32 32" style="enable-background:new 0 0 32 32;" xml:space="preserve">
<path style="fill-rule:evenodd;clip-rule:evenodd;fill:#121111;" d="M17.104,19.47c0.85,0.216,0.932-1.141,1.515-0.805
	c1.72,0.986,2.191-0.723,2.926-1.409c0.663-0.62,0.776-1.81,2.068-0.902c0.163,0.116,0.545-0.085,0.828-0.127
	c1.353-0.191,2.558-0.813,3.879-1.292c-0.471-0.461-0.652-1.315-1.576-0.903c-0.239,0.106-0.382,0.039-0.441-0.17
	c-0.48-1.686-1.984-1.835-3.31-2.051c-1.35-0.222-2.885-0.541-4.09-0.113c-1.703,0.604-3.382,0.733-4.978,0.344
	c-1.431-0.351-2.313,0.271-3.303,0.903c-0.782,0.497-1.469,1.147-2.252,1.647c-0.984,0.627-0.324,1.784-0.889,2.569
	c-0.125,0.176,3.112,1.79,3.598,1.691c0.651-0.133,1.674,0.344,1.641,0.417c-0.577,1.221,0.644,1.466,1.054,2.124
	c0.306,0.487,0.684,0.939,1.29,0.692c0.661-0.267,1.151-0.82,1.271-1.537C16.424,20.015,16.08,19.21,17.104,19.47z"/>
</svg>
