<?xml version="1.0" encoding="iso-8859-1"?>
<!-- Generator: Adobe Illustrator 16.0.0, SVG Export Plug-In . SVG Version: 6.00 Build 0)  -->
<!DOCTYPE svg PUBLIC "-//W3C//DTD SVG 1.1//EN" "http://www.w3.org/Graphics/SVG/1.1/DTD/svg11.dtd">
<svg version="1.1" id="Layer_1" xmlns="http://www.w3.org/2000/svg" xmlns:xlink="http://www.w3.org/1999/xlink" x="0px" y="0px"
	 width="32px" height="32px" viewBox="0 0 32 32" style="enable-background:new 0 0 32 32;" xml:space="preserve">
<path style="fill-rule:evenodd;clip-rule:evenodd;fill:#121111;" d="M7.318,19.934c1.221,0.176,2.338,0.581,3.43,1.183
	c2.562,1.404,4.687,3.383,6.992,5.122c1.362,1.028,2.918,0.675,4.393,0.755c0.997,0.052,1.173-1.028,1.559-1.739
	c0.304-0.558,0.791-0.752,1.355-0.55c0.523,0.187,1.035,0.187,1.761,0.177c-0.207-0.384-0.304-0.603-0.431-0.799
	c-0.639-0.98-1.434-1.857-1.155-3.219c0.186-0.901-0.54-1.573-1.174-2.008c-1.025-0.702-2.092-1.144-2.803-2.39
	c-1.057-1.855-1.278-2.063,0.144-3.743c0.567-0.667-0.324-1.393,0.24-1.99c-1.761-0.092-2.094-1.576-2.711-2.781
	c-0.128-0.25-0.177-0.644-0.551-0.563c-0.953,0.209-1.782-0.331-2.7-0.385c-0.886-0.05-4.304,1.609-4.605,2.458
	c-0.078,0.218-0.063,0.487-0.041,0.728c0.199,2.118,0.079,4.044-2.411,4.859c-0.686,0.224-1.31,0.665-1.925,1.063
	c-0.437,0.285-1.309,0.394-0.889,1.221C6.25,18.224,5.743,19.705,7.318,19.934z"/>
</svg>
