<?xml version="1.0" encoding="iso-8859-1"?>
<!-- Generator: Adobe Illustrator 16.0.0, SVG Export Plug-In . SVG Version: 6.00 Build 0)  -->
<!DOCTYPE svg PUBLIC "-//W3C//DTD SVG 1.1//EN" "http://www.w3.org/Graphics/SVG/1.1/DTD/svg11.dtd">
<svg version="1.1" id="Layer_1" xmlns="http://www.w3.org/2000/svg" xmlns:xlink="http://www.w3.org/1999/xlink" x="0px" y="0px"
	 width="32px" height="32px" viewBox="0 0 32 32" style="enable-background:new 0 0 32 32;" xml:space="preserve">
<path style="fill-rule:evenodd;clip-rule:evenodd;fill:#121111;" d="M12.135,27.794c2.971-0.389,5.75-1.218,7.909-3.468
	c1.129-1.178,2.315-1.951,4.146-1.516c1.511,0.355,2.32-0.865,1.65-2.229c-0.867-1.763-1.18-3.629-1.069-5.563
	c0.079-1.391-0.298-2.625-1.059-3.744c-0.771-1.132-1.653-2.19-2.424-3.324c-0.702-1.032-1.432-1.6-2.668-0.749
	c-0.335,0.228-0.863,0.297-1.28,0.254c-2.109-0.226-3.711,0.726-5.4,1.856c-1.375,0.926-1.111,1.782-0.629,2.908
	c0.229,0.537,0.732,0.602,1.166,0.801c0.481,0.223,0.616,0.614,0.511,1.095c-0.101,0.459-0.473,0.622-0.886,0.574
	c-1.574-0.181-1.579,0.882-1.425,1.897c0.105,0.708,0.391,1.43,0.761,2.047c0.582,0.967,0.551,1.878-0.06,2.749
	c-0.898,1.291-1.938,2.511-0.752,4.175c0.123,0.171,0.048,0.479,0.06,0.673C10.432,27.492,10.991,27.942,12.135,27.794z"/>
</svg>
