<?xml version="1.0" encoding="iso-8859-1"?>
<!-- Generator: Adobe Illustrator 16.0.0, SVG Export Plug-In . SVG Version: 6.00 Build 0)  -->
<!DOCTYPE svg PUBLIC "-//W3C//DTD SVG 1.1//EN" "http://www.w3.org/Graphics/SVG/1.1/DTD/svg11.dtd">
<svg version="1.1" id="Layer_1" xmlns="http://www.w3.org/2000/svg" xmlns:xlink="http://www.w3.org/1999/xlink" x="0px" y="0px"
	 width="32px" height="32px" viewBox="0 0 32 32" style="enable-background:new 0 0 32 32;" xml:space="preserve">
<path style="fill-rule:evenodd;clip-rule:evenodd;fill:#121111;" d="M28.98,13.454c-0.843-2.456-2.345-4.487-3.849-6.538
	c-0.399-0.545-0.809-0.683-1.477-0.642c-2.693,0.161-4.353,1.311-5.03,3.938c-0.423,1.639-1.185,2.832-2.76,3.484
	c-0.608,0.252-1.025,0.713-1.355,1.289c-1.151,2.015-1.42,4.237-1.476,6.486c-0.024,0.976,0.004,1.845-1.156,2.17
	c-0.348,0.097-0.596,0.271-0.48,0.74c0.199,0.809,2.466,2.818,3.321,2.852c2.725,0.105,5.439,0.32,8.123-0.552
	c2.141-0.696,3.801-1.716,4.117-4.145c0.067-0.522,0.266-0.971,0.735-1.204c1.779-0.883,2.122-2.404,1.867-4.155
	C29.871,15.833,29.398,14.67,28.98,13.454z"/>
</svg>
