<?xml version="1.0" encoding="iso-8859-1"?>
<!-- Generator: Adobe Illustrator 16.0.0, SVG Export Plug-In . SVG Version: 6.00 Build 0)  -->
<!DOCTYPE svg PUBLIC "-//W3C//DTD SVG 1.1//EN" "http://www.w3.org/Graphics/SVG/1.1/DTD/svg11.dtd">
<svg version="1.1" id="Layer_1" xmlns="http://www.w3.org/2000/svg" xmlns:xlink="http://www.w3.org/1999/xlink" x="0px" y="0px"
	 width="32px" height="32px" viewBox="0 0 32 32" style="enable-background:new 0 0 32 32;" xml:space="preserve">
<path style="fill-rule:evenodd;clip-rule:evenodd;fill:#121111;" d="M12.364,16.38c-1.27-0.099-2.552-0.012-3.829-0.026
	c-0.542-0.006-1.028,0.236-0.623,0.728C8.774,18.122,8.655,19.374,9,20.523c0.327,1.089,0.345,1.987-0.184,2.934
	c-0.322,0.577-0.65,1.14-0.36,1.763c0.522,0.03,0.404-0.514,0.809-0.626c1.837-0.509,3.29,0.093,4.647,1.412
	c0.463,0.451,1.247,2.857,2.492,0.46c0.03-0.059,0.218-0.111,0.24-0.086c0.714,0.839,1.481,0.045,2.209,0.042
	c2.203-0.01,4.404-0.161,6.606-0.223c1.163-0.032,1.398-0.747,0.936-1.54c-0.452-0.774-0.511-1.581-0.602-2.378
	c-0.368-3.212-0.643-6.436-0.978-9.651c-0.231-2.233-0.25-2.23,1.935-2.463c0.041-0.005,0.067-0.149,0.11-0.252
	c-1.834-1.195-3.669-2.39-5.681-3.7c-0.106,2.228-0.106,2.228-2.087,2.228c-0.05,0-0.098,0-0.147,0c-3.17,0-3.187,0-3.18,3.208
	c0.001,0.786-0.029,1.442-0.941,1.729c-0.647,0.204-0.91,0.738-0.782,1.399C14.319,16.211,13.612,16.476,12.364,16.38z"/>
</svg>
