<?xml version="1.0" encoding="iso-8859-1"?>
<!-- Generator: Adobe Illustrator 16.0.0, SVG Export Plug-In . SVG Version: 6.00 Build 0)  -->
<!DOCTYPE svg PUBLIC "-//W3C//DTD SVG 1.1//EN" "http://www.w3.org/Graphics/SVG/1.1/DTD/svg11.dtd">
<svg version="1.1" id="Layer_1" xmlns="http://www.w3.org/2000/svg" xmlns:xlink="http://www.w3.org/1999/xlink" x="0px" y="0px"
	 width="32px" height="32px" viewBox="0 0 32 32" style="enable-background:new 0 0 32 32;" xml:space="preserve">
<path style="fill-rule:evenodd;clip-rule:evenodd;fill:#121111;" d="M16.562,16.862c0.533-0.072,1.072-0.245,1.597-0.207
	c1.124,0.082,2.276-0.555,2.417-1.292c0.345-1.794,1.456-3.23,1.869-4.952c0.213-0.887,1.952-1.617,2.695-1.15
	c0.27,0.17,0.518,0.208,0.824,0.071c0.374-0.168,0.259-0.458,0.272-0.744C26.276,7.742,25.69,7,25.851,6.138
	c0.142-0.759-0.334-1.042-1.097-1.285c0.178,0.925-0.094,1.346-0.954,1.516c-2.316,0.464-3.709,1.777-4.314,4.198
	c-0.293,1.172-0.918,2.822-2.902,2.34c-0.133-0.034-0.348,0.163-0.492,0.291c-1.564,1.397-3.092,2.841-4.7,4.188
	c-0.634,0.53-0.985,1.09-0.815,1.876c0.18,0.831-0.186,1.131-0.902,1.481c-1.382,0.673-1.372,1.351-0.15,2.236
	c0.912,0.663,1.881,1.275,2.682,2.059c1.033,1.009,1.77,1.081,2.826-0.058c1.113-1.201,1.157-1.555-0.38-2.133
	c-0.326-0.123-0.708-0.315-0.559-0.716c0.192-0.521,0.523-0.171,0.802-0.015c1.136,0.642,2.101,0.543,3.241-0.247
	c1.548-1.071,1.818-1.583,0.936-3.291c-0.276,0.99-1.099,0.65-1.785,0.653c-0.674,0.005-0.834-0.26-0.553-0.879
	c0.091-0.199,0.013-0.526-0.333-0.505c-0.472,0.029-0.624-0.18-0.534-0.606C15.947,16.853,16.28,16.903,16.562,16.862z"/>
</svg>
