<?xml version="1.0" encoding="iso-8859-1"?>
<!-- Generator: Adobe Illustrator 16.0.0, SVG Export Plug-In . SVG Version: 6.00 Build 0)  -->
<!DOCTYPE svg PUBLIC "-//W3C//DTD SVG 1.1//EN" "http://www.w3.org/Graphics/SVG/1.1/DTD/svg11.dtd">
<svg version="1.1" id="Layer_1" xmlns="http://www.w3.org/2000/svg" xmlns:xlink="http://www.w3.org/1999/xlink" x="0px" y="0px"
	 width="32px" height="32px" viewBox="0 0 32 32" style="enable-background:new 0 0 32 32;" xml:space="preserve">
<path style="fill-rule:evenodd;clip-rule:evenodd;fill:#121111;" d="M28.753,18.657c-1.554,0.79-2.846-0.467-4.33-0.476
	c-1.758-0.013-3.298-1.331-4.89-2.177c-0.528-0.278-0.469-1.167-0.999-1.174c-1.85-0.021-2.897-1.516-4.343-2.256
	c-0.814-0.417-1.484-1.692-2.426-0.759c-0.728,0.726-1.821,0.092-2.388,1.089c-0.394,0.693-0.537,1.477-0.937,2.12
	c-0.658,1.062-0.067,1.473,0.768,1.687c0.829,0.211,1.436,0.731,2.139,1.134c1.861,1.063,3.687,2.237,5.984,2.242
	c0.75,0,1.671-0.412,2.271,0.233c0.874,0.937,1.859,1.299,3.097,1.681c1.688,0.524,3.376,0.646,4.771,0.971
	c1.973-0.099,2.034-0.192,1.622-1.893c-0.145-0.591-0.048-1.155,0.189-1.717C29.491,18.869,29.17,18.445,28.753,18.657z"/>
</svg>
