<?xml version="1.0" encoding="iso-8859-1"?>
<!-- Generator: Adobe Illustrator 16.0.0, SVG Export Plug-In . SVG Version: 6.00 Build 0)  -->
<!DOCTYPE svg PUBLIC "-//W3C//DTD SVG 1.1//EN" "http://www.w3.org/Graphics/SVG/1.1/DTD/svg11.dtd">
<svg version="1.1" id="Layer_1" xmlns="http://www.w3.org/2000/svg" xmlns:xlink="http://www.w3.org/1999/xlink" x="0px" y="0px"
	 width="32px" height="32px" viewBox="0 0 32 32" style="enable-background:new 0 0 32 32;" xml:space="preserve">
<path style="fill-rule:evenodd;clip-rule:evenodd;fill:#121111;" d="M21.696,19.745c0.303,0.013,0.55-0.12,0.505-0.536
	c-0.065-0.62,0.367-0.999,0.795-1.313c0.665-0.49,0.965-1.213,1.357-1.886c0.722-1.239-0.804-1.032-1.11-1.659
	c-0.421-0.857-0.994-1.782-2.241-1.842c-1.577-0.077-2.824-0.813-3.461-2.309c-0.235-0.553-0.485-0.27-0.757-0.188
	c-1.197-0.615-0.646,0.464-0.812,0.821c-0.146,0.322,0.399,0.629,0.06,0.971c-1.353,1.364-1.577,2.395-0.729,3.989
	c0.269,0.502,0.202,0.92,0.067,1.386c-0.971,3.396-0.971,3.398-4.377,4.587c-0.736,0.257-1.481,0.493-2.229,0.726
	c-0.558,0.174-0.819,0.373-0.466,1.035c0.66,1.247,1.221,2.546,1.801,3.833c0.108,0.238,0.233,0.527,0.485,0.464
	c1.353-0.336,2.688-0.744,4.091-0.854c0.064-0.005,0.166-0.142,0.176-0.223c0.117-1.336,1.082-1.555,2.149-1.648
	c0.465-0.039,0.687-0.346,0.759-0.766c0.151-0.889,0.793-1.23,1.568-1.275c0.749-0.047,0.948-0.219,0.874-1.058
	C20.115,20.998,19.948,19.668,21.696,19.745z"/>
</svg>
