<?xml version="1.0" encoding="iso-8859-1"?>
<!-- Generator: Adobe Illustrator 16.0.0, SVG Export Plug-In . SVG Version: 6.00 Build 0)  -->
<!DOCTYPE svg PUBLIC "-//W3C//DTD SVG 1.1//EN" "http://www.w3.org/Graphics/SVG/1.1/DTD/svg11.dtd">
<svg version="1.1" id="Layer_1" xmlns="http://www.w3.org/2000/svg" xmlns:xlink="http://www.w3.org/1999/xlink" x="0px" y="0px"
	 width="32px" height="32px" viewBox="0 0 32 32" style="enable-background:new 0 0 32 32;" xml:space="preserve">
<path style="fill-rule:evenodd;clip-rule:evenodd;fill:#121111;" d="M15.096,20.17c0.64,0.237,0.555,0.749,0.553,1.301
	c-0.005,1.512,0.183,3.027-0.63,4.552c1.635-0.341,1.81-0.339,3.279-0.019c1.519,0.328,2.304-0.354,2.186-1.854
	c-0.071-0.915,0.406-1.65,1.105-2.107c0.583-0.376,0.937-0.453,0.153-1.039c-0.809-0.608-1.042-1.391-0.092-2.2
	c0.39-0.329,0.865-0.891,0.2-1.338c-0.816-0.548-0.795-1.511-1.497-2.284c0.974,0.091,2.065,0.122,2.016-0.831
	c-0.067-1.275,0.872-2.438,0.396-3.63c-0.423-1.059,0.144-1.493,0.766-2.061c0.665-0.604,2.289-0.813,0.373-2.248
	c-0.882-0.66-1.813-1.113-2.335-0.743c-1.078,0.759-2.149-0.2-3.115,0.354c-0.146,0.082-0.418,0.002-0.377-0.271
	c0.16-1.1-0.423-1.052-1.127-0.715c-0.734,0.35-1.782,0.408-1.359,1.772c1.05,3.381,0.314,6.506-1.614,9.39
	C12.906,17.806,13.381,19.533,15.096,20.17z"/>
</svg>
