<?xml version="1.0" encoding="iso-8859-1"?>
<!-- Generator: Adobe Illustrator 16.0.0, SVG Export Plug-In . SVG Version: 6.00 Build 0)  -->
<!DOCTYPE svg PUBLIC "-//W3C//DTD SVG 1.1//EN" "http://www.w3.org/Graphics/SVG/1.1/DTD/svg11.dtd">
<svg version="1.1" id="Layer_1" xmlns="http://www.w3.org/2000/svg" xmlns:xlink="http://www.w3.org/1999/xlink" x="0px" y="0px"
	 width="32px" height="32px" viewBox="0 0 32 32" style="enable-background:new 0 0 32 32;" xml:space="preserve">
<path style="fill-rule:evenodd;clip-rule:evenodd;fill:#121111;" d="M26.965,14.755c0.145-1.478-0.132-2.846-1.478-3.738
	c-1.097-0.728-1.985-1.612-2.079-2.979c-0.041-0.601-0.356-0.475-0.665-0.469c-0.658,0.012-1.017,0.465-1.417,0.925
	c-0.894,1.029-1.646,2.21-2.885,2.903c-0.67,0.376-1.326,0.817-1.601-0.414c-0.076-0.353-0.345-0.497-0.782-0.471
	c-4.163,0.25-7.139,3.548-6.813,7.651c0.073,0.931-0.15,1.622-0.976,2.111c-0.464,0.273-0.892,0.611-1.309,0.951
	c-0.73,0.595-0.738,2.977,0.03,3.492c0.274,0.183,0.661,0.575,1.104-0.003c0.853-1.106,2.258-0.961,2.911,0.37
	c0.402,0.822,0.896,1.07,1.718,0.975c0.874-0.099,1.761-0.124,2.628-0.272c1.095-0.187,1.83-0.685,1.969-1.985
	c0.092-0.869,0.115-1.758,0.375-3.091c1.114,1.482,2.143,1.126,3.316,0.5c0.615-0.328,1.412-0.385,2.193,0.189
	c1.178,0.865,2.625,0.19,3.599-0.293c0.862-0.429,1.061-2.024,0.578-3.084C26.881,16.925,26.854,15.888,26.965,14.755z"/>
</svg>
