<?xml version="1.0" encoding="iso-8859-1"?>
<!-- Generator: Adobe Illustrator 16.0.0, SVG Export Plug-In . SVG Version: 6.00 Build 0)  -->
<!DOCTYPE svg PUBLIC "-//W3C//DTD SVG 1.1//EN" "http://www.w3.org/Graphics/SVG/1.1/DTD/svg11.dtd">
<svg version="1.1" id="Layer_1" xmlns="http://www.w3.org/2000/svg" xmlns:xlink="http://www.w3.org/1999/xlink" x="0px" y="0px"
	 width="32px" height="32px" viewBox="0 0 32 32" style="enable-background:new 0 0 32 32;" xml:space="preserve">
<path style="fill-rule:evenodd;clip-rule:evenodd;fill:#121111;" d="M28.206,20.766c-0.903-0.303-0.894-0.743-0.938-1.537
	c-0.09-1.576-0.5-3.136-1.78-4.214c-0.485-0.406-0.874-0.919-1.328-1.269c-0.927-0.716-1.122-2.25-2.019-2.491
	c-1.143-0.308-1.811-1.002-2.609-1.652c-0.411-0.334-0.903-0.311-1.396-0.362c-1.499-0.155-2.972,0.788-4.318,0.488
	c-1.629-0.363-1.807,0.702-2.061,1.533c-0.623,2.031-1.601,3.713-3.896,4.856c1.859,0.008,2.241,1.266,2.76,2.291
	c0.435,0.858,0.598,1.895,1.917,1.69c0.975-0.15,2.029,0.491,2.949-0.354c0.267-0.244,0.782-0.51,1.049-0.41
	c1.377,0.513,2.669,1.261,4.225,1.239c-1.133,0.871-2.159,0.442-3.213,0.002c-0.42-0.175-0.802-0.597-1.357-0.343
	c-1.453,0.664-2.889,1.261-4.573,1.242c-1.385-0.016-0.663,1.234-0.802,1.936c-0.092,0.458-0.178,1.077,0.624,0.973
	c1.247-0.162,2.532-0.229,3.716-0.605c2.664-0.847,5.518-0.858,7.975-0.17c2.113,0.593,4.059,0.621,6.153,0.606
	c0.008-0.496-0.039-0.964-0.003-1.439C29.342,21.933,28.996,21.029,28.206,20.766z"/>
</svg>
