<?xml version="1.0" encoding="iso-8859-1"?>
<!-- Generator: Adobe Illustrator 16.0.0, SVG Export Plug-In . SVG Version: 6.00 Build 0)  -->
<!DOCTYPE svg PUBLIC "-//W3C//DTD SVG 1.1//EN" "http://www.w3.org/Graphics/SVG/1.1/DTD/svg11.dtd">
<svg version="1.1" id="Layer_1" xmlns="http://www.w3.org/2000/svg" xmlns:xlink="http://www.w3.org/1999/xlink" x="0px" y="0px"
	 width="32px" height="32px" viewBox="0 0 32 32" style="enable-background:new 0 0 32 32;" xml:space="preserve">
<path style="fill-rule:evenodd;clip-rule:evenodd;fill:#121111;" d="M19.886,25.95c0.244,0.273,0.627,0.063,0.966-0.005
	c0.748-0.148,1.515-0.275,2.275-0.305c0.914-0.035,1.224-0.374,0.919-1.271c-0.271-0.795-0.332-1.348,0.799-1.708
	c1.473-0.47,1.552-1.712,0.349-2.666c-0.19-0.151-0.439-0.228-0.622-0.387c-1.088-0.927-1.122-2.108-0.259-3.204
	c0.29-0.367,1.085-0.927,0.425-1.436c-1.112-0.855-0.31-1.103,0.444-1.499c-0.584-0.507-1.211-0.932-1.588-0.54
	c-1.162,1.215-2.116,0.01-3.105-0.184c-0.918-0.18-1.226-1.047-0.928-1.938c0.132-0.392,0.059-0.533-0.255-0.646
	c-1.438-0.516-2.541-1.107-3.022-2.906c-0.255-0.945-1.576-2.061-2.945-2.351c-1.813-0.385-3.301,0.688-4.897,1.227
	C8.165,6.227,7.934,6.616,8.13,7.099c0.464,1.127,0.434,2.546,2.134,3.074c-2.03-0.408-0.849,1.242-1.417,1.737
	c0.412,0.15,0.884-0.198,1.254,0.16c0.048,0.999-1.155,1.609-0.908,2.572c0.235,0.917,1.54,0.969,1.905,1.902
	c-0.37,0.332-0.964-0.142-1.353,0.408c0.134,0.176,0.303,0.349,0.417,0.548c0.289,0.505,1.421,1.102-0.267,1.352
	c-0.646,0.097-0.316,0.644,0.085,1.079c1.07,1.157,2.642,1.472,3.816,2.376c1.407,1.08,1.796,0.095,2.138-0.855
	c0.255-0.707,0.3-0.574,0.937-0.317c1.513,0.612,1.97,2.582,3.835,2.707c-0.193,0.418-0.34,0.776-0.528,1.109
	C19.998,25.271,19.521,25.545,19.886,25.95z"/>
</svg>
