<?xml version="1.0" encoding="iso-8859-1"?>
<!-- Generator: Adobe Illustrator 16.0.0, SVG Export Plug-In . SVG Version: 6.00 Build 0)  -->
<!DOCTYPE svg PUBLIC "-//W3C//DTD SVG 1.1//EN" "http://www.w3.org/Graphics/SVG/1.1/DTD/svg11.dtd">
<svg version="1.1" id="Layer_1" xmlns="http://www.w3.org/2000/svg" xmlns:xlink="http://www.w3.org/1999/xlink" x="0px" y="0px"
	 width="32px" height="32px" viewBox="0 0 32 32" style="enable-background:new 0 0 32 32;" xml:space="preserve">
<path style="fill-rule:evenodd;clip-rule:evenodd;fill:#121111;" d="M11.771,20.299c2.987,1.199,6.069,2.188,9.169,3.063
	c1.251,0.354,3.062,0.826,3.883-0.257c1.662-2.195,3.931-4.313,3.107-7.2c0-0.784-0.021-1.178,0.003-1.57
	c0.128-2.007,0.294-2.56-2.667-1.866c-1.802,0.42-3.699,0.384-5.329,1.483c-0.3,0.203-0.898,0.126-1.293-0.011
	c-1.143-0.396-2.095,0.039-3.069,0.521c-2.411,1.194-3.509,0.965-5.236-1.098c-0.344-0.41-0.613-0.886-0.95-1.304
	c-0.176-0.219-0.376-0.49-0.717-0.425c-0.361,0.068-2.022,3.007-1.846,3.329C8.022,17.16,9.368,19.336,11.771,20.299z"/>
</svg>
