<?xml version="1.0" encoding="iso-8859-1"?>
<!-- Generator: Adobe Illustrator 16.0.0, SVG Export Plug-In . SVG Version: 6.00 Build 0)  -->
<!DOCTYPE svg PUBLIC "-//W3C//DTD SVG 1.1//EN" "http://www.w3.org/Graphics/SVG/1.1/DTD/svg11.dtd">
<svg version="1.1" id="Layer_1" xmlns="http://www.w3.org/2000/svg" xmlns:xlink="http://www.w3.org/1999/xlink" x="0px" y="0px"
	 width="32px" height="32px" viewBox="0 0 32 32" style="enable-background:new 0 0 32 32;" xml:space="preserve">
<path style="fill-rule:evenodd;clip-rule:evenodd;fill:#121111;" d="M7.151,10.528c1.257-0.082,2.383,0.617,3.613,0.3
	c0.2-0.053,1.23,0.582,0.307,1.269c-0.424,0.314-0.508,0.713-0.597,1.234c-0.146,0.857,0.486,2.077-0.944,2.485
	c-0.28,0.08-0.013,0.313,0.06,0.452c0.331,0.629,0.285,1.21,0.239,1.934c-0.053,0.854-0.244,1.561-0.518,2.322
	c-0.094,0.263-0.108,0.841,0.326,0.846c1.265,0.012,1.526,0.984,2.007,1.824c0.331,0.577,0.881,1.308,1.591,0.599
	c1.005-1.004,2.121-1.607,3.494-1.272c2.31,0.564,3.024-1.94,4.798-2.349c-0.491-1.43,2.428-2.213,0.72-3.925
	c-0.352-0.354,0.041-0.971,0.324-1.348c0.928-1.244,1.288-3,3.23-3.348c0.542-0.097,0.968-0.776,1.477-1.146
	c0.503-0.367,0.426-0.871,0.323-1.333c-0.15-0.68-0.648-0.278-1.042-0.285c-0.799-0.01-1.638,0.184-2.341-0.481
	c-0.193-0.185-0.716-0.249-0.951-0.12c-1.239,0.686-2.281-0.076-3.297-0.487c-0.485-0.196-0.915-0.353-1.439-0.456
	c-2.022-0.398-4.074-0.101-6.116-0.319C10.813,6.752,9.231,6.245,7.57,6.33C6.583,6.378,6.493,6.719,6.491,7.535
	C6.489,8.633,7.522,9.452,7.151,10.528z"/>
</svg>
