<?xml version="1.0" encoding="iso-8859-1"?>
<!-- Generator: Adobe Illustrator 16.0.0, SVG Export Plug-In . SVG Version: 6.00 Build 0)  -->
<!DOCTYPE svg PUBLIC "-//W3C//DTD SVG 1.1//EN" "http://www.w3.org/Graphics/SVG/1.1/DTD/svg11.dtd">
<svg version="1.1" id="Layer_1" xmlns="http://www.w3.org/2000/svg" xmlns:xlink="http://www.w3.org/1999/xlink" x="0px" y="0px"
	 width="32px" height="32px" viewBox="0 0 32 32" style="enable-background:new 0 0 32 32;" xml:space="preserve">
<path style="fill-rule:evenodd;clip-rule:evenodd;fill:#121111;" d="M28.218,24.836c-1.399-0.784-1.394-2.299-1.628-3.562
	c-0.25-1.34,0.517-2.844-0.896-3.991c-0.452-0.368,0.109-0.986,0.179-1.491c0.074-0.535,0.805-1.225,0.146-1.601
	c-2.249-1.286-3.354-3.863-5.919-4.86c-2.247-0.872-4.146-2.74-6.44-2.043c-1.298,0-2.183-0.009-3.067,0.004
	C10.255,7.298,9.676,7.556,9.773,7.67c0.935,1.108,0.518,2.049-0.219,3c-0.029,0.038,0.036,0.217,0.099,0.249
	c0.95,0.472,0.173,0.856-0.02,1.327c-0.414,1.007-1.955,1.32-1.99,2.063c-0.059,1.227-0.268,2.791,0.711,3.766
	c0.809,0.805,1.216,1.742,1.693,2.69c0.175,0.346,0.243,0.797,0.617,0.968c1.583,0.721,3.115,1.787,4.829,1.914
	c1.649,0.123,1.953,0.913,1.99,2.217c0.037,1.315,0.663,1.881,1.988,1.54c0.187-0.048,0.404-0.146,0.565-0.094
	c2.726,0.88,5.07-0.535,7.53-1.237c0.225-0.064,0.41-0.262,0.616-0.396C28.586,25.413,28.782,25.153,28.218,24.836z"/>
</svg>
