<?xml version="1.0" encoding="iso-8859-1"?>
<!-- Generator: Adobe Illustrator 16.0.0, SVG Export Plug-In . SVG Version: 6.00 Build 0)  -->
<!DOCTYPE svg PUBLIC "-//W3C//DTD SVG 1.1//EN" "http://www.w3.org/Graphics/SVG/1.1/DTD/svg11.dtd">
<svg version="1.1" id="Layer_1" xmlns="http://www.w3.org/2000/svg" xmlns:xlink="http://www.w3.org/1999/xlink" x="0px" y="0px"
	 width="32px" height="32px" viewBox="0 0 32 32" style="enable-background:new 0 0 32 32;" xml:space="preserve">
<path style="fill-rule:evenodd;clip-rule:evenodd;fill:#121111;" d="M23.083,15.275c0.507-0.043,1.182,0.334,1.372-0.365
	c0.187-0.691,0.519-1.535-0.301-2.125c-0.526-0.382-0.605-0.891-0.708-1.506c-0.154-0.941-1.051-2.072-1.726-1.771
	c-1.044,0.469-2.248-0.062-3.125,0.754c-0.104-0.094-0.213-0.186-0.318-0.278c0.691-1.439-0.447-2.35-1.139-3.235
	c-0.436-0.557-1.487-0.286-2.256-0.233c-0.691,0.049-1.722-0.441-2.008,0.287c-0.31,0.799-0.31,1.846,0.063,2.728
	c0.238,0.569,0.456,1.167,0.927,1.634c0.771,0.766,0.938,1.679,0.33,2.608c-0.257,0.396-0.352,0.778-0.021,1.052
	c0.897,0.737,0.96,1.806,1.332,2.781c0.39,1.021,0.192,1.655-0.392,2.522c-0.754,1.116-1.186,2.449-1.052,3.866
	c0.015,0.158-0.134,0.36,0.145,0.49c1.386,0.655,1.572,0.691,1.86,1.297c0.462,0.978,2.045,0.607,2.177,1.904
	c0.38-0.288,1.121,0.077,1.251-0.533c0.157-0.734-0.437-1.213-1.03-1.311c-0.848-0.138-1.095-0.561-1.266-1.329
	c-0.153-0.693-0.418-1.695-0.915-1.914c-1.307-0.577-0.723-1.337-0.502-2.116c0.303-1.068,1.004-2.021,0.92-3.199
	c-0.024-0.37,0.006-0.67,0.502-0.708c0.536-0.041,0.706,0.151,0.612,0.673c-0.045,0.247,0.051,0.573,0.351,0.511
	c0.903-0.186,1.504,0.52,2.249,0.747c0.46-0.813-0.824-1.361-0.085-2.322C21.137,15.136,22.122,15.357,23.083,15.275z"/>
</svg>
