<?xml version="1.0" encoding="iso-8859-1"?>
<!-- Generator: Adobe Illustrator 16.0.0, SVG Export Plug-In . SVG Version: 6.00 Build 0)  -->
<!DOCTYPE svg PUBLIC "-//W3C//DTD SVG 1.1//EN" "http://www.w3.org/Graphics/SVG/1.1/DTD/svg11.dtd">
<svg version="1.1" id="Layer_1" xmlns="http://www.w3.org/2000/svg" xmlns:xlink="http://www.w3.org/1999/xlink" x="0px" y="0px"
	 width="32px" height="32px" viewBox="0 0 32 32" style="enable-background:new 0 0 32 32;" xml:space="preserve">
<path style="fill-rule:evenodd;clip-rule:evenodd;fill:#121111;" d="M7.475,21.985c0.031,2.399,1.69,3.855,4.09,3.639
	c0.637-0.058,1.203,0.151,1.802,0.456c1.871,0.954,3.262,0.619,4.488-0.992c0.773-1.02,2.313-1.191,2.774-2.551
	c0.033-0.101,0.24-0.153,0.372-0.21c0.677-0.292,2.202,0.47,1.693-1.358c-0.015-0.051,0.654-0.321,1.019-0.441
	c1.333-0.44,2.676-0.861,4.187-1.344c-0.704-0.389-0.862-0.778-0.545-1.375c0.591-1.115,0.85-2.317,0.732-3.592
	c-0.021-0.229,0.017-0.478,0.087-0.701c0.465-1.494,0.132-2.361-1.244-3.095c-0.854-0.454-1.804-0.774-2.561-1.351
	c-1.166-0.886-2.356-0.504-3.558-0.322c-0.925,0.139-1.604,1.329-1.456,2.304c0.142,0.922,0.154,1.84-0.198,2.751
	c-0.277,0.704-0.047,1.282,0.573,1.801c0.599,0.502,1.124,0.829,1.97,0.274c-0.473,0.579,0.502,1.306-0.423,1.791
	c-1.075,0.565-1.462-0.39-1.784-0.921c-0.613-1.013-2.188-0.708-2.518-2.019c-0.046-0.18-0.288,0.044-0.446,0.143
	c-1.107,0.688-2.075,0.329-2.863-0.539c-0.232-0.257-0.433-0.461-0.689-0.315c-0.804,0.454-1.081-0.415-1.85-0.681
	c0,0.322,0.005,0.502,0,0.681c-0.069,2.91-0.066,2.938-2.853,3.117c-0.661,0.042-0.829,0.257-0.812,0.87
	C7.496,19.331,7.457,20.659,7.475,21.985z"/>
</svg>
