<?xml version="1.0" encoding="iso-8859-1"?>
<!-- Generator: Adobe Illustrator 16.0.0, SVG Export Plug-In . SVG Version: 6.00 Build 0)  -->
<!DOCTYPE svg PUBLIC "-//W3C//DTD SVG 1.1//EN" "http://www.w3.org/Graphics/SVG/1.1/DTD/svg11.dtd">
<svg version="1.1" id="Layer_1" xmlns="http://www.w3.org/2000/svg" xmlns:xlink="http://www.w3.org/1999/xlink" x="0px" y="0px"
	 width="32px" height="32px" viewBox="0 0 32 32" style="enable-background:new 0 0 32 32;" xml:space="preserve">
<path style="fill-rule:evenodd;clip-rule:evenodd;fill:#121111;" d="M17.333,7.258c-0.169-0.031-0.369,0.079-0.549,0.142
	c-0.618,0.214-1.35,0.762-1.348-0.566c0-0.354-0.368-0.349-0.523-0.158c-0.804,0.981-1.971,1.895-2.078,3.117
	c-0.062,0.704-0.282,2.024,0.727,2.513c1.068,0.514,0.884,1.131,0.433,1.868c-0.238,0.39-0.547,0.872-0.403,1.225
	c0.92,2.258-1.276,4.441-0.11,6.68c-1.156,1.751,0.598,1.896,1.427,2.347c0.941,0.514,1.585,1.155,1.804,2.161
	c0.177,0.814,0.689,1.353,1.397,1.107c0.596-0.204,1.344-0.749,0.966-1.686c-0.28-0.697,0.261-1.023,0.663-1.045
	c1.121-0.056,1.277-0.877,1.559-1.645c0.201-0.549,0.376-1.063,1.043-1.306c0.517-0.189,0.957-0.816,0.719-1.292
	c-0.311-0.619,0.02-1.602-0.845-1.878c-1.529-0.487-2.084-1.665-2.307-3.072c-0.23-1.457,0.363-2.834,0.556-4.251
	C20.475,10.741,18.037,7.39,17.333,7.258z"/>
</svg>
