<?xml version="1.0" encoding="iso-8859-1"?>
<!-- Generator: Adobe Illustrator 16.0.0, SVG Export Plug-In . SVG Version: 6.00 Build 0)  -->
<!DOCTYPE svg PUBLIC "-//W3C//DTD SVG 1.1//EN" "http://www.w3.org/Graphics/SVG/1.1/DTD/svg11.dtd">
<svg version="1.1" id="Layer_1" xmlns="http://www.w3.org/2000/svg" xmlns:xlink="http://www.w3.org/1999/xlink" x="0px" y="0px"
	 width="32px" height="32px" viewBox="0 0 32 32" style="enable-background:new 0 0 32 32;" xml:space="preserve">
<path style="fill-rule:evenodd;clip-rule:evenodd;fill:#121111;" d="M18.985,25.815c0.689,0.038,2.358-1.594,2.396-2.344
	c0.044-0.864-2.107-2.541-3.41-2.656c-0.653-0.061-2.304,1.565-2.322,2.284C15.602,24.795,16.693,25.686,18.985,25.815z"/>
<path style="fill-rule:evenodd;clip-rule:evenodd;fill:#121111;" d="M17.15,4.869c-0.314-0.062-0.701-0.446-0.886-0.033
	c-0.462,1.03,0.324,1.954,0.398,2.949c0.005,0.049,0.005,0.11,0.03,0.142c0.674,0.8,1.601,1.432,2.539,1.486
	c0.63,0.036,0.414-1.044,0.421-1.606C20.134,5.659,18.753,5.189,17.15,4.869z"/>
</svg>
