<?xml version="1.0" encoding="iso-8859-1"?>
<!-- Generator: Adobe Illustrator 16.0.0, SVG Export Plug-In . SVG Version: 6.00 Build 0)  -->
<!DOCTYPE svg PUBLIC "-//W3C//DTD SVG 1.1//EN" "http://www.w3.org/Graphics/SVG/1.1/DTD/svg11.dtd">
<svg version="1.1" id="Layer_1" xmlns="http://www.w3.org/2000/svg" xmlns:xlink="http://www.w3.org/1999/xlink" x="0px" y="0px"
	 width="32px" height="32px" viewBox="0 0 32 32" style="enable-background:new 0 0 32 32;" xml:space="preserve">
<path style="fill-rule:evenodd;clip-rule:evenodd;fill:#121111;" d="M6.55,10.52c0.757,0.887,1.456,1.961,0.572,3.011
	c-1.209,1.434,0.199,2.522,0.349,3.735c0.073,0.603,1.384,1.027,2.178,0.822c1.837-0.474,3.002,0.461,4.112,1.63
	c0.614,0.646,1.229,1.098,2.151,0.579c0.524-0.292,0.849,0.073,1.084,0.454c0.8,1.29,1.887,1.653,3.305,1.141
	c0.363-0.129,0.961-0.557,1.035,0.185c0.173,1.771,1.604,2.899,2.123,4.511c0.444,1.383,1.6,0.063,2.436,0.252
	c0.623,0.14,0.324-0.646,0.413-1.024c0.108-0.459-1.011-1.262,0.42-1.38c0.235-0.018-0.026-0.42-0.177-0.576
	c-0.327-0.335-0.688-0.637-1.082-0.997c0.318-0.355,1.019-0.426,0.745-0.997c-0.224-0.466-0.769-0.723-1.225-0.667
	c-0.543,0.064-0.923-0.041-1.326-0.375c-1.037-0.86-2.104-1.686-3.316-2.649c0.355-0.02,0.533-0.067,0.696-0.034
	c0.984,0.197,1.453-0.34,1.672-1.186c0.25-0.967-0.65-0.939-1.144-1.218c-0.857-0.488-1.664-1.014-2.263-1.827
	c-0.476-0.644-0.688-1.201,0.217-1.649c0.81-0.4,0.859-0.833,0.091-1.375c-0.468-0.331-0.807-0.789-1.493-0.806
	c-0.258-0.007-0.879,0.015-0.919-0.653c-0.055-0.999-0.97-1.602-1.899-1.347c-0.451,0.124-0.812,0.441-1.352,0.403
	c-2.781-0.194-5.462,0.605-8.271,0.931C5.823,10.022,6.273,10.197,6.55,10.52z"/>
</svg>
