<?xml version="1.0" encoding="iso-8859-1"?>
<!-- Generator: Adobe Illustrator 16.0.0, SVG Export Plug-In . SVG Version: 6.00 Build 0)  -->
<!DOCTYPE svg PUBLIC "-//W3C//DTD SVG 1.1//EN" "http://www.w3.org/Graphics/SVG/1.1/DTD/svg11.dtd">
<svg version="1.1" id="Layer_1" xmlns="http://www.w3.org/2000/svg" xmlns:xlink="http://www.w3.org/1999/xlink" x="0px" y="0px"
	 width="32px" height="32px" viewBox="0 0 32 32" style="enable-background:new 0 0 32 32;" xml:space="preserve">
<path style="fill-rule:evenodd;clip-rule:evenodd;fill:#121111;" d="M22.89,10.846c-0.224-1.702-1.526-2.88-1.744-4.747
	c-0.771,1.047-0.854,1.99-0.932,2.946c-0.045,0.55-0.323,1.379-0.748,1.252c-0.8-0.24-1.533-0.834-2.181-1.41
	c-0.44-0.389-0.107-0.889,0.221-1.281c0.299-0.354,0.129-1.04-0.062-0.92c-0.993,0.615-1.993-0.749-2.985,0.184
	c-0.795,0.747-1.356,1.98-3.021,1.434c-0.453-0.148-1.843,1.2-2.079,2.061c-0.341,1.242-1.118,1.598-2.061,1.973
	c-2.787,1.104-2.903,2.382-1.564,4.947c0.512,0.978,1.193,1.9,0.961,3.094c-0.172,0.881,0.728,1.022,0.96,0.869
	c1.08-0.721,2.493-0.624,3.479-1.475c1.801-1.557,3.842-1.422,5.248,0.426c0.284,0.372,0.436,0.47,0.697,0.04
	c0.072,0.089,0.143,0.178,0.215,0.267c0.536,0.523,1.065,0.966,1.411,1.739c0.549,1.231,4.002,1.481,4.71,0.283
	c0.688-1.167,1.546-2.231,2.148-3.446c0.978-1.978,0.385-3.68-0.746-5.431C24.195,12.684,23.039,11.989,22.89,10.846z"/>
</svg>
