<?xml version="1.0" encoding="iso-8859-1"?>
<!-- Generator: Adobe Illustrator 16.0.0, SVG Export Plug-In . SVG Version: 6.00 Build 0)  -->
<!DOCTYPE svg PUBLIC "-//W3C//DTD SVG 1.1//EN" "http://www.w3.org/Graphics/SVG/1.1/DTD/svg11.dtd">
<svg version="1.1" id="Layer_1" xmlns="http://www.w3.org/2000/svg" xmlns:xlink="http://www.w3.org/1999/xlink" x="0px" y="0px"
	 width="32px" height="32px" viewBox="0 0 32 32" style="enable-background:new 0 0 32 32;" xml:space="preserve">
<path style="fill-rule:evenodd;clip-rule:evenodd;fill:#121111;" d="M14.537,20.184c2.214,1.955,3.522,4.397,4.109,7.399
	c0.937-0.986,1.708-1.974,1.919-3.183c0.345-1.974,0.658-3.977,0.706-5.976c0.08-3.449,0.785-7.138-3.044-9.785
	c0.715,0,1.006,0.01,1.297-0.002c0.413-0.02,0.917,0.219,1.162-0.336c0.302-0.683-0.389-1.036-0.565-1.562
	c-0.211-0.632-0.714-0.351-1.096-0.156c-0.808,0.413-1.559,0.315-2.383-0.017c-0.978-0.394-2.189-0.68-2.721,0.507
	c-0.649,1.45-1.115,2.971-0.017,4.59c1.273,1.874,1.758,3.92,0.266,6.009C13.522,18.579,13.771,19.509,14.537,20.184z"/>
</svg>
