<?xml version="1.0" encoding="iso-8859-1"?>
<!-- Generator: Adobe Illustrator 16.0.0, SVG Export Plug-In . SVG Version: 6.00 Build 0)  -->
<!DOCTYPE svg PUBLIC "-//W3C//DTD SVG 1.1//EN" "http://www.w3.org/Graphics/SVG/1.1/DTD/svg11.dtd">
<svg version="1.1" id="Layer_1" xmlns="http://www.w3.org/2000/svg" xmlns:xlink="http://www.w3.org/1999/xlink" x="0px" y="0px"
	 width="32px" height="32px" viewBox="0 0 32 32" style="enable-background:new 0 0 32 32;" xml:space="preserve">
<path style="fill-rule:evenodd;clip-rule:evenodd;fill:#121111;" d="M29.517,17.446c-0.825-1.417-1.865-2.526-3.72-2.549
	c0.314-0.622,0.584-1.116,0.816-1.63c0.145-0.319,0.263-0.793-0.163-0.879c-0.8-0.164-1.283-1.094-2.236-0.851
	c-0.52,0.132-1.126-0.053-1.278-0.505c-0.437-1.317-1.606-0.713-2.351-0.853c-1.226-0.23-2.376,0.442-3.348,1.275
	c-0.385,0.329-3.645,0.327-3.806-0.058c-0.379-0.9-0.93-0.497-1.425-0.297c-0.769,0.307-1.475,0.79-2.259,1.032
	c-1.298,0.401-1.317,1.241-0.841,2.205c0.415,0.841,0.956,1.69,2.146,1.15c0.545-0.245,1.075-0.207,1.179,0.392
	c0.186,1.061,0.769,1.473,1.775,1.481c0.413,0.005,0.564,0.271,0.637,0.663c0.082,0.443,0.28,0.485,0.813,0.415
	c1.552-0.208,2.162,0.355,2.039,1.917c-0.056,0.718,0.146,0.831,0.713,0.898c1.18,0.14,2.147-0.194,2.842-1.293
	c-0.014,0.967-0.183,2.03,0.694,2.414c1.042,0.457,2.005,0.931,2.844,1.708c0.642,0.596,1.462,0.223,2.039-0.067
	c0.689-0.346,0.276-0.965-0.029-1.513c-0.55-0.982,0.157-2.404,1.295-2.73C29.111,19.426,29.954,18.198,29.517,17.446z"/>
</svg>
