<?xml version="1.0" encoding="iso-8859-1"?>
<!-- Generator: Adobe Illustrator 16.0.0, SVG Export Plug-In . SVG Version: 6.00 Build 0)  -->
<!DOCTYPE svg PUBLIC "-//W3C//DTD SVG 1.1//EN" "http://www.w3.org/Graphics/SVG/1.1/DTD/svg11.dtd">
<svg version="1.1" id="Layer_1" xmlns="http://www.w3.org/2000/svg" xmlns:xlink="http://www.w3.org/1999/xlink" x="0px" y="0px"
	 width="32px" height="32px" viewBox="0 0 32 32" style="enable-background:new 0 0 32 32;" xml:space="preserve">
<path style="fill-rule:evenodd;clip-rule:evenodd;fill:#121111;" d="M28.146,15c-1.683-1.715-3.426-2.596-5.594-2.087
	c-1.144,0.269-2.119,0.015-3.112-0.462c-0.837-0.4-1.682-0.787-2.537-1.146c-1.173-0.49-2.274-0.372-3.339,0.37
	c-0.557,0.389-1.195,0.665-1.813,0.961c-1.435,0.682-2.451,1.749-3.091,3.202c-0.374,0.851-0.785,1.686-1.229,2.5
	c-0.645,1.18-0.093,2.549,1.236,2.657c0.828,0.063,1.511,0.363,2.195,0.717c0.766,0.396,1.573,0.688,2.401,0.497
	c1.366-0.316,2.62,0.021,3.876,0.438c0.666,0.218,1.372,0.379,2.028,0.245c2.195-0.455,4.368-0.352,6.578-0.118
	c1.531,0.16,2.299-0.73,2.389-2.313c0.076-1.356-0.249-2.646-0.746-3.869C27.055,15.773,27.077,15.27,28.146,15z"/>
</svg>
