<?xml version="1.0" encoding="iso-8859-1"?>
<!-- Generator: Adobe Illustrator 16.0.0, SVG Export Plug-In . SVG Version: 6.00 Build 0)  -->
<!DOCTYPE svg PUBLIC "-//W3C//DTD SVG 1.1//EN" "http://www.w3.org/Graphics/SVG/1.1/DTD/svg11.dtd">
<svg version="1.1" id="Layer_1" xmlns="http://www.w3.org/2000/svg" xmlns:xlink="http://www.w3.org/1999/xlink" x="0px" y="0px"
	 width="32px" height="32px" viewBox="0 0 32 32" style="enable-background:new 0 0 32 32;" xml:space="preserve">
<path style="fill-rule:evenodd;clip-rule:evenodd;fill:#121111;" d="M25.662,16.74c-0.033-0.023-0.068-0.098-0.056-0.132
	c0.487-1.248-0.55-1.114-1.121-1.071c-1.641,0.123-1.807-0.704-1.759-2.072c0.031-0.91,0.106-2.227-1.31-2.368
	c-0.665-0.064-1.157-0.233-1.714-0.587c-0.721-0.456-1.554-0.807-2.388-0.998c-1.6-0.37-2.452-1.277-2.462-2.871
	c-0.01-1.577-0.224-1.751-1.741-1.279c-0.408,0.127-0.764,0.417-1.153,0.612C10.833,6.54,9.853,7.542,8.376,7.065
	c0.102,1.084,1.379,1.797,1.05,2.598c-0.992,2.401-0.029,5.087-1.245,7.419c-0.06,0.115,0.09,0.369,0.188,0.53
	c1.396,2.342,1.227,5.169,2.357,7.595c0.169,0.36-0.137,0.944,0.488,1.091c0.56,0.13,0.862-0.233,1.221-0.604
	c1.112-1.147,3.001-0.982,4.054,0.411c0.295-0.795,0.642-1.532,1.479-1.247c1.506,0.517,1.539-0.547,1.595-1.424
	c0.063-1.004,0.463-1.926,1.179-2.388c1.679-1.08,4.05-0.688,5.457,0.656c0.057-0.07,0.149-0.133,0.161-0.209
	c0.015-0.087-0.088-0.195-0.066-0.273C26.716,19.637,27.533,18.001,25.662,16.74z"/>
</svg>
