<?xml version="1.0" encoding="iso-8859-1"?>
<!-- Generator: Adobe Illustrator 16.0.0, SVG Export Plug-In . SVG Version: 6.00 Build 0)  -->
<!DOCTYPE svg PUBLIC "-//W3C//DTD SVG 1.1//EN" "http://www.w3.org/Graphics/SVG/1.1/DTD/svg11.dtd">
<svg version="1.1" id="Layer_1" xmlns="http://www.w3.org/2000/svg" xmlns:xlink="http://www.w3.org/1999/xlink" x="0px" y="0px"
	 width="32px" height="32px" viewBox="0 0 32 32" style="enable-background:new 0 0 32 32;" xml:space="preserve">
<path style="fill-rule:evenodd;clip-rule:evenodd;fill:#121111;" d="M7.081,23.201c-0.006,0.563,0.167,0.944,0.564,1.406
	c0.802,0.93,1.673,1.932,0.99,3.386c-0.256,0.543-0.095,0.971,0.703,1.071c1.533,0.191,3.433-0.848,3.988-2.493
	c0.441-1.307,1.02-1.502,2.141-0.726c1.135,0.786,3.093,1.317,3.613,0.438c0.957-1.62,2.827-2.354,3.453-4.126
	c0.171-0.483,0.387-0.873,0.867-1.11c1.3-0.645,2.104-1.972,3.554-2.464c1.21-0.411,0.521-1.082-0.058-1.502
	c-0.332-0.241-0.82-0.292-1.25-0.365c-0.794-0.134-1.322-0.728-1.334-1.365c-0.025-1.383-1.04-1.9-1.93-2.416
	c-1.972-1.142-2.548-3.148-3.4-5.003c-0.393,0-0.787,0-1.18,0c-1.146,0.117-1.983,2.027-3.429,0.57
	c-0.161-0.162-0.662-0.018-0.998,0.034c-1.063,0.166-2.118,0.437-3.187,0.509c-0.778,0.054-0.957,0.332-0.941,1.06
	c0.046,2.113-0.027,4.229,0.037,6.34c0.027,0.899-0.219,1.294-1.142,1.139c-0.828-0.14-1.107,0.204-1.072,1.047
	C7.132,20.152,7.097,21.678,7.081,23.201z"/>
</svg>
