<?xml version="1.0" encoding="iso-8859-1"?>
<!-- Generator: Adobe Illustrator 16.0.0, SVG Export Plug-In . SVG Version: 6.00 Build 0)  -->
<!DOCTYPE svg PUBLIC "-//W3C//DTD SVG 1.1//EN" "http://www.w3.org/Graphics/SVG/1.1/DTD/svg11.dtd">
<svg version="1.1" id="Layer_1" xmlns="http://www.w3.org/2000/svg" xmlns:xlink="http://www.w3.org/1999/xlink" x="0px" y="0px"
	 width="32px" height="32px" viewBox="0 0 32 32" style="enable-background:new 0 0 32 32;" xml:space="preserve">
<path style="fill-rule:evenodd;clip-rule:evenodd;fill:#121111;" d="M26.762,16.347c0.059-1.014,0.313-1.864,1.576-1.833
	c0.655,0.014,0.635-0.512,0.725-0.913c0.137-0.617-0.343-0.532-0.722-0.617c-0.424-0.093-0.865-0.218-1.226-0.446
	c-2.688-1.681-4.891-1.636-7.381,0.217c-0.627,0.468-1.307,0.616-2.063,0.525c-2.631-0.319-5.264-0.636-7.913-0.958
	c0.059-0.283,0.872-0.56,0.097-0.927c-0.372-0.179-0.655-0.658-1.2-0.005c-1.023,1.222-1.036,2.133,0.408,3.228
	c0.957,0.728,0.884,1.456-0.065,1.804c-0.848,0.31-0.713,0.786-0.836,1.396c-0.24,1.182,0.034,1.96,1.191,2.455
	c0.276,0.12,0.589,0.718,0.517,0.997c-0.61,2.306,0.905,1.554,2.024,1.503c0.61-0.026,1.172-0.173,1.698-0.408
	c0.579-0.26,1.198-0.39,1.672-0.043c1.506,1.102,3.163,0.851,4.825,0.715c0.326-0.026,0.76-0.273,0.699-0.413
	c-0.637-1.472,0.848-1.396,1.419-1.888c0.648-0.555,1.701-0.981,2.393-0.578c0.915,0.53,1.626,0.175,2.483,0.146
	c-0.994-1.687-0.992-1.684-0.384-3.373C26.765,16.752,26.752,16.541,26.762,16.347z"/>
</svg>
