<?xml version="1.0" encoding="iso-8859-1"?>
<!-- Generator: Adobe Illustrator 16.0.0, SVG Export Plug-In . SVG Version: 6.00 Build 0)  -->
<!DOCTYPE svg PUBLIC "-//W3C//DTD SVG 1.1//EN" "http://www.w3.org/Graphics/SVG/1.1/DTD/svg11.dtd">
<svg version="1.1" id="Layer_1" xmlns="http://www.w3.org/2000/svg" xmlns:xlink="http://www.w3.org/1999/xlink" x="0px" y="0px"
	 width="32px" height="32px" viewBox="0 0 32 32" style="enable-background:new 0 0 32 32;" xml:space="preserve">
<path style="fill-rule:evenodd;clip-rule:evenodd;fill:#121111;" d="M10.054,23.519c1.205,0.418,1.41,2.086,2.821,2.08
	c0.136,0,0.29-0.04,0.406-0.111c1.55-0.948,2.913-0.804,4.244,0.604c-0.09-0.871-0.003-1.811-0.311-2.597
	c-0.476-1.216-0.06-1.581,1.049-1.458c2.682,0.297,5.362-0.589,8.048,0.028c0.52,0.12,1.088-0.063,1.453-0.534
	c0.425-0.547,0.981-0.646,1.641-0.675c1.385-0.062,1.792-0.785,1.244-2.048c-0.056-0.131-0.175-0.292-0.14-0.398
	c0.44-1.333-0.28-1.078-1.185-1.06c-0.864,0.018-2.047-0.804-1.823-1.449c0.294-0.845-0.137-0.967-0.504-1.156
	c-0.659-0.34-0.889-0.926-1.279-1.472c-0.512-0.716,0.056-1.882-0.907-2.208c-0.893-0.301-1.865-0.535-2.778,0.204
	c-0.947,0.766-2.309,0.88-3.119,1.896c-1.947-0.638-2.09,1.386-3.04,2.168c-0.443,0.364-0.561,0.573-1.122,0.299
	c-0.998-0.487-1.38-0.093-1.599,0.929c-0.22,1.028-0.235,2.367-1.751,2.588c-0.695,0.101-1.106,0.416-0.843,1.186
	c0.146,0.425-0.01,0.798-0.234,1.1C9.811,22.122,9.739,23.409,10.054,23.519z"/>
</svg>
