<?xml version="1.0" encoding="iso-8859-1"?>
<!-- Generator: Adobe Illustrator 16.0.0, SVG Export Plug-In . SVG Version: 6.00 Build 0)  -->
<!DOCTYPE svg PUBLIC "-//W3C//DTD SVG 1.1//EN" "http://www.w3.org/Graphics/SVG/1.1/DTD/svg11.dtd">
<svg version="1.1" id="Layer_1" xmlns="http://www.w3.org/2000/svg" xmlns:xlink="http://www.w3.org/1999/xlink" x="0px" y="0px"
	 width="32px" height="32px" viewBox="0 0 32 32" style="enable-background:new 0 0 32 32;" xml:space="preserve">
<path style="fill-rule:evenodd;clip-rule:evenodd;fill:#121111;" d="M10.938,13.363c1.158,1.116,1.682,2.361,1.458,4.063
	c-0.227,1.734-0.057,3.521-0.049,5.286c0.003,0.542,0.054,1.083,0.387,1.543c0.802,1.109,1.076,2.394,1.259,3.712
	c0.101,0.728,0.335,1.086,1.258,1.194c2.168,0.253,3.703-0.754,5.012-2.183c1.642-1.792,2.87-3.889,3.996-6.045
	c0.662-1.266,1.896-2.111,2.877-3.061c0.67-0.649,1.028-1.069,1.023-1.934c-0.005-0.926-0.237-1.579-1.317-1.68
	c-0.524-0.049-1.037-0.267-1.545-0.437c-0.363-0.121-0.845-0.22-0.807-0.712c0.069-0.915,0.06-1.892,0.396-2.715
	c0.399-0.978,0.827-1.783-0.352-2.462c-0.492,0-0.984,0-1.476,0c-0.92,0.426-1.74,1.372-2.891,0.361
	c-0.406-0.355-0.842-0.145-0.872,0.492c-0.019,0.393-0.055,0.784-0.061,1.177c-0.021,1.302-0.504,2.235-1.87,2.602
	c-1.631,0.437-3.26,0.095-4.002-0.882c-0.574-0.756-1.436-1.133-2.3-0.933c-0.682,0.157-0.695,0.973-0.693,1.629
	C10.373,12.821,10.657,13.092,10.938,13.363z"/>
</svg>
