<?xml version="1.0" encoding="iso-8859-1"?>
<!-- Generator: Adobe Illustrator 16.0.0, SVG Export Plug-In . SVG Version: 6.00 Build 0)  -->
<!DOCTYPE svg PUBLIC "-//W3C//DTD SVG 1.1//EN" "http://www.w3.org/Graphics/SVG/1.1/DTD/svg11.dtd">
<svg version="1.1" id="Layer_1" xmlns="http://www.w3.org/2000/svg" xmlns:xlink="http://www.w3.org/1999/xlink" x="0px" y="0px"
	 width="32px" height="32px" viewBox="0 0 32 32" style="enable-background:new 0 0 32 32;" xml:space="preserve">
<path style="fill-rule:evenodd;clip-rule:evenodd;fill:#121111;" d="M10.534,24.456c1.199,0.786,1.92,1.71,1.585,3.228
	c-0.096,0.432,0.227,0.597,0.632,0.591c0.639-0.007,1.292,0.075,1.914-0.03c3.117-0.525,6.13,0.043,9.14,0.734
	c0.021-0.995,0.299-2.038-0.777-2.872c-1.183-0.917-1.634-2.34-2.012-3.737c-0.348-1.287,0.403-2.305,1.093-3.21
	c1.001-1.317,0.321-2.233-0.488-3.175c-0.283-0.33-0.694-0.546-1.006-0.856c-0.267-0.265-0.707-0.519-0.572-0.952
	c0.183-0.586,0.741-0.312,1.147-0.334c0.517-0.029,1.037-0.007,1.815-0.007c-1.751-1.787-0.757-4.196-2.041-5.903
	c-0.393,0-0.787,0-1.181,0c0.404,0.39,0.084,1.077,0.603,1.43c1.113,0.757,0.523,1.378-0.248,1.818
	c-0.506,0.289-0.938,0.642-1.091,1.134c-0.774,2.486-2.627,4.409-3.511,6.838c-0.233,0.64-0.646,1.54-1.42,0.309
	c-0.15-0.239-0.393-0.277-0.749-0.233c-1.519,0.184-2.385,1.218-2.93,2.416C10.057,22.483,9.269,23.627,10.534,24.456z"/>
</svg>
