<?xml version="1.0" encoding="iso-8859-1"?>
<!-- Generator: Adobe Illustrator 16.0.0, SVG Export Plug-In . SVG Version: 6.00 Build 0)  -->
<!DOCTYPE svg PUBLIC "-//W3C//DTD SVG 1.1//EN" "http://www.w3.org/Graphics/SVG/1.1/DTD/svg11.dtd">
<svg version="1.1" id="Layer_1" xmlns="http://www.w3.org/2000/svg" xmlns:xlink="http://www.w3.org/1999/xlink" x="0px" y="0px"
	 width="32px" height="32px" viewBox="0 0 32 32" style="enable-background:new 0 0 32 32;" xml:space="preserve">
<path style="fill-rule:evenodd;clip-rule:evenodd;fill:#121111;" d="M7.137,20.809c0.665-0.228,1.457-0.062,2.192-0.102
	c0.822-0.044,1.371-0.045,1.611,1.087c0.327,1.541,2.131,1.967,2.878,0.746c0.621-1.012,1.17-0.205,1.743-0.239
	c0.773-0.044,0.803,0.684,0.707,1.013c-0.36,1.213,0.485,2.157,0.453,3.352c1.338-0.577,2.39-0.279,3.394,0.523
	c0.318,0.254,0.844,0.47,1.214,0.396c1.124-0.222,1.844,0.223,2.404,1.118c0.229,0.372,0.545,0.579,0.984,0.373
	c0.357-0.167,0.438-0.489,0.418-0.864c-0.026-0.497-0.294-0.442-0.692-0.45c-0.72-0.014-0.929-0.517-0.859-1.202
	c0.069-0.665,0.372-1.293,0.164-2.015c-0.075-0.259,0.287-0.929,0.476-0.938c2.229-0.111,1.198-0.996,0.559-1.946
	c-0.466-0.691-0.53-1.567-0.514-2.407c0.015-0.719,0.063-1.438,0.123-2.155c0.137-1.666,0.297-3.467,1.479-4.636
	c0.97-0.959,0.489-1.822,0.305-2.593c-0.161-0.661-0.947-1.268-1.871-1.077c-0.91,0.187-1.565-0.174-2.099-0.863
	c-0.69,0-1.377,0-2.066,0c-0.62,0.517-1.448,0.193-2.135,0.564c-1.275,0.688-2.5,0.764-3.824-0.167
	c-0.548-0.385-1.363,0.25-1.398,1.051c-0.066,1.651-0.733,3.108-1.311,4.597c-0.479,1.231-1.355,2.271-1.307,3.759
	c0.02,0.567-0.349,1.832-1.736,1.207c-0.438-0.197-1.129,0.065-1.667,0.229c-0.36,0.11-0.934,0.208-0.642,0.886
	C6.317,20.516,6.24,21.115,7.137,20.809z"/>
</svg>
