<?xml version="1.0" encoding="iso-8859-1"?>
<!-- Generator: Adobe Illustrator 16.0.0, SVG Export Plug-In . SVG Version: 6.00 Build 0)  -->
<!DOCTYPE svg PUBLIC "-//W3C//DTD SVG 1.1//EN" "http://www.w3.org/Graphics/SVG/1.1/DTD/svg11.dtd">
<svg version="1.1" id="Layer_1" xmlns="http://www.w3.org/2000/svg" xmlns:xlink="http://www.w3.org/1999/xlink" x="0px" y="0px"
	 width="32px" height="32px" viewBox="0 0 32 32" style="enable-background:new 0 0 32 32;" xml:space="preserve">
<path style="fill-rule:evenodd;clip-rule:evenodd;fill:#121111;" d="M18.176,6.437c-0.221-0.375-0.108-1.21-0.589-1.179
	c-0.687,0.045-0.235,0.766-0.199,1.206c-0.39,2.591-0.665,5.209-1.21,7.77c-0.313,1.472-1.03,2.811-0.315,4.393
	c0.221,0.485,0.257,1.4-0.604,1.761c-0.344,0.142-0.673,0.306-0.229,0.709c0.377,0.343,0.175,0.717,0.055,1.087
	c-0.451,1.369,0.712,3.793,2.009,4.076c0.331,0.072,0.929,0.36,1.006-0.41c0.077-0.767-0.108-1.458-0.956-1.523
	c-1.042-0.078-1.445-1.177-1.243-1.491c1.431-2.229,0.148-4.774,0.995-7.059c0.421-1.139,0.75-2.371,0.429-3.673
	c-0.102-0.405,0.175-0.94,0.367-1.379C18.306,9.343,19.117,8.027,18.176,6.437z"/>
</svg>
