<?xml version="1.0" encoding="iso-8859-1"?>
<!-- Generator: Adobe Illustrator 16.0.0, SVG Export Plug-In . SVG Version: 6.00 Build 0)  -->
<!DOCTYPE svg PUBLIC "-//W3C//DTD SVG 1.1//EN" "http://www.w3.org/Graphics/SVG/1.1/DTD/svg11.dtd">
<svg version="1.1" id="Layer_1" xmlns="http://www.w3.org/2000/svg" xmlns:xlink="http://www.w3.org/1999/xlink" x="0px" y="0px"
	 width="32px" height="32px" viewBox="0 0 32 32" style="enable-background:new 0 0 32 32;" xml:space="preserve">
<path style="fill-rule:evenodd;clip-rule:evenodd;fill:#121111;" d="M25.697,11.504c-0.279-2.379-2.02-3.956-3.343-5.754
	c-0.078-0.106-0.143-0.256-0.335-0.141c-1.229,0.743-2.973,0.592-3.591,2.41c-0.602,1.769-0.955,1.779-2.505,0.613
	c-1.532-1.153-1.725-1.11-2.842,0.515c-1.444,2.101-2.583,4.554-4.436,6.199c-2.577,2.289-2.344,4.955-2.178,7.788
	c0.035,0.587,0.139,1.169,0.187,1.755c0.106,1.311,0.822,1.993,2.114,1.777c1.875-0.315,3.76-0.654,5.582-1.182
	c1.391-0.403,2.598-0.508,3.906,0.284c0.919,0.559,1.811,0.428,2.438-0.726c0.747-1.373,1.687-2.64,2.532-3.96
	c0.736-1.151,0.523-1.675-0.798-2.028c-1.624-0.434-3.187-0.208-4.74,0.367c-0.677,0.25-1.358,0.786-2.245,0.039
	c1.365,0.262,1.885-0.716,2.485-1.508c0.539-0.713,1.277-1.044,2.079-1.28c1.579-0.464,2.921-1.363,4.231-2.306
	C25.198,13.674,25.839,12.72,25.697,11.504z"/>
</svg>
