<?xml version="1.0" encoding="iso-8859-1"?>
<!-- Generator: Adobe Illustrator 16.0.0, SVG Export Plug-In . SVG Version: 6.00 Build 0)  -->
<!DOCTYPE svg PUBLIC "-//W3C//DTD SVG 1.1//EN" "http://www.w3.org/Graphics/SVG/1.1/DTD/svg11.dtd">
<svg version="1.1" id="Layer_1" xmlns="http://www.w3.org/2000/svg" xmlns:xlink="http://www.w3.org/1999/xlink" x="0px" y="0px"
	 width="32px" height="32px" viewBox="0 0 32 32" style="enable-background:new 0 0 32 32;" xml:space="preserve">
<path style="fill-rule:evenodd;clip-rule:evenodd;fill:#121111;" d="M7.153,15.908c-0.122,3.044,0.017,6.099-0.056,9.146
	c-0.026,1.084,0.236,1.425,1.373,1.404c4.026-0.075,8.054-0.029,12.081-0.029c2.38,0,4.76,0,7.4,0
	c-1.017-1.358-2.981-1.884-2.237-3.881c0.039-0.105-0.344-0.33-0.464-0.537c-1.242-2.135-2.435-4.295-3.288-7
	c1.401,0.852,1.323,0.819,1.796-0.343c0.661-1.621,0.684-3.136-0.084-4.747c-0.341-0.713-0.5-1-1.349-0.695
	c-0.653,0.235-1.52,0.331-2.132-0.085c-1.714-1.165-3.292-0.76-4.849,0.244c-0.592,0.381-1.112,0.298-1.777,0.158
	c-1.842-0.389-3.556-1.316-5.552-1.131c-0.91,0.084-0.911,0.39-1.046,1.124C6.569,11.687,7.238,13.775,7.153,15.908z"/>
</svg>
