<?xml version="1.0" encoding="iso-8859-1"?>
<!-- Generator: Adobe Illustrator 16.0.0, SVG Export Plug-In . SVG Version: 6.00 Build 0)  -->
<!DOCTYPE svg PUBLIC "-//W3C//DTD SVG 1.1//EN" "http://www.w3.org/Graphics/SVG/1.1/DTD/svg11.dtd">
<svg version="1.1" id="Layer_1" xmlns="http://www.w3.org/2000/svg" xmlns:xlink="http://www.w3.org/1999/xlink" x="0px" y="0px"
	 width="32px" height="32px" viewBox="0 0 32 32" style="enable-background:new 0 0 32 32;" xml:space="preserve">
<path style="fill-rule:evenodd;clip-rule:evenodd;fill:#121111;" d="M27.265,14.995c-0.784,0.058-1.533,0.14-2.142-0.569
	c-0.261-0.303-0.695-0.199-1.103-0.074c-0.969,0.298-2.042,1.652-2.877-0.192c-0.011-0.024-0.093-0.017-0.141-0.024
	c-1.508-0.214-2.688-1.179-3.499-2.248c-1.101-1.448-2.706-1.208-4.061-1.707c-0.459-0.168-1.84-0.14-1.477,1.268
	c0.139,0.538-0.343,0.589-0.586,0.858c-1.055,1.162-2.763,1.399-3.723,2.699c-0.413,0.559-0.796,1.297-0.138,1.636
	c1.075,0.547,1.926,1.483,3.217,1.692c2.104,0.34,4.26,0.495,6.155,1.698c2.465,1.566,5.374,1.213,7.808,1.715
	c1.332,0.013,2.449,0.013,2.812-1.22c0.152-0.517,0.615-1.109,0.589-1.313c-0.157-1.249,0.498-2.424,0.255-3.625
	C28.272,15.178,27.741,14.962,27.265,14.995z"/>
</svg>
