<?xml version="1.0" encoding="iso-8859-1"?>
<!-- Generator: Adobe Illustrator 16.0.0, SVG Export Plug-In . SVG Version: 6.00 Build 0)  -->
<!DOCTYPE svg PUBLIC "-//W3C//DTD SVG 1.1//EN" "http://www.w3.org/Graphics/SVG/1.1/DTD/svg11.dtd">
<svg version="1.1" id="Layer_1" xmlns="http://www.w3.org/2000/svg" xmlns:xlink="http://www.w3.org/1999/xlink" x="0px" y="0px"
	 width="32px" height="32px" viewBox="0 0 32 32" style="enable-background:new 0 0 32 32;" xml:space="preserve">
<path style="fill-rule:evenodd;clip-rule:evenodd;fill:#121111;" d="M8.302,20.109c0.675-0.001,1.475-0.822,2.006,0.345
	c0.104,0.227,0.378-0.125,0.456-0.356c0.45-1.345,1.031-2.147,2.258-0.597c0.204,0.257,0.615,0.253,0.825,0.116
	c0.866-0.569,1.795-0.212,2.677-0.215c1.685-0.003,3.283,0.492,4.519,1.666c1.446,1.372,2.77,2.874,4.136,4.329
	c0.236,0.251,0.553,0.355,0.81,0.529c1.138,0.776,1.668-0.463,1.938-0.856c0.5-0.729-0.62-0.243-0.826-0.598
	c-0.049-0.084-0.108-0.163-0.167-0.242c-1.34-1.825-3.368-2.996-4.643-4.886c-0.155-0.229-0.434-0.376-0.665-0.548
	c-1.116-0.826-2.908-0.659-3.441-2.355c-0.049-0.152-0.366-0.319-0.483-0.138c-0.398,0.618-0.499,0.148-0.701-0.136
	c-0.652-0.922-1.175-1.868-1.301-3.042c-0.195-1.825-0.874-3.503-1.965-5.267c-0.678,1.12-1.548,1.638-2.628,1.916
	c-0.892,0.23-1.173,1.59-2.369,1.394c-0.02-0.003-0.124,0.346-0.146,0.536c-0.224,1.952-0.974,3.737-1.644,5.563
	C6.399,18.765,7.169,20.111,8.302,20.109z"/>
</svg>
