<?xml version="1.0" encoding="iso-8859-1"?>
<!-- Generator: Adobe Illustrator 16.0.0, SVG Export Plug-In . SVG Version: 6.00 Build 0)  -->
<!DOCTYPE svg PUBLIC "-//W3C//DTD SVG 1.1//EN" "http://www.w3.org/Graphics/SVG/1.1/DTD/svg11.dtd">
<svg version="1.1" id="Layer_1" xmlns="http://www.w3.org/2000/svg" xmlns:xlink="http://www.w3.org/1999/xlink" x="0px" y="0px"
	 width="32px" height="32px" viewBox="0 0 32 32" style="enable-background:new 0 0 32 32;" xml:space="preserve">
<path style="fill-rule:evenodd;clip-rule:evenodd;fill:#121111;" d="M26.734,15.041c-0.807-1.013-0.487-2.216-0.737-3.305
	c-0.134-0.585-1.048-0.838-0.767-1.271c1.41-2.169-1.459-2.987-1.404-4.705c0.003-0.113-0.383-0.384-0.607-0.156
	c-0.947,0.959-2.377,0.88-3.412,1.624c-0.449,0.321-0.868,0.298-1.36,0.067c0.225-0.428,0.434-0.823,0.642-1.22
	c-0.804,0.612-1.865,0.578-2.194-0.021c-0.838-1.53-2.115-0.803-3.374-0.964c1.057,0.467,0.049,1.182,0.363,1.667
	c0.27,0.416,0.534,0.803-0.068,1.011c-0.485,0.172-0.368,1.209-1.431,0.665c-1.288-0.657-1.836-0.078-1.767,1.384
	c0.026,0.539-0.038,1.112-0.567,1.41c-0.24,0.138-0.397,0.176-0.293,0.499c0.327,1.021,0.108,1.433-0.893,1.622
	c-0.298,0.058-0.79,0.165-0.637,0.375c0.798,1.098-0.802,2.456,0.438,3.46c0.142,0.116,0.113,0.304,0.08,0.52
	c-0.302,1.986,0.389,2.89,2.389,3.235c0.431,0.074,0.852,0.214,1.478,0.372c-0.784,0.812-0.984,1.708-1.154,2.631
	c-0.165,0.896,0.219,1.275,1.025,0.981c1.213-0.441,2.335-0.05,3.499,0.132c0.438,0.07,0.886,0.63,0.939,0.561
	c0.883-1.137,2.193,0.208,3.181-0.608c0.473-0.391,1.304-0.42,1.964-0.091c0.786,0.391,0.867,0.096,0.589-0.564
	c-0.268-0.639-0.312-0.971,0.517-1.381c1.626-0.807,1.568-0.974,0.072-2.134c-0.347-0.266-0.758-0.466-1.057-0.777
	c-0.619-0.646-1.255-1.809-0.635-2.251c1.21-0.862,2.778-1.677,4.192-1.667C27.038,16.151,26.906,15.256,26.734,15.041z"/>
</svg>
