<?xml version="1.0" encoding="iso-8859-1"?>
<!-- Generator: Adobe Illustrator 16.0.0, SVG Export Plug-In . SVG Version: 6.00 Build 0)  -->
<!DOCTYPE svg PUBLIC "-//W3C//DTD SVG 1.1//EN" "http://www.w3.org/Graphics/SVG/1.1/DTD/svg11.dtd">
<svg version="1.1" id="Layer_1" xmlns="http://www.w3.org/2000/svg" xmlns:xlink="http://www.w3.org/1999/xlink" x="0px" y="0px"
	 width="32px" height="32px" viewBox="0 0 32 32" style="enable-background:new 0 0 32 32;" xml:space="preserve">
<path style="fill-rule:evenodd;clip-rule:evenodd;fill:#121111;" d="M27.204,11.152c-1.06,0.125-1.82,0.668-2.515,1.242
	c-0.984,0.816-1.302,0.96-2.079,0.045c-0.37-0.432-0.648-0.318-0.635,0.108c0.034,1.057-0.523,0.813-1.119,0.625
	c-0.999-0.322-2.018-0.602-3-0.971c-0.474-0.178-1.362-0.55-1.167-0.872c0.677-1.119-0.255-1.273-0.785-1.695
	c-0.344-0.271-0.161-0.51-0.097-0.863c0.281-1.57-0.552-2.319-1.938-1.87c-0.23,0.074-0.502,0.163-0.718,0.105
	c-1.318-0.355-1.15,0.461-0.913,1.198c0.435,1.348-0.752,3.819-2.1,3.997c-1.335,0.181-1.272,0.739-0.623,1.568
	c0.606,0.776,0.646,1.188-0.524,1.127c-0.37-0.021-0.853,0.081-0.778,0.585c0.209,1.432,1.56,2.228,3.097,1.848
	c-0.309,3.271,1.688,5.837,2.659,8.714c0.205,0.614,0.592,0.795,1.294,0.137c1.162-1.093,1.333-2.414,1.312-3.794
	c-0.013-0.743,0.259-1.224,0.797-1.507c1.989-1.048,3.06-3.285,5.284-4.03c0.3-0.101,0.137-0.542,0.072-0.812
	c-0.101-0.418-0.336-0.813-0.382-1.232c-0.049-0.431,0.439-1.107,0.571-0.915c0.512,0.75,1.331,0.238,1.996,0.757
	c-2.52,1.309,0.68,1.162,0.3,1.952c1.235-1.152,1.28-2.892,2.609-3.752c0.352-0.228,0.833-0.523,0.573-0.71
	C27.992,11.847,28.148,11.042,27.204,11.152z"/>
</svg>
