<?xml version="1.0" encoding="iso-8859-1"?>
<!-- Generator: Adobe Illustrator 16.0.0, SVG Export Plug-In . SVG Version: 6.00 Build 0)  -->
<!DOCTYPE svg PUBLIC "-//W3C//DTD SVG 1.1//EN" "http://www.w3.org/Graphics/SVG/1.1/DTD/svg11.dtd">
<svg version="1.1" id="Layer_1" xmlns="http://www.w3.org/2000/svg" xmlns:xlink="http://www.w3.org/1999/xlink" x="0px" y="0px"
	 width="32px" height="32px" viewBox="0 0 32 32" style="enable-background:new 0 0 32 32;" xml:space="preserve">
<path style="fill-rule:evenodd;clip-rule:evenodd;fill:#121111;" d="M25.693,8.979c-1.139-0.617-1.914-1.749-3.1-2.154
	c-2.672-0.915-4.255,0.422-4.837,2.906c-0.362,1.542-0.872,3.031-0.49,4.707c0.213,0.932,0.408,2.016-0.145,3.02
	c-0.24,0.437,0.203,0.668,0.556,0.514c1.164-0.506,1.955,0.173,2.971,0.843c-1.875,0.903-3.532,1.78-4.202,3.816
	c-0.989,3.008-0.978,3.22,2.168,2.562c2.767-0.579,6.073-0.836,6.404-4.838c0.03-0.36,0.321-0.706,0.52-1.043
	c0.235-0.396,0.329-0.797,0.24-1.259c-0.401-2.094-0.404-4.182,0.084-6.271C26.089,10.811,26.155,9.229,25.693,8.979z"/>
<path style="fill-rule:evenodd;clip-rule:evenodd;fill:#121111;" d="M9.651,22.138c-0.827,0.895-1.556,1.917-2.513,2.638
	c-1.214,0.917-0.973,1.782-0.243,2.946c1.712-1.375,2.068-3.739,3.848-4.977c0.376-0.262-0.07-0.6-0.294-0.828
	C10.07,21.533,9.875,21.898,9.651,22.138z"/>
</svg>
