<?xml version="1.0" encoding="iso-8859-1"?>
<!-- Generator: Adobe Illustrator 16.0.0, SVG Export Plug-In . SVG Version: 6.00 Build 0)  -->
<!DOCTYPE svg PUBLIC "-//W3C//DTD SVG 1.1//EN" "http://www.w3.org/Graphics/SVG/1.1/DTD/svg11.dtd">
<svg version="1.1" id="Layer_1" xmlns="http://www.w3.org/2000/svg" xmlns:xlink="http://www.w3.org/1999/xlink" x="0px" y="0px"
	 width="32px" height="32px" viewBox="0 0 32 32" style="enable-background:new 0 0 32 32;" xml:space="preserve">
<path style="fill-rule:evenodd;clip-rule:evenodd;fill:#121111;" d="M27.306,12.341c-0.263-0.12-0.406-0.291-0.356-0.555
	c0.272-1.429-0.636-2.601-0.844-3.925c-0.11-0.7-0.421-0.821-1.073-0.415c-2.159,1.345-4.457,2.487-6.516,3.97
	c-2.274,1.634-3.798,0.714-5.338-0.547c-0.51-0.421-0.923-0.644-1.564-0.429c-0.702,0.238-0.659,0.88-0.626,1.341
	c0.3,4.313-1.293,8.291-2.194,12.381c-0.705,3.203-0.841,3.171,2.337,3.765c0.096,0.019,0.187,0.058,0.283,0.079
	c2.008,0.413,3.137,0.043,4.177-1.729c0.648-1.103,1.51-1.504,2.677-1.693c0.709-0.115,1.66,0.036,1.964-0.944
	c0.233-0.749,0.666-1.294,1.387-1.589c0.614-0.25,0.55-0.523,0.141-0.954c-1.315-1.387-2.6-2.801-4.065-4.388
	c2.721-0.747,5.346-1.464,7.968-2.196c0.655-0.182,1.292-0.389,1.823-0.878C28.367,12.821,28.392,12.836,27.306,12.341z"/>
</svg>
