<?xml version="1.0" encoding="iso-8859-1"?>
<!-- Generator: Adobe Illustrator 16.0.0, SVG Export Plug-In . SVG Version: 6.00 Build 0)  -->
<!DOCTYPE svg PUBLIC "-//W3C//DTD SVG 1.1//EN" "http://www.w3.org/Graphics/SVG/1.1/DTD/svg11.dtd">
<svg version="1.1" id="Layer_1" xmlns="http://www.w3.org/2000/svg" xmlns:xlink="http://www.w3.org/1999/xlink" x="0px" y="0px"
	 width="32px" height="32px" viewBox="0 0 32 32" style="enable-background:new 0 0 32 32;" xml:space="preserve">
<path style="fill-rule:evenodd;clip-rule:evenodd;fill:#121111;" d="M26.975,18.127c-0.114-0.688-0.704-0.66-1.29-0.62
	c-0.757,0.053-1.565,0.258-2.328-0.398c0.621-0.576,1.225-1.129,1.819-1.692c0.363-0.344,0.741-0.745,1.278-0.49
	c0.634,0.302,1.179,0.069,1.801-0.012c1.191-0.159,1.91-0.782,1.834-1.862c-0.08-1.15-0.943-2.212-1.869-2.649
	c-0.479-0.229-0.72,1.271-1.154,1.938c-0.075,0.115-0.105,0.259-0.247,0.617c-0.275-0.595-0.66-1.045-0.646-1.479
	c0.038-1.168-0.686-1.528-1.562-1.973c-1.623-0.826-3.251-0.762-4.998-0.576c-1.986,0.213-3.265,1.076-3.971,2.936
	c-0.749,1.969-1.635,3.888-2.89,5.596c-0.88,1.198-1.864,2.32-2.871,3.564c2.55,0.321,4.928,0.66,7.316,0.917
	c2.817,0.305,3.194,0.596,3.894,3.346c0.097,0.379,0.129,0.813,0.338,1.119c0.395,0.587,0.689,1.372,1.574,1.379
	c2.673,0.017,5.347,0.005,8.112,0.005C30.025,24.305,27.553,21.624,26.975,18.127z"/>
</svg>
