<?xml version="1.0" encoding="iso-8859-1"?>
<!-- Generator: Adobe Illustrator 16.0.0, SVG Export Plug-In . SVG Version: 6.00 Build 0)  -->
<!DOCTYPE svg PUBLIC "-//W3C//DTD SVG 1.1//EN" "http://www.w3.org/Graphics/SVG/1.1/DTD/svg11.dtd">
<svg version="1.1" id="Layer_1" xmlns="http://www.w3.org/2000/svg" xmlns:xlink="http://www.w3.org/1999/xlink" x="0px" y="0px"
	 width="32px" height="32px" viewBox="0 0 32 32" style="enable-background:new 0 0 32 32;" xml:space="preserve">
<path style="fill-rule:evenodd;clip-rule:evenodd;fill:#121111;" d="M29.435,15.514c-1.045-0.37-1.829-1.236-3.019-1.347
	c-1.318-0.12-2.633-0.157-3.951-0.219c-1.654-0.082-3.353,0.552-4.959-0.605c-0.704-0.51-1.675-0.013-1.919,0.925
	c-0.228,0.878-0.724,0.81-1.267,0.538c-0.864-0.431-1.75-0.599-2.698-0.51c-0.702,0.067-1.54,0.581-1.3,1.078
	c0.471,0.976-0.271,0.987-0.673,1.235c-0.412,0.252-0.745,0.512-1.005,0.997c0.654,0.235,1.195,0.351,1.641,0.794
	c0.622,0.622,1.122,0.024,1.605-0.367c0.028-0.021,0.222,0.11,0.296,0.204c0.584,0.74,1.531,0.776,2.616,1.372
	c-1.537,0.086-2.301,1.419-3.852,1.025c-0.782-0.2-1.655,0.482-1.513,1.525c0.149,1.095,0.893,0.769,1.553,0.451
	c0.251-0.12,0.443-0.021,0.661,0.139c1.514,1.112,3.026,0.085,4.539-0.038c0.278-0.021,0.307-0.293,0.39-0.538
	c0.463-1.369,2.361-2.168,3.695-1.604c0.587,0.25,1.53-0.019,1.596-0.237c0.496-1.655,1.884-1.231,2.997-1.455
	c0.238-0.049,0.587-0.078,0.679-0.236c0.839-1.429,2.45-1.496,3.732-2.102C30.084,16.159,30.103,15.751,29.435,15.514z"/>
</svg>
