<?xml version="1.0" encoding="iso-8859-1"?>
<!-- Generator: Adobe Illustrator 16.0.0, SVG Export Plug-In . SVG Version: 6.00 Build 0)  -->
<!DOCTYPE svg PUBLIC "-//W3C//DTD SVG 1.1//EN" "http://www.w3.org/Graphics/SVG/1.1/DTD/svg11.dtd">
<svg version="1.1" id="Layer_1" xmlns="http://www.w3.org/2000/svg" xmlns:xlink="http://www.w3.org/1999/xlink" x="0px" y="0px"
	 width="32px" height="32px" viewBox="0 0 32 32" style="enable-background:new 0 0 32 32;" xml:space="preserve">
<path style="fill-rule:evenodd;clip-rule:evenodd;fill:#121111;" d="M24.775,8.323c-0.341-0.512-1.025-0.79-1.396-0.51
	c-0.946,0.725-1.965,0.38-2.952,0.485c-0.398,0.043-0.962-0.169-0.938,0.564c0.031,0.984-0.749,1.277-1.405,1.681
	c-1.211,0.75-2.135,1.884-2.392,3.176c-0.34,1.713-0.932,3.25-1.747,4.766c-0.924,1.717-1.304,3.701-2.423,5.322
	c-1.035,1.496-1.167,3.319-2.179,4.885c1.078,0.063,1.914,0.068,2.74,0.166c1.129,0.137,1.91-0.14,2.1-1.405
	c0.057-0.368,0.158-0.879,0.594-0.941c1.652-0.237,2.737-1.448,3.729-2.51c0.535-0.574,2.829-1.162,0.92-2.796
	c-0.293-0.25-0.021-0.757,0.228-1.059c0.572-0.697,1.193-1.29,2.216-1.219c0.746,0.054,1.5,0.012,2.355,0.012
	c-1.23-1.332-1.153-1.837,0.497-2.701c1.136-0.596,2.138-1.568,1.936-2.656c-0.269-1.451-0.453-3.372-2.944-3.551
	c0.365-0.398,0.543-0.557,0.677-0.747C24.593,8.998,25.103,8.813,24.775,8.323z"/>
</svg>
