<?xml version="1.0" encoding="iso-8859-1"?>
<!-- Generator: Adobe Illustrator 16.0.0, SVG Export Plug-In . SVG Version: 6.00 Build 0)  -->
<!DOCTYPE svg PUBLIC "-//W3C//DTD SVG 1.1//EN" "http://www.w3.org/Graphics/SVG/1.1/DTD/svg11.dtd">
<svg version="1.1" id="Layer_1" xmlns="http://www.w3.org/2000/svg" xmlns:xlink="http://www.w3.org/1999/xlink" x="0px" y="0px"
	 width="32px" height="32px" viewBox="0 0 32 32" style="enable-background:new 0 0 32 32;" xml:space="preserve">
<path style="fill-rule:evenodd;clip-rule:evenodd;fill:#121111;" d="M11.786,18.376c1.167,0.765,2.442,1.399,3.421,2.413
	c3.083,3.202,6.739,5.452,10.938,6.88c0.83,0.283,1.294,0.436,1.1-0.748c-0.183-1.118-0.106-2.215,0.456-3.276
	c0.441-0.837,0.724-1.984,0.219-2.689c-0.795-1.111-1.854-2.232-3.063-2.783c-0.84-0.384-1.743-0.631-2.592-1.291
	c1.525-1.098,1.591-2.493,0.969-4.069c-0.294-0.747-0.584-1.588-1.4-1.71c-0.793-0.119-0.394,0.976-0.889,1.312
	c-0.147,0.097-0.171,0.356-0.299,0.497c-0.316,0.351-0.907,0.525-1.146,0.294c-0.463-0.445-1.561-0.581-1.397-1.206
	c0.339-1.278-0.316-2.297-0.528-3.411c-0.288-1.519-2.709-2.573-3.741-1.528c-0.697,0.706-1.558,1.59-1.855,2.524
	c-0.365,1.148-1.063,1.816-1.914,2.464c-0.902,0.688-1.723,1.439-2.327,2.419C7.47,14.9,7.369,15.206,7.822,15.582
	C9.069,16.618,10.46,17.505,11.786,18.376z"/>
</svg>
