<?xml version="1.0" encoding="iso-8859-1"?>
<!-- Generator: Adobe Illustrator 16.0.0, SVG Export Plug-In . SVG Version: 6.00 Build 0)  -->
<!DOCTYPE svg PUBLIC "-//W3C//DTD SVG 1.1//EN" "http://www.w3.org/Graphics/SVG/1.1/DTD/svg11.dtd">
<svg version="1.1" id="Layer_1" xmlns="http://www.w3.org/2000/svg" xmlns:xlink="http://www.w3.org/1999/xlink" x="0px" y="0px"
	 width="32px" height="32px" viewBox="0 0 32 32" style="enable-background:new 0 0 32 32;" xml:space="preserve">
<path style="fill-rule:evenodd;clip-rule:evenodd;fill:#121111;" d="M5.804,17.622c-0.067,0.285,1.217,2.65,1.496,2.69
	c1.636,0.23,2.555,1.764,4.162,2.218c0.788,0.223,1.325,0.475,1.968-0.008c0.769-0.579,1.419-0.531,2.262-0.052
	c2.727,1.544,5.508,2.986,8.27,4.466c1.564,0.838,2.642,0.204,2.651-1.551c0.025-5.044-0.055-10.093,0.145-15.13
	c0.058-1.466-0.239-1.908-1.604-1.883C24.735,8.379,24.307,8.149,24,7.787c-0.382-0.448-0.894-0.585-1.394-0.523
	c-1.95,0.02-2.829,0.943-2.735,2.758c0.058,1.105-0.687,1.203-1.475,1.009c-0.402-0.099-0.724-0.493-1.105-0.714
	c-1.325-0.769-3.038-0.467-4.129-2.171c-0.715-1.116-2.707-0.693-4.136-0.883C8.301,7.168,8.719,8.123,8.027,8.349
	c-1.641,0.537-0.994,2.743-2.324,3.615c-0.029,0.019,0.017,0.189,0.06,0.271C6.737,14.025,6.219,15.823,5.804,17.622z"/>
</svg>
