<?xml version="1.0" encoding="iso-8859-1"?>
<!-- Generator: Adobe Illustrator 16.0.0, SVG Export Plug-In . SVG Version: 6.00 Build 0)  -->
<!DOCTYPE svg PUBLIC "-//W3C//DTD SVG 1.1//EN" "http://www.w3.org/Graphics/SVG/1.1/DTD/svg11.dtd">
<svg version="1.1" id="Layer_1" xmlns="http://www.w3.org/2000/svg" xmlns:xlink="http://www.w3.org/1999/xlink" x="0px" y="0px"
	 width="32px" height="32px" viewBox="0 0 32 32" style="enable-background:new 0 0 32 32;" xml:space="preserve">
<path style="fill-rule:evenodd;clip-rule:evenodd;fill:#121111;" d="M6.633,17.184c0.04,1.646,1.161,3.146,2.122,3.771
	c1.29,0.838,3.272,1.119,5.02,0.528c0.385-0.13,0.744-0.293,1.127-0.146c1.22,0.466,2.214-0.181,2.787-0.995
	c1.141-1.621,2.646-1.697,4.259-1.35c1.086,0.233,2.252,0.242,2.922-0.425c0.676-0.675,1.004-1.698,2.091-1.965
	c0.017-0.002,0.013-0.091,0.017-0.139c0.156-1.999,0.694-4.03-0.702-5.856c-0.247-0.321-0.465-0.639-0.859-0.741
	c-1.26-0.327-2.121-1.181-2.877-2.162c-0.375-0.482-0.807-0.978-1.427-0.879c-2.289,0.367-4.566,0.813-6.845,1.246
	c-0.346,0.064-0.662,0.263-0.789,0.601c-0.23,0.61-0.483,0.499-0.964,0.211c-0.853-0.511-3.343,0.163-3.615,1.028
	c-0.282,0.894-0.089,1.912-1.61,1.83c-0.389-0.02-0.55,1.168-0.51,1.835c0.031,0.52,0.139,0.973-0.427,1.252
	c0,0.394,0,0.785,0,1.179C6.891,16.288,6.624,16.79,6.633,17.184z"/>
</svg>
