<?xml version="1.0" encoding="iso-8859-1"?>
<!-- Generator: Adobe Illustrator 16.0.0, SVG Export Plug-In . SVG Version: 6.00 Build 0)  -->
<!DOCTYPE svg PUBLIC "-//W3C//DTD SVG 1.1//EN" "http://www.w3.org/Graphics/SVG/1.1/DTD/svg11.dtd">
<svg version="1.1" id="Layer_1" xmlns="http://www.w3.org/2000/svg" xmlns:xlink="http://www.w3.org/1999/xlink" x="0px" y="0px"
	 width="32px" height="32px" viewBox="0 0 32 32" style="enable-background:new 0 0 32 32;" xml:space="preserve">
<path style="fill-rule:evenodd;clip-rule:evenodd;fill:#121111;" d="M28.046,15.438c-0.532-0.846-1.146-0.644-1.524,0.137
	c-0.814,1.674-2.736,2.108-3.816,3.482c-0.146,0.186-0.538,0.232-0.821,0.247c-0.397,0.021-0.729,0.209-0.798,0.533
	c-0.267,1.246-1.05,0.963-2.181,0.452c0.94,1.402,0.946,1.297,2.048,1.359c0.702,0.04,1.104-0.742,1.567-0.582
	c2.392,0.824,2.754-1.035,3.307-2.482c0.243-0.643,0.678-0.844,1.066-0.694c1.357,0.521,2.166-0.227,3.005-1.094
	C29.367,16.229,28.496,16.152,28.046,15.438z"/>
<path style="fill-rule:evenodd;clip-rule:evenodd;fill:#121111;" d="M9.012,16.979c0.267,1.893,1.393,3.091,3.021,3.953
	c0.394,0.209,0.799,0.305,1.077,0.11c0.422-0.29,0.09-0.702-0.122-0.997c-0.468-0.66-0.691-1.346-0.552-2.174
	c0.105-0.612-0.189-1.093-0.661-1.532c-0.867-0.813-2.201-0.16-3.109-1.022C8.783,15.869,8.933,16.419,9.012,16.979z"/>
</svg>
