<?xml version="1.0" encoding="iso-8859-1"?>
<!-- Generator: Adobe Illustrator 16.0.0, SVG Export Plug-In . SVG Version: 6.00 Build 0)  -->
<!DOCTYPE svg PUBLIC "-//W3C//DTD SVG 1.1//EN" "http://www.w3.org/Graphics/SVG/1.1/DTD/svg11.dtd">
<svg version="1.1" id="Layer_1" xmlns="http://www.w3.org/2000/svg" xmlns:xlink="http://www.w3.org/1999/xlink" x="0px" y="0px"
	 width="32px" height="32px" viewBox="0 0 32 32" style="enable-background:new 0 0 32 32;" xml:space="preserve">
<path style="fill-rule:evenodd;clip-rule:evenodd;fill:#121111;" d="M27.394,17.524c-0.632-0.301-2.159,0.302-2.344,1.019
	c-0.268,1.047-1.064,1.092-1.896,1.233c-0.843,0.146-1.555,0.011-2.051-0.718c-0.791-1.154-1.423-2.352-0.836-3.823
	c0.112-0.284,0.365-0.814-0.073-0.9c-1.292-0.25-1.479-1.433-2.089-2.253c-0.396-0.533-0.922-0.918-1.475-0.523
	c-0.838,0.595-1.03,0.066-1.434-0.495c-0.548-0.764-1.285-1.527-2.325-1.033c-0.944,0.446-1.766,0.236-2.666,0.013
	C9.267,9.812,8.455,9.206,7.448,9.188c-0.841-0.015-1.134,0.302-0.601,1.009c0.982,1.294,1.155,3.148,2.781,4.002
	c0.149,0.076,0.313,0.302,0.313,0.46c0.007,1.285,1.256,1.23,1.717,2.014c0.091-0.082,0.181-0.163,0.271-0.245
	c-0.79-1.335-1.582-2.669-2.374-4.004l0.104,0.012l0.067-0.082c2.042,1.163,3.169,3.216,4.71,4.864
	c0.125,0.132,0.26,0.386,0.215,0.525c-0.531,1.603,0.858,1.859,1.726,2.356c1.051,0.601,2.223,0.987,3.335,1.48
	c0.456,0.201,1.005,0.47,1.409,0.249c1.201-0.656,1.905,0.107,2.88,1.035c-0.401-1.239,1.911-1.011,0.485-2.625
	c2.113,0.55,2.645-0.675,3.118-2.006C27.723,17.901,27.737,17.688,27.394,17.524z"/>
</svg>
