<?xml version="1.0" encoding="iso-8859-1"?>
<!-- Generator: Adobe Illustrator 16.0.0, SVG Export Plug-In . SVG Version: 6.00 Build 0)  -->
<!DOCTYPE svg PUBLIC "-//W3C//DTD SVG 1.1//EN" "http://www.w3.org/Graphics/SVG/1.1/DTD/svg11.dtd">
<svg version="1.1" id="Layer_1" xmlns="http://www.w3.org/2000/svg" xmlns:xlink="http://www.w3.org/1999/xlink" x="0px" y="0px"
	 width="32px" height="32px" viewBox="0 0 32 32" style="enable-background:new 0 0 32 32;" xml:space="preserve">
<path style="fill-rule:evenodd;clip-rule:evenodd;fill:#121111;" d="M16.564,24.708c0.246-0.594-0.458-1.545,0.37-2.183
	c1.312-1.014,2.778-1.766,4.396-2.105c1.531-0.323,2.335-1.811,3.799-2.195c0.073-0.019,0.152-0.142,0.168-0.228
	c0.355-1.901,1.832-1.914,3.293-1.984c0.408-0.02,0.954,0.241,1.188-0.275c0.21-0.466,0.078-0.975-0.235-1.391
	c-0.288-0.383-0.578-0.69-0.517-1.278c0.259-2.49-0.563-3.601-3.7-3.485c-0.959,0.035-1.799,0.034-2.541-0.766
	c-0.71-0.766-1.391-0.526-1.823,0.419c-0.264,0.577-0.605,1.124-0.821,1.717c-0.46,1.268-1.335,1.967-2.636,2.287
	c-1.515,0.372-3.7,3.534-3.226,4.994c0.596,1.838-0.43,2.711-1.558,3.692c-1.159,1.008-2.311,2.011-3.957,2.267
	c0.045,0.171,0.089,0.341,0.135,0.513C11.423,24.708,13.945,24.708,16.564,24.708z"/>
</svg>
