<?xml version="1.0" encoding="iso-8859-1"?>
<!-- Generator: Adobe Illustrator 16.0.0, SVG Export Plug-In . SVG Version: 6.00 Build 0)  -->
<!DOCTYPE svg PUBLIC "-//W3C//DTD SVG 1.1//EN" "http://www.w3.org/Graphics/SVG/1.1/DTD/svg11.dtd">
<svg version="1.1" id="Layer_1" xmlns="http://www.w3.org/2000/svg" xmlns:xlink="http://www.w3.org/1999/xlink" x="0px" y="0px"
	 width="32px" height="32px" viewBox="0 0 32 32" style="enable-background:new 0 0 32 32;" xml:space="preserve">
<path style="fill-rule:evenodd;clip-rule:evenodd;fill:#121111;" d="M14.799,10.972c-1.572-0.64-2.679,0.287-3.974,0.616
	c-0.426,0.109-0.54,0.333-0.484,0.74c0.054,0.396,0.055,0.897,0.521,0.951c2.304,0.266,3.066,1.144,2.607,3.715
	c-0.272,1.526-0.625,2.745-1.554,3.877c-0.187,0.228-0.463,0.407-0.353,0.745c0.559,1.716,1.082,3.431,0.894,5.277
	c-0.028,0.267,0.115,0.603,0.531,0.514c0.273-0.058,0.721-0.092,0.581-0.476c-0.618-1.691,0.816-1.738,1.71-2.097
	c1.05-0.42,1.523-1.032,1.514-2.196c-0.009-1.045-0.05-2.1-0.532-2.988c-0.5-0.923-0.311-1.633,0.405-2.118
	c1.427-0.964,2.322-2.583,4.198-3.032c1.523-0.364,2.663-2.152,2.409-3.426c-0.243-1.218-0.209-2.437-0.221-3.653
	c-0.01-0.956-0.09-1.337-1.188-0.798c-1.25,0.614-2.643,1.199-4.03,1.051c-2.199-0.235-2.394-0.133-1.735,1.992
	c0.086,0.279,0.075,0.66,0.26,0.826c1.439,1.289,0.829,2.368-0.335,3.46c-0.352-0.574-0.85-1.016-0.466-1.845
	C15.826,11.528,15.554,11.28,14.799,10.972z"/>
</svg>
