<?xml version="1.0" encoding="iso-8859-1"?>
<!-- Generator: Adobe Illustrator 16.0.0, SVG Export Plug-In . SVG Version: 6.00 Build 0)  -->
<!DOCTYPE svg PUBLIC "-//W3C//DTD SVG 1.1//EN" "http://www.w3.org/Graphics/SVG/1.1/DTD/svg11.dtd">
<svg version="1.1" id="Layer_1" xmlns="http://www.w3.org/2000/svg" xmlns:xlink="http://www.w3.org/1999/xlink" x="0px" y="0px"
	 width="32px" height="32px" viewBox="0 0 32 32" style="enable-background:new 0 0 32 32;" xml:space="preserve">
<path style="fill-rule:evenodd;clip-rule:evenodd;fill:#121111;" d="M19.669,11.282c0.854-1.04,0.812-2.297-0.271-3.221
	c-1.091-0.931-0.87,0.734-1.469,0.847c-0.134,0.027-0.257,0.113-0.389,0.164c-0.976,0.368-1.568,1.047-1.804,2.077
	c-0.362,1.591-1.736,2.601-2.363,4.086c-0.458,1.086-0.466,1.725,0.449,2.454c1.127,0.901,1.775,2.05,1.483,3.582
	c-0.055,0.295-0.597,0.742,0.123,0.932c0.466,0.122,0.916,0.67,1.448,0.023c0.233-0.283,0.708-0.36,0.968-0.632
	c0.44-0.453,0.707-0.307,0.779,0.197c0.305,2.147,1.904,4.021,1.243,6.413c1.369-0.898,1.466-2.541,0.332-4.098
	c-0.214-0.295-0.714-0.517-0.408-0.976c0.701-1.052,0.228-1.822-0.429-2.685c-0.733-0.97-0.325-1.879,0.752-2.424
	c1.017-0.514,2.121-0.989,2.659-2.286c-0.877,0.053-1.717-0.396-1.891-0.979c-0.262-0.891-0.391-1.867-1.641-1.98
	c-0.234-0.021-0.354-0.344-0.201-0.707C19.188,11.729,19.455,11.539,19.669,11.282z"/>
</svg>
