<?xml version="1.0" encoding="iso-8859-1"?>
<!-- Generator: Adobe Illustrator 16.0.0, SVG Export Plug-In . SVG Version: 6.00 Build 0)  -->
<!DOCTYPE svg PUBLIC "-//W3C//DTD SVG 1.1//EN" "http://www.w3.org/Graphics/SVG/1.1/DTD/svg11.dtd">
<svg version="1.1" id="Layer_1" xmlns="http://www.w3.org/2000/svg" xmlns:xlink="http://www.w3.org/1999/xlink" x="0px" y="0px"
	 width="32px" height="32px" viewBox="0 0 32 32" style="enable-background:new 0 0 32 32;" xml:space="preserve">
<path style="fill-rule:evenodd;clip-rule:evenodd;fill:#121111;" d="M28.786,9.489c-0.431-0.845-1.002-1.365-1.926-0.604
	c-0.742,0.609-1.468,0.706-2.399,0.353c-1.038-0.392-2.211-0.328-3.056,0.429c-0.667,0.599-1.251,0.516-1.864,0.204
	c-0.932-0.477-1.82-0.927-2.855-0.292c-0.306,0.188-0.521,0.001-0.764-0.2c-1.461-1.206-3.111-1.476-4.235-0.72
	c-0.967,0.65-1.814,3.351-1.291,4.548c0.35,0.802,0.12,1.59-0.267,2.039c-1.264,1.466-1.789,3.032-1.244,4.927
	c-0.67,1.579,0.322,1.609,1.414,1.469c1.446-0.184,2.309,0.569,2.939,1.732c1.239,2.289,1.244,2.323,3.646,1.71
	c0.393-0.1,0.76-0.082,1.135-0.123c0.834-0.09,1.499-0.528,1.588-1.293c0.137-1.172,0.915-1.834,1.674-2.477
	c0.604-0.512,1.438-1.019,2.104,0.01c0.472,0.732,0.757,0.323,1.051-0.114c0.874-1.301,1.255-2.848,2.276-4.106
	c1.071-1.32,0.958-3.426,2.844-4.3c0.432-0.2,0.526-1.147,0.166-1.452C29.135,10.731,29.081,10.072,28.786,9.489z"/>
</svg>
