<?xml version="1.0" encoding="iso-8859-1"?>
<!-- Generator: Adobe Illustrator 16.0.0, SVG Export Plug-In . SVG Version: 6.00 Build 0)  -->
<!DOCTYPE svg PUBLIC "-//W3C//DTD SVG 1.1//EN" "http://www.w3.org/Graphics/SVG/1.1/DTD/svg11.dtd">
<svg version="1.1" id="Layer_1" xmlns="http://www.w3.org/2000/svg" xmlns:xlink="http://www.w3.org/1999/xlink" x="0px" y="0px"
	 width="32px" height="32px" viewBox="0 0 32 32" style="enable-background:new 0 0 32 32;" xml:space="preserve">
<path style="fill-rule:evenodd;clip-rule:evenodd;fill:#121111;" d="M6.27,22.381c0.292,1.695,1.657,2.237,3.07,1.252
	c0.599-0.415,1.128-1.182,2.033-0.642c0.19,0.113,0.273,0.013,0.294-0.112c0.192-1.132,1.154-2.025,0.611-3.43
	c-0.346-0.894-1.043-2.546,1.085-2.753c0.114-0.013,0.319-0.183,0.308-0.25c-0.251-1.53,1.158-2.377,1.493-3.553
	c0.653-2.296,3.18-1.561,4.212-3.071c0.216-0.316,0.462,0.144,0.679,0.289c1.155,0.761,2.515,0.438,3.139-0.738
	c0.431-0.81,2.139-1.081,2.322-0.314c0.307,1.289,0.749,0.36,1.154,0.267c0.188-0.041,0.371-0.108,0.577-0.173
	c-0.012-0.625-0.733-0.295-0.688-0.637c0.129-0.973,0.159-0.932-0.778-1.292c-1.072-0.413-2.19-0.101-3.258-0.127
	c-0.91-0.021-2.13-0.049-2.906,0.978c-0.251,0.333-0.937,0.482-1.416,0.468c-0.811-0.028-2.081,0.502-2.388,1.179
	c-0.199,0.44-0.285,0.512-0.573,0.174c-0.636-0.745-0.807,0.382-1.261,0.252c0.019,0.336-0.556,0.637-0.137,0.97
	c0.59,0.469,0.227,0.949-0.077,1.181c-0.86,0.652-1.157,1.678-1.812,2.444c-0.815,0.959-1.616,1.883-2.817,2.503
	c-1.821,0.938-3.855,1.957-2.922,4.703C6.26,22.081,6.245,22.237,6.27,22.381z"/>
</svg>
