<?xml version="1.0" encoding="iso-8859-1"?>
<!-- Generator: Adobe Illustrator 16.0.0, SVG Export Plug-In . SVG Version: 6.00 Build 0)  -->
<!DOCTYPE svg PUBLIC "-//W3C//DTD SVG 1.1//EN" "http://www.w3.org/Graphics/SVG/1.1/DTD/svg11.dtd">
<svg version="1.1" id="Layer_1" xmlns="http://www.w3.org/2000/svg" xmlns:xlink="http://www.w3.org/1999/xlink" x="0px" y="0px"
	 width="32px" height="32px" viewBox="0 0 32 32" style="enable-background:new 0 0 32 32;" xml:space="preserve">
<path style="fill-rule:evenodd;clip-rule:evenodd;fill:#121111;" d="M7,18.891c0.476,0.158,1.017,0.331,0.873,0.96
	c-0.138,0.608,0.616,0.789,0.536,1.178c-0.11,0.54-0.866,0.245-1.2,0.627c-0.183,0.211-0.477,0.288-0.578,0.619
	c-0.114,0.377-0.372,0.756-0.184,1.124c0.229,0.447,0.714,0.247,1.052,0.164c1.295-0.32,2.641,0.069,3.904-0.255
	c1.333-0.344,1.947,0.375,2.351,1.373c0.328,0.811,0.994,1.012,1.488,0.617c0.77-0.614,1.575-0.443,2.357-0.441
	c1.388,0.003,1.407-0.591,0.888-1.603c-0.307-0.598-1.026-0.924-1.037-1.756c-0.002-0.193-0.915-0.354-0.368-0.881
	c0.37-0.355,0.467-1.415,1.482-0.703c0.195,0.137,1.031,0.033,1.425-0.481c0.862-1.124,1.638-2.366,2.693-3.278
	c0.921-0.797,0.444-2.27,1.803-2.702c-1.237-0.728-2.186-2.159-1.821-3.073c0.412-1.035,1.35-0.054,2.032-0.217
	c0.475-0.115,0.959-0.207,1.417-0.37c0.299-0.108,0.637-0.245,0.55-0.718c-0.116-0.627-2.352-2.878-2.957-2.717
	C22.605,6.65,21.423,6.264,20.407,6.8c-0.53,0.278-1.453,0.314-1.329,1.261c0.203,1.547-0.064,2.073-1.544,2.717
	c-0.213,0.091-0.266,0.224-0.218,0.443c0.259,1.185-1.328,1.614-1.152,2.809c0.033,0.226-0.427-0.013-0.613,0.036
	c-1.073,0.288-2.613,0.474-2.853,1.457c-0.364,1.497-1.159,1.516-2.323,1.723c-1.695,0.298-3.277,0.113-4.874-0.375
	c0,0.099,0,0.196,0,0.296C6.225,17.545,6.159,18.612,7,18.891z"/>
</svg>
