<?xml version="1.0" encoding="iso-8859-1"?>
<!-- Generator: Adobe Illustrator 16.0.0, SVG Export Plug-In . SVG Version: 6.00 Build 0)  -->
<!DOCTYPE svg PUBLIC "-//W3C//DTD SVG 1.1//EN" "http://www.w3.org/Graphics/SVG/1.1/DTD/svg11.dtd">
<svg version="1.1" id="Layer_1" xmlns="http://www.w3.org/2000/svg" xmlns:xlink="http://www.w3.org/1999/xlink" x="0px" y="0px"
	 width="32px" height="32px" viewBox="0 0 32 32" style="enable-background:new 0 0 32 32;" xml:space="preserve">
<path style="fill-rule:evenodd;clip-rule:evenodd;fill:#121111;" d="M20.208,11.523c-0.908-0.17-1.582-0.146-2.422,0.44
	c-1.255,0.874-2.716,1.474-4.138,2.077c-0.878,0.372-1.816,0.444-2.505-0.502c-0.133-0.183-0.397-0.395-0.594-0.39
	c-1.199,0.036-1.275,0.095-1.798-0.989c-0.406-0.84-1.163-0.807-1.707-0.663c-0.753,0.2-0.639,1.042-0.499,1.644
	c0.186,0.802,0.253,1.71-0.16,2.623c-0.179,0.398,0.119,0.521,0.225,0.754c0.125,0.278,0.184,0.038,0.334-0.023
	c1.528-0.623,3.563,0.002,4.505,1.33c0.695,0.978,1.219,0.984,1.832,0.019c0.165,0.457,0.424,0.903,0.475,1.372
	c0.11,1.025,0.778,0.987,1.468,0.836c1.918-0.421,2.187-1.124,0.936-2.613c-0.66-0.788-0.521-1.077,0.419-1.377
	c0.608-0.193,1.227-0.504,1.578-1.186c0.729-1.417,1.576-1.525,2.977-0.894c0.947,0.425,1.216,1.483,2.141,1.834
	c0.059,0.073,0.122,0.142,0.189,0.207c-0.975,1.794,0.293,2.841,1.336,4.078c0.377-0.73,0.763-1.184,1.591-1.468
	c1.224-0.42,0.87-3.223-0.219-4.423C24.539,12.407,22.424,11.938,20.208,11.523z"/>
</svg>
