<?xml version="1.0" encoding="iso-8859-1"?>
<!-- Generator: Adobe Illustrator 16.0.0, SVG Export Plug-In . SVG Version: 6.00 Build 0)  -->
<!DOCTYPE svg PUBLIC "-//W3C//DTD SVG 1.1//EN" "http://www.w3.org/Graphics/SVG/1.1/DTD/svg11.dtd">
<svg version="1.1" id="Layer_1" xmlns="http://www.w3.org/2000/svg" xmlns:xlink="http://www.w3.org/1999/xlink" x="0px" y="0px"
	 width="32px" height="32px" viewBox="0 0 32 32" style="enable-background:new 0 0 32 32;" xml:space="preserve">
<path style="fill-rule:evenodd;clip-rule:evenodd;fill:#121111;" d="M21.148,16.819c-1.674,0.178-0.745-1.147-1.149-1.657
	c-0.659,0.128-1.209,1.071-1.997,0.012c-0.61-0.818-1.684-1.473-1.448-2.576c0.518-2.426,1.668-3.286,4.171-3.498
	c0.112-0.432-0.791-0.46-0.383-1.049c0.763-1.096-0.188-1.377-0.842-1.226c-1.817,0.424-2.703-0.769-3.723-1.82
	c-0.235-0.245-0.473-0.517-0.766-0.665c-0.309-0.158-0.657-0.24-0.572,0.389c0.18,1.345-0.636,2.035-1.753,2.503
	c-0.715,0.301-1.531,0.502-1.701,1.437c-0.218,1.198-0.773,0.96-1.642,0.571c-0.71-0.319,0.3-0.958-0.523-1.122
	c-0.675,0.508-1.111,0.939-0.919,2.177c0.194,1.261,1.211,1.479,1.719,2.267c1.427,2.213,2.689,4.574,3.642,6.953
	c0.815,2.035,2.153,2.909,3.816,3.729c1.095,0.536,2.088,1.163,2.756,2.212c0.394,0,0.788,0,1.182,0
	c0.243-1.374,1.083-2.572,0.753-4.172c-0.117-0.564,0.066-1.71,0.38-2.584C22.386,18.035,21.628,16.77,21.148,16.819z"/>
</svg>
