<?xml version="1.0" encoding="iso-8859-1"?>
<!-- Generator: Adobe Illustrator 16.0.0, SVG Export Plug-In . SVG Version: 6.00 Build 0)  -->
<!DOCTYPE svg PUBLIC "-//W3C//DTD SVG 1.1//EN" "http://www.w3.org/Graphics/SVG/1.1/DTD/svg11.dtd">
<svg version="1.1" id="Layer_1" xmlns="http://www.w3.org/2000/svg" xmlns:xlink="http://www.w3.org/1999/xlink" x="0px" y="0px"
	 width="32px" height="32px" viewBox="0 0 32 32" style="enable-background:new 0 0 32 32;" xml:space="preserve">
<path style="fill-rule:evenodd;clip-rule:evenodd;fill:#121111;" d="M25.898,13.114c-1.505-0.043-2.786-0.898-4.273-0.947
	c-4.551-0.151-9.108,0.214-13.658-0.142c-0.646-0.05-0.919,0.311-1.388,0.834c-1.093,1.223-0.987,2.011,0.103,3.005
	c0.12,0.107-0.069,0.533-0.078,0.814c-0.017,0.53-0.406,1.022-0.125,1.636c-0.706,1.434,0.508,0.907,1.062,0.893
	c0.504-0.014,1.026-0.521,1.523-0.188c0.836,0.567,1.582,0.149,2.319-0.118c0.364-0.132,0.683-0.248,1.087-0.266
	c3.075-0.138,6.15,0.694,9.243-0.158c1.079-0.298,1.974-0.645,2.387-1.644c0.319-0.769,0.839-1.155,1.534-1.438
	c0.332-0.134,0.998-0.292,0.78-0.596C26.004,14.231,26.244,13.123,25.898,13.114z"/>
</svg>
