<?xml version="1.0" encoding="iso-8859-1"?>
<!-- Generator: Adobe Illustrator 16.0.0, SVG Export Plug-In . SVG Version: 6.00 Build 0)  -->
<!DOCTYPE svg PUBLIC "-//W3C//DTD SVG 1.1//EN" "http://www.w3.org/Graphics/SVG/1.1/DTD/svg11.dtd">
<svg version="1.1" id="Layer_1" xmlns="http://www.w3.org/2000/svg" xmlns:xlink="http://www.w3.org/1999/xlink" x="0px" y="0px"
	 width="32px" height="32px" viewBox="0 0 32 32" style="enable-background:new 0 0 32 32;" xml:space="preserve">
<path style="fill-rule:evenodd;clip-rule:evenodd;fill:#121111;" d="M9.694,17.947c0.474,0.355,0.86,1.499,1.612,1.391
	c0.952-0.137,1.075,0.49,1.393,0.942c0.5,0.713,0.985,1.198,1.988,1.2c1.259,0.003,2.513,0.31,3.773,0.45
	c0.48,0.05,0.976,0.066,1.391-0.306c1.511-1.357,3.123-1.017,4.733-0.231c0.865,0.424,1.563,0.733,1.603-0.729
	c0.026-0.953,0.571-1.524,1.547-1.821c0.686-0.205,0.81-0.715,0.707-1.261c-0.113-0.609-0.592-0.641-1.142-0.525
	c-2.173,0.454-2.661-0.064-2.169-2.296c0.178-0.805,0.166-1.606-0.416-2.212c-0.82-0.86-1.455-1.829-2.046-2.847
	c-0.482-0.828-1.071-0.935-1.919-0.316c-0.958,0.693-2.195,1.138-3.308,0.832c-3.024-0.835-5.38-0.823-6.953,2.271
	c-0.668,1.31-1.4,2.51-3.166,2.671C8.378,15.93,8.674,17.179,9.694,17.947z"/>
</svg>
