<?xml version="1.0" encoding="iso-8859-1"?>
<!-- Generator: Adobe Illustrator 16.0.0, SVG Export Plug-In . SVG Version: 6.00 Build 0)  -->
<!DOCTYPE svg PUBLIC "-//W3C//DTD SVG 1.1//EN" "http://www.w3.org/Graphics/SVG/1.1/DTD/svg11.dtd">
<svg version="1.1" id="Layer_1" xmlns="http://www.w3.org/2000/svg" xmlns:xlink="http://www.w3.org/1999/xlink" x="0px" y="0px"
	 width="32px" height="32px" viewBox="0 0 32 32" style="enable-background:new 0 0 32 32;" xml:space="preserve">
<path style="fill-rule:evenodd;clip-rule:evenodd;fill:#121111;" d="M17.188,9.401c-1.313,0.198-1.663,1.238-2.003,2.197
	c-0.662,1.859-2.276,3.18-2.768,5.132c-0.137,0.546-0.4,1.285,0.012,1.494c1.396,0.704,0.1,1.559,0.234,2.311
	c0.025,0.14-0.403,0.334-0.209,0.604c0.796,1.109,1.337,2.481,2.886,2.826c0.917,0.205,2.535,1.326,3.201,2.159
	c0.093,0.115,0.327,0.157,0.498,0.162c0.167,0.005,0.482,0.038,0.443-0.224c-0.214-1.438,0.28-2.399,1.72-2.858
	c0.198-0.063,0.313-0.478,0.41-0.75c1.049-2.978,0.555-6.155,1.168-9.191c0.324-1.603-0.979-3.003-0.508-4.969
	c0.006-0.248-0.265-0.627-0.811-0.88c-0.484-0.224-1.025-0.684-0.908-1.139c0.318-1.225-0.689-0.867-1.168-1.138
	c-0.229,0.504-1.43,0.367-0.9,1.383c0.183,0.354-0.033,0.538-0.368,0.63c-0.645,0.17-0.704,0.644-0.512,1.152
	C17.807,8.836,17.566,9.343,17.188,9.401z"/>
</svg>
