<?xml version="1.0" encoding="iso-8859-1"?>
<!-- Generator: Adobe Illustrator 16.0.0, SVG Export Plug-In . SVG Version: 6.00 Build 0)  -->
<!DOCTYPE svg PUBLIC "-//W3C//DTD SVG 1.1//EN" "http://www.w3.org/Graphics/SVG/1.1/DTD/svg11.dtd">
<svg version="1.1" id="Layer_1" xmlns="http://www.w3.org/2000/svg" xmlns:xlink="http://www.w3.org/1999/xlink" x="0px" y="0px"
	 width="32px" height="32px" viewBox="0 0 32 32" style="enable-background:new 0 0 32 32;" xml:space="preserve">
<path style="fill-rule:evenodd;clip-rule:evenodd;fill:#121111;" d="M21.208,11.209c0.332-1.297,1.148-2.52,0.784-3.742
	c0-0.362,0.037-0.521-0.006-0.655c-0.178-0.562,0.501-1.491-0.548-1.657C20.46,5,19.458,5.036,19.063,6.295
	c-0.126,0.401-0.417,0.769-0.689,1.105c-1.35,1.664-0.998,3.361,0.831,4.474C20.24,12.504,20.952,12.209,21.208,11.209z"/>
<path style="fill-rule:evenodd;clip-rule:evenodd;fill:#121111;" d="M19.6,13.97c-1.027,0.18-1.168,1.477-2.223,1.556
	c0.222,0.462,0.87,0.14,0.834,0.73c0.274-0.154,0.592-0.269,0.782-0.495C19.417,15.262,19.708,14.678,19.6,13.97z"/>
<path style="fill-rule:evenodd;clip-rule:evenodd;fill:#121111;" d="M18.212,16.277c0-0.01-0.002-0.015-0.001-0.021
	c-0.02,0.01-0.041,0.02-0.06,0.031C18.172,16.282,18.212,16.282,18.212,16.277z"/>
<path style="fill-rule:evenodd;clip-rule:evenodd;fill:#121111;" d="M15.631,23.283c-0.012,0.003,0.167,0.307,0.411,0.355
	c0.579-0.115,0.845-0.598,1.008-1.103c0.096-0.295-0.201-0.358-0.472-0.377C15.758,22.102,16.254,23.163,15.631,23.283z"/>
</svg>
