<?xml version="1.0" encoding="iso-8859-1"?>
<!-- Generator: Adobe Illustrator 16.0.0, SVG Export Plug-In . SVG Version: 6.00 Build 0)  -->
<!DOCTYPE svg PUBLIC "-//W3C//DTD SVG 1.1//EN" "http://www.w3.org/Graphics/SVG/1.1/DTD/svg11.dtd">
<svg version="1.1" id="Layer_1" xmlns="http://www.w3.org/2000/svg" xmlns:xlink="http://www.w3.org/1999/xlink" x="0px" y="0px"
	 width="32px" height="32px" viewBox="0 0 32 32" style="enable-background:new 0 0 32 32;" xml:space="preserve">
<path style="fill-rule:evenodd;clip-rule:evenodd;fill:#121111;" d="M29.596,18.83c-2.27-0.213-3.153-1.823-3.963-3.621
	c-0.601-1.334-2.052-3.258-3.73-3.188c-1.484,0.062-2.512-0.601-3.531-1.473c-1.767-1.514-3.621-2.615-5.979-1.071
	c0.75,1.038,0.107,2.229-1.344,2.377c-0.413,0.042-0.846-0.259-0.973,0.46c-0.091,0.511-0.241,0.881,0.419,1.147
	c0.304,0.125,0.513,0.584,0.677,0.93c1.01,2.133,3.204,3.629,3.34,6.25c0.016,0.312,0.403,0.731,0.72,0.879
	c0.705,0.324,0.92,0.958,1.274,1.54c0.524,0.858,1.137,1.664,2.08,3.022c-0.217-1.834,0.695-1.512,1.385-1.498
	c0.682,0.015,1.407,0,2.029,0.226c0.534,0.197,0.823,0.154,1.079-0.298c0.58-1.03,1.6-1.318,2.628-1.362
	c1.462-0.062,2.761-0.627,4.107-1.059c1.19-0.382,1.162-1.513,1.232-2.411S30.151,18.881,29.596,18.83z"/>
</svg>
