<?xml version="1.0" encoding="iso-8859-1"?>
<!-- Generator: Adobe Illustrator 16.0.0, SVG Export Plug-In . SVG Version: 6.00 Build 0)  -->
<!DOCTYPE svg PUBLIC "-//W3C//DTD SVG 1.1//EN" "http://www.w3.org/Graphics/SVG/1.1/DTD/svg11.dtd">
<svg version="1.1" id="Layer_1" xmlns="http://www.w3.org/2000/svg" xmlns:xlink="http://www.w3.org/1999/xlink" x="0px" y="0px"
	 width="32px" height="32px" viewBox="0 0 32 32" style="enable-background:new 0 0 32 32;" xml:space="preserve">
<path style="fill-rule:evenodd;clip-rule:evenodd;fill:#121111;" d="M23.798,9.788c-0.107,0.145-0.244,0.444-0.292,0.43
	c-1.457-0.451-2.754,0.556-4.193,0.424c-1.305-0.12-2.598-0.075-3.741,0.858c-0.61,0.498-1.403,0.664-2.325,0.546
	c-2.337-0.301-4.806-1.282-6.895,0.773c0,0.295,0,0.591,0,0.887c0.476-0.094,0.946-0.153,1.337,0.226
	c-0.06,0.492-0.898,0.905-0.672,0.97c0.98,0.281,0.455,1.749,1.604,1.831c0.271,0.019,0.742,0.283,0.73,0.812
	c-0.452,0.387-1.289,0.084-1.58,0.851c1.314,0.981,2.686-0.003,4.018,0.112c0.81,0.069,1.697,0.199,2.212-0.742
	c0.205-0.372,0.467-0.237,0.698,0.017c1.176,1.288,2.832,0.579,4.223,0.985c0.235,0.069,0.754,0.135,0.559-0.627
	c-0.229-0.891,0.082-1.732,1.289-1.789c0.971-0.047,1.492-0.849,1.059-1.489c-0.901-1.329,0.221-1.177,0.824-1.403
	c0.59-0.219,1.232-0.624,1.736-0.662c1.225-0.094,1.604-1.795,3.11-1.166c-0.495-0.725-0.863-1.231-1.195-1.757
	C25.642,8.817,24.553,8.774,23.798,9.788z"/>
</svg>
