<?xml version="1.0" encoding="iso-8859-1"?>
<!-- Generator: Adobe Illustrator 16.0.0, SVG Export Plug-In . SVG Version: 6.00 Build 0)  -->
<!DOCTYPE svg PUBLIC "-//W3C//DTD SVG 1.1//EN" "http://www.w3.org/Graphics/SVG/1.1/DTD/svg11.dtd">
<svg version="1.1" id="Layer_1" xmlns="http://www.w3.org/2000/svg" xmlns:xlink="http://www.w3.org/1999/xlink" x="0px" y="0px"
	 width="32px" height="32px" viewBox="0 0 32 32" style="enable-background:new 0 0 32 32;" xml:space="preserve">
<path style="fill-rule:evenodd;clip-rule:evenodd;fill:#121111;" d="M8.993,26.784c1.545-2.137,3.238-4.107,5.517-5.435
	c1.123-0.653,2.038-1.499,2.958-2.383c1.915-1.837,2.973-4.21,4.198-6.484c1.016-1.884,2.308-3.631,2.188-5.977
	c-0.055-1.062-0.466-0.86-1.082-0.646c-1.646,0.574-3.149,1.239-2.536,3.477c0.098,0.356-0.272,0.602-0.435,0.895
	c-1.361,2.455-3.797,3.941-5.491,6.097c-0.324,0.412-0.804,0.193-1.231,0.232c-1.629,0.146-2.944,0.943-4.128,2.045
	c-1.495,1.387-0.936,3.171-1.006,4.826C7.894,24.636,7.679,25.923,8.993,26.784z"/>
</svg>
