<?xml version="1.0" encoding="iso-8859-1"?>
<!-- Generator: Adobe Illustrator 16.0.0, SVG Export Plug-In . SVG Version: 6.00 Build 0)  -->
<!DOCTYPE svg PUBLIC "-//W3C//DTD SVG 1.1//EN" "http://www.w3.org/Graphics/SVG/1.1/DTD/svg11.dtd">
<svg version="1.1" id="Layer_1" xmlns="http://www.w3.org/2000/svg" xmlns:xlink="http://www.w3.org/1999/xlink" x="0px" y="0px"
	 width="32px" height="32px" viewBox="0 0 32 32" style="enable-background:new 0 0 32 32;" xml:space="preserve">
<path style="fill-rule:evenodd;clip-rule:evenodd;fill:#121111;" d="M10.176,13.396c-0.182-0.016-0.481-0.12-0.467,0.314
	c0.041,1.353-0.785,1.579-1.909,1.431c-0.382-0.05-0.818-0.113-1.153,0.025c-0.509,0.205-1.011,0.771-0.292,1.12
	c1.003,0.493,1.477,1.122,1.894,2.172c0.291,0.732,0.209,0.961-0.223,1.388c-0.273,0.274-0.637,0.567-0.711,0.905
	c-0.097,0.431-0.423,0.954,0.035,1.374c0.44,0.403,0.877,0.186,1.339-0.038c0.747-0.365,1.478-1.03,2.368-0.237
	c0.204,0.183,0.571,0.061,0.576-0.204c0.012-1.199,0.824-0.956,1.537-0.908c0.431,0.031,0.839-0.01,0.819-0.56
	c-0.026-0.716,0.578-0.999,0.948-1.402c0.637-0.695,1.334-0.42,1.78,0.42c0.4,0.757,0.545,1.412,0.389,2.301
	c-0.24,1.364,0.632,1.941,1.779,1.183c1.954-1.287,4.118-1.461,6.324-1.461c1.812-0.003,1.812,0.056,1.305-1.688
	c-0.026-0.094-0.096-0.186-0.096-0.276c0.005-1.573-0.921-1.799-2.182-1.481c-0.66,0.167-0.734-0.171-0.767-0.696
	c-0.035-0.639-0.165-1.617-0.794-1.564c-1.943,0.166-3.756,0.233-5.755-0.196c-1.287-0.279-2.97-0.431-4.484-0.188
	c-0.343,0.056-0.937,0.364-1.098-0.317c-0.142-0.601,0.517-0.639,0.795-0.894c0.452-0.411,1.144-0.426,1.659-0.101
	c0.757,0.479,1.317,0.191,1.984-0.327c-1.088-0.281-1.112-0.293-0.641-1.146c0.247-0.448-0.09-0.63-0.301-0.865
	c-0.178-0.198-3.752,0.855-3.718,1.096C11.234,13.389,10.787,13.44,10.176,13.396z"/>
</svg>
