<?xml version="1.0" encoding="iso-8859-1"?>
<!-- Generator: Adobe Illustrator 16.0.0, SVG Export Plug-In . SVG Version: 6.00 Build 0)  -->
<!DOCTYPE svg PUBLIC "-//W3C//DTD SVG 1.1//EN" "http://www.w3.org/Graphics/SVG/1.1/DTD/svg11.dtd">
<svg version="1.1" id="Layer_1" xmlns="http://www.w3.org/2000/svg" xmlns:xlink="http://www.w3.org/1999/xlink" x="0px" y="0px"
	 width="32px" height="32px" viewBox="0 0 32 32" style="enable-background:new 0 0 32 32;" xml:space="preserve">
<path style="fill-rule:evenodd;clip-rule:evenodd;fill:#121111;" d="M20.152,12.991c-0.999,0.351-1.042,1.638-0.849,1.789
	c1.281,0.98-0.095,1.184-0.382,1.688c-0.069-0.079-0.139-0.156-0.211-0.233c0.089-0.754-0.951-1.373-0.214-2.255
	c0.163-0.194-0.312-0.4-0.622-0.288c-0.958,0.351-1.761-0.069-2.627-0.406c-1.376-0.53-2.633-1.544-4.355-0.588
	c-0.794,0.439-2.135,0.295-2.857-0.546c-0.634-0.735-0.021-1.551,0.39-2.27C8.458,9.825,8.384,9.705,8.29,9.356
	c-0.608,0.815-1.614,1.175-1.631,2.196c-0.043,2.479,2.716,5.276,5.267,5.678c1.338,0.211,2.903,0.283,3.663,1.703
	c0.548,1.025,1.336,1.641,2.358,2.065c0.742,0.31,1.443,0.557,2.188-0.056c0.747-0.612,0.924-1.347,0.688-2.227
	c-0.098-0.365-0.353-0.697,0.022-1.07c0.854-0.858,1.205-2.258,2.822-2.302c0.512-0.012,1.491-0.425,0.691-1.378
	C23.556,13.006,21.331,12.576,20.152,12.991z"/>
</svg>
