<?xml version="1.0" encoding="iso-8859-1"?>
<!-- Generator: Adobe Illustrator 16.0.0, SVG Export Plug-In . SVG Version: 6.00 Build 0)  -->
<!DOCTYPE svg PUBLIC "-//W3C//DTD SVG 1.1//EN" "http://www.w3.org/Graphics/SVG/1.1/DTD/svg11.dtd">
<svg version="1.1" id="Layer_1" xmlns="http://www.w3.org/2000/svg" xmlns:xlink="http://www.w3.org/1999/xlink" x="0px" y="0px"
	 width="32px" height="32px" viewBox="0 0 32 32" style="enable-background:new 0 0 32 32;" xml:space="preserve">
<path style="fill-rule:evenodd;clip-rule:evenodd;fill:#121111;" d="M5.828,22.483c0.153,0.271,0.526,0.14,0.781-0.051
	c0.777-0.576,1.729-0.562,2.546-0.403c2.67,0.521,5.319-0.137,7.977,0.012c1.037,0.059,2.165-0.55,2.619-1.147
	c0.512-0.675,0.488-2.08,0.179-2.99c-0.748-2.205-1.209-4.244,0.528-6.211c0.24-0.273,0.791-0.627,0.549-1.091
	c-0.273-0.523-0.892-0.227-1.354-0.29c-0.223-0.031-0.465,0.094-0.701,0.139c-1.094,0.202-2.189,0.571-3.282,0.566
	c-2.355-0.012-4.476,0.704-6.99,1.685c0.801,0.232,1.169,0.41,1.548,0.437c2.07,0.145,2.707,0.98,2.16,2.979
	c-0.146,0.538-0.185,0.991,0.031,1.542c0.514,1.316-0.012,1.981-1.396,1.746c-0.607-0.103-1.026,0.082-1.492,0.374
	c-1.068,0.666-2.148,1.313-3.236,1.944C5.975,21.907,5.621,22.114,5.828,22.483z"/>
<path style="fill-rule:evenodd;clip-rule:evenodd;fill:#121111;" d="M26.202,4.52c-0.519,0.133-1.084,0.258-1.51,0.556
	c-0.86,0.603-1.639,1.323-2.438,1.981c0.068,0.571,0.603,0.65,0.765,0.563c1.273-0.704,2.809-0.846,3.943-1.833
	c0.386-0.336,0.43-0.848,0.27-1.223C27.017,4.062,26.54,4.435,26.202,4.52z"/>
</svg>
