<?xml version="1.0" encoding="iso-8859-1"?>
<!-- Generator: Adobe Illustrator 16.0.0, SVG Export Plug-In . SVG Version: 6.00 Build 0)  -->
<!DOCTYPE svg PUBLIC "-//W3C//DTD SVG 1.1//EN" "http://www.w3.org/Graphics/SVG/1.1/DTD/svg11.dtd">
<svg version="1.1" id="Layer_1" xmlns="http://www.w3.org/2000/svg" xmlns:xlink="http://www.w3.org/1999/xlink" x="0px" y="0px"
	 width="32px" height="32px" viewBox="0 0 32 32" style="enable-background:new 0 0 32 32;" xml:space="preserve">
<path style="fill-rule:evenodd;clip-rule:evenodd;fill:#121111;" d="M28.116,15.308c-0.017-0.008,0.012-0.092,0.008-0.14
	c-0.138-1.538-1.597-1.771-2.762-1.271c-2.001,0.856-3.91,0.677-5.815-0.243c-1.683-0.812-3.34-0.843-4.985,0.138
	c-1.161,0.687-2.967,0.497-4.05-0.38C9.604,12.68,8.873,12.9,8.534,14.005c-0.432,1.415,0.24,3.036,0.656,4.716
	c0.471,1.889,2.2,1.205,3.043,2.117c0.11,0.118,0.798-0.033,0.91-0.233c0.607-1.092,1.307-0.417,1.772-0.023
	c0.808,0.688,1.607,0.596,2.27,0.051c1.175-0.959,1.734-0.265,2.356,0.76c0.678-1.421,1.837-1.406,3.105-1.204
	c0.415,0.067,0.882-0.028,1.299-0.145c1.49-0.415,2.979-0.721,4.538-0.42c0.678,0.13,0.932-0.108,0.678-0.392
	C28.126,18.076,29.892,16.218,28.116,15.308z"/>
</svg>
