<?xml version="1.0" encoding="iso-8859-1"?>
<!-- Generator: Adobe Illustrator 16.0.0, SVG Export Plug-In . SVG Version: 6.00 Build 0)  -->
<!DOCTYPE svg PUBLIC "-//W3C//DTD SVG 1.1//EN" "http://www.w3.org/Graphics/SVG/1.1/DTD/svg11.dtd">
<svg version="1.1" id="Layer_1" xmlns="http://www.w3.org/2000/svg" xmlns:xlink="http://www.w3.org/1999/xlink" x="0px" y="0px"
	 width="32px" height="32px" viewBox="0 0 32 32" style="enable-background:new 0 0 32 32;" xml:space="preserve">
<path style="fill-rule:evenodd;clip-rule:evenodd;fill:#121111;" d="M28.135,13.468c-1.167-0.37-2.343-1.122-3.483-1.063
	c-1.564,0.076-2.179-1.139-2.928-1.857c-0.529-0.506-0.489-1.561-1.675-1.271c-0.875,0.215-2.058,0.137-2.557,0.685
	c-0.621,0.683-1.114,0.605-1.798,0.548c-1.112-0.096-2.206-0.235-3.296-0.509c-0.839-0.209-1.733-0.264-2.597,0.066
	c-0.597,0.231-1.121,0.43-0.554,1.209c0.343,0.468,0.3,0.864-0.305,1.172c-0.333,0.168-0.611,0.502-0.835,0.816
	c-0.964,1.345-0.91,2.633,0.143,2.722c1.424,0.12,2.877,0.71,4.319-0.332c0.982-0.71,2.362-0.05,2.953,1.081
	c0.24,0.459,0.563,0.877,0.906,1.4c-1.461-0.139-1.427,0.998-1.9,1.741c1.427,0.461,2.084-0.493,2.79-1.285
	c0.317-0.355,0.689-0.757,1.068-0.368c0.591,0.608,1.322,0.498,2.028,0.625c-0.015,0.135-0.074,0.23-0.154,0.304
	c-0.24,0.22-0.671,0.254-0.681,0.657c0.328,0.286,1.024,0.213,1.048,0.805c0.003,0.084-0.007,0.183-0.035,0.298
	c-0.065,0.274,0.358,0.461,0.5,0.369c0.983-0.622,2.16-0.792,3.124-1.565c-0.192-0.015-0.389-0.062-0.574-0.035
	c-0.533,0.076-1.021,0.023-1.191-0.565c-0.168-0.581,0.541-0.802,0.729-0.838c1.643-0.319,2.927-1.397,4.437-1.97
	c1.145-0.435,0.143-1.557,0.781-2.154C28.536,14.022,28.553,13.6,28.135,13.468z"/>
</svg>
