<?xml version="1.0" encoding="iso-8859-1"?>
<!-- Generator: Adobe Illustrator 16.0.0, SVG Export Plug-In . SVG Version: 6.00 Build 0)  -->
<!DOCTYPE svg PUBLIC "-//W3C//DTD SVG 1.1//EN" "http://www.w3.org/Graphics/SVG/1.1/DTD/svg11.dtd">
<svg version="1.1" id="Layer_1" xmlns="http://www.w3.org/2000/svg" xmlns:xlink="http://www.w3.org/1999/xlink" x="0px" y="0px"
	 width="32px" height="32px" viewBox="0 0 32 32" style="enable-background:new 0 0 32 32;" xml:space="preserve">
<path style="fill-rule:evenodd;clip-rule:evenodd;fill:#121111;" d="M27.406,16.279c-0.752,0.408-1.529,0.771-2.472,1.235
	c0.113-1.041-0.62-1.163-1.299-1.456c-2.337-1.016-4.743-0.161-7.107-0.347c-0.194-0.017-0.333,0.108-0.423,0.32
	c-0.537,1.275,0.341,3.288,1.72,3.776c1.223,0.434,2.683,0.225,3.637,1.388c0.137,0.166,0.29-0.005,0.462-0.122
	c1.412-0.979,2.346-0.857,3.34,0.446c0.521-0.601-0.514-1.228,0.18-1.688c1.107-0.735,1.292-2.239,2.478-2.896
	c0.369-0.207,0.232-0.49,0.055-0.735C27.749,15.891,27.61,16.169,27.406,16.279z"/>
<path style="fill-rule:evenodd;clip-rule:evenodd;fill:#121111;" d="M10.291,13.145c0.74-0.737,1.422-0.619,2.209-0.631
	c0.652,0.394,1.288,0.819,1.739,1.446c0.235,0.331,0.505,0.275,0.729,0.091c0.287-0.238-0.061-0.378-0.151-0.569
	c-0.421-0.872-1.341-0.938-2.057-1.333c-0.005-0.734-0.017-1.468-0.017-2.202c0-0.396,0.041-0.854-0.471-0.939
	c-1.006-0.171-2.044-0.466-3.031-0.36C8.502,8.726,7.26,8.805,7.625,10.233c-1.257,0.39,0.324,0.915-0.067,1.4
	c-0.221,0.276-0.614,0.733,0.146,0.959C8.574,12.853,9.501,13.931,10.291,13.145z"/>
</svg>
