<?xml version="1.0" encoding="iso-8859-1"?>
<!-- Generator: Adobe Illustrator 16.0.0, SVG Export Plug-In . SVG Version: 6.00 Build 0)  -->
<!DOCTYPE svg PUBLIC "-//W3C//DTD SVG 1.1//EN" "http://www.w3.org/Graphics/SVG/1.1/DTD/svg11.dtd">
<svg version="1.1" id="Layer_1" xmlns="http://www.w3.org/2000/svg" xmlns:xlink="http://www.w3.org/1999/xlink" x="0px" y="0px"
	 width="32px" height="32px" viewBox="0 0 32 32" style="enable-background:new 0 0 32 32;" xml:space="preserve">
<path style="fill-rule:evenodd;clip-rule:evenodd;fill:#121111;" d="M8.05,22.072c0.081,0.569,0.643,0.663,1.324,0.678
	c0.123-0.029,0.405-0.161,0.685-0.159c1.209,0.015,1.87-1.261,3.028-1.284c1.008-0.021,1.886-0.605,2.768-0.726
	c1.723-0.231,2.773-1.782,4.441-1.907c2.231-0.168,3.452-1.854,4.916-3.18c0.266-0.24,0.106-0.545-0.027-0.81
	c-0.221-0.438-0.474-0.86-0.675-1.305c-1.118-2.467-1.109-2.436-3.762-2.075c-2.234,0.305-4.397,0.651-5.469,3.041
	c-0.124,0.276-0.394,0.454-0.841,0.245c-1.985-0.922-4.185-0.43-6.256-0.846c-0.139-0.028-0.519,0.322-0.495,0.433
	c0.186,0.859-0.534,1.41-0.668,2.167C6.654,18.396,7.777,20.151,8.05,22.072z"/>
<path style="fill-rule:evenodd;clip-rule:evenodd;fill:#121111;" d="M27.939,22.824c-0.651-0.415-1.329-0.485-2.01-0.176
	c-0.181,0.084-0.085,0.349,0.093,0.464C26.723,23.571,27.34,23.372,27.939,22.824z"/>
</svg>
