<?xml version="1.0" encoding="iso-8859-1"?>
<!-- Generator: Adobe Illustrator 16.0.0, SVG Export Plug-In . SVG Version: 6.00 Build 0)  -->
<!DOCTYPE svg PUBLIC "-//W3C//DTD SVG 1.1//EN" "http://www.w3.org/Graphics/SVG/1.1/DTD/svg11.dtd">
<svg version="1.1" id="Layer_1" xmlns="http://www.w3.org/2000/svg" xmlns:xlink="http://www.w3.org/1999/xlink" x="0px" y="0px"
	 width="32px" height="32px" viewBox="0 0 32 32" style="enable-background:new 0 0 32 32;" xml:space="preserve">
<path style="fill-rule:evenodd;clip-rule:evenodd;fill:#121111;" d="M9.132,17.538c1.113,1.565,0.862,2.451-0.965,3.229
	c-0.398,0.167-0.75,0.352-0.778,0.771C7.36,21.969,7.821,21.75,8.043,21.87c0.362,0.2,0.414,0.515,0.403,0.875
	c-0.056,1.942,0.806,2.997,2.836,2.918c0.146-0.005,0.298,0.002,0.44,0.036c2.289,0.548,3.143,0.117,3.806-1.842
	c0.523-0.339,0.71,1.052,1.101,0.245c0.452-0.93,1.093-0.788,1.813-0.788c2.133,0.003,2.432-0.238,2.941-2.205
	c0.095-0.368,0.023-0.718,0.748-0.27c1.534,0.947,2.219,0.156,2.814-1.619c0.483-1.442-0.202-3.95,2.611-3.991
	c0.272-0.005,0.667-0.257,0.627-0.702c-0.048-0.519-0.447-0.434-0.776-0.391c-0.54,0.069-0.906-0.398-1.367-0.439
	c-1.248-0.113-1.415-0.557-0.666-1.539c0.326-0.429,0.222-0.735-0.1-0.762c-2.171-0.174-4.249-0.973-6.466-0.884
	c-0.954,0.038-1.835-0.245-2.4-1.232c-0.455-0.797-1.203-1.097-2.214-0.805C13.526,8.667,12.89,9.162,12.11,8.92
	c-1.258-0.39-2.204,0.423-1.794,1.713c0.354,1.112-0.064,1.34-0.984,1.604c-0.863,0.248-1.587,1.569-1.335,1.828
	c0.972,1.01,0.246,1.335-0.344,1.955c-0.36,0.38-0.447,1.021-0.658,1.547C7.784,17.877,8.428,16.548,9.132,17.538z"/>
</svg>
