<?xml version="1.0" encoding="iso-8859-1"?>
<!-- Generator: Adobe Illustrator 16.0.0, SVG Export Plug-In . SVG Version: 6.00 Build 0)  -->
<!DOCTYPE svg PUBLIC "-//W3C//DTD SVG 1.1//EN" "http://www.w3.org/Graphics/SVG/1.1/DTD/svg11.dtd">
<svg version="1.1" id="Layer_1" xmlns="http://www.w3.org/2000/svg" xmlns:xlink="http://www.w3.org/1999/xlink" x="0px" y="0px"
	 width="32px" height="32px" viewBox="0 0 32 32" style="enable-background:new 0 0 32 32;" xml:space="preserve">
<path style="fill-rule:evenodd;clip-rule:evenodd;fill:#fff;" d="M26.032,12.198c-1.351,1.052-1.591,0.872-1.641-0.759
	c-0.021-0.623-0.214-1.195-0.807-1.406c-0.607-0.218-0.811,0.455-1.101,0.788c-0.912,1.046-2.656,1.593-4.016,1.173
	c-2.391-0.74-2.839-0.572-4.475,1.513c-0.224,0.283-0.653,0.399-0.982,0.599c-0.411,0.247-1.073,0.099-1.158,0.881
	c-0.03,0.305-0.658,0.509-0.855,0.377c-1.488-1.001-1.752,0.11-2.423,1.1c-0.718,1.062-0.343,2.058-0.161,2.961
	c0.149,0.747-0.499,1.97,0.686,2.279c1.405,0.365,0.915,0.909,0.333,1.585c-0.252,0.293-0.485,0.603-0.766,0.954
	c2.151,1.066,4.34,0.75,6.516,0.475c0.906-0.114,1.761-0.303,1.609-1.578c-0.053-0.463,0.363-0.847,0.754-1.015
	c1.547-0.661,3.734-0.408,3.951-2.889c0.007-0.065,0.14-0.16,0.219-0.166c1.23-0.104,0.74-0.817,0.446-1.434
	c1.377-0.024,2.746-1.619,2.229-2.752c-0.464-1.018,0.04-1.219,0.721-1.608c0.627-0.361,1.269-0.527,1.957-0.465
	c0.816,0.072,1.549-0.029,2.386-1.144C28.136,12.094,27.142,11.333,26.032,12.198z"/>
</svg>
