<?xml version="1.0" encoding="iso-8859-1"?>
<!-- Generator: Adobe Illustrator 16.0.0, SVG Export Plug-In . SVG Version: 6.00 Build 0)  -->
<!DOCTYPE svg PUBLIC "-//W3C//DTD SVG 1.1//EN" "http://www.w3.org/Graphics/SVG/1.1/DTD/svg11.dtd">
<svg version="1.1" id="Layer_1" xmlns="http://www.w3.org/2000/svg" xmlns:xlink="http://www.w3.org/1999/xlink" x="0px" y="0px"
	 width="32px" height="32px" viewBox="0 0 32 32" style="enable-background:new 0 0 32 32;" xml:space="preserve">
<path style="fill-rule:evenodd;clip-rule:evenodd;fill:#121111;" d="M27.871,25.847c0.997-0.015,1.153-0.267,0.865-1.287
	c-0.196-0.706-0.229-1.479-0.535-2.126c-0.601-1.269-0.476-2.926-1.614-3.841c-1.196-0.96-2.613-1.865-3.341-3.086
	c-1.042-1.744-2.755-2.274-4.177-3.336c-1.028-0.764-2.239-1.206-3.162-2.187c-1.554-1.649-2.762-3.645-4.783-4.842
	C10.712,4.9,10.377,4.396,9.863,4.781C9.289,5.213,9.863,5.566,9.985,6c0.458,1.646,1.645,3.231,0.103,5.073
	c-0.453,0.54-1.565,1.718-0.342,2.806c1.906,1.697,3.724,3.507,5.741,5.056c0.689,0.53,1.757,0.586,2.455,1.328
	c2.164,2.291,5.09,3.379,7.864,4.616C26.485,25.182,26.957,26.065,27.871,25.847z"/>
<path style="fill-rule:evenodd;clip-rule:evenodd;fill:#121111;" d="M22.641,22.899c-1.012-0.646-1.761-1.136-2.98-0.372
	C20.74,22.703,21.495,23.171,22.641,22.899z"/>
</svg>
