<?xml version="1.0" encoding="iso-8859-1"?>
<!-- Generator: Adobe Illustrator 16.0.0, SVG Export Plug-In . SVG Version: 6.00 Build 0)  -->
<!DOCTYPE svg PUBLIC "-//W3C//DTD SVG 1.1//EN" "http://www.w3.org/Graphics/SVG/1.1/DTD/svg11.dtd">
<svg version="1.1" id="Layer_1" xmlns="http://www.w3.org/2000/svg" xmlns:xlink="http://www.w3.org/1999/xlink" x="0px" y="0px"
	 width="32px" height="32px" viewBox="0 0 32 32" style="enable-background:new 0 0 32 32;" xml:space="preserve">
<path style="fill-rule:evenodd;clip-rule:evenodd;fill:#121111;" d="M9.449,9.052C8.974,8.519,8.434,8.026,7.693,8.604
	c-0.423,0.326-0.512,2.814-0.098,3.151c1.162,0.943,2.089,2.007,2.384,3.547c0.065,0.336,0.421,0.673,0.726,0.896
	c1.688,1.236,2.674,3.29,4.746,4.08c0.141,0.053,0.238,0.281,0.306,0.449c1.124,2.8,3.576,4.15,6.025,5.493
	c0.265,0.142,0.57,0.103,0.815-0.138c0.3-0.293,0.237-0.571,0.066-0.922c-0.321-0.651-0.925-1.282,0.212-1.902
	c0.672-0.365,0.441-1.582,1.337-1.938c0.047-0.019,0.099-0.067,0.136-0.057c1.87,0.562,0.838-0.697,0.782-1.313
	c3.528-0.374,3.548-0.403,1.734-3.001c0.476-0.352,1.356,0.273,1.534-0.388c0.188-0.701-0.764-0.894-1.126-1.388
	c-0.11-0.149-0.301-0.268-0.478-0.334c-1.094-0.408-0.827-1.15-0.472-1.9c0.146-0.307,0.411-0.559,0.538-0.872
	c0.174-0.432,0.637-0.879,0.282-1.353c-0.344-0.455-0.863-0.267-1.355-0.142c-0.502,0.13-1.179,0.382-1.494-0.155
	c-1.134-1.943-2.994-1.458-4.66-1.42c-1.724,0.041-3.402-0.117-5.026-0.627c-0.924-0.288-3.053-0.077-3.6,0.7
	C10.396,9.94,9.978,9.647,9.449,9.052z"/>
</svg>
