<?xml version="1.0" encoding="iso-8859-1"?>
<!-- Generator: Adobe Illustrator 16.0.0, SVG Export Plug-In . SVG Version: 6.00 Build 0)  -->
<!DOCTYPE svg PUBLIC "-//W3C//DTD SVG 1.1//EN" "http://www.w3.org/Graphics/SVG/1.1/DTD/svg11.dtd">
<svg version="1.1" id="Layer_1" xmlns="http://www.w3.org/2000/svg" xmlns:xlink="http://www.w3.org/1999/xlink" x="0px" y="0px"
	 width="32px" height="32px" viewBox="0 0 32 32" style="enable-background:new 0 0 32 32;" xml:space="preserve">
<path style="fill-rule:evenodd;clip-rule:evenodd;fill:#121111;" d="M25.03,25.796c-0.247-2.329-0.195-4.585-0.928-6.746
	c-0.247-0.728,0.14-1.938-0.839-2.075c-1.087-0.151-0.975,1.165-1.387,1.839c-0.022,0.037,0.004,0.1-0.008,0.146
	c-0.168,0.6-0.278,0.67-0.805,0.151c-1.566-1.537-1.384-3.061,0.654-3.783c0.931-0.332,1.47-0.892,1.79-1.761
	c0.097-0.262,0.037-0.639,0.391-0.729c1.413-0.348,0.222-0.687-0.034-0.896c-0.422-0.345-0.943-0.403-1.518-0.382
	c-1.562,0.059-3.128,0.046-4.691,0.007c-1.959-0.05-2.286-0.392-2.352-2.344c-0.013-0.398-0.017-0.775-0.24-1.126
	c-0.172-0.27-0.358-0.523-0.644-0.173c-0.743,0.912-1.134,0.403-1.507-0.329c-0.188-0.373-0.265-1.139-0.856-0.224
	c-0.177,0.279-0.497,0.077-0.686-0.226c-0.232-0.367-0.536-0.688-0.988-0.766c-0.475,0.29,0.176,0.802-0.331,1.155
	c-1.189,0.825-0.849,1.563,0.174,2.348c0.409,0.313,0.798,0.485,1.253,0.646c0.175,0.063,0.291,0.365,0.382,0.579
	c0.105,0.248-0.104,0.41-0.285,0.358c-0.872-0.266-1.049,0.422-1.52,0.894c-1.338,1.335-1.427,1.51,0.353,2.137
	c1.161,0.409,1.138,0.959,0.723,1.821c-0.197,0.41-0.343,0.79-0.038,1.237c1.078,1.57,1.035,3.475,1.464,5.23
	c0.399,1.636,0.939,1.931,2.311,0.879c0.526-0.404,0.92-1.177,1.412,0.043c0.15,0.37,0.49,0.08,0.675-0.163
	c0.202-0.267,0.175-0.752,0.777-0.574c1,0.293,1.101-0.43,1.212-1.155c0.039-0.255-0.294-0.589,0.306-0.785
	c1.68-0.547,3.317,0.471,3.067,2.224c-0.25,1.744,0.867,2.803,1.33,4.115C24.44,27.005,22.199,24.819,25.03,25.796z"/>
</svg>
