<?xml version="1.0" encoding="iso-8859-1"?>
<!-- Generator: Adobe Illustrator 16.0.0, SVG Export Plug-In . SVG Version: 6.00 Build 0)  -->
<!DOCTYPE svg PUBLIC "-//W3C//DTD SVG 1.1//EN" "http://www.w3.org/Graphics/SVG/1.1/DTD/svg11.dtd">
<svg version="1.1" id="Layer_1" xmlns="http://www.w3.org/2000/svg" xmlns:xlink="http://www.w3.org/1999/xlink" x="0px" y="0px"
	 width="32px" height="32px" viewBox="0 0 32 32" style="enable-background:new 0 0 32 32;" xml:space="preserve">
<path style="fill-rule:evenodd;clip-rule:evenodd;fill:#121111;" d="M11.505,15.157c2.127,1.137,1.915,3.371,2.361,5.222
	c0.663,2.749-0.333,5.623,0.384,8.401l-0.038-0.001c0.021,0.02,0.042,0.041,0.062,0.06c-0.006-0.018-0.01-0.035-0.016-0.053
	c2.768,0.541,3.668-0.113,3.712-2.664c0.015-0.869-0.149-1.773-0.043-2.589c0.193-1.505-0.914-3.425,1.179-4.446
	c0.131-0.063,0.202-0.341,0.221-0.526c0.086-0.815,0.547-1.386,1.142-1.889c0.222-0.188,1.164-2.745,1.09-2.971
	c-0.667-2.044-0.883-4.329-2.962-5.632c-0.031-0.019-0.028-0.091-0.04-0.138c-0.296,0-0.59,0-0.886,0
	c-0.646,0.341-1.107,0.628-1.13,1.603c-0.024,1.001-0.892,1.66-2.064,1.655c-1.532-0.005-3.038,1.208-3.265,2.634
	C11.142,14.272,10.951,14.861,11.505,15.157z"/>
<path style="fill-rule:evenodd;clip-rule:evenodd;fill:#121111;" d="M14.46,29.019c-0.062-0.06-0.124-0.12-0.186-0.18
	c0.026,0.085,0.051,0.169,0.074,0.251C14.385,29.067,14.423,29.043,14.46,29.019z"/>
</svg>
