<?xml version="1.0" encoding="iso-8859-1"?>
<!-- Generator: Adobe Illustrator 16.0.0, SVG Export Plug-In . SVG Version: 6.00 Build 0)  -->
<!DOCTYPE svg PUBLIC "-//W3C//DTD SVG 1.1//EN" "http://www.w3.org/Graphics/SVG/1.1/DTD/svg11.dtd">
<svg version="1.1" id="Layer_1" xmlns="http://www.w3.org/2000/svg" xmlns:xlink="http://www.w3.org/1999/xlink" x="0px" y="0px"
	 width="32px" height="32px" viewBox="0 0 32 32" style="enable-background:new 0 0 32 32;" xml:space="preserve">
<g>
	<g>
		<path style="fill:#141313;" d="M5.404,5.088c0,0.196,0,0.394,0,0.591c0.452,0.26,0.829,0.885,1.411,0.614
			c0.894-0.415,2.101,0.07,2.756-1.009c0.217-0.354,0.515-0.135,0.733,0.075c0.566,0.542,1.004,1.117,0.341,1.891
			c-0.367,0.427-0.117,0.703,0.243,0.952c0.269,0.186,0.528,0.241,0.792-0.014c0.591-0.576,0.564-2.282-0.017-2.906
			c-0.327-0.348-0.826-0.55-0.949-1.078c-0.688,0-1.376,0-2.065,0C8.299,4.579,7.846,4.492,7.405,4.473
			C6.665,4.439,5.967,4.545,5.404,5.088z"/>
		<path style="fill:#141313;" d="M22.522,25.453c0.197,0,0.394,0,0.589,0c1.011-0.354,2.337-0.562,2.367-2.049
			c0.008-0.385,0.123-0.726-0.427-0.898c-0.41-0.127-0.689,0.122-0.714,0.517c-0.028,0.415,0.214,0.629-0.751,0.644
			C22.319,23.689,22.147,24.423,22.522,25.453z"/>
		<path style="fill:#141313;" d="M26.676,22.098c0.05,0.394,0.412,0.495,0.655,0.368c0.783-0.414,1.518,0.098,2.274,0.035
			c0-0.295,0-0.589,0-0.884c-0.78-0.298-1.282-0.848-2.409-0.187C26.844,21.639,26.624,21.704,26.676,22.098z"/>
		<path style="fill:#141313;" d="M7.591,13.06c0.826,0.471,1.212,1.273,1.549,2.07c0.213,0.507,0.49,0.689,0.973,0.642
			c0.607-0.06,0.609-0.528,0.627-1.211c-0.55-1.088-0.598-2.58-1.453-3.79c-0.271-0.384-0.562-0.713-1.057-0.622
			c-0.596,0.111-0.289,0.583-0.341,0.937c-0.046,0.317-0.245,0.644-0.464,0.892C7.019,12.438,7.142,12.803,7.591,13.06z"/>
		<path style="fill:#141313;" d="M13.139,10.158c0.451,0.156,1.277,0.351,1.035,0.975c-0.303,0.786-0.146,1.42,0.514,1.468
			c0.685,0.053,0.436-0.917,0.788-1.402c0.185-1.066-0.846-1.662-1.725-2.164c-0.528-0.3-0.938-0.295-1.205,0.257
			C12.271,9.868,12.65,9.99,13.139,10.158z"/>
		<path style="fill:#141313;" d="M20.575,19.163c0.201,0.177,0.578,0.158,0.607,0.562c-0.132,0.117-0.268,0.262-0.426,0.375
			c-0.28,0.199-0.405,0.511-0.213,0.749c0.276,0.344,0.603,0.11,0.896-0.092c0.614-0.425,1.201-0.845,1.078-1.738
			c-0.252-1.821-0.848-0.306-1.393-0.776c-0.238-0.206-0.553-0.187-0.74,0.145C20.212,18.696,20.36,18.968,20.575,19.163z"/>
		<path style="fill:#141313;" d="M17.306,15.943c0.229,0.967,0.413,1.971,1.407,2.503c0.161,0.087,0.373,0.212,0.507,0.166
			c0.135-0.045,0.202-0.286,0.325-0.484c-0.733-1.171-1.211-1.946-1.641-2.6c-0.052-0.077-0.332-0.12-0.387-0.062
			C17.399,15.584,17.274,15.802,17.306,15.943z"/>
		<path style="fill:#141313;" d="M16.914,14.191c-0.043,0.413,0.526,0.293,0.849,0.22c0.117-0.023,0.338-0.158,0.3-0.283
			c-0.557-1.811-1.509-2.246-1.578-2.241c-0.091,0.03-0.232,0.03-0.267,0.09C15.706,12.923,17.004,13.305,16.914,14.191z"/>
		<path style="fill:#141313;" d="M25.479,20.64c0.243,0.154,0.507-0.153,0.534-0.55c-0.759-1.473-0.469-0.505-1.471-0.653
			c-0.313-0.046-0.578,0.224-0.502,0.55C24.22,20.762,25.016,20.347,25.479,20.64z"/>
		<path style="fill:#141313;" d="M14.87,15.821c0.154,0.673,0.785,0.788,1.312,0.966c0.255,0.084,0.533-0.178,0.439-0.415
			c-0.221-0.582-0.756-0.836-1.263-1.017C15.02,15.385,14.808,15.545,14.87,15.821z"/>
		<path style="fill:#141313;" d="M11.565,11.04c-0.033-0.442-0.355-0.572-0.711-0.589c-0.403-0.017-0.845,0.082-0.918,0.545
			c-0.072,0.438,0.322,0.567,0.678,0.579C11.021,11.59,11.39,11.477,11.565,11.04z"/>
		<path style="fill:#141313;" d="M19.568,14.505c0.02,0.327,0.156,0.602,0.521,0.541c0.379-0.063,0.521-0.395,0.607-0.732
			c-0.075-0.324-0.245-0.574-0.589-0.538C19.7,13.816,19.547,14.114,19.568,14.505z"/>
	</g>
	<g>
		<path style="fill:none;" d="M5.404,5.088c0,0.196,0,0.394,0,0.591c0.452,0.26,0.829,0.885,1.411,0.614
			c0.894-0.415,2.101,0.07,2.756-1.009c0.217-0.354,0.515-0.135,0.733,0.075c0.566,0.542,1.004,1.117,0.341,1.891
			c-0.367,0.427-0.117,0.703,0.243,0.952c0.269,0.186,0.528,0.241,0.792-0.014c0.591-0.576,0.564-2.282-0.017-2.906
			c-0.327-0.348-0.826-0.55-0.949-1.078c-0.688,0-1.376,0-2.065,0C8.299,4.579,7.846,4.492,7.405,4.473
			C6.665,4.439,5.967,4.545,5.404,5.088z"/>
		<path style="fill:none;" d="M22.522,25.453c0.197,0,0.394,0,0.589,0c1.011-0.354,2.337-0.562,2.367-2.049
			c0.008-0.385,0.123-0.726-0.427-0.898c-0.41-0.127-0.689,0.122-0.714,0.517c-0.028,0.415,0.214,0.629-0.751,0.644
			C22.319,23.689,22.147,24.423,22.522,25.453z"/>
		<path style="fill:none;" d="M26.676,22.098c0.05,0.394,0.412,0.495,0.655,0.368c0.783-0.414,1.518,0.098,2.274,0.035
			c0-0.295,0-0.589,0-0.884c-0.78-0.298-1.282-0.848-2.409-0.187C26.844,21.639,26.624,21.704,26.676,22.098z"/>
		<path style="fill:none;" d="M7.591,13.06c0.826,0.471,1.212,1.273,1.549,2.07c0.213,0.507,0.49,0.689,0.973,0.642
			c0.607-0.06,0.609-0.528,0.627-1.211c-0.55-1.088-0.598-2.58-1.453-3.79c-0.271-0.384-0.562-0.713-1.057-0.622
			c-0.596,0.111-0.289,0.583-0.341,0.937c-0.046,0.317-0.245,0.644-0.464,0.892C7.019,12.438,7.142,12.803,7.591,13.06z"/>
		<path style="fill:none;" d="M13.139,10.158c0.451,0.156,1.277,0.351,1.035,0.975c-0.303,0.786-0.146,1.42,0.514,1.468
			c0.685,0.053,0.436-0.917,0.788-1.402c0.185-1.066-0.846-1.662-1.725-2.164c-0.528-0.3-0.938-0.295-1.205,0.257
			C12.271,9.868,12.65,9.99,13.139,10.158z"/>
		<path style="fill:none;" d="M20.575,19.163c0.201,0.177,0.578,0.158,0.607,0.562c-0.132,0.117-0.268,0.262-0.426,0.375
			c-0.28,0.199-0.405,0.511-0.213,0.749c0.276,0.344,0.603,0.11,0.896-0.092c0.614-0.425,1.201-0.845,1.078-1.738
			c-0.252-1.821-0.848-0.306-1.393-0.776c-0.238-0.206-0.553-0.187-0.74,0.145C20.212,18.696,20.36,18.968,20.575,19.163z"/>
		<path style="fill:none;" d="M17.306,15.943c0.229,0.967,0.413,1.971,1.407,2.503c0.161,0.087,0.373,0.212,0.507,0.166
			c0.135-0.045,0.202-0.286,0.325-0.484c-0.733-1.171-1.211-1.946-1.641-2.6c-0.052-0.077-0.332-0.12-0.387-0.062
			C17.399,15.584,17.274,15.802,17.306,15.943z"/>
		<path style="fill:none;" d="M16.914,14.191c-0.043,0.413,0.526,0.293,0.849,0.22c0.117-0.023,0.338-0.158,0.3-0.283
			c-0.557-1.811-1.509-2.246-1.578-2.241c-0.091,0.03-0.232,0.03-0.267,0.09C15.706,12.923,17.004,13.305,16.914,14.191z"/>
		<path style="fill:none;" d="M25.479,20.64c0.243,0.154,0.507-0.153,0.534-0.55c-0.759-1.473-0.469-0.505-1.471-0.653
			c-0.313-0.046-0.578,0.224-0.502,0.55C24.22,20.762,25.016,20.347,25.479,20.64z"/>
		<path style="fill:none;" d="M14.87,15.821c0.154,0.673,0.785,0.788,1.312,0.966c0.255,0.084,0.533-0.178,0.439-0.415
			c-0.221-0.582-0.756-0.836-1.263-1.017C15.02,15.385,14.808,15.545,14.87,15.821z"/>
		<path style="fill:none;" d="M11.565,11.04c-0.033-0.442-0.355-0.572-0.711-0.589c-0.403-0.017-0.845,0.082-0.918,0.545
			c-0.072,0.438,0.322,0.567,0.678,0.579C11.021,11.59,11.39,11.477,11.565,11.04z"/>
		<path style="fill:none;" d="M19.568,14.505c0.02,0.327,0.156,0.602,0.521,0.541c0.379-0.063,0.521-0.395,0.607-0.732
			c-0.075-0.324-0.245-0.574-0.589-0.538C19.7,13.816,19.547,14.114,19.568,14.505z"/>
	</g>
</g>
</svg>
