<?xml version="1.0" encoding="iso-8859-1"?>
<!-- Generator: Adobe Illustrator 16.0.0, SVG Export Plug-In . SVG Version: 6.00 Build 0)  -->
<!DOCTYPE svg PUBLIC "-//W3C//DTD SVG 1.1//EN" "http://www.w3.org/Graphics/SVG/1.1/DTD/svg11.dtd">
<svg version="1.1" id="Layer_1" xmlns="http://www.w3.org/2000/svg" xmlns:xlink="http://www.w3.org/1999/xlink" x="0px" y="0px"
	 width="32px" height="32px" viewBox="0 0 32 32" style="enable-background:new 0 0 32 32;" xml:space="preserve">
<path style="fill-rule:evenodd;clip-rule:evenodd;fill:#121111;" d="M28.369,18.35c0.284-0.423-0.458-1.131-0.723-1.163
	c-0.9-0.109-1.203-0.879-1.698-1.349c-0.769-0.729-1.587-1.492-1.371-2.852c0.188-1.177-0.346-2.188-1.71-2.311
	c-0.793-0.069-1.427,0.096-2.313-0.446c-1.731-1.063-3.86-0.171-5.164,0.92c-0.889,0.744-1.813,1.964-2.439,3.116
	c-0.373,0.688-0.747,1.112-1.379,1.53c-1.085,0.719-2.266,0.774-3.459,0.779c-0.137,0.754,0.245,1.297,0.446,1.89
	c0.186,0.548,0.644,1.295,0.2,1.654c-0.892,0.724-1.782,0.949-0.613,2.441c0.771,0.981,0.438,1.376,1.718,0.453
	c0.265-0.189,0.51-0.235,0.803-0.264c3.507-0.349,6.768,1.098,10.188,1.404c0.896,0.08,1.919-0.583,2.697,0.373
	c0.097-0.092,0.284-0.192,0.277-0.271c-0.243-1.945,1.128-2.077,2.721-2.186c-0.698-0.63-0.316-1.396-0.639-1.991
	c-0.488-0.898-0.865-1.588,0.719-0.937C27.378,19.449,28.031,18.849,28.369,18.35z"/>
</svg>
