<?xml version="1.0" encoding="iso-8859-1"?>
<!-- Generator: Adobe Illustrator 16.0.0, SVG Export Plug-In . SVG Version: 6.00 Build 0)  -->
<!DOCTYPE svg PUBLIC "-//W3C//DTD SVG 1.1//EN" "http://www.w3.org/Graphics/SVG/1.1/DTD/svg11.dtd">
<svg version="1.1" id="Layer_1" xmlns="http://www.w3.org/2000/svg" xmlns:xlink="http://www.w3.org/1999/xlink" x="0px" y="0px"
	 width="32px" height="32px" viewBox="0 0 32 32" style="enable-background:new 0 0 32 32;" xml:space="preserve">
<path style="fill-rule:evenodd;clip-rule:evenodd;fill:#121111;" d="M21.42,7.422c0.236-0.837,0.33-1.74-1.044-1.645
	c-0.337,0.024-0.735,0.039-0.858-0.385c-0.094-0.319,0.193-0.83-0.506-0.767c-0.543,0.049-0.757,0.45-0.903,0.849
	c-0.432,1.172-1.323,2.051-1.922,3.114c-0.334,0.602-0.804,0.995-1.558,0.502c-1.077-0.703-1.339-0.148-1.377,0.882
	c-0.158,4.307-0.351,8.613-0.53,12.918c-0.01,0-0.022,0-0.034,0c0,0.54-0.063,1.091,0.019,1.616c0.07,0.437-0.427,1.2,0.459,1.252
	c0.682,0.04,1.489,0.477,1.947-0.669c0.33-0.821,0.974-1.714,1.726-2.127c2.803-1.546,3.37-4.069,3.156-6.867
	c-0.14-1.823,0.415-3.545,0.387-5.342C20.361,9.572,21.104,8.544,21.42,7.422z"/>
</svg>
