<?xml version="1.0" encoding="iso-8859-1"?>
<!-- Generator: Adobe Illustrator 16.0.0, SVG Export Plug-In . SVG Version: 6.00 Build 0)  -->
<!DOCTYPE svg PUBLIC "-//W3C//DTD SVG 1.1//EN" "http://www.w3.org/Graphics/SVG/1.1/DTD/svg11.dtd">
<svg version="1.1" id="Layer_1" xmlns="http://www.w3.org/2000/svg" xmlns:xlink="http://www.w3.org/1999/xlink" x="0px" y="0px"
	 width="32px" height="32px" viewBox="0 0 32 32" style="enable-background:new 0 0 32 32;" xml:space="preserve">
<path style="fill:#141313;" d="M25.72,17.914c-0.877-0.854-1.351-1.945-0.61-3.192c0.18-0.303,0.324-0.653,0.053-0.957
	c-1.3-1.447-2.717-2.739-4.595-3.287c0.816-1.515,2.08-2.595,3.663-3.341c0.466-0.219,1.107-0.418,1.022-1.094
	c-0.084-0.655-0.838-0.328-1.195-0.633c-1.278,0-2.556,0-3.836,0c-0.793,0.244-1.624,0.199-2.434,0.314
	c-1.835,0.262-2.855,1.39-2.697,3.19c0.094,1.071-0.355,1.367-1.287,1.5c-1.287,0.183-2.491-0.021-3.739-0.362
	c-1.54-0.424-2.294,0.441-1.866,1.964c0.271,0.264,0.691,0.215,0.982,0.431c-0.398-0.202-0.86-0.245-1.254-0.459
	c-1.216,0.146-2.442,0.216-3.642,0.506c0,1.476,0,2.95,0,4.428c1.271,0.761,2.121,1.897,2.928,3.115
	c0.694,1.052,1.846,1.402,3.086,1.41c1.617,0.012,3.236-0.003,4.855,0.007c1.692,0.012,3.333,0.142,4.182,1.96
	c0.098,0,0.196,0,0.295,0c1.15-0.331,2.36-0.521,3.303-1.357c0.292-0.262,0.021,0.143,0.122,0.099
	c0.076,0.303,0.26,0.555,0.54,0.644c1.326,0.431,2.104-1.121,3.396-0.958c0.401,0.05,0.472-0.41,0.451-0.773
	C27.209,19.83,26.646,18.814,25.72,17.914z M19.725,18.515c-0.699-0.323-1.439-0.57-2.09-0.966c-0.403-0.245-1.325-0.437-0.81-1.15
	c0.331-0.452,0.764-1.175,1.769-0.7c1.065,0.51,2.143,0.831,2.089,2.385C20.569,18.439,20.319,18.79,19.725,18.515z M19.72,14.832
	c-0.324-0.235,0.308-1.412,0.573-1.185c0.34,0.287,0.735,0.365,1.12,0.685C20.727,14.203,20.431,15.354,19.72,14.832z"/>
</svg>
