<?xml version="1.0" encoding="iso-8859-1"?>
<!-- Generator: Adobe Illustrator 16.0.0, SVG Export Plug-In . SVG Version: 6.00 Build 0)  -->
<!DOCTYPE svg PUBLIC "-//W3C//DTD SVG 1.1//EN" "http://www.w3.org/Graphics/SVG/1.1/DTD/svg11.dtd">
<svg version="1.1" id="Layer_1" xmlns="http://www.w3.org/2000/svg" xmlns:xlink="http://www.w3.org/1999/xlink" x="0px" y="0px"
	 width="32px" height="32px" viewBox="0 0 32 32" style="enable-background:new 0 0 32 32;" xml:space="preserve">
<path style="fill-rule:evenodd;clip-rule:evenodd;fill:#121111;" d="M11.211,28.355c0.221,0.745,0.65,0.809,1.232,0.216
	c0.647-0.662,1.376-1.083,2.214-0.188c0.353,0.374,0.869,0.407,1.146-0.041c0.406-0.655,1.101-0.556,1.652-0.838
	c0.195,0.435-0.165,1.079,0.419,1.292c0.655,0.239,0.914-0.385,1.297-0.745c0.497-0.468,0.984-0.984,1.57-1.309
	c0.891-0.493,1.272-1.253,1.246-2.164c-0.038-1.347,0.075-2.536,1.072-3.627c0.514-0.562,0.84-1.243,1.585-1.638
	c0.682-0.363,1.044-0.942,1.205-1.847c0.476-2.705,0.291-5.584,1.869-8.034c0.339-0.523,0.148-1.015-0.1-1.501
	c-1.08,0-2.164,0-3.244,0c-0.372,0.641-1.494-0.12-1.588,0.666c-0.17,1.41-1.066,2.551-1.231,3.859
	c-1.956-0.565-3.92-1.064-6.001-0.913c-1.248,0.09-0.972,0.98-0.931,1.739c0.056,1.037,0.699,0.511,1.134,0.382
	c0.672-0.197,1.169-0.239,1.577,0.535c0.404,0.762,0,0.973-0.484,1.395c-0.594,0.519-1.055,1.254-0.284,1.999
	c1.016,0.981,1.444,2.721,0.714,3.921c-0.135,0.219,0.105,2.26-1.208,0.653c-0.032-0.036-0.199-0.019-0.25,0.03
	c-1.096,1.016-1.58,0.158-2.145-0.646c-0.269-0.38-0.789-0.465-0.824,0.138c-0.055,0.932-0.469,0.991-1.242,0.872
	c-1.009-0.156-1.15,0.551-0.866,1.253c0.118,0.288,0.194,0.626,0.384,0.91c0.365,0.545,0.494,0.957-0.473,0.7
	c-0.392-0.104-0.721,0.254-0.937,0.592c-0.266,0.411,0.139,0.596,0.316,0.868C10.383,27.41,11.012,27.675,11.211,28.355z"/>
</svg>
