<?xml version="1.0" encoding="iso-8859-1"?>
<!-- Generator: Adobe Illustrator 16.0.0, SVG Export Plug-In . SVG Version: 6.00 Build 0)  -->
<!DOCTYPE svg PUBLIC "-//W3C//DTD SVG 1.1//EN" "http://www.w3.org/Graphics/SVG/1.1/DTD/svg11.dtd">
<svg version="1.1" id="Layer_1" xmlns="http://www.w3.org/2000/svg" xmlns:xlink="http://www.w3.org/1999/xlink" x="0px" y="0px"
	 width="32px" height="32px" viewBox="0 0 32 32" style="enable-background:new 0 0 32 32;" xml:space="preserve">
<path style="fill-rule:evenodd;clip-rule:evenodd;fill:#121111;" d="M9.977,23.02c1.101,1.09,2.289,2.211,1.046,3.991
	c-0.209,0.3-0.022,0.866-0.054,1.307c-0.064,0.854,0.296,0.9,0.952,0.563c4.136-2.125,8.484-3.045,13.135-2.406
	c0.594,0.082,1.382,0.452,1.799-0.318c0.377-0.7,0.065-1.267-0.58-1.708c-0.164-0.112-0.14-0.464-0.262-0.671
	c-1.319-2.227-0.07-4.269,0.858-6.027c0.824-1.562,0.86-2.757,0.36-4.322c-0.943-2.959-2.25-3.449-4.69-2.486
	c-1.53,0.604-2.291,0.17-3.064-1.058c-0.562-0.893-1.751-1.415-2.506-0.909c-1.987,1.334-1.19-0.318-1.297-1.044
	c-0.295,0-0.59,0-0.886,0C14.685,8.47,13.58,8.121,13.847,8.99c-0.653,0.158-1.16,0.877-1.994,0.348
	c-1.063-0.673-2.718,0.236-2.648,1.491c0.091,1.612,0.742,3.097,1.419,4.551c-0.112,0.103-0.211,0.061-0.357,0.033
	c-0.459-0.089-1.04-0.348-1.361,0.106c-0.296,0.415,0.257,0.718,0.391,1.055c0.212,0.535,0.133,1.486-0.591,1.647
	c-0.685,0.153-0.66,0.311-0.42,0.792c0.557,1.107,0.375,2.079-0.566,2.818C8.279,22.713,9.382,22.431,9.977,23.02z"/>
</svg>
