<?xml version="1.0" encoding="iso-8859-1"?>
<!-- Generator: Adobe Illustrator 16.0.0, SVG Export Plug-In . SVG Version: 6.00 Build 0)  -->
<!DOCTYPE svg PUBLIC "-//W3C//DTD SVG 1.1//EN" "http://www.w3.org/Graphics/SVG/1.1/DTD/svg11.dtd">
<svg version="1.1" id="Layer_1" xmlns="http://www.w3.org/2000/svg" xmlns:xlink="http://www.w3.org/1999/xlink" x="0px" y="0px"
	 width="32px" height="32px" viewBox="0 0 32 32" style="enable-background:new 0 0 32 32;" xml:space="preserve">
<path style="fill-rule:evenodd;clip-rule:evenodd;fill:#121111;" d="M8.205,19.343c-0.005,0.074,0.212,0.188,0.343,0.248
	c1.556,0.688,3.04,1.646,4.887,0.67c0.308-0.163,1.776-0.207,1.153,1.202c-0.283,0.64,0.468,0.86,0.686,1.306
	c0.167,0.338,0.515,0.17,0.916-0.077c0.967-0.597,1.709-0.145,2.16,1.082c0.038,0.104,0.206,0.248,0.282,0.231
	c0.173-0.039,0.463-0.156,0.468-0.255c0.052-1.09,0.951-1.007,1.637-1.24c1.538-0.519,2.75-2.617,2.022-3.748
	c-0.558-0.87-0.528-1.384,0.55-1.815c-0.349-0.157-0.474-0.229-0.608-0.27c-0.27-0.086-0.802,0.248-0.721-0.353
	c0.027-0.198,0.395-0.983,0.82-0.133c0.017,0.036,0.245-0.002,0.354-0.051c1.801-0.804,3.558-1.662,4.334-3.866
	c-1.463,0.23-2.257-0.38-2.793-1.509c-0.415-0.874-1.702-1.292-2.161-0.701c-0.389,0.499-0.328,1.302-1.118,1.562
	c-1.153,0.377-0.576,0.813-0.007,1.227c-0.056,0.065-0.097,0.157-0.167,0.195c-1.035,0.579-2.014,1.381-3.127,1.671
	c-1.541,0.406-3.1,0.188-4.544-0.754c-0.617-0.401-1.15-0.701-1.557-1.381c-0.483-0.807-3.123,0.005-3.353,1.225
	c-0.229,1.219-0.881,1.455-1.797,1.712c-0.539,0.15-0.772,0.384-0.411,1.058C6.971,17.546,8.31,17.988,8.205,19.343z"/>
</svg>
