<?xml version="1.0" encoding="iso-8859-1"?>
<!-- Generator: Adobe Illustrator 16.0.0, SVG Export Plug-In . SVG Version: 6.00 Build 0)  -->
<!DOCTYPE svg PUBLIC "-//W3C//DTD SVG 1.1//EN" "http://www.w3.org/Graphics/SVG/1.1/DTD/svg11.dtd">
<svg version="1.1" id="Layer_1" xmlns="http://www.w3.org/2000/svg" xmlns:xlink="http://www.w3.org/1999/xlink" x="0px" y="0px"
	 width="32px" height="32px" viewBox="0 0 32 32" style="enable-background:new 0 0 32 32;" xml:space="preserve">
<path style="fill-rule:evenodd;clip-rule:evenodd;fill:#121111;" d="M11.361,19.897c0.677,0.137,1.333,0.337,2.016,0.24
	c0.722-0.099,1.275-0.11,1.717,0.687c0.306,0.556,0.978,0.769,1.199-0.201c0.188-0.841,0.769-1.004,1.507-1.104
	c1.504-0.205,3.168-0.313,4.212-1.485c1.544-1.735,3.254-2.678,5.605-2.334c0.331,0.048,0.925,0.071,0.938-0.44
	c0.015-0.477-0.387-0.703-0.872-0.97c-1.141-0.624-2.013,0.079-2.857,0.428c-1.045,0.433-2.152-0.339-3.222,0.418
	c-0.12-0.928,0.011-1.983-1.113-2.054c-1.571-0.096-3.21-0.387-4.665,0.535c-1.037,0.659-2.074,0.411-2.861-0.255
	c-1.15-0.972-2.026-0.554-2.963,0.195c-0.604,0.485-1.122,1.063-2.063,0.729c-0.713-0.255-0.53,0.365-0.454,0.69
	C8.008,17.215,8.642,19.348,11.361,19.897z"/>
</svg>
