<?xml version="1.0" encoding="iso-8859-1"?>
<!-- Generator: Adobe Illustrator 16.0.0, SVG Export Plug-In . SVG Version: 6.00 Build 0)  -->
<!DOCTYPE svg PUBLIC "-//W3C//DTD SVG 1.1//EN" "http://www.w3.org/Graphics/SVG/1.1/DTD/svg11.dtd">
<svg version="1.1" id="Layer_1" xmlns="http://www.w3.org/2000/svg" xmlns:xlink="http://www.w3.org/1999/xlink" x="0px" y="0px"
	 width="32px" height="32px" viewBox="0 0 32 32" style="enable-background:new 0 0 32 32;" xml:space="preserve">
<path style="fill-rule:evenodd;clip-rule:evenodd;fill:#121111;" d="M16.492,26.541c0.573-0.01,1.032-0.118,1.296-0.49
	c0.638-0.903,1.389-1.424,2.577-1.316c0.665,0.061,0.762-0.631,0.938-1.138c0.914-2.628,0.397-5.327,0.302-7.984
	c-0.038-1.091,0.496-2.104-0.008-3.3c-0.661-1.574-2.503-2.366-2.609-4.235c-0.003-0.06-0.247-0.122-0.385-0.16
	c-0.937-0.253-1.861-0.685-2.845-0.548c-0.796,0.113-1.214-0.24-1.498-0.869c-0.518-1.142-1.589-1.66-2.472-1.025
	c-0.676,0.485-0.802,1.739-1.159,2.653c-0.01,0.026,0.125,0.146,0.205,0.161c1.378,0.264,0.563,1.098,0.195,1.369
	c-0.675,0.495-0.399,0.92-0.278,1.497c0.587,2.793,1.943,5.237,3.415,7.628c0.306,0.497,0.389,0.934,0.372,1.5
	c-0.019,0.637-0.029,1.499,0.345,1.876c1.028,1.025,0.031,2.609,1.146,3.526C15.322,26.576,16.162,26.423,16.492,26.541z"/>
</svg>
