<?xml version="1.0" encoding="iso-8859-1"?>
<!-- Generator: Adobe Illustrator 16.0.0, SVG Export Plug-In . SVG Version: 6.00 Build 0)  -->
<!DOCTYPE svg PUBLIC "-//W3C//DTD SVG 1.1//EN" "http://www.w3.org/Graphics/SVG/1.1/DTD/svg11.dtd">
<svg version="1.1" id="Layer_1" xmlns="http://www.w3.org/2000/svg" xmlns:xlink="http://www.w3.org/1999/xlink" x="0px" y="0px"
	 width="32px" height="32px" viewBox="0 0 32 32" style="enable-background:new 0 0 32 32;" xml:space="preserve">
<path style="fill-rule:evenodd;clip-rule:evenodd;fill:#121111;" d="M17.876,27.226c0.202,0.363,1.973,0.058,2.772-0.662
	c1.508-1.358,3.281-2.3,4.962-3.391c0.361-0.235,1.027-0.303,0.915-0.974c-0.094-0.564-0.58-0.703-1.054-0.891
	c-0.93-0.368-1.188-1.061-1.093-2.078c0.229-2.451,0.175-4.871-1.433-6.978c-0.304-0.398-1.057-0.969-0.725-1.301
	c1.058-1.059,0.445-2.411,0.875-3.534c-1.207-0.372-2.395,0.171-3.575,0.086c-2.532-0.182-4.771,0.534-6.882,1.851
	c-0.285,0.177-0.458,0.251-0.28,0.64c0.4,0.876,0.106,1.92,0.861,2.915c-1.6-0.232-2.439,0.486-3.269,1.501
	c-1.115,1.364-3.207,1.072-4.45,2.325c0,0.59,0,1.18,0,1.771c3.566,2.196,7.169,4.339,10.322,7.137
	C16.455,26.205,17.357,26.292,17.876,27.226z"/>
</svg>
