<?xml version="1.0" encoding="iso-8859-1"?>
<!-- Generator: Adobe Illustrator 16.0.0, SVG Export Plug-In . SVG Version: 6.00 Build 0)  -->
<!DOCTYPE svg PUBLIC "-//W3C//DTD SVG 1.1//EN" "http://www.w3.org/Graphics/SVG/1.1/DTD/svg11.dtd">
<svg version="1.1" id="Layer_1" xmlns="http://www.w3.org/2000/svg" xmlns:xlink="http://www.w3.org/1999/xlink" x="0px" y="0px"
	 width="32px" height="32px" viewBox="0 0 32 32" style="enable-background:new 0 0 32 32;" xml:space="preserve">
<path style="fill-rule:evenodd;clip-rule:evenodd;fill:#121111;" d="M23.607,9.691c-0.521-0.188-0.94-0.467-1.347-0.841
	c-0.289-0.267-0.759-0.728-1.131-0.336c-1.051,1.1-2.649,0.492-3.003,0.01c-1.131-1.554-3.088-1.557-4.312-2.781
	c-0.224-0.227-0.828-0.474-0.848-0.442c-0.887,1.345-2.601,0.961-3.726,1.8C8.931,7.332,8.912,7.57,8.955,7.83
	c0.188,1.152-0.003,2.13-1.048,2.832c-0.216,0.144-0.319,0.435-0.279,0.783c0.085,0.684-0.213,1.224-0.884,1.485
	c-0.302,0.12-0.614,0.325-0.47,0.622c0.812,1.689-1.06,4.314,1.83,5.272C8.15,18.84,8.22,18.878,8.22,18.907
	c0.072,1.269,0.653,0.696,1.331,0.353c-0.51,1.183-1.647,2.051-1.228,3.474c0.005,0.02-0.332,0.14-0.51,0.216
	c-0.813,0.351,0.137,0.9-0.132,1.409c-0.12,0.227,0.446,0.032,0.73,0.009c0.937-0.082,1.86-0.054,2.426,0.972
	c0.731,1.331,1.073,1.262,2.159,0.068c0.425-0.469,0.562-0.928,0.745-1.482c0.764-2.337,1.947-4.307,4.615-4.92
	c3.353-0.771,5.068-3.323,6.461-6.172C25.081,12.297,24.144,9.881,23.607,9.691z"/>
</svg>
