<?xml version="1.0" encoding="iso-8859-1"?>
<!-- Generator: Adobe Illustrator 16.0.0, SVG Export Plug-In . SVG Version: 6.00 Build 0)  -->
<!DOCTYPE svg PUBLIC "-//W3C//DTD SVG 1.1//EN" "http://www.w3.org/Graphics/SVG/1.1/DTD/svg11.dtd">
<svg version="1.1" id="Layer_1" xmlns="http://www.w3.org/2000/svg" xmlns:xlink="http://www.w3.org/1999/xlink" x="0px" y="0px"
	 width="32px" height="32px" viewBox="0 0 32 32" style="enable-background:new 0 0 32 32;" xml:space="preserve">
<path style="fill-rule:evenodd;clip-rule:evenodd;fill:#121111;" d="M17.716,27.845c0.515-0.536,0.865-1.63,1.998-0.674
	c0.333,0.281,0.484-0.084,0.615-0.485c0.323-0.986-0.511-1.542-0.762-2.296c-0.451-1.361-0.3-1.689,1.148-1.587
	c0.687,0.048,1.404,0.098,1.639-0.786c0.095-0.354-0.443-0.917,0.301-1.046c0.554-0.096,0.733,0.403,0.931,0.779
	c0.628,1.193,1.49,1.453,2.61,0.679c0.334-0.231,0.603-0.41,0.711,0.167c0.075,0.399,0.268,0.671,0.694,0.506
	c0.309-0.12,0.428-0.419,0.588-0.742c0.731-1.479,0.827-3.002,0.851-4.624c0.015-0.966-0.102-1.458-0.927-1.966
	c-1.411-0.87-1.326-1.96,0.106-2.955c0.69-0.479,0.88-1.011,0.521-1.875c-0.556-1.331-1.478-1.492-2.586-0.979
	c-1.168,0.541-1.377-0.056-1.376-0.984c0.001-0.382,0.077-0.785,0.216-1.14c0.243-0.621,0.118-0.932-0.583-0.956
	c-1.715-0.054-3.431-0.103-5.143-0.194c-0.691-0.037-0.929,0.191-0.955,0.905c-0.041,1.157,0.595,2.775-0.228,3.348
	c-0.833,0.581-2.361,0.177-3.586,0.175c-0.432,0-0.89,0.16-1.299-0.096c-0.306-0.191-0.61-0.191-0.703,0.164
	c-0.328,1.266-1.166,2.348-1,3.815c0.131,1.165-0.683,1.891-1.821,1.899C10.823,21.559,14.465,24.487,17.716,27.845z"/>
</svg>
