<?xml version="1.0" encoding="iso-8859-1"?>
<!-- Generator: Adobe Illustrator 16.0.0, SVG Export Plug-In . SVG Version: 6.00 Build 0)  -->
<!DOCTYPE svg PUBLIC "-//W3C//DTD SVG 1.1//EN" "http://www.w3.org/Graphics/SVG/1.1/DTD/svg11.dtd">
<svg version="1.1" id="Layer_1" xmlns="http://www.w3.org/2000/svg" xmlns:xlink="http://www.w3.org/1999/xlink" x="0px" y="0px"
	 width="32px" height="32px" viewBox="0 0 32 32" style="enable-background:new 0 0 32 32;" xml:space="preserve">
<path style="fill-rule:evenodd;clip-rule:evenodd;fill:#121111;" d="M13.004,20.344c1.916-0.328,3.761-0.413,5.276,1.134
	c0.267,0.272,0.694,0.233,0.982,0.127c1.552-0.554,3.381,0.174,4.788-1.068c0.256-0.226,0.774-0.17,0.964,0.08
	c0.655,0.856,1.706,0.598,2.51,0.996c0.428,0.214,0.771,0.164,0.995-0.244c0.23-0.424,0.028-0.704-0.365-0.959
	c-0.549-0.355-1.391-0.65-0.445-1.525c0.311-0.285-0.127-0.49-0.382-0.594c-0.881-0.36-2.099-0.391-1.745-1.897
	c0.012-0.052-0.204-0.191-0.334-0.24c-1.643-0.609-3.288-1.236-5.025-0.297c-0.264,0.142-0.403,0.189-0.703-0.108
	c-1.419-1.417-3.14-2.287-5.19-2.207c-0.802,0.028-1.516-0.092-2.279-0.325c-1.157-0.352-2.229-1.022-3.5-0.996
	c-0.387,0.01-0.845-0.125-1.013,0.349c-0.159,0.449,0.321,0.535,0.571,0.732c0.54,0.425,1.141,0.714,1.804,0.938
	c2.356,0.803,3.889,4.201,2.431,5.808C12.573,20.157,12.812,20.378,13.004,20.344z"/>
</svg>
