<?xml version="1.0" encoding="iso-8859-1"?>
<!-- Generator: Adobe Illustrator 16.0.0, SVG Export Plug-In . SVG Version: 6.00 Build 0)  -->
<!DOCTYPE svg PUBLIC "-//W3C//DTD SVG 1.1//EN" "http://www.w3.org/Graphics/SVG/1.1/DTD/svg11.dtd">
<svg version="1.1" id="Layer_1" xmlns="http://www.w3.org/2000/svg" xmlns:xlink="http://www.w3.org/1999/xlink" x="0px" y="0px"
	 width="32px" height="32px" viewBox="0 0 32 32" style="enable-background:new 0 0 32 32;" xml:space="preserve">
<path style="fill-rule:evenodd;clip-rule:evenodd;fill:#121111;" d="M28.057,16.733c-0.358-0.175-0.76-0.395-1.122-0.235
	c-2.208,0.972-3.825-0.54-5.53-1.387c-1.396-0.693-2.946-0.853-3.828,0.094c-1.06,1.136-2.108,0.906-3.26,0.924
	c-1.326,0.021-2.656,0.065-3.978-0.012c-1.242-0.073-1.165,0.481-0.762,1.304c0.117,0.239,0.494,0.336,0.391,0.69
	c-1.031,0.67-0.695-1.778-1.959-0.802c-1.1,0.85-0.194,1.667-0.226,2.557c1.845-0.583,3.589-0.515,5.339-0.429
	c0.46,0.022,1.247,0.28,1.336-0.211c0.294-1.622,1.58-1.118,2.515-1.333c0.56-0.128,1.345,0.125,1.639-0.43
	c0.6-1.132,1.246-0.711,2.032-0.314c0.826,0.417,1.73,0.675,2.555,1.093c1.566,0.794,3.121,0.622,4.692,0.078
	c0.349-0.121,0.784-0.123,0.788-0.691C28.68,17.15,28.432,16.917,28.057,16.733z"/>
</svg>
