<?xml version="1.0" encoding="iso-8859-1"?>
<!-- Generator: Adobe Illustrator 16.0.0, SVG Export Plug-In . SVG Version: 6.00 Build 0)  -->
<!DOCTYPE svg PUBLIC "-//W3C//DTD SVG 1.1//EN" "http://www.w3.org/Graphics/SVG/1.1/DTD/svg11.dtd">
<svg version="1.1" id="Layer_1" xmlns="http://www.w3.org/2000/svg" xmlns:xlink="http://www.w3.org/1999/xlink" x="0px" y="0px"
	 width="32px" height="32px" viewBox="0 0 32 32" style="enable-background:new 0 0 32 32;" xml:space="preserve">
<path style="fill-rule:evenodd;clip-rule:evenodd;fill:#121111;" d="M12.785,17.677c-0.42,1.437,0.002,2.663-0.626,3.937
	c-0.668,1.354-1.989,2.304-2.249,3.887c-0.089,0.547-0.273,0.839,0.502,0.983c1.57,0.291,2.981,1.058,4.722,0.894
	c2.532-0.24,5.104-0.098,7.657-0.042c0.917,0.021,1.315-0.163,1.277-1.191c-0.079-2.11-0.071-4.226-0.002-6.335
	c0.031-0.943-0.305-1.158-1.183-1.141c-2.503,0.051-5.01,0-7.515,0.027C14.417,18.705,13.535,18.615,12.785,17.677z"/>
<path style="fill-rule:evenodd;clip-rule:evenodd;fill:#121111;" d="M5.516,12.569c0.57,0.169,1.087,0.02,1.306-0.603
	c0.262-0.746,0.745-1.354,1.142-2.019c0.5-0.839,0.274-1.398-0.787-1.419c-0.794-0.043-1.323,0.224-1.483,1.07
	c-0.08,0.421-0.158,0.951-0.643,1.079c-0.692,0.183-0.797,0.651-0.696,1.205C4.468,12.498,5.085,12.44,5.516,12.569z"/>
</svg>
