<?xml version="1.0" encoding="iso-8859-1"?>
<!-- Generator: Adobe Illustrator 16.0.0, SVG Export Plug-In . SVG Version: 6.00 Build 0)  -->
<!DOCTYPE svg PUBLIC "-//W3C//DTD SVG 1.1//EN" "http://www.w3.org/Graphics/SVG/1.1/DTD/svg11.dtd">
<svg version="1.1" id="Layer_1" xmlns="http://www.w3.org/2000/svg" xmlns:xlink="http://www.w3.org/1999/xlink" x="0px" y="0px"
	 width="32px" height="32px" viewBox="0 0 32 32" style="enable-background:new 0 0 32 32;" xml:space="preserve">
<path style="fill-rule:evenodd;clip-rule:evenodd;fill:#121111;" d="M24.003,19.437c1.346-0.722,2.431-1.813,3.617-2.761
	c0.279-0.224,0.627-0.499,0.084-0.739c-0.505-0.227-1.275-1.102-1.437-0.615c-0.298,0.903-0.641,0.372-0.9,0.23
	c-0.423-0.23-0.853-0.269-1.282-0.216c-0.822,0.104-1.079-0.173-1.028-1.026c0.156-2.546,0.008-5.108,0.317-7.649
	c0.115-0.945-0.095-1.419-1.226-1.376c-2.358,0.092-4.722,0.061-7.082,0.01c-0.803-0.015-1.228,0.173-1.064,1.038
	c0.296,1.547-0.197,2.324-2.195,1.794c0.728,0.767,1.126,1.264,1.607,1.669c0.481,0.411,1.034,0.737,1.57,1.08
	c0.78,0.505,0.898,1.516,1.723,2.069c0.514,0.343-0.215,1.483-0.962,1.49c-1.524,0.016-3.05,0.047-4.572-0.012
	c-0.743-0.028-1.035,0.334-1.487,0.862c-1.544,1.794-1.647,3.911-1.672,6.077c-0.005,0.517-0.43,0.992,0.278,1.537
	c2.146,1.647,4.283,3.156,7.199,2.697c0.28-0.043,0.61-0.015,0.874,0.091c1.139,0.452,1.962,1.033,3.23-0.365
	c0.93-1.021,1.893-2.329,3.323-2.953c0.532-0.233,0.51-0.719,0.311-1.264C22.956,20.354,23.271,19.83,24.003,19.437z"/>
</svg>
