<?xml version="1.0" encoding="iso-8859-1"?>
<!-- Generator: Adobe Illustrator 16.0.0, SVG Export Plug-In . SVG Version: 6.00 Build 0)  -->
<!DOCTYPE svg PUBLIC "-//W3C//DTD SVG 1.1//EN" "http://www.w3.org/Graphics/SVG/1.1/DTD/svg11.dtd">
<svg version="1.1" id="Layer_1" xmlns="http://www.w3.org/2000/svg" xmlns:xlink="http://www.w3.org/1999/xlink" x="0px" y="0px"
	 width="32px" height="32px" viewBox="0 0 32 32" style="enable-background:new 0 0 32 32;" xml:space="preserve">
<path style="fill-rule:evenodd;clip-rule:evenodd;fill:#121111;" d="M26.22,12.472c-0.128-1.332-0.692-2.226-2.152-0.986
	c-0.175,0.146-0.574,0.058-0.867,0.036c-1.797-0.137-3.145-1.165-4.371-2.343c-0.982-0.943-1.904-1.534-3.146-0.437
	c-0.32,0.283-0.724,0.51-1.124,0.651c-0.49,0.175-0.406,0.464-0.533,0.869c-0.304,0.948-1.025,1.787-1.7,2.563
	c-0.075,0.085-1.131,0.115-1.588-0.4c-0.146-0.163-0.347-0.498-0.575-0.271c-1.061,1.044-2.386,0.495-3.659,0.644
	c0.13,1.097,0.298,2.226,1.271,2.826c0.8,0.495,0.693-1.065,1.53-0.943c0.132,0.637-0.034,1.371,0.667,1.891
	c0.036-0.574,0.07-1.076,0.099-1.538c1.367-0.234,0.716,0.781,0.838,1.261c0.238,0.938,1.396,1.275,1.438,2.314
	c-0.315,0.066-0.63,0.134-0.926,0.196c0.303,0.999,1.074,1.004,1.874,0.949c1.383,0.394,2.018,2.392,3.86,1.801
	c0.248,0.23-0.075,0.36-0.1,0.545l0.056,0.059l-0.058-0.054c-0.065,0.048-0.13,0.099-0.192,0.148
	c0.079,0.073,0.158,0.145,0.237,0.219h-0.002c-0.187,0.325-0.243,0.541,0.235,0.714c0.826,0.295,1.634,0.168,2.454,0.064
	c0.179,0.153,0.541,0.031,0.587,0.39c-0.857,0-1.716,0-2.569,0c-0.035,0.194-0.068,0.391-0.102,0.588
	c1.967-0.489,3.478,0.928,5.507,0.88c-0.722-0.575-1.318-1.053-1.914-1.527c-0.583-0.62-0.958-1.596-1.572-1.956
	c-2.299-1.35-3.286-3.768-4.95-5.618c-0.429-0.473-0.188-1.228,0.085-1.654c0.327-0.514,0.738,0,1.026,0.305
	c0.408,0.433,0.767,0.346,1.066-0.098c0.257-0.387,0.65-0.309,1.014-0.421c1.244-0.382,2.342,0.341,3.538,0.387
	c1.075,0.041,2.257-0.416,3.247,0.232c0.859,0.561,1.64,1.619,2.005-0.374c0.043-0.236,0.673,0.024,0.959-0.38
	C27.237,13.502,26.318,13.483,26.22,12.472z"/>
</svg>
