<?xml version="1.0" encoding="iso-8859-1"?>
<!-- Generator: Adobe Illustrator 16.0.0, SVG Export Plug-In . SVG Version: 6.00 Build 0)  -->
<!DOCTYPE svg PUBLIC "-//W3C//DTD SVG 1.1//EN" "http://www.w3.org/Graphics/SVG/1.1/DTD/svg11.dtd">
<svg version="1.1" id="Layer_1" xmlns="http://www.w3.org/2000/svg" xmlns:xlink="http://www.w3.org/1999/xlink" x="0px" y="0px"
	 width="32px" height="32px" viewBox="0 0 32 32" style="enable-background:new 0 0 32 32;" xml:space="preserve">
<path style="fill-rule:evenodd;clip-rule:evenodd;fill:#121111;" d="M29.22,13.244c0.082-0.841,0.369-2.097-0.995-2.306
	c-1.888-0.288-3.739-0.567-5.53-1.338c-1.732-0.745-3.568-0.446-5.323,0.144c-0.564,0.19-1.165,0.452-1.041,1.213
	c0.116,0.724,0.832,0.691,1.296,0.714c1.22,0.055,2.289,0.473,3.343,1.019c0.485,0.25,0.689,0.446,0.472,1.104
	c-0.582,1.763-0.154,3.273,1.511,4.299c0.081,0.052,0.172,0.111,0.225,0.19c0.301,0.451,1.331,0.37,1.06,1.165
	c-0.219,0.639-0.966,0.185-1.446,0.341c-0.269,0.089-0.598,0.197-0.747,0.406c-0.432,0.605-1.016,0.521-1.597,0.446
	c-3-0.385-6.029-0.583-8.955-1.448c-0.557-0.163-1.134-0.192-1.74-0.072c-0.881,0.179-1.016,0.903-1.17,1.522
	c-0.156,0.622,0.399,0.915,0.913,1.134c0.672,0.291,1.414,0.485,1.987,0.908c0.952,0.701,1.752,1.67,2.765,0.058
	c0.168-0.269,0.805-0.273,1.235-0.346c1.142-0.187,2.256,0.01,3.337,0.355c1.159,0.375,2.361,0.41,3.495,0.142
	c2.269-0.538,4.465-0.956,6.313,0.86c1.239-1.963-0.788-2.768-1.398-4.252c1.067,0.061,1.843-0.458,1.785-1.272
	c-0.076-1.103-0.38-2.125,0.673-2.933c0.048-0.039-0.046-0.399-0.164-0.498C28.97,14.342,29.156,13.861,29.22,13.244z"/>
<path style="fill-rule:evenodd;clip-rule:evenodd;fill:#121111;" d="M20.29,18.598c0.237,0.092,0.549,0.329,0.722-0.105
	c0.106-0.267-0.012-0.48-0.229-0.627c-0.77-0.515-1.553-0.999-2.437-1.168c-0.328,0.039-0.687-0.11-0.838,0.229
	c-0.199,0.45,0.194,0.615,0.49,0.747C18.75,18.004,19.519,18.308,20.29,18.598z"/>
</svg>
