<?xml version="1.0" encoding="iso-8859-1"?>
<!-- Generator: Adobe Illustrator 16.0.0, SVG Export Plug-In . SVG Version: 6.00 Build 0)  -->
<!DOCTYPE svg PUBLIC "-//W3C//DTD SVG 1.1//EN" "http://www.w3.org/Graphics/SVG/1.1/DTD/svg11.dtd">
<svg version="1.1" id="Layer_1" xmlns="http://www.w3.org/2000/svg" xmlns:xlink="http://www.w3.org/1999/xlink" x="0px" y="0px"
	 width="32px" height="32px" viewBox="0 0 32 32" style="enable-background:new 0 0 32 32;" xml:space="preserve">
<path style="fill-rule:evenodd;clip-rule:evenodd;fill:#121111;" d="M28.032,11.519c-1.016-0.339-1.507-1.989-2.953-1.213
	c-0.125,0.067-0.38-0.021-0.536-0.108c-1.783-0.995-2.832-0.884-4.483,0.37c-0.396,0.298-0.913,0.403-1.467,0.482
	c-1.179,0.166-2.576-0.045-3.37,1.249c-0.206,0.334-0.595,0.316-0.926,0.326c-1.123,0.037-2.256,0.146-3.194-0.72
	c-0.467-0.431-0.982-0.327-1.099,0.3c-0.146,0.769-0.465,0.846-1.107,0.589c-0.321-0.13-0.757-0.125-0.677,0.403
	c0.185,1.223-0.184,2.332-0.953,2.814c0.606,1.726,2.211,2.516,3.503,3.541c1.229,0.976,2.62,1.518,4.438,0.68
	c1.452-0.668,3.065-1.369,4.886-1.073c1.098,0.177,2.323-0.128,3.064-1.15c0.625-0.863,1.113-1.824,1.661-2.741
	c0.68-1.144,1.112-2.497,2.782-2.678C28,12.549,28.575,11.701,28.032,11.519z"/>
</svg>
