<?xml version="1.0" encoding="iso-8859-1"?>
<!-- Generator: Adobe Illustrator 16.0.0, SVG Export Plug-In . SVG Version: 6.00 Build 0)  -->
<!DOCTYPE svg PUBLIC "-//W3C//DTD SVG 1.1//EN" "http://www.w3.org/Graphics/SVG/1.1/DTD/svg11.dtd">
<svg version="1.1" id="Layer_1" xmlns="http://www.w3.org/2000/svg" xmlns:xlink="http://www.w3.org/1999/xlink" x="0px" y="0px"
	 width="32px" height="32px" viewBox="0 0 32 32" style="enable-background:new 0 0 32 32;" xml:space="preserve">
<path style="fill-rule:evenodd;clip-rule:evenodd;fill:#121111;" d="M12.618,16.147c-1.326-1.339-2.849-2.099-4.357-3.009
	c1.451,2.936,2.345,4.038,4.17,5.33c0.5,0.663,1.187,0.972,1.992,1.075c1.796,0.227,3.563,0.73,5.191,0.44
	c-1.912-0.891-4.241-1.036-6.473-1.581C13.122,17.63,13.499,17.034,12.618,16.147z"/>
<path style="fill-rule:evenodd;clip-rule:evenodd;fill:#121111;" d="M27.322,16.506c-0.137-0.953-0.821-0.298-1.24-0.422
	c-0.549-0.092-1.099-0.18-1.87-0.305c0.764,0.981,1.148,1.969,2.395,2.142c0.533,0.074,1.518,0.266,1.393,0.824
	c-0.319,1.436,0.813,0.848,1.3,1.188C29.427,16.643,29.827,16.895,27.322,16.506z"/>
<path style="fill-rule:evenodd;clip-rule:evenodd;fill:#121111;" d="M19.341,16.033c-0.377,1.638-0.375,1.643,0.879,1.95
	c0.067,0.017,0.092,0.17,0.156,0.243c0.183,0.193,0.454,0.295,0.661,0.162c0.316-0.206,0.113-0.525,0.012-0.775
	c-0.122-0.305-0.589-0.535-0.271-0.922c0.13-0.159,0.694,0.096,0.548-0.389c-0.125-0.412-0.577-0.299-0.896-0.238
	c-0.257,0.05-0.514,0.3-0.612-0.176c0.642-0.468,1.684,0.351,2.263-0.835c-0.966,0.429-1.904-0.172-2.72,0.422
	C19.357,15.663,19.382,15.855,19.341,16.033z"/>
<path style="fill-rule:evenodd;clip-rule:evenodd;fill:#121111;" d="M19.359,15.454c-0.03-0.007-0.05-0.002-0.076-0.007
	c-0.171-0.186-0.346-0.36-0.456-0.584c-0.01-0.017-0.021-0.031-0.031-0.051c-0.033-0.084-0.06-0.175-0.072-0.275
	c-0.041-0.354,0.056-0.801-0.548-0.851c-0.525-0.043-0.672,0.305-0.813,0.662c-0.442,1.11-1.468,0.938-2.211,0.755
	c-0.914-0.227-0.799,0.151-0.652,0.685c0.101,0.367,0.249,0.737,0.459,1.052c0.573,0.865,1.608,0.605,2.418,0.865
	c0.773,0.247,0.521-0.74,0.831-1.072c0.271-0.287,0.235-0.897,0.579-1.119c0.115-0.074,0.271-0.103,0.497-0.064
	c0.015,0.015,0.029,0.029,0.043,0.046c0.012-0.008,0.021-0.01,0.033-0.02C19.359,15.469,19.359,15.461,19.359,15.454z"/>
<path style="fill-rule:evenodd;clip-rule:evenodd;fill:#121111;" d="M23.157,16.566c0.332-0.601,0.907-1.16,0.319-1.986
	C22.699,15.174,22.814,15.851,23.157,16.566z"/>
</svg>
