<?xml version="1.0" encoding="iso-8859-1"?>
<!-- Generator: Adobe Illustrator 16.0.0, SVG Export Plug-In . SVG Version: 6.00 Build 0)  -->
<!DOCTYPE svg PUBLIC "-//W3C//DTD SVG 1.1//EN" "http://www.w3.org/Graphics/SVG/1.1/DTD/svg11.dtd">
<svg version="1.1" id="Layer_1" xmlns="http://www.w3.org/2000/svg" xmlns:xlink="http://www.w3.org/1999/xlink" x="0px" y="0px"
	 width="32px" height="32px" viewBox="0 0 32 32" style="enable-background:new 0 0 32 32;" xml:space="preserve">
<path style="fill-rule:evenodd;clip-rule:evenodd;fill:#121111;" d="M25.249,11.244c-2.085-1.639-4.078-1.636-6.105-0.135
	c-2.087,1.544-5.829,0.326-6.257-2.166c-0.194-1.134-0.51-0.995-1.148-0.515c-0.896,0.673-1.727,0.948-2.509-0.144
	C9.015,7.986,8.777,8.038,8.484,8.251C8.2,8.46,8.129,8.661,8.211,8.991c0.359,1.45,0.563,2.973,1.77,4.042
	c0.298,0.262,0.447,0.615,0.245,0.857c-1.313,1.585,0.024,2.315,1.006,3.099c0.556,0.442,0.933,0.807,1.012,1.616
	c0.048,0.488,0.214,1.655,0.996,1.492c1.672-0.349,1.937,0.837,2.641,1.801c0.945,1.297,2.39,2.372,3.948,2.291
	c1.277-0.064,2.157-0.902,3.135,0.901c0.525,0.97,2.641,0.547,4.027,0.833c0.896,0.183,0.382-0.97,0.889-1.253
	c0.084-0.049,0.164-0.111,0.242-0.167c0.387-0.276,0.733-1.388,0.666-1.834c-0.061-0.399-0.294-0.531-0.586-0.743
	c-0.892-0.641-1.95-1.292-0.682-2.555c0.249-0.248,0.364-0.783-0.032-0.875c-1.384-0.314-0.752-1.465-0.995-2.229
	c-0.35-1.108,0.594-2.018,0.635-3.393C27.382,11.69,25.938,11.786,25.249,11.244z"/>
</svg>
