<?xml version="1.0" encoding="iso-8859-1"?>
<!-- Generator: Adobe Illustrator 16.0.0, SVG Export Plug-In . SVG Version: 6.00 Build 0)  -->
<!DOCTYPE svg PUBLIC "-//W3C//DTD SVG 1.1//EN" "http://www.w3.org/Graphics/SVG/1.1/DTD/svg11.dtd">
<svg version="1.1" id="Layer_1" xmlns="http://www.w3.org/2000/svg" xmlns:xlink="http://www.w3.org/1999/xlink" x="0px" y="0px"
	 width="32px" height="32px" viewBox="0 0 32 32" style="enable-background:new 0 0 32 32;" xml:space="preserve">
<path style="fill-rule:evenodd;clip-rule:evenodd;fill:#121111;" d="M28.785,18.186c-0.824-0.703-1.798-1.16-2.779-1.599
	c-0.365-0.162-1.081-0.195-0.907-0.714c0.305-0.91-0.219-0.735-0.705-0.719c-1.407,0.044-2.392-0.691-2.828-1.919
	c-0.38-1.062-0.979-1.839-1.963-2.209c-1.509-0.567-0.395-1.843-0.803-2.722c-0.182-0.395,0.755-0.326,1.108-0.619
	c0.175-0.145,0.437-0.252,0.662-0.258c0.713-0.02,0.5-0.514,0.375-0.814c-0.148-0.353,0.394-1.016-0.474-1.072
	c-0.483-0.032-1.182,0.002-1.402-0.287c-0.841-1.1-1.729-0.336-2.647-0.354c-1.115-0.021-1.57,1.731-2.822,0.854
	c-0.38,0.973-0.853,1.194-1.506,0.202c-0.026-0.038-0.333,0.017-0.354,0.077C11.442,6.97,10.629,6.82,9.935,6.909
	C9.683,6.943,9.327,7.168,9.388,7.245c0.697,0.894-0.401,1.752,0.038,2.714c0.449,0.982,1.563,1.766,2.267,1.209
	c1.66-1.312,3.163-0.9,3.726,1.16c0.271,0.999,0.953,1.539,1.655,2.048c1.263,0.92,2.286,2.098,3.98,2.546
	c1.147,0.306,2.041,1.603,3.163,2.328c0.715,0.461,0.9,1.448,0.852,2.2c-0.026,0.451-0.646,0.976-1.383,1.198
	c-1.35,0.409-2.666,0.188-3.994,0.139c-0.418-0.014-0.677,0.061-0.747,0.477c-0.066,0.403,0.146,0.579,0.525,0.737
	c0.94,0.389,1.872,0.816,2.756,1.315c0.396,0.224,0.744,0.561,1.181,0.289c0.438-0.272,0.421-0.735,0.212-1.254
	c0.069-0.438,0.046-1.256,0.632-1.165c1.297,0.204,1.273-0.906,1.869-1.422c1.001-0.87,1.186-1.387-0.016-2.111
	c-0.093-0.056-0.038-0.466,0.042-0.678c0.297-0.804,1.162-0.804,2.039-0.002c0.257,0.235,0.425,0.795,0.869,0.334
	C29.469,18.878,29.13,18.48,28.785,18.186z"/>
<path style="fill-rule:evenodd;clip-rule:evenodd;fill:#121111;" d="M13.34,16.75c-0.596,0.232-2.401,0.341-1.256,1.98
	c0.156,0.224,0.021,0.649,0.021,1.122c-0.108,0.53-0.333,1.451,0.66,1.393c0.661-0.038,1.734-0.292,1.543-1.565
	c-0.077-0.497,0.26-1.057,0.187-1.556C14.399,17.465,14.255,16.392,13.34,16.75z"/>
</svg>
