<?xml version="1.0" encoding="iso-8859-1"?>
<!-- Generator: Adobe Illustrator 16.0.0, SVG Export Plug-In . SVG Version: 6.00 Build 0)  -->
<!DOCTYPE svg PUBLIC "-//W3C//DTD SVG 1.1//EN" "http://www.w3.org/Graphics/SVG/1.1/DTD/svg11.dtd">
<svg version="1.1" id="Layer_1" xmlns="http://www.w3.org/2000/svg" xmlns:xlink="http://www.w3.org/1999/xlink" x="0px" y="0px"
	 width="32px" height="32px" viewBox="0 0 32 32" style="enable-background:new 0 0 32 32;" xml:space="preserve">
<path style="fill-rule:evenodd;clip-rule:evenodd;fill:#121111;" d="M21.883,12.375c1.188,0.658,1.981,0.062,3.106-0.372
	c1.369-0.531,1.868-1.636,3.073-2.438c-2.913,0.395-2.918,0.399-5.224-1.473c-0.25-0.204-0.469-0.362-0.773-0.247
	c-0.383,0.144-0.228,0.471-0.204,0.747c0.08,0.941,0.036,2.105-0.797,2.452c-1.537,0.637-1.554,1.603-1.206,2.93
	c0.422-0.264,1.127-0.657,1.107-0.698C20.334,11.979,21.774,12.314,21.883,12.375z"/>
<path style="fill-rule:evenodd;clip-rule:evenodd;fill:#121111;" d="M7.022,26.517c0.886-0.142,0.65,0.271,0.59,0.735
	c-0.073,0.559-0.315,1.302,0.415,1.499c0.66,0.177,0.716-0.647,1.024-1.039c0.118-0.15,0.181-0.345,0.29-0.502
	c0.327-0.472,0.376-0.96,1.371-0.835c1.665,0.211,2.652-1.216,2.208-2.651c0.338,0.03,0.636,0.017,0.721,0.514
	c0.2,1.162,0.75,1.407,1.519,0.579c0.876-0.942,2.067-0.714,3.057-1.141c1.04-0.45,2.584-0.255,2.525-2.268
	c-0.027-0.879,0.004-2.364,0.592-2.83c1.346-1.066,0.937-2.08,0.496-3.218c-0.173-0.446,0.119-1.41-0.844-1.144
	c-0.785,0.219-1.688,0.658-1.5,1.701c0.274,1.521-0.628,2.537-1.372,3.611c-0.287,0.416-1.057,0.925-1.35,0.691
	c-1.172-0.934-1.079,0.115-1.453,0.702c-0.33,0.517-0.354,1.414-1.361,1.332c-2.09-0.167-3.902,0.565-5.519,1.843
	c-0.298,0.236-0.128,0.533-0.066,0.812c-0.56,0.07-0.994,0.385-1.393,0.747C6.625,25.972,6.584,26.586,7.022,26.517z"/>
</svg>
