<?xml version="1.0" encoding="iso-8859-1"?>
<!-- Generator: Adobe Illustrator 16.0.0, SVG Export Plug-In . SVG Version: 6.00 Build 0)  -->
<!DOCTYPE svg PUBLIC "-//W3C//DTD SVG 1.1//EN" "http://www.w3.org/Graphics/SVG/1.1/DTD/svg11.dtd">
<svg version="1.1" id="Layer_1" xmlns="http://www.w3.org/2000/svg" xmlns:xlink="http://www.w3.org/1999/xlink" x="0px" y="0px"
	 width="32px" height="32px" viewBox="0 0 32 32" style="enable-background:new 0 0 32 32;" xml:space="preserve">
<path style="fill-rule:evenodd;clip-rule:evenodd;fill:#121111;" d="M13.949,16.597c-1.158-0.489-2.408,0.156-3.604-0.478
	c-1.279-0.675-2.349,0.425-3.167,1.131c-0.882,0.76,0.353,1.295,0.718,1.94c0.483,0.854,0.908,0.005,1.344,0.082
	c0.313,0.055,0.754-0.148,0.895,0.255c0.141,0.403-0.167,0.545-0.548,0.67c-0.965,0.317-0.536,0.872-0.206,1.437
	c0.522,0.894,1.697,0.42,2.443,1.595c0.033-0.737-0.002-0.992,0.064-1.215c0.159-0.539-0.428-1.237,0.489-1.636
	c0.828-0.363,1.318,0.103,1.847,0.491c0.395,0.294,0.688,0.661,1.273,0.532c0.768-0.172,1.257,0.088,1.552,0.912
	c0.239,0.668,0.864,1.134,1.568,0.545c1.567-1.309,3.374-1.152,5.138-0.809c0.749,0.146,0.853-0.08,0.925-0.615
	c0.157-1.144,0.914-1.761,1.903-2.138c0.407-0.156,1.53-1.754,1.337-1.766c-0.911-0.055-1.311-1.139-2.236-1.062
	c-0.953,0.079-1.585-0.269-2.098-1.112c-0.463-0.759-0.973-1.741-2.219-0.874c-0.21,0.146-0.937-0.104-1.159-0.382
	c-0.877-1.098-1.861-0.663-2.874-0.365c-0.703,0.207-1.408,0.449-2.129,0.538c-1.276,0.156-1.132,1.177-0.903,1.816
	C14.531,16.729,14.247,16.722,13.949,16.597z"/>
</svg>
