<?xml version="1.0" encoding="iso-8859-1"?>
<!-- Generator: Adobe Illustrator 16.0.0, SVG Export Plug-In . SVG Version: 6.00 Build 0)  -->
<!DOCTYPE svg PUBLIC "-//W3C//DTD SVG 1.1//EN" "http://www.w3.org/Graphics/SVG/1.1/DTD/svg11.dtd">
<svg version="1.1" id="Layer_1" xmlns="http://www.w3.org/2000/svg" xmlns:xlink="http://www.w3.org/1999/xlink" x="0px" y="0px"
	 width="32px" height="32px" viewBox="0 0 32 32" style="enable-background:new 0 0 32 32;" xml:space="preserve">
<path style="fill-rule:evenodd;clip-rule:evenodd;fill:#121111;" d="M11.373,17.63c0.347,1.144,0.701,2.241,1.28,3.286
	c0.167,0.3,0.77,0.66-0.014,0.966c0.484,0.487,0.232,1.277,0.674,1.738c0.216,0.226,0.647,0.148,0.958-0.062
	c0.278-0.188,0.319-1.03,0.911-0.349c0.331,0.382,0.406,0.769-0.089,1.121c-0.256,0.183-0.387,0.472-0.178,0.76
	c0.202,0.28,0.503,0.254,0.79,0.115c0.715-0.349,1.423-0.089,2.067,0.139c1.226,0.433,2.599-0.061,3.253-1.294
	c0.051-0.051,0.102-0.099,0.153-0.147c0.763-0.086,1.514-0.326,2.275-0.298c0.153,0.005,0.305,0.021,0.458,0.052
	c0.307,0.062,0.615,0.18,0.928,0.379c0.577,0.369,0.47-0.414,0.478-0.694c0.013-0.444-0.462-0.584-0.74-0.846
	c-0.477-0.446-0.603-1.102-0.395-1.582c0.198-0.455,0.816-0.658,1.4-0.416c0.539,0.223,0.845,0.111,0.804-0.538
	c-0.028-0.433,0.34-0.341,0.582-0.466c1.871-0.968,4.848-1.037,3.756-4.494c-0.038-0.12,0.034-0.295,0.098-0.423
	c0.47-0.927,0.271-1.789-0.217-2.64c-0.611-1.063-0.63-2.115,0.115-3.134c0.073-0.166,0.115-0.327-0.05-0.464
	c-0.072,0.087-0.144,0.175-0.217,0.262c-0.276,0.075-0.631,0.063-0.816,0.235c-0.885,0.816-1.639,1.112-2.733,0.158
	c-0.602-0.523-1.322,0.44-2.034,0.618c-0.621,0.158-0.113,0.605,0.005,0.927c0.15,0.416,0.077,1.03-0.393,0.73
	c-0.871-0.558-1.849-0.648-2.744-1.023c-1.007-0.423-1.864-1.107-3.129-0.754c-0.865,0.242-1.868,0.175-2.778,0.038
	c-1.851-0.278-3.244,0.224-4.165,1.914c-0.253,0.466-0.578,1.103-0.998,1.225c-1.233,0.361-0.854,1.11-0.57,1.812
	C10.528,15.534,11.07,16.633,11.373,17.63z"/>
</svg>
