<?xml version="1.0" encoding="iso-8859-1"?>
<!-- Generator: Adobe Illustrator 16.0.0, SVG Export Plug-In . SVG Version: 6.00 Build 0)  -->
<!DOCTYPE svg PUBLIC "-//W3C//DTD SVG 1.1//EN" "http://www.w3.org/Graphics/SVG/1.1/DTD/svg11.dtd">
<svg version="1.1" id="Layer_1" xmlns="http://www.w3.org/2000/svg" xmlns:xlink="http://www.w3.org/1999/xlink" x="0px" y="0px"
	 width="32px" height="32px" viewBox="0 0 32 32" style="enable-background:new 0 0 32 32;" xml:space="preserve">
<path style="fill-rule:evenodd;clip-rule:evenodd;fill:#121111;" d="M10.903,19.141c0.867,0.229,1.177-0.348,0.944-1.095
	c-0.26-0.835-0.591-1.667-1.026-2.426c-0.54-0.946-0.669-1.921-0.562-2.966c0.02-0.147,0.036-0.293,0.056-0.439
	c0.112-0.857,0.209-1.81-0.963-1.883c-1.105-0.069-1.273,0.894-1.379,1.738c-0.097,0.779-0.08,1.572-0.186,2.35
	C7.447,16.969,8.394,18.476,10.903,19.141z"/>
<path style="fill-rule:evenodd;clip-rule:evenodd;fill:#121111;" d="M29.878,25.69c0.144-1.213-0.199-2.325-0.675-3.417
	c-0.295-0.682-0.927-0.654-1.096-0.166c-0.547,1.6-1.829,1.107-3.002,1.367c1.359,0.802,2.625,1.657,3.742,2.743
	C29.43,26.784,29.794,26.395,29.878,25.69z"/>
<path style="fill-rule:evenodd;clip-rule:evenodd;fill:#121111;" d="M16.315,26.358c0.812,0.148,1.635,0.219,2.66,0.35
	c-0.559-1.042-1.409-1.45-2.204-1.851c-0.392-0.197-1.146-0.541-1.364,0.093C15.205,25.54,15.549,26.218,16.315,26.358z"/>
</svg>
