<?xml version="1.0" encoding="iso-8859-1"?>
<!-- Generator: Adobe Illustrator 16.0.0, SVG Export Plug-In . SVG Version: 6.00 Build 0)  -->
<!DOCTYPE svg PUBLIC "-//W3C//DTD SVG 1.1//EN" "http://www.w3.org/Graphics/SVG/1.1/DTD/svg11.dtd">
<svg version="1.1" id="Layer_1" xmlns="http://www.w3.org/2000/svg" xmlns:xlink="http://www.w3.org/1999/xlink" x="0px" y="0px"
	 width="32px" height="32px" viewBox="0 0 32 32" style="enable-background:new 0 0 32 32;" xml:space="preserve">
<path style="fill-rule:evenodd;clip-rule:evenodd;fill:#121111;" d="M27.949,13.709c0.132-0.17-0.034-0.447-0.238-0.637
	c-0.843-0.79-1.805-1.28-2.977-0.997c-0.655,0.158-1.184,0.073-1.577-0.451c-0.604-0.8-1.552-1.023-2.371-1.41
	c-1.019-0.482-2.018,0.105-2.926,0.541c-0.84,0.403-0.209,1.179-0.144,1.707c0.146,1.172-0.582,1.657-1.384,1.963
	c-0.859,0.324-1.511-0.063-2.02-0.941c-1.11-1.905-3.619-2.511-4.604-1.019c-1.136,1.718-2.433,3.555-1.676,6.06
	c1.534-1.129,3.136-1.409,4.931-1.348c1.979,0.07,3.979,1.148,5.963,0.015c0.063-0.036,0.224-0.008,0.27,0.049
	c1.048,1.304,3.012,1.061,4.047,2.438c0.454,0.605,1.229,0.667,1.843,0.18c0.403-0.321,0.769-0.348,1.218-0.271
	c1.307,0.229,1.758-1.05,2.569-1.617c0.606-0.42-0.081-1.301-0.412-1.957C28.107,15.312,27.188,14.698,27.949,13.709z"/>
</svg>
