<?xml version="1.0" encoding="iso-8859-1"?>
<!-- Generator: Adobe Illustrator 16.0.0, SVG Export Plug-In . SVG Version: 6.00 Build 0)  -->
<!DOCTYPE svg PUBLIC "-//W3C//DTD SVG 1.1//EN" "http://www.w3.org/Graphics/SVG/1.1/DTD/svg11.dtd">
<svg version="1.1" id="Layer_1" xmlns="http://www.w3.org/2000/svg" xmlns:xlink="http://www.w3.org/1999/xlink" x="0px" y="0px"
	 width="32px" height="32px" viewBox="0 0 32 32" style="enable-background:new 0 0 32 32;" xml:space="preserve">
<path style="fill-rule:evenodd;clip-rule:evenodd;fill:#121111;" d="M28.045,11.933c-1.96-1.063-3.453-2.715-5.063-4.208
	c-0.368-0.341-0.639-0.606-1.107-0.447c-3.306,1.116-6.555,2.32-8.793,5.239c-1.309,1.706-2.085,3.931-4.481,4.6
	c-0.414,0.115-0.531,0.524-0.401,0.975c0.646,2.207,2.204,3.955,3.079,6.08c0.382,0.927,1.741,1.888,2.788,2.681
	c0.872,0.659,1.977,0.678,2.952,0.637c0.809-0.035,0.723-1.165,1.114-1.732c0.922-1.335,1.335-3.342,3.536-3.263
	c1.238,0.045,2.311-0.407,3.319-0.975c2.39-1.341,2.622-4.169,4.08-6.163c0.217-0.295,0.226-0.741,0.347-1.167
	C29.095,13.371,28.991,12.446,28.045,11.933z"/>
</svg>
