<?xml version="1.0" encoding="iso-8859-1"?>
<!-- Generator: Adobe Illustrator 16.0.0, SVG Export Plug-In . SVG Version: 6.00 Build 0)  -->
<!DOCTYPE svg PUBLIC "-//W3C//DTD SVG 1.1//EN" "http://www.w3.org/Graphics/SVG/1.1/DTD/svg11.dtd">
<svg version="1.1" id="Layer_1" xmlns="http://www.w3.org/2000/svg" xmlns:xlink="http://www.w3.org/1999/xlink" x="0px" y="0px"
	 width="32px" height="32px" viewBox="0 0 32 32" style="enable-background:new 0 0 32 32;" xml:space="preserve">
<path style="fill-rule:evenodd;clip-rule:evenodd;fill:#121111;" d="M13.333,22.572c-0.639,0.448-1.287,0.886-1.938,1.32
	c-0.465,0.311-0.665,0.706-0.448,1.254c0.228,0.582,0.634,0.337,1.078,0.32c0.961-0.037,1.806-0.345,2.646-0.752
	c0.63-0.306,1.443-0.625,1.869,0.076c0.725,1.196,1.616,0.963,2.645,0.653c1.013-0.308,2.186-0.375,2.271-1.82
	c0.027-0.46,0.299-0.675,0.699-0.832c1.309-0.501,1.523-1.203,0.747-2.354c-0.202-0.297-0.629-0.447-0.442-0.978
	c0.584-1.662,0.279-2.277-1.169-3.239c-0.839-0.558-1.597-1.273-2.266-2.032c-0.398-0.454-0.622-1.107-0.278-1.777
	c0.892-1.732,0.87-1.881-0.778-2.904c-0.523-0.327-0.841-0.576-0.245-1.059c0.844-0.681,0.441-1.259-0.12-1.814
	c-0.695-0.687-1.417-1.344-2.358-2.232c-0.033,1.907-1.263,3.081-1.907,4.526c-0.948,2.129-2.452,4.321-0.634,6.718
	c1.023,1.351,1.288,2.911,1.576,4.509C14.467,21.21,14.177,21.976,13.333,22.572z"/>
</svg>
