<?xml version="1.0" encoding="iso-8859-1"?>
<!-- Generator: Adobe Illustrator 16.0.0, SVG Export Plug-In . SVG Version: 6.00 Build 0)  -->
<!DOCTYPE svg PUBLIC "-//W3C//DTD SVG 1.1//EN" "http://www.w3.org/Graphics/SVG/1.1/DTD/svg11.dtd">
<svg version="1.1" id="Layer_1" xmlns="http://www.w3.org/2000/svg" xmlns:xlink="http://www.w3.org/1999/xlink" x="0px" y="0px"
	 width="32px" height="32px" viewBox="0 0 32 32" style="enable-background:new 0 0 32 32;" xml:space="preserve">
<path style="fill-rule:evenodd;clip-rule:evenodd;fill:#121111;" d="M27.365,14.287c-0.847-0.04-0.599-0.528-0.436-0.986
	c0.137-0.384,0.199-0.615-0.281-0.938c-3.955-2.646-3.941-2.666-8.324-2.896c-0.096-0.005-0.197-0.022-0.289-0.051
	c-2.262-0.701-4.64-0.313-7.022-0.73c-1.287,0.216-2.526,0.778-3.675,1.55c-0.14,0.093-0.26,0.293-0.29,0.46
	c-0.243,1.269,0.461,2.393,0.644,3.599c0.055,0.353,1.035,0.543,1.565,0.854c0.801,0.469,1.662,0.493,2.553,0.528
	c0.832,0.037,1.709,0.551,1.353,1.396c-0.622,1.468-0.047,2.076,1.216,2.378c0.965,0.233,1.182,0.971,1.563,1.713
	c0.243,0.468,4.208,0.026,4.667-0.476c0.507-0.555,1.264-0.558,1.837-0.946c0.644-0.439,0.675,0.966,1.386,0.449
	c0.987-0.719-0.537-0.773-0.334-1.466c0.517-1.765,1.326-3.086,3.276-3.376c0.406-0.061,0.497-0.436,0.75-0.648
	C27.737,14.522,27.557,14.3,27.365,14.287z"/>
</svg>
