<?xml version="1.0" encoding="iso-8859-1"?>
<!-- Generator: Adobe Illustrator 16.0.0, SVG Export Plug-In . SVG Version: 6.00 Build 0)  -->
<!DOCTYPE svg PUBLIC "-//W3C//DTD SVG 1.1//EN" "http://www.w3.org/Graphics/SVG/1.1/DTD/svg11.dtd">
<svg version="1.1" id="Layer_1" xmlns="http://www.w3.org/2000/svg" xmlns:xlink="http://www.w3.org/1999/xlink" x="0px" y="0px"
	 width="32px" height="32px" viewBox="0 0 32 32" style="enable-background:new 0 0 32 32;" xml:space="preserve">
<path style="fill-rule:evenodd;clip-rule:evenodd;fill:#121111;" d="M8.962,22.494c-0.709,0.563-0.186,1.168,0.185,1.273
	c1.468,0.42,2.654,1.402,4.073,1.879c0.632,0.211,1.402,0.06,1.833-0.322c1.734-1.54,3.441-1.345,5.217-0.171
	c0.778,0.514,0.816,0.104,0.894-0.584c0.264-2.365,0.839-4.578,2.743-6.285c1.106-0.992,0.521-2.885-0.874-3.326
	c-0.699-0.224-1.394-0.462-2.066-0.745c-2.227-0.936-5.562-4.419-5.142-7.399c0.307-0.732,0.129-1.802-0.69-1.93
	c-1.045-0.16-2.164-0.807-3.354,0.38c-1.624,1.616-2.402,3.651-3.576,5.489c-1.254,1.966-1.316,3.751,0.045,5.61
	c0.721,0.984,1.319,2.056,1.994,3.076c0.185,0.278,0.232,0.51,0.028,0.795C9.759,20.945,9.685,21.919,8.962,22.494z"/>
</svg>
