<?xml version="1.0" encoding="iso-8859-1"?>
<!-- Generator: Adobe Illustrator 16.0.0, SVG Export Plug-In . SVG Version: 6.00 Build 0)  -->
<!DOCTYPE svg PUBLIC "-//W3C//DTD SVG 1.1//EN" "http://www.w3.org/Graphics/SVG/1.1/DTD/svg11.dtd">
<svg version="1.1" id="Layer_1" xmlns="http://www.w3.org/2000/svg" xmlns:xlink="http://www.w3.org/1999/xlink" x="0px" y="0px"
	 width="32px" height="32px" viewBox="0 0 32 32" style="enable-background:new 0 0 32 32;" xml:space="preserve">
<path style="fill-rule:evenodd;clip-rule:evenodd;fill:#121111;" d="M11.128,23.269c0.019,0.04,0,0.098,0.001,0.146
	c0.062,1.441,1.095,2.612,2.479,2.808c0.793,0.112,2.909-1.093,3.162-1.862c0.852-2.591,1.699-5.186,2.495-7.795
	c0.338-1.109,0.487-2.375,0.909-3.334c0.367-0.833-0.249-2.327,1.244-2.639c0.069-0.015,0.157-0.289,0.12-0.405
	c-0.504-1.556-0.305-3.321-1.402-4.703c-0.278-0.351-0.754-0.646-0.858-0.127c-0.217,1.082-1.318,1.6-1.574,2.335
	c-0.657,1.888-2.118,2.566-3.653,3.164c-1.99,0.774-2.767,2.06-2.196,4.157c0.166,0.607,0.336,1.211,0.488,1.762
	c-0.074,0.312-0.063,0.598-0.197,0.775C10.841,19.291,10.064,21.111,11.128,23.269z"/>
</svg>
