<?xml version="1.0" encoding="iso-8859-1"?>
<!-- Generator: Adobe Illustrator 16.0.0, SVG Export Plug-In . SVG Version: 6.00 Build 0)  -->
<!DOCTYPE svg PUBLIC "-//W3C//DTD SVG 1.1//EN" "http://www.w3.org/Graphics/SVG/1.1/DTD/svg11.dtd">
<svg version="1.1" id="Layer_1" xmlns="http://www.w3.org/2000/svg" xmlns:xlink="http://www.w3.org/1999/xlink" x="0px" y="0px"
	 width="32px" height="32px" viewBox="0 0 32 32" style="enable-background:new 0 0 32 32;" xml:space="preserve">
<path style="fill-rule:evenodd;clip-rule:evenodd;fill:#121111;" d="M21.412,24.145c0.053-0.024,0.041-0.184,0.062-0.279
	c0.513-2.424-0.573-5.084-2.633-6.449c-0.669-0.442-1.434-3.207-1.054-3.924c0.051-0.094,0.289-0.089,0.461-0.119
	c-0.159-0.538-0.246-1.048,0.534-1.165c0.316-0.047,0.495-0.285,0.247-0.465c-1.131-0.821-0.567-2.073-0.852-3.103
	c-0.241-0.876-0.619-2.056-1.453-1.972c-1.097,0.11-2.05-0.311-2.917-0.34c0.107,1.378,2.852,2.159,0.707,4.017
	c-0.041,0.034,0.171,0.312,0.124,0.393c-0.818,1.396,1.145,3.347-0.891,4.51c-0.081,0.046-0.04,0.367-0.001,0.548
	c0.098,0.468-0.02,0.955-0.282,1.253c-0.817,0.928-0.151,1.398,0.532,1.75c0.263,0.136,0.529,0.232,0.635,0.485
	c0.431,1.028,1.225,1.167,2.14,0.848c0.745-0.261,1.003,0.122,1.122,0.712c0.126,0.626,0.207,1.277-0.2,1.845
	c-0.833,1.159-0.25,2.021,0.514,2.917c0.416,0.486,1.157,0.723,1.178,1.558c0.006,0.242,0.637,0.432,0.566,0.064
	C19.672,25.783,20.056,24.767,21.412,24.145z"/>
<path style="fill-rule:evenodd;clip-rule:evenodd;fill:#121111;" d="M18.396,13.639c0.036,0.007,0.082-0.042,0.123-0.066
	c-0.08-0.054-0.162-0.107-0.242-0.161C18.222,13.527,18.251,13.611,18.396,13.639z"/>
<path style="fill-rule:evenodd;clip-rule:evenodd;fill:#121111;" d="M18.278,13.413c0.007-0.017-0.001-0.026,0.01-0.044
	c-0.012,0.003-0.027,0.003-0.041,0.006c0.002,0.008,0.004,0.015,0.007,0.023C18.262,13.403,18.27,13.407,18.278,13.413z"/>
</svg>
