<?xml version="1.0" encoding="iso-8859-1"?>
<!-- Generator: Adobe Illustrator 16.0.0, SVG Export Plug-In . SVG Version: 6.00 Build 0)  -->
<!DOCTYPE svg PUBLIC "-//W3C//DTD SVG 1.1//EN" "http://www.w3.org/Graphics/SVG/1.1/DTD/svg11.dtd">
<svg version="1.1" id="Layer_1" xmlns="http://www.w3.org/2000/svg" xmlns:xlink="http://www.w3.org/1999/xlink" x="0px" y="0px"
	 width="32px" height="32px" viewBox="0 0 32 32" style="enable-background:new 0 0 32 32;" xml:space="preserve">
<path style="fill-rule:evenodd;clip-rule:evenodd;fill:#121111;" d="M15.231,19.955c1.894,1.802,4.13,3.094,6.738,3.411
	c1.51,0.185,3.095,1.525,4.654-0.29c0.842-0.979,1.174-2.901,0.255-3.834c-0.68-0.691-1.8-0.68-2.306-1.412
	c-1.08-1.566-2.764-2.147-4.299-2.997c-0.481-0.265-0.895-0.592-1.436-0.008c-0.17,0.183-0.991,0.586-0.743-0.476
	c0.138-0.594-0.533-0.41-0.835-0.567c-0.479-0.25-0.896,0.412-1.545,0.065c0.279-0.257,0.464-0.5,0.707-0.634
	c0.362-0.205,0.75-0.344,0.384-0.851c-0.311-0.43-0.526-0.098-0.83,0.056c-0.414,0.211-0.83,0.43-1.377,0.338
	c-0.542-0.088-0.401,0.599-0.662,0.884c-0.218,0.24,0.082,0.412,0.364,0.39c0.421-0.031,0.575,0.334,0.492,0.555
	c-0.365,0.983,0.176,2.037-0.217,2.964C14.138,18.584,14.591,19.348,15.231,19.955z"/>
<path style="fill-rule:evenodd;clip-rule:evenodd;fill:#121111;" d="M9.041,10.944c1.872,0.862,3.566-0.225,5.319-0.553
	c0.785-0.148,0.518-0.699,0.079-1.053c-1.717-1.383-3.694-2.151-5.658-2.487C7.91,7.045,6.956,6.573,6.65,7.161
	C6.254,7.922,6.628,8.982,6.823,9.763C6.959,10.308,8.251,10.581,9.041,10.944z"/>
<path style="fill-rule:evenodd;clip-rule:evenodd;fill:#121111;" d="M13.861,11.248c0.018,0.205,0.129,0.817,0.481,0.726
	c0.632-0.115,1.243-0.028,1.271-0.535c0.023-0.392-0.451-0.684-0.939-0.693C14.279,10.734,13.82,10.783,13.861,11.248z"/>
</svg>
