<?xml version="1.0" encoding="iso-8859-1"?>
<!-- Generator: Adobe Illustrator 16.0.0, SVG Export Plug-In . SVG Version: 6.00 Build 0)  -->
<!DOCTYPE svg PUBLIC "-//W3C//DTD SVG 1.1//EN" "http://www.w3.org/Graphics/SVG/1.1/DTD/svg11.dtd">
<svg version="1.1" id="Layer_1" xmlns="http://www.w3.org/2000/svg" xmlns:xlink="http://www.w3.org/1999/xlink" x="0px" y="0px"
	 width="32px" height="32px" viewBox="0 0 32 32" style="enable-background:new 0 0 32 32;" xml:space="preserve">
<path style="fill-rule:evenodd;clip-rule:evenodd;fill:#121111;" d="M25.479,19.804c-0.212-0.916-0.737-1.458-1.312-2.136
	c-0.657-0.775-2.308-1.501-0.81-3.104c-0.629-0.031-1.054-0.095-1.472-0.064c-0.365,0.026-0.795,0.73-1.058,0.02
	c-0.194-0.535,0.471-0.831,0.813-0.908c1.386-0.319,0.175-0.78,0.071-1.129c-0.048-0.168-0.359-0.341-0.568-0.36
	c-0.68-0.064-0.533-0.648-0.445-0.907c0.212-0.623,0.61-0.183,0.928-0.02c0.668,0.342,1.965-0.382,1.967-1.096
	c0-0.453-0.5-0.744-0.629-0.607c-0.87,0.925-2.402,0.411-3.185,1.67c-0.548-1.28-1.552-2.06-2.315-3.034
	c-1.063-1.356-2.817-1.621-4.208-2.465c-1.295-0.782-2.961-0.641-4.359,0.157C7.446,6.646,7.39,8.251,8.549,9.541
	c0.566,0.631,1.785,0.987,1.367,2.176c-0.341,0.968,0.076,1.623,0.461,2.454c0.734,1.581,2.329,2.149,3.483,3.196
	c0.559,0.513,1.901,0.997,2.897-0.114c-0.05,0.78,0.447,1.246,0.661,1.83c0.101,0.278,0.819,0.271,0.411,0.73
	c-0.306,0.345-1.002,0.458-1.216,0.173c-1.386-1.852-1.977,0.254-2.676,0.652c-1.095,0.622,0.186,1.427,0.346,2.162
	c0.236,1.067,0.992,1.244,1.795,0.514c0.313-0.28,0.65-0.475,1.061-0.318c1.313,0.504,2.774,0.172,4.035,0.636
	c0.597,0.219,2.669-0.29,1.564,1.731c-0.181,0.334,0.23,0.699,0.517,0.971c0.338,0.322,0.788,0.327,1.083,0.11
	c0.766-0.555,2.39-2.918,1.873-3.903C25.751,21.657,25.688,20.714,25.479,19.804z"/>
</svg>
