<?xml version="1.0" encoding="iso-8859-1"?>
<!-- Generator: Adobe Illustrator 16.0.0, SVG Export Plug-In . SVG Version: 6.00 Build 0)  -->
<!DOCTYPE svg PUBLIC "-//W3C//DTD SVG 1.1//EN" "http://www.w3.org/Graphics/SVG/1.1/DTD/svg11.dtd">
<svg version="1.1" id="Layer_1" xmlns="http://www.w3.org/2000/svg" xmlns:xlink="http://www.w3.org/1999/xlink" x="0px" y="0px"
	 width="32px" height="32px" viewBox="0 0 32 32" style="enable-background:new 0 0 32 32;" xml:space="preserve">
<path style="fill-rule:evenodd;clip-rule:evenodd;fill:#121111;" d="M25.249,13.865c-1.112-0.69-2.011-1.605-3.073-2.319
	c-1.911-1.286-3.83-2.563-5.671-3.942c-0.821-0.615-1.661-0.699-2.605-0.707c-0.746-0.006-0.872,0.228-0.776,0.956
	c0.481,3.632,0.604,7.308,1.365,10.907c0.098,0.466-0.003,0.845-0.656,0.854c-2.125,0.029-4.246-0.062-6.376,0.192
	c-1.178,0.14-1.597,0.457-1.478,1.646c0.09,0.917,1.078,1.457,0.851,2.491c-0.084,0.383,0.393,0.263,0.673,0.257
	c0.633-0.014,1.269,0.077,1.887-0.152c0.201-0.075,0.455-0.515,0.634,0.038c0.548,1.683,1.139,3.131,3.497,2.284
	c0.401-0.145,1.074-0.005,1.087-0.545c0.033-1.318,1.584-1.757,1.611-3.03c0.001-0.079,0.243-0.245,0.292-0.219
	c0.923,0.488,0.99-0.571,1.491-0.792c1.152-0.508,2.119-1.49,3.542-1.352c1.468,0.142,2.821-0.69,4.309-0.579
	c0.482,0.036,0.721-0.444,0.899-0.853c0.321-0.735,0.397-1.511,0.324-2.439C27.932,14.865,25.945,14.298,25.249,13.865z"/>
</svg>
