<?xml version="1.0" encoding="iso-8859-1"?>
<!-- Generator: Adobe Illustrator 16.0.0, SVG Export Plug-In . SVG Version: 6.00 Build 0)  -->
<!DOCTYPE svg PUBLIC "-//W3C//DTD SVG 1.1//EN" "http://www.w3.org/Graphics/SVG/1.1/DTD/svg11.dtd">
<svg version="1.1" id="Layer_1" xmlns="http://www.w3.org/2000/svg" xmlns:xlink="http://www.w3.org/1999/xlink" x="0px" y="0px"
	 width="32px" height="32px" viewBox="0 0 32 32" style="enable-background:new 0 0 32 32;" xml:space="preserve">
<path style="fill-rule:evenodd;clip-rule:evenodd;fill:#121111;" d="M24.772,16.792c-1.105-0.958-2.392-1.611-2.075-3.396
	c0.015-0.081-0.515-0.206-0.72-0.389c-0.773-0.687-1.882-1.127-1.138-2.634c0.333-0.676,0.525-2.091-1.229-1.775
	c-0.359,0.064-0.555-0.332-0.733-0.632c-0.2-0.336-0.412-0.754-0.86-0.711c-1.878,0.188-3.152-1.08-4.635-1.854
	c-0.642-0.334-1.277-0.665-2.076-0.411c-1.087,0.344-2.125,0.884-3.378,0.538C7.499,5.408,6.856,5.795,6.555,6.488
	c2,0.033,2.638,1.545,3.228,2.895c0.939,2.149,2.434,3.854,4.001,5.502c1.111,1.165,1.833,2.554,1.56,4.033
	c-0.344,1.874-0.74,3.665-0.544,5.61c0.068,0.68,0.124,1.11,0.618,1.502c0.417-0.57,1.939,0.318,1.623-1.252
	c-0.088-0.438,0.445-0.601,0.636-0.915c0.78-1.271,2.776-2.008,1.784-4.088c-0.255-0.533,0.319-0.723,0.698-0.93
	c0.663-0.355,0.58,0.144,0.622,0.53c0.028,0.263,0.194,0.313,0.39,0.15c0.549-0.457,1.148,0.03,1.622-0.063
	c1.051-0.206,2.06,1.012,3.251-0.185C24.566,18.867,25.387,17.325,24.772,16.792z"/>
</svg>
