<?xml version="1.0" encoding="iso-8859-1"?>
<!-- Generator: Adobe Illustrator 16.0.0, SVG Export Plug-In . SVG Version: 6.00 Build 0)  -->
<!DOCTYPE svg PUBLIC "-//W3C//DTD SVG 1.1//EN" "http://www.w3.org/Graphics/SVG/1.1/DTD/svg11.dtd">
<svg version="1.1" id="Layer_1" xmlns="http://www.w3.org/2000/svg" xmlns:xlink="http://www.w3.org/1999/xlink" x="0px" y="0px"
	 width="32px" height="32px" viewBox="0 0 32 32" style="enable-background:new 0 0 32 32;" xml:space="preserve">
<path style="fill-rule:evenodd;clip-rule:evenodd;fill:#121111;" d="M26.005,17.488c-0.102-0.337,0.089-0.512,0.193-0.726
	c0.13-0.26,0.21-0.543,0.315-0.833c-1.028-0.459-1.896-0.483-2.801,0.12c-0.41,0.273-1.071,0.392-1.556,0.288
	c-1.519-0.325-2.878-1.377-4.575-0.915c-0.255,0.069-0.37-0.377-0.546-0.594c-0.563-0.694-1.438-0.747-2.245-0.804
	c-0.297-0.022-0.683,0.313-0.652,0.688c0.159,2.032-1.544,1.127-1.907,0.879c-1.32-0.905-2.369-0.449-3.506,0.197
	c-1.532,0.874-1.534,0.859,0.058,1.876c0.197,0.127,0.507,0.36,0.485,0.504c-0.267,1.85,1.223,1.729,2.286,2.119
	c0.354,0.129,0.824,0.339,0.944,0.632c0.377,0.927,1.111,0.968,1.91,0.989c1.068,0.031,2.089,0.235,3.143,0.509
	c1.756,0.456,3.474-0.228,5.107-0.92c0.348-0.149,0.813-0.324,0.621-0.97c-0.161-0.549,0.261-0.488,0.622-0.39
	c0.404,0.111,0.724-0.108,1.091-0.229c1.239-0.403,2.119-1.692,3.678-1.19C28.188,16.928,26.889,17.67,26.005,17.488z"/>
</svg>
