<?xml version="1.0" encoding="iso-8859-1"?>
<!-- Generator: Adobe Illustrator 16.0.0, SVG Export Plug-In . SVG Version: 6.00 Build 0)  -->
<!DOCTYPE svg PUBLIC "-//W3C//DTD SVG 1.1//EN" "http://www.w3.org/Graphics/SVG/1.1/DTD/svg11.dtd">
<svg version="1.1" id="Layer_1" xmlns="http://www.w3.org/2000/svg" xmlns:xlink="http://www.w3.org/1999/xlink" x="0px" y="0px"
	 width="32px" height="32px" viewBox="0 0 32 32" style="enable-background:new 0 0 32 32;" xml:space="preserve">
<path style="fill-rule:evenodd;clip-rule:evenodd;fill:#121111;" d="M8.462,19.901c2.786,0.13,3.036,2.708,4.639,3.932
	c1.417,1.084,2.384,2.364,4.587,2.628c2.627,0.313,3.553-1.027,4.766-2.579c0.386-0.495,0.262-0.935-0.029-1.329
	c-0.438-0.592-0.739-1.106-0.186-1.827c0.236-0.308,0.061-0.804-0.22-1.091c-0.764-0.773-0.493-1.508-0.171-2.399
	c0.374-1.021,0.226-2.492-0.67-2.834c-2.117-0.809-1.907-2.954-2.983-4.313c-0.31-0.394-0.524-0.965-0.546-1.465
	c-0.107-2.448-0.093-2.406-2.161-3.055c-0.932-0.294-1.437-0.034-1.493,0.884c-0.099,1.597-0.699,2.973-1.489,4.343
	c-0.954,1.647-0.992,3.77-2.628,5.092c-0.212,0.17,0.005,0.532,0.07,0.82C10.228,17.908,9.939,18.937,8.462,19.901z"/>
</svg>
