<?xml version="1.0" encoding="iso-8859-1"?>
<!-- Generator: Adobe Illustrator 16.0.0, SVG Export Plug-In . SVG Version: 6.00 Build 0)  -->
<!DOCTYPE svg PUBLIC "-//W3C//DTD SVG 1.1//EN" "http://www.w3.org/Graphics/SVG/1.1/DTD/svg11.dtd">
<svg version="1.1" id="Layer_1" xmlns="http://www.w3.org/2000/svg" xmlns:xlink="http://www.w3.org/1999/xlink" x="0px" y="0px"
	 width="32px" height="32px" viewBox="0 0 32 32" style="enable-background:new 0 0 32 32;" xml:space="preserve">
<path style="fill-rule:evenodd;clip-rule:evenodd;fill:#121111;" d="M25.266,14.914c0.825,0.219,1.191-0.51,1.82-0.646
	c0.375-0.078,0.771-0.146,0.788-0.698c0.014-0.485-0.257-0.759-0.627-0.896c-1.736-0.635-3.129-1.922-5.028-2.338
	c-1.247-0.273-2.379-1.111-3.416-2.11c-1.336-1.29-2.356-3.231-4.644-3.255c-0.33-0.005-0.677-0.245-0.933,0.108
	c-0.29,0.398,0.009,0.737,0.181,1.082c0.291,0.582,0.9,1.089,0.422,1.925c-0.562-0.25-0.926-1.183-1.713-0.68
	c-0.863,0.553-1.854,1.073-2.129,2.143c-0.262,1.021-0.208,2.125-1.732,2.159c-0.395,0.009-0.446,0.622-0.374,1.009
	c0.176,0.945,0.044,1.981,0.751,2.788c0.456,0.521,0.349,1.007-0.193,1.355c-1.189,0.764-0.424,1.761,0.144,1.936
	c1.308,0.405,2.046,1.508,3.186,2.099c1.385,0.718,2.601,1.835,3.353,3.219c0.538,0.992,1.248,1.527,2.261,1.96
	c0.21-1.028,0.515-2.172,0.064-2.82c-0.918-1.315-0.131-2.143,0.508-2.956c1.029-1.313,1.838-2.828,3.154-3.969
	c0.565,0.704-0.149,1.793,0.804,2.035c1.065,0.271,2.035-0.308,2.878-0.874c0.688-0.462,0.464-1.199,0.125-1.843
	C24.7,15.233,24.658,14.753,25.266,14.914z"/>
</svg>
