<?xml version="1.0" encoding="iso-8859-1"?>
<!-- Generator: Adobe Illustrator 16.0.0, SVG Export Plug-In . SVG Version: 6.00 Build 0)  -->
<!DOCTYPE svg PUBLIC "-//W3C//DTD SVG 1.1//EN" "http://www.w3.org/Graphics/SVG/1.1/DTD/svg11.dtd">
<svg version="1.1" id="Layer_1" xmlns="http://www.w3.org/2000/svg" xmlns:xlink="http://www.w3.org/1999/xlink" x="0px" y="0px"
	 width="32px" height="32px" viewBox="0 0 32 32" style="enable-background:new 0 0 32 32;" xml:space="preserve">
<path style="fill-rule:evenodd;clip-rule:evenodd;fill:#121111;" d="M11.916,15.292c0.255,0.395,0.458,0.882,0.382,1.396
	c-0.327,2.197,0.72,4.221,0.8,6.365c0.047,1.32,0.792,2.277,1.598,3.216c0.398,0.463,0.748,0.804,1.25,0.085
	c0.385-0.546,0.69-0.351,0.942,0.184c0.601,1.281,1.789,0.832,2.689,0.69c0.896-0.143,1.346-0.873,1.316-1.957
	c-0.086-3.042-0.012-6.088-0.043-9.134c-0.01-0.742,0.089-1.255,0.98-1.232c0.652,0.016,0.799-0.382,0.79-0.964
	c-0.026-1.375,0.028-2.751-0.024-4.124c-0.026-0.725,0.305-0.861,0.912-1.172c1.521-0.777,3.219,0.312,4.665-0.634
	c0.293-0.191,0.953-0.028,0.882-0.526c-0.085-0.583-0.702-0.394-1.105-0.349c-2.22,0.248-4.394,0.728-6.68,0.479
	c-1.139-0.125-2.252-0.436-3.374-0.481c-2.885-0.117-5.796,0.176-8.602-0.839C8.767,6.145,8.428,6.54,8.138,6.814
	C7.595,7.328,8.102,7.881,8.363,8.232C9.965,10.38,10.472,13.069,11.916,15.292z"/>
</svg>
