<?xml version="1.0" encoding="iso-8859-1"?>
<!-- Generator: Adobe Illustrator 16.0.0, SVG Export Plug-In . SVG Version: 6.00 Build 0)  -->
<!DOCTYPE svg PUBLIC "-//W3C//DTD SVG 1.1//EN" "http://www.w3.org/Graphics/SVG/1.1/DTD/svg11.dtd">
<svg version="1.1" id="Layer_1" xmlns="http://www.w3.org/2000/svg" xmlns:xlink="http://www.w3.org/1999/xlink" x="0px" y="0px"
	 width="32px" height="32px" viewBox="0 0 32 32" style="enable-background:new 0 0 32 32;" xml:space="preserve">
<path style="fill-rule:evenodd;clip-rule:evenodd;fill:#121111;" d="M26.853,4.282c-0.361-0.23-0.902-0.194-1.263,0.077
	c-1.305,0.976-2.946,0.917-4.377,1.494c-0.442,0.178-0.881,0.156-1.232-0.192c-0.757-0.752-1.263-0.433-1.743,0.331
	c-0.676,1.076-1.343,2.15-2.444,2.893c-0.663,0.446-1.2,1.123-1.969,0.163c-0.316-0.394-0.679-0.097-0.855,0.168
	c-0.476,0.718-1.028,1.093-1.942,0.9c-0.615-0.13-0.852,0.245-0.839,0.872c0.038,1.766-0.928,2.727-2.629,3.06
	c-0.608,0.12-0.945-0.894-1.515-0.187c0,0.295,0,0.59,0,0.886c1.753,0.708,3.156,2.035,4.174,3.444
	c1.302,1.799,3.195,2.896,4.527,4.592c0.101,0.128,0.355,0.258,0.489,0.217c1.847-0.535,3.464,1.129,5.393,0.463
	c0.995-0.34,1.617,1.084,2.653,1.247c0.585,0.094,1.104,0.023,1.488-0.398c0.488-0.536-0.211-0.724-0.401-1.055
	c-0.226-0.392-0.426-0.792-0.364-1.249c0.142-1.045,1.462-1.957,0.348-3.151c-0.027-0.028,0.05-0.18,0.104-0.257
	c1.137-1.599,1.187-3.425,1.026-5.267c-0.091-1.043-0.051-2.057,0.29-3.043c0.548-1.589,1.844-3.041,0.86-4.9
	c-0.016-0.028,0.038-0.089,0.045-0.137C26.73,4.921,27.402,4.631,26.853,4.282z"/>
</svg>
