<?xml version="1.0" encoding="iso-8859-1"?>
<!-- Generator: Adobe Illustrator 16.0.0, SVG Export Plug-In . SVG Version: 6.00 Build 0)  -->
<!DOCTYPE svg PUBLIC "-//W3C//DTD SVG 1.1//EN" "http://www.w3.org/Graphics/SVG/1.1/DTD/svg11.dtd">
<svg version="1.1" id="Layer_1" xmlns="http://www.w3.org/2000/svg" xmlns:xlink="http://www.w3.org/1999/xlink" x="0px" y="0px"
	 width="32px" height="32px" viewBox="0 0 32 32" style="enable-background:new 0 0 32 32;" xml:space="preserve">
<path style="fill-rule:evenodd;clip-rule:evenodd;fill:#121111;" d="M10.021,24.52c0.971,0.639,2.223,0.539,2.791-0.521
	c0.877-1.635,2.287-1.93,3.727-0.748c0.198,0.165,0.384,0.359,0.616,0.245c0.81-0.394,1.504,0.208,2.205,0.218
	c1.802,0.026,3.555-0.896,5.416-0.403c1.126-2.075,2.947-3.856,3.464-6.146c0.581-2.587,0.478-5.311-0.801-7.941
	c-0.223-0.11-0.55,0.632-1.014,0.184c-1.587-1.532-3.038-0.818-4.587,0.175c-2.311,1.48-4.42,3.374-6.833,4.527
	c-1.731,0.827-2.229,1.593-2.02,3.239c0.023,0.192,0.015,0.396-0.021,0.587c-0.218,1.277-0.563,2.355-2.244,2.301
	c-0.847-0.028-1.706,0.262-2.554,0.45c-1.134,0.251-0.841,0.758-0.476,1.297C8.338,22.935,9,23.848,10.021,24.52z"/>
</svg>
