<?xml version="1.0" encoding="iso-8859-1"?>
<!-- Generator: Adobe Illustrator 16.0.0, SVG Export Plug-In . SVG Version: 6.00 Build 0)  -->
<!DOCTYPE svg PUBLIC "-//W3C//DTD SVG 1.1//EN" "http://www.w3.org/Graphics/SVG/1.1/DTD/svg11.dtd">
<svg version="1.1" id="Layer_1" xmlns="http://www.w3.org/2000/svg" xmlns:xlink="http://www.w3.org/1999/xlink" x="0px" y="0px"
	 width="32px" height="32px" viewBox="0 0 32 32" style="enable-background:new 0 0 32 32;" xml:space="preserve">
<path style="fill-rule:evenodd;clip-rule:evenodd;fill:#121111;" d="M23.962,5.932c0.234,0.533,0.27,1.305-0.281,1.372
	c-1.97,0.232-2.224,2.015-3.096,3.206c-0.387,0.531-0.691,1.3,0.148,1.871c0.433,0.295,0.42,0.79,0.26,1.195
	c-0.235,0.599-0.651,0.342-1.081,0.152c-0.377-0.169-0.507,0.123-0.507,0.466c-0.596,0.891-1.032,2.006-2.705,1.647
	c0.445,0.563,0.755,0.956,1.065,1.348c-0.177,0.821-1.019,1.157-1.295,1.815c1.74,0.775,1.993-0.226,1.858-1.667
	c-0.005-0.043,0.031-0.091,0.046-0.137c0.689-0.662,1.378-1.322,2.068-1.986c1.027-0.06,1.719-0.889,2.651-1.182
	c0.125-0.038,0.27-0.318,0.248-0.464c-0.243-1.635,1.047-2.884,1.087-4.453c0.042-1.527,0.526-3.083-0.343-4.526
	C23.315,4.972,23.75,5.459,23.962,5.932z"/>
<path style="fill-rule:evenodd;clip-rule:evenodd;fill:#121111;" d="M14.418,21.84c1.069-0.709,1.069-0.709,1.107-2.416
	C14.315,21.215,14.315,21.215,14.418,21.84z"/>
</svg>
