<?xml version="1.0" encoding="iso-8859-1"?>
<!-- Generator: Adobe Illustrator 16.0.0, SVG Export Plug-In . SVG Version: 6.00 Build 0)  -->
<!DOCTYPE svg PUBLIC "-//W3C//DTD SVG 1.1//EN" "http://www.w3.org/Graphics/SVG/1.1/DTD/svg11.dtd">
<svg version="1.1" id="Layer_1" xmlns="http://www.w3.org/2000/svg" xmlns:xlink="http://www.w3.org/1999/xlink" x="0px" y="0px"
	 width="32px" height="32px" viewBox="0 0 32 32" style="enable-background:new 0 0 32 32;" xml:space="preserve">
<path style="fill-rule:evenodd;clip-rule:evenodd;fill:#121111;" d="M19.465,20.194c-1.65-0.984-2.923-2.411-4.271-3.747
	c-0.348-0.347-0.746-0.816,0.216-0.941c0.959-0.125,0.533-0.884,0.195-0.928c-2.001-0.255-2.621-2.337-4.219-3.046
	C9.76,10.811,8.07,10.22,6.181,9.479c0,2.551-0.015,4.886,0.005,7.22c0.017,2.236,0.033,2.22,2.153,2.386
	c0.608,0.047,1.137-0.142,1.346-0.64c0.778-1.83,2.834-2.298,3.81-0.591c1.313,2.304,3.538,2.501,5.625,3.151
	c0.235,0.072,0.617,0.137,0.709-0.28C19.888,20.444,19.703,20.336,19.465,20.194z"/>
<path style="fill-rule:evenodd;clip-rule:evenodd;fill:#121111;" d="M26.959,14.778c-0.464-0.347-0.714-0.941-1.398-1.175
	c-0.372,0.946,0.507,1.266,0.729,1.866c0.108,0.293,0.521,0.336,0.771,0.151C27.456,15.333,27.251,14.999,26.959,14.778z"/>
<path style="fill-rule:evenodd;clip-rule:evenodd;fill:#121111;" d="M22.534,11.257c-0.086-0.071-0.208-0.229-0.252-0.208
	c-0.262,0.114-0.058,0.254,0.01,0.384c0.112,0.237,0.409,0.505-0.105,0.642c-0.49-0.116-1.02-0.662-1.211,0.45
	c-0.084,0.49-0.754,1.36-1.484,1.067c-1.088-0.436-1.914,0.448-2.909,0.137c1.728,2.049,4.594,1.059,5.624-0.98
	c0.307-0.313,0.998,0.293,1.118-0.464C23.421,11.67,22.919,11.507,22.534,11.257z"/>
<path style="fill-rule:evenodd;clip-rule:evenodd;fill:#121111;" d="M21.9,10.882c0.252-0.367-0.216-0.47-0.53-0.525
	c-0.125-0.227-0.363-0.425-0.543-0.233c-0.273,0.294,0.175,0.308,0.285,0.459C21.37,10.733,21.685,11.199,21.9,10.882z"/>
</svg>
