<?xml version="1.0" encoding="iso-8859-1"?>
<!-- Generator: Adobe Illustrator 16.0.0, SVG Export Plug-In . SVG Version: 6.00 Build 0)  -->
<!DOCTYPE svg PUBLIC "-//W3C//DTD SVG 1.1//EN" "http://www.w3.org/Graphics/SVG/1.1/DTD/svg11.dtd">
<svg version="1.1" id="Layer_1" xmlns="http://www.w3.org/2000/svg" xmlns:xlink="http://www.w3.org/1999/xlink" x="0px" y="0px"
	 width="32px" height="32px" viewBox="0 0 32 32" style="enable-background:new 0 0 32 32;" xml:space="preserve">
<path style="fill-rule:evenodd;clip-rule:evenodd;fill:#121111;" d="M24.385,16.159c-0.796,0.211-1.052,0.05-1.151-0.711
	c-0.069-0.528-0.258-1.04-0.38-1.563c-0.542-2.343-0.623-2.366-3.099-2.157c-0.766,0.067-1.631,0.005-2.268-0.435
	c-0.577-0.401,0.008-1.073,0.004-1.626c-0.012-1.448-0.278-2.916-1.055-4.025c-1.182-1.69-6.881-1.94-8.536-0.599
	C7.863,5.075,7.836,5.118,7.805,5.156c-1.491,1.84-1.307,4.242-2.102,6.321c-0.367,0.958,0.92,0.953,1.188,1.644
	c0.744,1.914,2.479,2.767,4.24,3.319c2.207,0.69,3.922,2.352,6.182,2.898c0.341,0.081,1.036,0.579,0.469,1.095
	c-1.142,1.036-1.13,2.659-2.085,3.76c-0.457,0.525-0.25,0.667,0.326,0.848c0.674,0.209,1.473-0.235,2.043,0.413
	c1.574,0,3.148,0,4.722,0c0.14-0.726,0.603-1.188,1.238-1.504c0.773-0.382,1.145-1.042,1.293-1.851
	c0.265-1.444,0.546-2.886,0.771-4.334C26.345,16.126,25.978,15.738,24.385,16.159z"/>
</svg>
