<?xml version="1.0" encoding="iso-8859-1"?>
<!-- Generator: Adobe Illustrator 16.0.0, SVG Export Plug-In . SVG Version: 6.00 Build 0)  -->
<!DOCTYPE svg PUBLIC "-//W3C//DTD SVG 1.1//EN" "http://www.w3.org/Graphics/SVG/1.1/DTD/svg11.dtd">
<svg version="1.1" id="Layer_1" xmlns="http://www.w3.org/2000/svg" xmlns:xlink="http://www.w3.org/1999/xlink" x="0px" y="0px"
	 width="32px" height="32px" viewBox="0 0 32 32" style="enable-background:new 0 0 32 32;" xml:space="preserve">
<path style="fill-rule:evenodd;clip-rule:evenodd;fill:#121111;" d="M8.963,18.397c-0.065,0.05-0.127,0.104-0.192,0.153
	c0.12,0.01,0.24,0.021,0.36,0.03c1.021,0.445,2.366,0.255,2.938,1.594c0.113,0.264,0.497,0.893,0.872,0.502
	c0.855-0.896,1.28-0.167,2.011,0.18c0.952,0.454,1.954,0.709,2.528,1.698c0.099,0.168,0.339,0.305,0.495,0.129
	c0.593-0.67,0.889-0.132,1.205,0.277c0.243,0.313,0.438,0.318,0.854,0.213c1.396-0.363,2.817-1.012,4.215,0.169
	c0.329,0.278,0.937,0.557,1.573,0.247c-0.526-0.913-0.326-1.703,0.523-2.263c1.823-1.194,2.765-2.567,1.134-4.6
	c-0.413-0.514,0.504-1.237-0.12-1.626c-1.064-0.663-0.531-0.961,0.171-1.331c0.208-0.11,0.446-0.26,0.55-0.453
	c0.357-0.681-1.23-4.481-1.953-4.742c-0.132-0.045-0.281-0.107-0.411-0.088c-2.581,0.355-5.17-0.493-7.753,0.045
	c-0.458,0.097-1.182-0.127-1.088-0.448c0.324-1.107-0.499-0.813-0.939-0.865c-0.84-0.096-1.664,0.099-2.423,0.466
	c-1.662,0.805-3.317,1.641-5.161,1.929c-0.834,0.13-0.752,0.877-0.714,1.225c0.08,0.69,0.354,1.31-0.288,1.884
	c-0.165,0.15,0.048,0.341,0.166,0.489C8.729,14.736,8.521,16.658,8.963,18.397z"/>
</svg>
