<?xml version="1.0" encoding="iso-8859-1"?>
<!-- Generator: Adobe Illustrator 16.0.0, SVG Export Plug-In . SVG Version: 6.00 Build 0)  -->
<!DOCTYPE svg PUBLIC "-//W3C//DTD SVG 1.1//EN" "http://www.w3.org/Graphics/SVG/1.1/DTD/svg11.dtd">
<svg version="1.1" id="Layer_1" xmlns="http://www.w3.org/2000/svg" xmlns:xlink="http://www.w3.org/1999/xlink" x="0px" y="0px"
	 width="32px" height="32px" viewBox="0 0 32 32" style="enable-background:new 0 0 32 32;" xml:space="preserve">
<path style="fill-rule:evenodd;clip-rule:evenodd;fill:#121111;" d="M18,11.611c1.163,0.707,1.405-0.097,2.163-0.829
	c0.914-0.885,1.134-1.682,1.115-2.741c-0.008-0.449-0.163-0.898-0.23-1.238c-1.23-0.003-1.49,1.587-2.625,1.536
	c-0.933-0.043-1.146,0.435-1.38,1.122c-1.032,3.021-1.78,6.16-3.634,8.843c-0.159,0.231-0.168,0.45-0.081,0.69
	c1.033,2.867,2.068,5.732,3.102,8.598c0.125,0.015,0.25,0.032,0.375,0.046c0.506-3.594,1.877-6.977,2.455-10.686
	c-1.051,0.226-2.083,1.15-2.629,0.461c-0.511-0.646,0.535-1.275,1.159-1.736c0.046-0.034,0.024-0.159,0.033-0.24
	c-1.165-0.601-1.371-2.822-0.336-3.629C17.628,11.696,17.902,11.551,18,11.611z"/>
</svg>
