<?xml version="1.0" encoding="iso-8859-1"?>
<!-- Generator: Adobe Illustrator 16.0.0, SVG Export Plug-In . SVG Version: 6.00 Build 0)  -->
<!DOCTYPE svg PUBLIC "-//W3C//DTD SVG 1.1//EN" "http://www.w3.org/Graphics/SVG/1.1/DTD/svg11.dtd">
<svg version="1.1" id="Layer_1" xmlns="http://www.w3.org/2000/svg" xmlns:xlink="http://www.w3.org/1999/xlink" x="0px" y="0px"
	 width="32px" height="32px" viewBox="0 0 32 32" style="enable-background:new 0 0 32 32;" xml:space="preserve">
<path style="fill-rule:evenodd;clip-rule:evenodd;fill:#121111;" d="M21.297,9.269c-0.845-0.737-1.775-1.394-2.375-2.386
	c-0.333-0.549-0.813-0.441-1.283-0.187c-1.997,1.09-3.35,2.652-3.649,4.991c-0.126,0.979-0.287,2.039-0.949,2.738
	c-1.491,1.57-1.151,3.249-0.678,5.046c0.447,1.696,0.906,3.4,0.67,5.204c-0.238,1.824,1.013,3.142,3.525,3.145
	c0.967-0.094,2.969-0.25,3.769-1.412c1.946-2.829,3.798-5.924,1.81-9.637c-0.672-1.256-0.679-2.589-0.014-3.946
	C22.783,11.483,22.439,10.268,21.297,9.269z"/>
</svg>
