<?xml version="1.0" encoding="iso-8859-1"?>
<!-- Generator: Adobe Illustrator 16.0.0, SVG Export Plug-In . SVG Version: 6.00 Build 0)  -->
<!DOCTYPE svg PUBLIC "-//W3C//DTD SVG 1.1//EN" "http://www.w3.org/Graphics/SVG/1.1/DTD/svg11.dtd">
<svg version="1.1" id="Layer_1" xmlns="http://www.w3.org/2000/svg" xmlns:xlink="http://www.w3.org/1999/xlink" x="0px" y="0px"
	 width="32px" height="32px" viewBox="0 0 32 32" style="enable-background:new 0 0 32 32;" xml:space="preserve">
<path style="fill-rule:evenodd;clip-rule:evenodd;fill:#121111;" d="M8.957,14.437c-0.688-0.355-1.172-0.118-0.879,0.807
	c0.072,0.224,0.123,0.483,0.084,0.706c-0.266,1.533,0.795,3.255,2.302,3.699c0.434-1.812,2.216-2.524,4.035-1.693
	c1.662,0.756,3.468,0.444,5.175,0.324c1.132-0.08,1.652,0,1.711,1.227c1.287-0.68,1.271-0.677,0.972-2.122
	c-0.064-0.322,0.231-0.559,0.513-0.642c1.123-0.339,1.892-0.12,1.782,1.511c0.891-1.734,2.38-2.246,3.904-2.71
	c0.115-0.033,0.262-0.158,0.287-0.267c0.078-0.346-0.238-0.343-0.442-0.446c-1.787-0.918-3.903-0.423-5.69-1.333
	c0.002,0.007,0.01,0.017,0.007,0.023c-0.014,0.039-0.045,0.089-0.078,0.099c-1.808,0.44-3.25-0.331-4.61-1.386
	c-0.374-0.29-0.741-0.59-1.141-0.84c-0.216-0.135-0.523-0.097-0.648,0.137c-0.158,0.293,0.145,0.398,0.339,0.53
	c0.185,0.125,0.49,0.076,0.566,0.43c-1.849,0.704-3.703,1.412-5.557,2.119c0.105-1.019,0.804-1.559,2.108-2.054
	c-2.404,0.265-2.784,0.634-2.522,2.034C10.433,14.636,9.719,14.833,8.957,14.437z"/>
<path style="fill-rule:evenodd;clip-rule:evenodd;fill:#121111;" d="M22.687,13.487c0.007,0.005,0.017,0.005,0.023,0.01
	c-0.005-0.021-0.012-0.046-0.021-0.067C22.688,13.449,22.679,13.482,22.687,13.487z"/>
</svg>
