<?xml version="1.0" encoding="iso-8859-1"?>
<!-- Generator: Adobe Illustrator 16.0.0, SVG Export Plug-In . SVG Version: 6.00 Build 0)  -->
<!DOCTYPE svg PUBLIC "-//W3C//DTD SVG 1.1//EN" "http://www.w3.org/Graphics/SVG/1.1/DTD/svg11.dtd">
<svg version="1.1" id="Layer_1" xmlns="http://www.w3.org/2000/svg" xmlns:xlink="http://www.w3.org/1999/xlink" x="0px" y="0px"
	 width="32px" height="32px" viewBox="0 0 32 32" style="enable-background:new 0 0 32 32;" xml:space="preserve">
<path style="fill-rule:evenodd;clip-rule:evenodd;fill:#121111;" d="M9.443,11.102c0.541,0.148,1.125,0.386,1.468,0.914
	c0.619,0.957,1.59,1.336,2.627,1.341c1.762,0.012,3.39,0.288,4.988,1.129c1.084,0.571,1.5,1.328,1.164,2.337
	c-0.24,0.716,0.082,1.124,0.313,2.054c0.269-0.803,0.472-1.139,1.109-1.109c0.565,0.024,1.177-0.419,1.137-1.079
	c-0.035-0.591-0.364-1.134-1.182-0.812c-0.075,0.031-0.262-0.216-0.394-0.339c-1.08-1.006-2.264-1.854-2.887-3.336
	c-0.37-0.879-1.007-1.734-1.554-2.57c-1.054-1.608-2.756-2.299-4.119-3.435c-1.69-1.41-4.122-1.095-5.288,0.355
	C6.409,7.07,6.201,7.825,6.533,8.176C7.474,9.165,7.905,10.672,9.443,11.102z"/>
<path style="fill-rule:evenodd;clip-rule:evenodd;fill:#121111;" d="M27.364,21.134c-0.049-0.3-0.179-0.601-0.364-0.882
	c-0.555-0.844-1.613-1.516-2.541-1.496c-0.717,0.048-1.285,0.214-1.744,0.713c-0.153,0.168-0.293,0.373-0.424,0.62
	c-0.537,1.028-0.482,2.059-0.659,3.098c-0.202,1.183,0.459,1.889,1.18,2.631c0.709,0.732,1.309,0.323,1.965-0.05
	c0.247-0.143,0.559-0.174,0.842-0.245c1.554-0.404,2.173-1.326,1.96-2.945C27.517,22.095,27.442,21.614,27.364,21.134z"/>
</svg>
