<?xml version="1.0" encoding="iso-8859-1"?>
<!-- Generator: Adobe Illustrator 16.0.0, SVG Export Plug-In . SVG Version: 6.00 Build 0)  -->
<!DOCTYPE svg PUBLIC "-//W3C//DTD SVG 1.1//EN" "http://www.w3.org/Graphics/SVG/1.1/DTD/svg11.dtd">
<svg version="1.1" id="Layer_1" xmlns="http://www.w3.org/2000/svg" xmlns:xlink="http://www.w3.org/1999/xlink" x="0px" y="0px"
	 width="32px" height="32px" viewBox="0 0 32 32" style="enable-background:new 0 0 32 32;" xml:space="preserve">
<path style="fill-rule:evenodd;clip-rule:evenodd;fill:#121111;" d="M7.287,14.954c-0.05,0.564,0.212,1.323,1.175,0.818
	c0.209-0.109,0.546-0.154,0.874,0.191c-0.629,0.222-0.773,1.358-1.789,0.647c-0.221-0.156-0.732,0.074-0.519,0.387
	c0.37,0.546,0.449,1.488,1.15,1.588c1.15,0.165,1.204,0.978,1.393,1.774c0.322,1.341,1.461,1.989,2.824,1.601
	c-0.083,0.721-0.616,0.55-1.082,0.57c-0.668,0.028-1.412-0.168-1.982,0.59c1.221,0.448,2.453,0.7,3.498,1.396
	c2.126,0.845,4.419,1.356,6.177,2.953c0.605,0.55,0.857,0.138,1.086-0.295c0.836-1.568,2.19-2.597,3.569-3.631
	c0.813-0.611,1.72-1.268,2.051-2.24c0.346-1.017,0.403-1.976,1.701-2.454c0.641-0.237,1.057-1.6,0.581-2.19
	c-0.593-0.734-0.968,0.337-1.394,0.708c-0.324,0.284-0.725,0.463-1.054,0.156c-0.347-0.323,0.063-0.674,0.15-1.015
	c0.156-0.596,1.086-0.761,0.849-1.572c-0.415-1.418-1.65-2.592-1.275-4.253c0.019-0.091-0.169-0.226-0.255-0.343
	c-0.668-0.908-1.259-1.887-2.027-2.699c-0.641-0.676-0.946-1.896-2.088-1.873c-1.659,0.034-3.393-0.423-4.954,0.608
	c-0.456,0.303-0.978,0.25-1.54,0.023c-0.66-0.267-1.602-0.201-1.883,0.4c-0.869,1.858-1.955,3.49-3.521,4.839
	c-0.44,0.377-0.646,0.951-1.386,0.789c-0.32-0.07-0.938,0.194-0.627,0.419C7.94,13.542,7.36,14.203,7.287,14.954z"/>
</svg>
