<?xml version="1.0" encoding="iso-8859-1"?>
<!-- Generator: Adobe Illustrator 16.0.0, SVG Export Plug-In . SVG Version: 6.00 Build 0)  -->
<!DOCTYPE svg PUBLIC "-//W3C//DTD SVG 1.1//EN" "http://www.w3.org/Graphics/SVG/1.1/DTD/svg11.dtd">
<svg version="1.1" id="Layer_1" xmlns="http://www.w3.org/2000/svg" xmlns:xlink="http://www.w3.org/1999/xlink" x="0px" y="0px"
	 width="32px" height="32px" viewBox="0 0 32 32" style="enable-background:new 0 0 32 32;" xml:space="preserve">
<path style="fill-rule:evenodd;clip-rule:evenodd;fill:#121111;" d="M20.63,12.782c-1.326,0.273-2.779,0.429-4.035,0.422
	c-0.994-0.002-2.092-0.771-3.476-0.787c-1.443-0.015-2.406,0.36-3.318,1.2c-0.827,0.759-1.663,1.409-2.828,1.194
	c-1.07-0.2-1.349,0.521-1.693,1.236c-0.432,0.9,0.286,1.484,0.773,1.859c1.924,1.472,4.557,1.44,6.601,0.105
	c0.189-0.125,0.471-0.197,0.693-0.171c1.137,0.145,2.141-0.711,3.345-0.37c0.403,0.115,1.164-0.216,1.438-0.586
	c1.239-1.669,3.283-1.093,4.256-0.605c1.799,0.903,2.416,0.111,3.226-1.022c0.255-0.355,0.457-0.745,0.735-1.205
	c-0.642-0.474-1.4-0.311-1.979-0.745C23.235,12.457,21.991,12.502,20.63,12.782z"/>
</svg>
