<?xml version="1.0" encoding="iso-8859-1"?>
<!-- Generator: Adobe Illustrator 16.0.0, SVG Export Plug-In . SVG Version: 6.00 Build 0)  -->
<!DOCTYPE svg PUBLIC "-//W3C//DTD SVG 1.1//EN" "http://www.w3.org/Graphics/SVG/1.1/DTD/svg11.dtd">
<svg version="1.1" id="Layer_1" xmlns="http://www.w3.org/2000/svg" xmlns:xlink="http://www.w3.org/1999/xlink" x="0px" y="0px"
	 width="32px" height="32px" viewBox="0 0 32 32" style="enable-background:new 0 0 32 32;" xml:space="preserve">
<path style="fill-rule:evenodd;clip-rule:evenodd;fill:#121111;" d="M9.43,18.386c1.404,0.953,2.338,2.336,3.211,3.674
	c0.812,1.247,1.718,1.717,3.037,1.399c0.91-0.219,1.542-0.086,2.133,0.668c0.362,0.462,0.919,0.772,1.389,1.149
	c0.524-1.28,1.449-0.19,2.164-0.36c1.299-0.31,2.69-0.185,3.714-1.439c0.703-0.86,1.761-1.581,2.851-0.211
	c0.535-1.66-1.245-1.799-1.613-2.849c-0.501-1.431-1.472-2.502-2.865-3.153c-0.569-0.267-0.619-0.609-0.088-0.931
	c1.626-0.986,1.844-1.941,0.593-3.385c-0.666-0.769-0.916-1.576-0.857-2.556c0.018-0.302,0.228-0.971-0.463-0.744
	c-0.498,0.161-1.639,0.178-1.371,0.721c0.721,1.458-0.561,1.876-1.051,2.697c-0.501,0.84-1.2,0.839-2.032,0.472
	c-1.344-0.592-2.823,0.65-4.178-0.246c-0.049-0.032-0.295,0.218-0.439,0.347c-1.066,0.945-2.186,0.9-2.961-0.208
	c-0.623-0.89-1.486-0.818-1.999-0.226c-0.717,0.829-1.132,1.921-1.657,2.911c-0.091,0.174-0.042,0.495,0.152,0.486
	C8.401,16.546,8.628,17.842,9.43,18.386z"/>
</svg>
