<?xml version="1.0" encoding="iso-8859-1"?>
<!-- Generator: Adobe Illustrator 16.0.0, SVG Export Plug-In . SVG Version: 6.00 Build 0)  -->
<!DOCTYPE svg PUBLIC "-//W3C//DTD SVG 1.1//EN" "http://www.w3.org/Graphics/SVG/1.1/DTD/svg11.dtd">
<svg version="1.1" id="Layer_1" xmlns="http://www.w3.org/2000/svg" xmlns:xlink="http://www.w3.org/1999/xlink" x="0px" y="0px"
	 width="32px" height="32px" viewBox="0 0 32 32" style="enable-background:new 0 0 32 32;" xml:space="preserve">
<path style="fill-rule:evenodd;clip-rule:evenodd;fill:#121111;" d="M26.81,15.904c0.043-0.248,0.376-0.597-0.026-0.752
	c-0.321-0.123-0.812-0.365-1.054,0.08c-0.497,0.913-0.926,0.278-1.185-0.088c-0.375-0.533,0.075-1.39,0.39-1.337
	c1.567,0.271,0.839-0.886,0.96-1.434c0.156-0.707-0.352-1.296-0.549-1.943c-0.455-1.489-2.072-2.169-3.52-1.505
	c-1.812,0.83-2.914,2.435-4.074,3.909c-0.453,0.576-0.969,0.896-1.402,0.677c-1.418-0.714-2.469-0.646-3.14,0.939
	c-0.017,0.041-0.075,0.062-0.108,0.099c-0.412,0.438-0.935,0.567-1.476,0.382c-0.593-0.204-0.062-0.668-0.146-1.01
	c-0.153-0.625-0.317-1.224-1.167-1.726c0,1.499-0.027,2.809,0.008,4.117c0.029,1.071-0.598,1.404-1.508,1.533
	c-0.995,0.142-1.676-0.267-2.09-1.166c-0.863,0.834-0.829,0.819-0.488,1.651c0.517,1.265,0.99,2.542,1.764,3.686
	c0.151,0.224,0.281,0.74,0.189,0.809c-0.97,0.714-0.153,1.32,0.054,1.973c0.308,0.968,1.701,1.55,2.676,1.319
	c1.196-0.281,2.315-0.851,3.631-0.747c3.21,0.255,5.813-0.922,8.054-3.296c1.133-1.202,1.666-2.816,2.893-3.835
	C26.302,17.567,26.648,16.831,26.81,15.904z"/>
</svg>
