<?xml version="1.0" encoding="iso-8859-1"?>
<!-- Generator: Adobe Illustrator 16.0.0, SVG Export Plug-In . SVG Version: 6.00 Build 0)  -->
<!DOCTYPE svg PUBLIC "-//W3C//DTD SVG 1.1//EN" "http://www.w3.org/Graphics/SVG/1.1/DTD/svg11.dtd">
<svg version="1.1" id="Layer_1" xmlns="http://www.w3.org/2000/svg" xmlns:xlink="http://www.w3.org/1999/xlink" x="0px" y="0px"
	 width="32px" height="32px" viewBox="0 0 32 32" style="enable-background:new 0 0 32 32;" xml:space="preserve">
<path style="fill-rule:evenodd;clip-rule:evenodd;fill:#121111;" d="M12.977,5.895c-0.002-0.011-0.009-0.016-0.012-0.022
	c-0.23-0.723-0.976-1.011-1.386-1.608c-0.316-0.462-1.085-0.108-1.647-0.051c-0.168,0.017-0.36,0.199-0.284,0.43
	c0.179,0.545,0.703,0.716,1.145,0.747c0.11,0.01,0.215,0.029,0.321,0.058C11.739,5.605,12.297,6.031,12.977,5.895L12.977,5.895
	L12.977,5.895z"/>
<path style="fill-rule:evenodd;clip-rule:evenodd;fill:#121111;" d="M13.012,5.921c0.005-0.012,0.009-0.024,0.015-0.032h-0.001
	l0.001-0.002c-0.017,0.006-0.033,0.002-0.049,0.008h0c0.001,0.005,0.005,0.01,0.007,0.015C12.994,5.911,13.002,5.918,13.012,5.921
	L13.012,5.921L13.012,5.921z"/>
<path style="fill-rule:evenodd;clip-rule:evenodd;fill:#121111;" d="M10.946,15.891c0.813,3.139,0.463,6.463,1.642,9.561
	c0.434,1.139,1.004,1.783,2.146,2.114c1.719,0.502,2.972-0.677,4.388-1.152c3.288-1.11,4.336-3.821,3.345-6.769
	c-0.909-2.697-2.249-5.354-3.981-7.682c-0.924-1.24-1.233-3.06-3.015-3.583l0,0c-0.001,0-0.001,0-0.001,0
	c-0.017,0.04-0.033,0.084-0.059,0.092c-1.19,0.292-2.961-0.193-2.573,2.126c0.082,0.486-0.964,0.741-0.74,1.589
	c0.281,1.057-0.295,1.968-0.867,2.791C11.013,15.289,10.86,15.56,10.946,15.891z"/>
</svg>
