<?xml version="1.0" encoding="iso-8859-1"?>
<!-- Generator: Adobe Illustrator 16.0.0, SVG Export Plug-In . SVG Version: 6.00 Build 0)  -->
<!DOCTYPE svg PUBLIC "-//W3C//DTD SVG 1.1//EN" "http://www.w3.org/Graphics/SVG/1.1/DTD/svg11.dtd">
<svg version="1.1" id="Layer_1" xmlns="http://www.w3.org/2000/svg" xmlns:xlink="http://www.w3.org/1999/xlink" x="0px" y="0px"
	 width="32px" height="32px" viewBox="0 0 32 32" style="enable-background:new 0 0 32 32;" xml:space="preserve">
<path style="fill-rule:evenodd;clip-rule:evenodd;fill:#121111;" d="M27.043,21.784c0-1.08,0.021-1.912-0.003-2.743
	c-0.074-2.419-1.143-4.729-0.57-7.251c0.279-1.229-0.652-1.964-1.97-1.868c-0.536,0.041-0.949-0.091-1.38-0.322
	c-1.164-0.626-2.341-1.229-3.492-1.877c-1.958-1.101-2.216-1.106-3.847,0.393c-0.539,0.495-1.095,1.044-1.421,1.681
	c-1.078,2.099-2.553,3.946-3.692,5.99c-0.786,1.413-0.287,3.076-0.301,4.632c-0.008,0.89,0.831,0.47,1.137,0.812
	c0.216,0.241,0.254,0.633,0.427,0.926c0.83,1.412,1.392,2.943,2.863,3.987c2.951,2.092,6.26,2.01,9.601,2.01
	c0.769,0,0.734-0.467,0.706-0.977c-0.083-1.526,0.099-3.031,0.265-4.548C25.492,21.485,25.837,21.075,27.043,21.784z"/>
</svg>
