<?xml version="1.0" encoding="iso-8859-1"?>
<!-- Generator: Adobe Illustrator 16.0.0, SVG Export Plug-In . SVG Version: 6.00 Build 0)  -->
<!DOCTYPE svg PUBLIC "-//W3C//DTD SVG 1.1//EN" "http://www.w3.org/Graphics/SVG/1.1/DTD/svg11.dtd">
<svg version="1.1" id="Layer_1" xmlns="http://www.w3.org/2000/svg" xmlns:xlink="http://www.w3.org/1999/xlink" x="0px" y="0px"
	 width="32px" height="32px" viewBox="0 0 32 32" style="enable-background:new 0 0 32 32;" xml:space="preserve">
<path style="fill-rule:evenodd;clip-rule:evenodd;fill:#121111;" d="M27.084,14.33c-0.778,0.939-1.4,0.64-1.954-0.221
	c-0.148-0.23-0.34-0.325-0.593-0.372c-1.365-0.258-1.353-0.948-0.669-1.955c0.315-0.464,0.732-1.201,0.236-1.603
	c-0.766-0.622-1.631-1.198-2.648-1.417c-0.551,0.573-1.14,0.512-1.765,0.094c-0.791-0.526-1.439-0.636-1.33,0.635
	c0.027,0.316-0.044,0.552-0.259,0.422c-0.867-0.519-1.616,0.451-2.526,0.137c-0.243-0.084-1.124-0.442-1.533,0.222
	c-0.439,0.71-0.945,0.823-1.713,0.396c-0.678-0.377-1.356,0.135-1.049,0.727c0.364,0.7-0.025,0.943-0.338,1.172
	c-1.45,1.061-1.931,2.901-3.296,4.021C7.51,16.7,7.469,16.931,7.389,17.109c-0.339,0.749,0.408,1.745-0.578,2.394
	c-0.149,0.099,0.256,0.495,0.58,0.37c0.399-0.153,0.713-0.34,0.841-0.889c0.209-0.891,1.15-0.617,1.78-0.804
	c0.562-0.166,0.625,0.365,0.684,0.723c0.385,2.354,1.123,2.882,3.271,2.317c0.229-0.063,0.507-0.137,0.713-0.065
	c1.386,0.481,2.088-0.65,2.263-1.457c0.195-0.903,0.714-1.249,1.204-1.782c0.456,0.389,0.029,0.887,0.331,1.282
	c0.7,0.923,1.963,1.372,2.212,2.686c0.037,0.195,0.591,0.137,0.537-0.102c-0.3-1.304,0.855-2.041,1.124-3.107
	c0.088-0.353-0.287-0.881,0.216-1.037c0.537-0.169,0.556,0.396,0.7,0.74c0.155,0.364,0.493,0.602,0.819,0.434
	c0.889-0.461,1.553-0.103,2.239,0.528c-0.057-0.559,0.28-1.075-0.202-1.506c-0.382-0.34-0.095-0.612,0.117-0.877
	c0.264-0.328,0.449-0.144,0.711,0.059c0.286,0.219,1.042,0.295,0.938,0.064c-0.412-0.91,0.2-1.72,0.039-2.546
	C27.835,14.063,27.466,13.869,27.084,14.33z"/>
<path style="fill-rule:evenodd;clip-rule:evenodd;fill:#121111;" d="M21.405,8.496c-0.031-0.014-0.08,0.024-0.121,0.036
	c0.063,0.062,0.127,0.122,0.19,0.185C21.532,8.626,21.526,8.546,21.405,8.496z"/>
<path style="fill-rule:evenodd;clip-rule:evenodd;fill:#121111;" d="M21.474,8.717c-0.011,0.015-0.005,0.029-0.02,0.044
	l-0.001,0.002c0.001,0,0.002,0,0.003,0c0.012-0.012,0.024-0.015,0.036-0.028C21.485,8.729,21.479,8.723,21.474,8.717z"/>
</svg>
