<?xml version="1.0" encoding="iso-8859-1"?>
<!-- Generator: Adobe Illustrator 16.0.0, SVG Export Plug-In . SVG Version: 6.00 Build 0)  -->
<!DOCTYPE svg PUBLIC "-//W3C//DTD SVG 1.1//EN" "http://www.w3.org/Graphics/SVG/1.1/DTD/svg11.dtd">
<svg version="1.1" id="Layer_1" xmlns="http://www.w3.org/2000/svg" xmlns:xlink="http://www.w3.org/1999/xlink" x="0px" y="0px"
	 width="32px" height="32px" viewBox="0 0 32 32" style="enable-background:new 0 0 32 32;" xml:space="preserve">
<path style="fill-rule:evenodd;clip-rule:evenodd;fill:#121111;" d="M9.056,16.501c-0.032,0.677-0.029,1.414,1.052,1.325
	c0.552-0.043,0.789,0.521,1.008,0.911c0.255,0.453-0.188,0.672-0.521,0.889c-1.225,0.799-2.029,1.804-1.532,3.341
	c-0.099,0.232-0.204,0.405-0.237,0.593c-0.037,0.204,0.132,0.313,0.269,0.461c1.052,1.136,2.56,1.381,3.962,0.65
	c3.637-1.893,7.232-3.873,10.95-5.591c1.542-0.713,2.429-1.491,2.223-3.228c-0.012-0.095,0.002-0.198,0.021-0.293
	c0.198-0.952,2.149-4.259,2.938-4.976c0.36-0.323,0.9-0.646,0.525-1.19c-0.349-0.505-0.778,0.007-1.177,0.104
	c-0.569,0.139-1.172,0.382-1.725,0.307c-1.724-0.228-3.256,0.289-4.83,0.882c-1.287,0.482-2.724,0.683-4.013,0.11
	c-0.903-0.4-1.658-0.398-2.522-0.073c-1.007,0.377-2.001,0.679-3.089,0.095c-0.664-0.353-1.141,0.021-1.17,0.794
	c-0.046,1.197-0.658,1.849-1.834,2.025C8.61,13.75,8.57,14.442,8.799,14.824C9.139,15.4,9.084,15.909,9.056,16.501z"/>
</svg>
