<?xml version="1.0" encoding="iso-8859-1"?>
<!-- Generator: Adobe Illustrator 16.0.0, SVG Export Plug-In . SVG Version: 6.00 Build 0)  -->
<!DOCTYPE svg PUBLIC "-//W3C//DTD SVG 1.1//EN" "http://www.w3.org/Graphics/SVG/1.1/DTD/svg11.dtd">
<svg version="1.1" id="Layer_1" xmlns="http://www.w3.org/2000/svg" xmlns:xlink="http://www.w3.org/1999/xlink" x="0px" y="0px"
	 width="32px" height="32px" viewBox="0 0 32 32" style="enable-background:new 0 0 32 32;" xml:space="preserve">
<path style="fill-rule:evenodd;clip-rule:evenodd;fill:#121111;" d="M19.633,28.026c0.87-0.214,1.782-0.24,2.251-0.872
	c0.329-0.443-0.413-0.89-0.567-1.37c-0.132-0.409-0.196-0.878-0.142-1.299c0.31-2.299-0.045-4.613,0.146-6.893
	c0.14-1.632-1.049-2.824-0.999-4.296c0.046-1.26-0.398-2.008-1.465-2.57c-0.519-0.274-1.336-0.559-1.004-1.381
	c0.584-1.458,0.37-2.203-1.384-1.961c-0.224,0.03-0.492-0.067-0.7-0.177c-1.558-0.811-1.421,0.478-1.605,1.308
	c-0.137,0.621,0.449,0.866,0.81,1.117c0.941,0.657,1.035,1.521,0.968,2.562c-0.04,0.646-1.282,1.753,0.538,1.94
	c0.038,0.004,0.059,0.548,0.026,0.833c-0.091,0.781-0.562,2.04-0.267,2.253c1.417,1.018,0.855,2.4,0.572,3.408
	c-0.38,1.347,0.59,2.584-0.125,3.937C16.266,25.364,18.804,28.035,19.633,28.026z"/>
</svg>
