<?xml version="1.0" encoding="iso-8859-1"?>
<!-- Generator: Adobe Illustrator 16.0.0, SVG Export Plug-In . SVG Version: 6.00 Build 0)  -->
<!DOCTYPE svg PUBLIC "-//W3C//DTD SVG 1.1//EN" "http://www.w3.org/Graphics/SVG/1.1/DTD/svg11.dtd">
<svg version="1.1" id="Layer_1" xmlns="http://www.w3.org/2000/svg" xmlns:xlink="http://www.w3.org/1999/xlink" x="0px" y="0px"
	 width="32px" height="32px" viewBox="0 0 32 32" style="enable-background:new 0 0 32 32;" xml:space="preserve">
<path style="fill-rule:evenodd;clip-rule:evenodd;fill:#121111;" d="M14.979,15.646c-1.177,0.788-1.525,1.924-0.58,3.121
	c0.756,0.959,1.296,2.213,2.209,2.878c1.219,0.888,1.601,1.986,1.889,3.27c0.235,1.05,0.474,2.099,0.71,3.155
	c1.772-0.602,2.231-1.3,1.879-3.045c-0.091-0.448-0.086-0.772,0.242-1.039c0.67-0.545,1.295-1.316,2.068-1.53
	c1.654-0.461,1.232-1.741,1.05-2.644c-0.127-0.634-0.627-1.445-1.718-1.615c-0.61-0.096-1.684-0.249-1.879-1.279
	c-0.18-0.944,0.75-1.022,1.181-1.489c1.74-1.89,2.013-2.515,0.335-4.005c-0.514-0.458-0.695-1.053-0.017-1.619
	c0.297-0.244,0.528-0.565,0.765-0.871c0.223-0.292,0.675-0.582,0.308-0.998c-0.392-0.445-0.678,0.207-1.023,0.193
	c-0.344-0.014-0.711,1.069-1.006,0.021c-0.354-1.247-1.252-1.346-2.261-1.118c-1.53,0.346-3.219,1.739-3.183,2.625
	c0.043,1.062-0.052,2.121,0.099,3.193C16.19,13.902,16.052,14.926,14.979,15.646z"/>
</svg>
