<?xml version="1.0" encoding="iso-8859-1"?>
<!-- Generator: Adobe Illustrator 16.0.0, SVG Export Plug-In . SVG Version: 6.00 Build 0)  -->
<!DOCTYPE svg PUBLIC "-//W3C//DTD SVG 1.1//EN" "http://www.w3.org/Graphics/SVG/1.1/DTD/svg11.dtd">
<svg version="1.1" id="Layer_1" xmlns="http://www.w3.org/2000/svg" xmlns:xlink="http://www.w3.org/1999/xlink" x="0px" y="0px"
	 width="32px" height="32px" viewBox="0 0 32 32" style="enable-background:new 0 0 32 32;" xml:space="preserve">
<path style="fill-rule:evenodd;clip-rule:evenodd;fill:#121111;" d="M13.502,15.827c-0.377,0.305-0.688,0.689-1.039,1.028
	c-1.417,1.367-3.094,2.395-3.629,4.61c-0.431,1.769-0.666,3.532-0.865,5.316c-0.035,0.324-0.197,1.005,0.283,0.97
	c0.615-0.047,1.264,0.77,1.834-0.04c0.905-1.287,2.264-1.314,3.633-1.314c2.947-0.002,5.897-0.055,8.842,0.026
	c1.193,0.032,1.751-0.138,1.669-1.541c-0.075-1.283-0.217-2.695,0.642-3.826c0.723-0.958,1.271-2.027,2.171-2.892
	c0.747-0.716,1.304-1.679,1.101-2.938c-0.507-3.116-2.179-5.662-3.748-8.339c-1.087,0.941-1.901,2.45-3.64,1.304
	c-0.118-0.079-0.434,0.158-0.664,0.226c-0.912,0.27-1.929,0.221-2.704,0.901c-0.724-1.095-1.881-0.377-2.803-0.665
	c-1.06-0.332-1.492,0.226-1.874,1.198c-0.354,0.901,0.067,1.772-0.235,2.621c-0.232,0.648-0.307,1.073,0.639,1.355
	C14.108,14.124,14.646,14.896,13.502,15.827z"/>
</svg>
