<?xml version="1.0" encoding="iso-8859-1"?>
<!-- Generator: Adobe Illustrator 16.0.0, SVG Export Plug-In . SVG Version: 6.00 Build 0)  -->
<!DOCTYPE svg PUBLIC "-//W3C//DTD SVG 1.1//EN" "http://www.w3.org/Graphics/SVG/1.1/DTD/svg11.dtd">
<svg version="1.1" id="Layer_1" xmlns="http://www.w3.org/2000/svg" xmlns:xlink="http://www.w3.org/1999/xlink" x="0px" y="0px"
	 width="32px" height="32px" viewBox="0 0 32 32" style="enable-background:new 0 0 32 32;" xml:space="preserve">
<path style="fill-rule:evenodd;clip-rule:evenodd;fill:#121111;" d="M12.534,10.835c0.032,0.021,0.058,0.031,0.088,0.052
	c0.028,0.042,0.033,0.088,0.03,0.134c0,0.003,0.002,0.008,0.002,0.01c-0.014,0.148-0.132,0.307-0.015,0.398
	c0.65,0.51,1.368,0.887,0.61,1.934c-0.33,0.456,0.598,0.19,0.649,0.355c-0.026,0.775-1.115,0.466-0.869,1.105
	c0.25,0.65,0.561-0.063,0.852-0.155c0.024-0.007,0.143,0.138,0.134,0.198c-0.223,1.459,0.76,0.367,1.226,0.575
	c-0.79,1.146-0.394,1.459,0.87,1.293c1.335-0.176,1.44,1.177,1.621,1.854c0.28,1.055-0.741,0.93-1.462,0.837
	c-0.244-0.031-0.666,0.019-0.537,0.196c0.238,0.327-0.584,0.754,0.143,0.905c0.768,0.159,0.533,0.553,0.195,0.921
	c-0.602,0.655-0.494,1.22,0.312,1.511c0.268,0.098,0.527,0.215,1.146,0.473c-2-0.084-2.213,1.703-3.595,2.205
	c0.597,0.24,0.933,0.06,1.3,0.005c1.29-0.188,2.383-0.978,3.775-0.947c1.511,0.031,3.063-0.125,4.537-0.583
	c0.288-0.089,0.706-0.271,0.703-0.661c-0.005-0.468-0.717-0.021-0.825-0.494c0.114-0.135,0.19-0.267,0.305-0.346
	c0.589-0.408,1.138-0.898,0.968-1.669c-0.176-0.808-0.926-0.801-1.56-0.742c-0.439,0.038-0.379-0.128-0.436-0.447
	c-0.358-2.037-2.522-2.964-3.07-4.909c-0.055-0.195-0.333-0.387-0.55-0.464c-0.86-0.305-0.871-0.752-0.348-1.407
	c0.27-0.339,0.409-0.778,0.655-1.141c0.499-0.733,0.346-1.062-0.559-1.035c-0.704,0.021-1.409,0.005-2.225,0.005
	c0.186-0.738,0.699-0.887,1.017-1.219c0.273-0.283,0.475-0.872-0.156-0.773c-1.081,0.172-2.527-0.292-3.047,1.233
	c-0.043,0.124-0.087,0.24-0.134,0.348c-0.333,0.746-0.809,1.033-1.661,0.498l0,0h0h0c-0.017-0.027-0.018-0.054-0.052-0.078
	c-0.008,0.003-0.016,0.005-0.024,0.008c-0.003,0.007-0.008,0.012-0.011,0.017L12.534,10.835z"/>
<path style="fill-rule:evenodd;clip-rule:evenodd;fill:#121111;" d="M10.614,17.32c-0.022,0.293,0.199,0.497,0.393,0.528
	c0.844,0.137,1.699,0.284,2.548,0.274c0.412-0.002,0.795-0.36,0.827-0.994c-0.373-0.467-0.418-1.346-1.36-1.398
	C12.295,15.687,10.656,16.782,10.614,17.32z"/>
<path style="fill-rule:evenodd;clip-rule:evenodd;fill:#121111;" d="M13.327,9.102c-0.907,0.242-1.43,0.723-1.365,1.698
	c-0.703,0.069-0.358,0.389-0.198,0.639c0.077-0.175,0.247-0.332,0.369-0.514c0.137-0.036,0.275-0.073,0.413-0.108
	C12.795,10.269,13.587,9.978,13.327,9.102z"/>
<path style="fill-rule:evenodd;clip-rule:evenodd;fill:#121111;" d="M11.732,11.71c0.146-0.051,0.107-0.153,0.031-0.271
	C11.726,11.522,11.704,11.608,11.732,11.71z"/>
</svg>
