<?xml version="1.0" encoding="iso-8859-1"?>
<!-- Generator: Adobe Illustrator 16.0.0, SVG Export Plug-In . SVG Version: 6.00 Build 0)  -->
<!DOCTYPE svg PUBLIC "-//W3C//DTD SVG 1.1//EN" "http://www.w3.org/Graphics/SVG/1.1/DTD/svg11.dtd">
<svg version="1.1" id="Layer_1" xmlns="http://www.w3.org/2000/svg" xmlns:xlink="http://www.w3.org/1999/xlink" x="0px" y="0px"
	 width="32px" height="32px" viewBox="0 0 32 32" style="enable-background:new 0 0 32 32;" xml:space="preserve">
<path style="fill-rule:evenodd;clip-rule:evenodd;fill:#121111;" d="M24.139,9.621c-1.618,1.879-3.899,3.077-5.176,5.32
	c-0.457,0.802-1.256,2.018-2.569,0.767c-0.086-0.082-0.604,0.066-0.639,0.189c-0.268,0.939-0.877,0.569-1.459,0.461
	c-1.659-0.311-3.277-0.403-4.878,0.413c-0.781,0.398-1.738,0.547-2.091-0.724c-0.136-0.486-0.495-0.636-0.974-0.429
	c0,0.394,0,0.787,0,1.179c1.204,1.487,2.427,2.96,3.603,4.468c0.391,0.501,0.827,0.771,1.459,0.85
	c3.306,0.415,6.61,0.844,9.908,1.317c0.477,0.068,0.904-0.003,0.917-0.417c0.058-1.724,1.074-3.138,1.438-4.729
	c0.229-0.997,0.42-1.487,1.479-1.434c0.403,0.019,0.968-0.454,0.558-0.658c-1.212-0.598-0.637-1.581-0.755-2.404
	c-0.054-0.374-0.129-0.872,0.313-1.05c0.511-0.204,0.44,0.36,0.611,0.605c0.197,0.283,0.426,0.171,0.616,0.002
	c0.575-0.512,1.027-0.965,1.094-1.914c0.117-1.641-1.219-2.694-1.293-4.246C25.804,8.271,24.825,8.824,24.139,9.621z"/>
</svg>
