<?xml version="1.0" encoding="iso-8859-1"?>
<!-- Generator: Adobe Illustrator 16.0.0, SVG Export Plug-In . SVG Version: 6.00 Build 0)  -->
<!DOCTYPE svg PUBLIC "-//W3C//DTD SVG 1.1//EN" "http://www.w3.org/Graphics/SVG/1.1/DTD/svg11.dtd">
<svg version="1.1" id="Layer_1" xmlns="http://www.w3.org/2000/svg" xmlns:xlink="http://www.w3.org/1999/xlink" x="0px" y="0px"
	 width="32px" height="32px" viewBox="0 0 32 32" style="enable-background:new 0 0 32 32;" xml:space="preserve">
<path style="fill-rule:evenodd;clip-rule:evenodd;fill:#121111;" d="M25.09,13.628c-0.192-0.76-0.833-1.219-1.579-1.617
	c-1.713-0.917-3.085-2.354-4.842-3.259c-0.704-0.362-1.049-1.451-2.116-0.668c-0.196,0.144-0.488,0.063-0.589-0.235
	c-0.436-1.285-1.608-1.948-2.449-2.887c-0.704-0.788-1.479-1.328-2.287-0.075c-0.23,0.358-0.523,0.133-0.762,0.003
	C9.29,4.253,8.884,5.07,8.67,5.935c-0.443,1.794-0.594,3.65-1.188,5.421c-0.396,1.177-0.454,2.416-0.158,3.634
	c0.237,0.97,0.114,1.765-0.568,2.577c-0.815,0.971-0.833,2.949-0.17,3.696c1.044,1.18,1.951,2.567,3.938,2.092
	c0.727-0.173,1.383,0.388,2.016,0.767c1.291,0.773,2.602,1.283,4.181,0.81c0.747-0.224,1.624-0.2,2.24,0.523
	c0.493,0,0.984,0,1.476,0c0.658-0.795,1.646-1.009,2.518-1.424c2.124-1.009,2.951-2.527,2.651-4.835
	c-0.056-0.431,0.026-0.874,0.023-1.31c-0.004-1.088,1.545-1.498,1.373-2.25C26.825,14.862,25.374,14.759,25.09,13.628z"/>
</svg>
