<?xml version="1.0" encoding="iso-8859-1"?>
<!-- Generator: Adobe Illustrator 16.0.0, SVG Export Plug-In . SVG Version: 6.00 Build 0)  -->
<!DOCTYPE svg PUBLIC "-//W3C//DTD SVG 1.1//EN" "http://www.w3.org/Graphics/SVG/1.1/DTD/svg11.dtd">
<svg version="1.1" id="Layer_1" xmlns="http://www.w3.org/2000/svg" xmlns:xlink="http://www.w3.org/1999/xlink" x="0px" y="0px"
	 width="32px" height="32px" viewBox="0 0 32 32" style="enable-background:new 0 0 32 32;" xml:space="preserve">
<path style="fill-rule:evenodd;clip-rule:evenodd;fill:#121111;" d="M26.072,11.4c-0.279,0.044-0.862,0.255-0.677-0.312
	c0.431-1.326-0.64-1.277-1.312-1.596c-0.498-0.231-1.166-0.115-1.511-0.804c0.341-0.161,0.698-0.329,1.057-0.5
	c-1.016-0.537-2.304,0.55-3.147-0.684c-0.045-0.065-0.361-0.044-0.458,0.321c-0.313,1.191-1.167,1.647-2.196,0.976
	c-0.934-0.61-1.808-0.531-2.776-0.462c-0.43,0.032-0.883,0.271-1.249-0.382c-0.69-1.236-2.02-1.396-3.346-0.889
	c-0.598,0.23-1.453,1.055-1.966,0.389C7.754,6.506,7.437,7.287,7.085,7.605c-0.8,0.726-0.717,1.881-1.193,2.791
	c-0.214,0.411,0.792,0.067,0.834,0.704c0.026,0.408,0.448,0.793,0.468,1.196c0.09,1.813,0.783,1.878,2.256,1.761
	c0.589-0.046,1.273-0.026,1.478,0.298c0.838,1.318,2.029,1.139,3.243,0.979c0.468-0.06,0.99,0.037,0.588,0.523
	c-1.272,1.545,0.833,3.2-0.252,4.698c-0.003,0.005,0.123,0.112,0.196,0.161c0.729,0.473,0.814,1.287,1.091,2.011
	c0.436,1.141,1.683,1.615,2.661,0.965c1.051-0.701,2.151-1.353,3.123-2.416c-1.577-0.17-1.282-1.369-1.511-2.337
	c0.838-0.142,1.923,0.493,2.076,0.333c0.806-0.84,1.955-0.679,2.826-1.222c0.746-0.464,1.126-0.867,0.338-1.679
	c-0.719-0.739-0.791-1.494,0.364-1.989c0.231-0.099,0.851-0.257,0.438-0.639c-0.776-0.714-0.023-0.846,0.319-1.167
	c0.232-0.221,0.688-0.339,0.502-0.781C26.784,11.452,26.464,11.344,26.072,11.4z"/>
</svg>
