<svg xmlns="http://www.w3.org/2000/svg" width="32" height="32" viewBox="0 0 32 32"><path d="M9.132 17.538c1.113 1.565.862 2.451-.965 3.229-.398.167-.75.352-.778.771-.029.431.432.212.654.332.362.2.414.515.403.875-.056 1.942.806 2.997 2.836 2.918.146-.005.298.002.44.036 2.289.548 3.143.117 3.806-1.842.523-.339.71 1.052 1.101.245.452-.93 1.093-.788 1.813-.788 2.133.003 2.432-.238 2.941-2.205.095-.368.023-.718.748-.27 1.534.947 2.219.156 2.814-1.619.483-1.442-.202-3.95 2.611-3.991.272-.005.667-.257.627-.702-.048-.519-.447-.434-.776-.391-.54.069-.906-.398-1.367-.439-1.248-.113-1.415-.557-.666-1.539.326-.429.222-.735-.1-.762-2.171-.174-4.249-.973-6.466-.884-.954.038-1.835-.245-2.4-1.232-.455-.797-1.203-1.097-2.214-.805-.668.192-1.304.687-2.084.445-1.258-.39-2.204.423-1.794 1.713.354 1.112-.064 1.34-.984 1.604-.863.248-1.587 1.569-1.335 1.828.972 1.01.246 1.335-.344 1.955-.36.38-.447 1.021-.658 1.547.789.31 1.433-1.019 2.137-.029z" fill-rule="evenodd" clip-rule="evenodd" fill="#121111"/></svg>