<svg xmlns="http://www.w3.org/2000/svg" width="32" height="32" viewBox="0 0 32 32"><path d="M26.032 12.198c-1.351 1.052-1.591.872-1.641-.759-.021-.623-.214-1.195-.807-1.406-.607-.218-.811.455-1.101.788-.912 1.046-2.656 1.593-4.016 1.173-2.391-.74-2.839-.572-4.475 1.513-.224.283-.653.399-.982.599-.411.247-1.073.099-1.158.881-.03.305-.658.509-.855.377-1.488-1.001-1.752.11-2.423 1.1-.718 1.062-.343 2.058-.161 2.961.149.747-.499 1.97.686 2.279 1.405.365.915.909.333 1.585-.252.293-.485.603-.766.954 2.151 1.066 4.34.75 6.516.475.906-.114 1.761-.303 1.609-1.578-.053-.463.363-.847.754-1.015 1.547-.661 3.734-.408 3.951-2.889.007-.065.14-.16.219-.166 1.23-.104.74-.817.446-1.434 1.377-.024 2.746-1.619 2.229-2.752-.464-1.018.04-1.219.721-1.608.627-.361 1.269-.527 1.957-.465.816.072 1.549-.029 2.386-1.144-1.318.427-2.312-.334-3.422.531z" fill-rule="evenodd" clip-rule="evenodd" fill="#fff"/></svg>