<svg xmlns="http://www.w3.org/2000/svg" width="32" height="32" viewBox="0 0 32 32"><path d="M17.333 7.258c-.169-.031-.369.079-.549.142-.618.214-1.35.762-1.348-.566 0-.354-.368-.349-.523-.158-.804.981-1.971 1.895-2.078 3.117-.062.704-.282 2.024.727 2.513 1.068.514.884 1.131.433 1.868-.238.39-.547.872-.403 1.225.92 2.258-1.276 4.441-.11 6.68-1.156 1.751.598 1.896 1.427 2.347.941.514 1.585 1.155 1.804 2.161.177.814.689 1.353 1.397 1.107.596-.204 1.344-.749.966-1.686-.28-.697.261-1.023.663-1.045 1.121-.056 1.277-.877 1.559-1.645.201-.549.376-1.063 1.043-1.306.517-.189.957-.816.719-1.292-.311-.619.02-1.602-.845-1.878-1.529-.487-2.084-1.665-2.307-3.072-.23-1.457.363-2.834.556-4.251.011-.778-2.427-4.129-3.131-4.261z" fill-rule="evenodd" clip-rule="evenodd" fill="#121111"/></svg>