<svg xmlns="http://www.w3.org/2000/svg" width="32" height="32" viewBox="0 0 32 32"><path d="M6.55 10.52c.757.887 1.456 1.961.572 3.011-1.209 1.434.199 2.522.349 3.735.073.603 1.384 1.027 2.178.822 1.837-.474 3.002.461 4.112 1.63.614.646 1.229 1.098 2.151.579.524-.292.849.073 1.084.454.8 1.29 1.887 1.653 3.305 1.141.363-.129.961-.557 1.035.185.173 1.771 1.604 2.899 2.123 4.511.444 1.383 1.6.063 2.436.252.623.14.324-.646.413-1.024.108-.459-1.011-1.262.42-1.38.235-.018-.026-.42-.177-.576-.327-.335-.688-.637-1.082-.997.318-.355 1.019-.426.745-.997-.224-.466-.769-.723-1.225-.667-.543.064-.923-.041-1.326-.375-1.037-.86-2.104-1.686-3.316-2.649.355-.02.533-.067.696-.034.984.197 1.453-.34 1.672-1.186.25-.967-.65-.939-1.144-1.218-.857-.488-1.664-1.014-2.263-1.827-.476-.644-.688-1.201.217-1.649.81-.4.859-.833.091-1.375-.468-.331-.807-.789-1.493-.806-.258-.007-.879.015-.919-.653-.055-.999-.97-1.602-1.899-1.347-.451.124-.812.441-1.352.403-2.781-.194-5.462.605-8.271.931.141.608.591.783.868 1.106z" fill-rule="evenodd" clip-rule="evenodd" fill="#121111"/></svg>