<svg xmlns="http://www.w3.org/2000/svg" width="32" height="32" viewBox="0 0 32 32"><path d="M10.445 9.25c.844.319.28-.646.545-.946.284-.32.711-.52.815-.987h-1.181c-.013.09.006.232-.043.262-.846.513-.493 1.536-.136 1.671zM11.675 26.932c.313-.135.58.04.799.238.49.443 1.042.348 1.644.338 1.91-.03 3.924-.441 5.707.208 2.579.938 5.021.896 7.63.151-2.071-2.311-2.071-2.311-2.071-4.93 0-.295.046-.598-.008-.882-.237-1.264.314-1.669 1.504-1.46 1.088.19 1.663-.126 1.664-1.392.002-1.755.083-1.747-1.773-1.695-.263.007-.529-.104-.794-.167v.013l-.03-.021.029.008c.038-1.39-.99-2.563-.784-4.044.045-.328.61-1.731-.738-1.604-.789.075-1.224-.685-1.98-.548-.451.082-.904.072-.994.651-.232 1.507-1.569.708-2.346 1.066-.706.325-.876-.613-1.176-1.05-.288-.42-.439-.959-.551-1.469-.109-.499-.343-.872-.839-.861-1.664.032-3.332-.218-4.992.04-.914.141-1.278.432-.63 1.418.542.826 1.367 1.977 1.007 2.761-.546 1.195-.02 1.934.415 2.777.518 1.002.751 2.22-.012 2.877-1.689 1.456-1.768 3.5-2.464 5.324-.305.8-.41 1.765-.065 2.39.307.557 1.222.135 1.848-.137z" fill-rule="evenodd" clip-rule="evenodd" fill="#121111"/></svg>