<svg xmlns="http://www.w3.org/2000/svg" width="32" height="32" viewBox="0 0 32 32"><path d="M15.95 23.278c-.033-.115.261-.295.287-.461.148-.925 2.601-1.297.668-2.733-.041-.03.021-.344.099-.377.708-.299.74-1.229 1.187-1.516.961-.617-.108-.771-.087-1.112.063-1.006 1.448.322 1.397-.701-.06-1.241.796-.932 1.449-1.06 1.379-.273 1.881-1.134 1.32-2.226-.732-1.429-.547-2.676.596-3.788.387-.375.86-.658 1.235-1.037.264-.27.262-.627-.039-.913-.171-.161-.392-.161-.476.058-.214.552-.521.927-1.17.896-1.139-.057-.113-.835-.394-1.177-.033-.035-.053-.101-.091-.112-1.291-.399-2.104-1.802-3.57-1.764-.91-.297-1.238.038-1.69.855-.795 1.44-1.267 2.978-1.595 4.524-.184.86.267 1.862-.105 2.793-.455 1.127-.585 2.326-.712 3.515-.198 1.859.469 3.802-.775 5.589-.217.311.415 1.504 1.414 1.644.709.1 1.37.214 1.052-.897zM16.105 24.985c-.309 1.777.892 1.209 1.688 1.122l-1.688-1.122z" fill-rule="evenodd" clip-rule="evenodd" fill="#121111"/></svg>