<svg xmlns="http://www.w3.org/2000/svg" width="32" height="32" viewBox="0 0 32 32"><path d="M10.369 20.336c1.174-.685 2.355-1.273 3.411.207.212.295.536.417.898.422 2.295.033 4.581 1.584 6.896.047.138-.095.385-.016.581-.03 2.235-.158 3.223-1.113 3.616-3.489l-.042.015.044-.026-.002.012c.814-.245 1.373-.594 1.436-1.152a1.054 1.054 0 0 0-.02-.297c-.004-.021.001-.042-.004-.066a1.847 1.847 0 0 0-.145-.392l-.009-.026a3.535 3.535 0 0 0-.296-.478c-.117-.161-.104-.472-.052-.688.216-.884-.495-1.134-.998-1.076-1.177.135-2.17-.36-3.237-.622-.593-.146-1.2-.417-1.599.521-.257.604-1.204 1.047-1.733.667-.813-.583-1.375-.225-1.865.193-.612.519-1.371.859-1.906 1.376-.7.672.363 1.389.413 2.138.002.033-.063.069-.211.23-.493-.67-1.237-.734-1.984-.637-1.462.192-2.813 1.333-4.406.485-.146-.076-.587.061-.635.19-.301.825-.621.516-1.027.095-.332-.343-.865-.517-1.145-.119-.242.343-.436.887-.163 1.378.367.666 3.546 1.494 4.184 1.122z" fill-rule="evenodd" clip-rule="evenodd" fill="#121111"/></svg>