<svg xmlns="http://www.w3.org/2000/svg" width="32" height="32" viewBox="0 0 32 32"><path d="M22.89 10.846c-.224-1.702-1.526-2.88-1.744-4.747-.771 1.047-.854 1.99-.932 2.946-.045.55-.323 1.379-.748 1.252-.8-.24-1.533-.834-2.181-1.41-.44-.389-.107-.889.221-1.281.299-.354.129-1.04-.062-.92-.993.615-1.993-.749-2.985.184-.795.747-1.356 1.98-3.021 1.434-.453-.148-1.843 1.2-2.079 2.061-.341 1.242-1.118 1.598-2.061 1.973-2.787 1.104-2.903 2.382-1.564 4.947.512.978 1.193 1.9.961 3.094-.172.881.728 1.022.96.869 1.08-.721 2.493-.624 3.479-1.475 1.801-1.557 3.842-1.422 5.248.426.284.372.436.47.697.04l.215.267c.536.523 1.065.966 1.411 1.739.549 1.231 4.002 1.481 4.71.283.688-1.167 1.546-2.231 2.148-3.446.978-1.978.385-3.68-.746-5.431-.622-.967-1.778-1.662-1.927-2.805z" fill-rule="evenodd" clip-rule="evenodd" fill="#121111"/></svg>