<svg xmlns="http://www.w3.org/2000/svg" width="32" height="32" viewBox="0 0 32 32"><path d="M27.871 25.847c.997-.015 1.153-.267.865-1.287-.196-.706-.229-1.479-.535-2.126-.601-1.269-.476-2.926-1.614-3.841-1.196-.96-2.613-1.865-3.341-3.086-1.042-1.744-2.755-2.274-4.177-3.336-1.028-.764-2.239-1.206-3.162-2.187-1.554-1.649-2.762-3.645-4.783-4.842-.412-.242-.747-.746-1.261-.361-.574.432 0 .785.122 1.219.458 1.646 1.645 3.231.103 5.073-.453.54-1.565 1.718-.342 2.806 1.906 1.697 3.724 3.507 5.741 5.056.689.53 1.757.586 2.455 1.328 2.164 2.291 5.09 3.379 7.864 4.616.679.303 1.151 1.186 2.065.968z" fill-rule="evenodd" clip-rule="evenodd" fill="#121111"/><path d="M22.641 22.899c-1.012-.646-1.761-1.136-2.98-.372 1.079.176 1.834.644 2.98.372z" fill-rule="evenodd" clip-rule="evenodd" fill="#121111"/></svg>