<?xml version="1.0" encoding="iso-8859-1"?>
<!-- Generator: Adobe Illustrator 16.0.0, SVG Export Plug-In . SVG Version: 6.00 Build 0)  -->
<!DOCTYPE svg PUBLIC "-//W3C//DTD SVG 1.1//EN" "http://www.w3.org/Graphics/SVG/1.1/DTD/svg11.dtd">
<svg version="1.1" id="Layer_1" xmlns="http://www.w3.org/2000/svg" xmlns:xlink="http://www.w3.org/1999/xlink" x="0px" y="0px"
	 width="32px" height="32px" viewBox="0 0 32 32" style="enable-background:new 0 0 32 32;" xml:space="preserve">
<path style="fill-rule:evenodd;clip-rule:evenodd;fill:#121111;" d="M6.061,9.594c1.598,2.462,3.634,4.611,5.102,7.164
	c0.251,0.438,0.592,0.82,1.039,1.009c1.591,0.675,2.758,1.857,3.8,3.164c0.494,0.617,1.115,1.004,1.817,1.169
	c2.898,0.683,5.813,1.297,8.919,1.982c-0.19-0.528-0.278-0.842-0.412-1.132c-0.65-1.424-1.84-2.841-1.843-4.264
	c-0.004-1.974-1.142-2.577-2.416-3.298c-0.712-0.403-0.708-0.902-0.559-1.599c0.505-2.369-0.221-3.015-2.569-2.345
	c-0.33,0.094-0.681,0.176-0.96,0.357c-1.545,1.005-2.853,0.408-4.143-0.535c-0.36-0.264-0.633-0.807-1.257-0.456
	c-0.862,0.484-0.883-0.034-0.979-0.742c-0.259-1.922-1.555-2.663-3.387-2.078c-0.884,0.281-1.768,0.587-2.71,0.62
	c0,0.197,0,0.394,0,0.591C5.801,9.168,5.94,9.408,6.061,9.594z"/>
</svg>
