<svg xmlns="http://www.w3.org/2000/svg" width="32" height="32" viewBox="0 0 32 32"><path d="M6.061 9.594c1.598 2.462 3.634 4.611 5.102 7.164.251.438.592.82 1.039 1.009 1.591.675 2.758 1.857 3.8 3.164.494.617 1.115 1.004 1.817 1.169 2.898.683 5.813 1.297 8.919 1.982-.19-.528-.278-.842-.412-1.132-.65-1.424-1.84-2.841-1.843-4.264-.004-1.974-1.142-2.577-2.416-3.298-.712-.403-.708-.902-.559-1.599.505-2.369-.221-3.015-2.569-2.345-.33.094-.681.176-.96.357-1.545 1.005-2.853.408-4.143-.535-.36-.264-.633-.807-1.257-.456-.862.484-.883-.034-.979-.742-.259-1.922-1.555-2.663-3.387-2.078-.884.281-1.768.587-2.71.62v.591c.298-.033.437.207.558.393z" fill-rule="evenodd" clip-rule="evenodd" fill="#121111"/></svg>