<svg xmlns="http://www.w3.org/2000/svg" width="32" height="32" viewBox="0 0 32 32"><path d="M9.449 9.052c-.475-.533-1.015-1.026-1.756-.448-.423.326-.512 2.814-.098 3.151 1.162.943 2.089 2.007 2.384 3.547.065.336.421.673.726.896 1.688 1.236 2.674 3.29 4.746 4.08.141.053.238.281.306.449 1.124 2.8 3.576 4.15 6.025 5.493.265.142.57.103.815-.138.3-.293.237-.571.066-.922-.321-.651-.925-1.282.212-1.902.672-.365.441-1.582 1.337-1.938.047-.019.099-.067.136-.057 1.87.562.838-.697.782-1.313 3.528-.374 3.548-.403 1.734-3.001.476-.352 1.356.273 1.534-.388.188-.701-.764-.894-1.126-1.388a1.085 1.085 0 0 0-.478-.334c-1.094-.408-.827-1.15-.472-1.9.146-.307.411-.559.538-.872.174-.432.637-.879.282-1.353-.344-.455-.863-.267-1.355-.142-.502.13-1.179.382-1.494-.155-1.134-1.943-2.994-1.458-4.66-1.42-1.724.041-3.402-.117-5.026-.627-.924-.288-3.053-.077-3.6.7-.611.87-1.029.577-1.558-.018z" fill-rule="evenodd" clip-rule="evenodd" fill="#121111"/></svg>