<svg xmlns="http://www.w3.org/2000/svg" width="32" height="32" viewBox="0 0 32 32"><path d="M21.55 13.6c-1.825-2.25-3.859-4.345-5.519-6.708-1.367-1.945-2.729-2.399-4.965-1.549-1.316.499-1.77 1.02-1.616 2.341.36 3.08.214 6.178.29 9.269.023.964.296 1.773.714 2.641 1.061 2.199 2.689 3.627 4.985 4.412 1.15.394 2.241.97 3.334 1.513.637.317 1.105.255 1.725-.148 2.824-1.835 4.518-4.746 6.994-7.066-.523-.377-.973-.67-1.384-1.009-1.507-1.246-3.293-2.135-4.558-3.696z" fill-rule="evenodd" clip-rule="evenodd" fill="#121111"/></svg>