<svg xmlns="http://www.w3.org/2000/svg" width="32" height="32" viewBox="0 0 32 32"><path d="M25.03 25.796c-.247-2.329-.195-4.585-.928-6.746-.247-.728.14-1.938-.839-2.075-1.087-.151-.975 1.165-1.387 1.839-.022.037.004.1-.008.146-.168.6-.278.67-.805.151-1.566-1.537-1.384-3.061.654-3.783.931-.332 1.47-.892 1.79-1.761.097-.262.037-.639.391-.729 1.413-.348.222-.687-.034-.896-.422-.345-.943-.403-1.518-.382a74.866 74.866 0 0 1-4.691.007c-1.959-.05-2.286-.392-2.352-2.344-.013-.398-.017-.775-.24-1.126-.172-.27-.358-.523-.644-.173-.743.912-1.134.403-1.507-.329-.188-.373-.265-1.139-.856-.224-.177.279-.497.077-.686-.226-.232-.367-.536-.688-.988-.766-.475.29.176.802-.331 1.155-1.189.825-.849 1.563.174 2.348.409.313.798.485 1.253.646.175.063.291.365.382.579.105.248-.104.41-.285.358-.872-.266-1.049.422-1.52.894-1.338 1.335-1.427 1.51.353 2.137 1.161.409 1.138.959.723 1.821-.197.41-.343.79-.038 1.237 1.078 1.57 1.035 3.475 1.464 5.23.399 1.636.939 1.931 2.311.879.526-.404.92-1.177 1.412.043.15.37.49.08.675-.163.202-.267.175-.752.777-.574 1 .293 1.101-.43 1.212-1.155.039-.255-.294-.589.306-.785 1.68-.547 3.317.471 3.067 2.224-.25 1.744.867 2.803 1.33 4.115.793-.363-1.448-2.549 1.383-1.572z" fill-rule="evenodd" clip-rule="evenodd" fill="#121111"/></svg>