<svg xmlns="http://www.w3.org/2000/svg" width="32" height="32" viewBox="0 0 32 32"><path d="M29.517 17.446c-.825-1.417-1.865-2.526-3.72-2.549.314-.622.584-1.116.816-1.63.145-.319.263-.793-.163-.879-.8-.164-1.283-1.094-2.236-.851-.52.132-1.126-.053-1.278-.505-.437-1.317-1.606-.713-2.351-.853-1.226-.23-2.376.442-3.348 1.275-.385.329-3.645.327-3.806-.058-.379-.9-.93-.497-1.425-.297-.769.307-1.475.79-2.259 1.032-1.298.401-1.317 1.241-.841 2.205.415.841.956 1.69 2.146 1.15.545-.245 1.075-.207 1.179.392.186 1.061.769 1.473 1.775 1.481.413.005.564.271.637.663.082.443.28.485.813.415 1.552-.208 2.162.355 2.039 1.917-.056.718.146.831.713.898 1.18.14 2.147-.194 2.842-1.293-.014.967-.183 2.03.694 2.414 1.042.457 2.005.931 2.844 1.708.642.596 1.462.223 2.039-.067.689-.346.276-.965-.029-1.513-.55-.982.157-2.404 1.295-2.73 1.218-.345 2.061-1.573 1.624-2.325z" fill-rule="evenodd" clip-rule="evenodd" fill="#121111"/></svg>