<svg xmlns="http://www.w3.org/2000/svg" width="32" height="32" viewBox="0 0 32 32"><path d="M10.054 23.519c1.205.418 1.41 2.086 2.821 2.08.136 0 .29-.04.406-.111 1.55-.948 2.913-.804 4.244.604-.09-.871-.003-1.811-.311-2.597-.476-1.216-.06-1.581 1.049-1.458 2.682.297 5.362-.589 8.048.028.52.12 1.088-.063 1.453-.534.425-.547.981-.646 1.641-.675 1.385-.062 1.792-.785 1.244-2.048-.056-.131-.175-.292-.14-.398.44-1.333-.28-1.078-1.185-1.06-.864.018-2.047-.804-1.823-1.449.294-.845-.137-.967-.504-1.156-.659-.34-.889-.926-1.279-1.472-.512-.716.056-1.882-.907-2.208-.893-.301-1.865-.535-2.778.204-.947.766-2.309.88-3.119 1.896-1.947-.638-2.09 1.386-3.04 2.168-.443.364-.561.573-1.122.299-.998-.487-1.38-.093-1.599.929-.22 1.028-.235 2.367-1.751 2.588-.695.101-1.106.416-.843 1.186.146.425-.01.798-.234 1.1-.514.687-.586 1.974-.271 2.084z" fill-rule="evenodd" clip-rule="evenodd" fill="#121111"/></svg>