<svg xmlns="http://www.w3.org/2000/svg" width="32" height="32" viewBox="0 0 32 32"><path d="M26.762 16.347c.059-1.014.313-1.864 1.576-1.833.655.014.635-.512.725-.913.137-.617-.343-.532-.722-.617-.424-.093-.865-.218-1.226-.446-2.688-1.681-4.891-1.636-7.381.217-.627.468-1.307.616-2.063.525-2.631-.319-5.264-.636-7.913-.958.059-.283.872-.56.097-.927-.372-.179-.655-.658-1.2-.005-1.023 1.222-1.036 2.133.408 3.228.957.728.884 1.456-.065 1.804-.848.31-.713.786-.836 1.396-.24 1.182.034 1.96 1.191 2.455.276.12.589.718.517.997-.61 2.306.905 1.554 2.024 1.503a4.603 4.603 0 0 0 1.698-.408c.579-.26 1.198-.39 1.672-.043 1.506 1.102 3.163.851 4.825.715.326-.026.76-.273.699-.413-.637-1.472.848-1.396 1.419-1.888.648-.555 1.701-.981 2.393-.578.915.53 1.626.175 2.483.146-.994-1.687-.992-1.684-.384-3.373.066-.179.053-.39.063-.584z" fill-rule="evenodd" clip-rule="evenodd" fill="#121111"/></svg>