<svg xmlns="http://www.w3.org/2000/svg" width="32" height="32" viewBox="0 0 32 32"><path d="M14.537 20.184c2.214 1.955 3.522 4.397 4.109 7.399.937-.986 1.708-1.974 1.919-3.183.345-1.974.658-3.977.706-5.976.08-3.449.785-7.138-3.044-9.785.715 0 1.006.01 1.297-.002.413-.02.917.219 1.162-.336.302-.683-.389-1.036-.565-1.562-.211-.632-.714-.351-1.096-.156-.808.413-1.559.315-2.383-.017-.978-.394-2.189-.68-2.721.507-.649 1.45-1.115 2.971-.017 4.59 1.273 1.874 1.758 3.92.266 6.009-.648.907-.399 1.837.367 2.512z" fill-rule="evenodd" clip-rule="evenodd" fill="#121111"/></svg>