<svg xmlns="http://www.w3.org/2000/svg" width="32" height="32" viewBox="0 0 32 32"><path d="M10.938 13.363c1.158 1.116 1.682 2.361 1.458 4.063-.227 1.734-.057 3.521-.049 5.286.003.542.054 1.083.387 1.543.802 1.109 1.076 2.394 1.259 3.712.101.728.335 1.086 1.258 1.194 2.168.253 3.703-.754 5.012-2.183 1.642-1.792 2.87-3.889 3.996-6.045.662-1.266 1.896-2.111 2.877-3.061.67-.649 1.028-1.069 1.023-1.934-.005-.926-.237-1.579-1.317-1.68-.524-.049-1.037-.267-1.545-.437-.363-.121-.845-.22-.807-.712.069-.915.06-1.892.396-2.715.399-.978.827-1.783-.352-2.462h-1.476c-.92.426-1.74 1.372-2.891.361-.406-.355-.842-.145-.872.492-.019.393-.055.784-.061 1.177-.021 1.302-.504 2.235-1.87 2.602-1.631.437-3.26.095-4.002-.882-.574-.756-1.436-1.133-2.3-.933-.682.157-.695.973-.693 1.629.004.443.288.714.569.985z" fill-rule="evenodd" clip-rule="evenodd" fill="#121111"/></svg>