<svg xmlns="http://www.w3.org/2000/svg" width="32" height="32" viewBox="0 0 32 32"><path d="M11.505 15.157c2.127 1.137 1.915 3.371 2.361 5.222.663 2.749-.333 5.623.384 8.401l-.038-.001.062.06-.016-.053c2.768.541 3.668-.113 3.712-2.664.015-.869-.149-1.773-.043-2.589.193-1.505-.914-3.425 1.179-4.446.131-.063.202-.341.221-.526.086-.815.547-1.386 1.142-1.889.222-.188 1.164-2.745 1.09-2.971-.667-2.044-.883-4.329-2.962-5.632-.031-.019-.028-.091-.04-.138h-.886c-.646.341-1.107.628-1.13 1.603-.024 1.001-.892 1.66-2.064 1.655-1.532-.005-3.038 1.208-3.265 2.634-.07.449-.261 1.038.293 1.334zM14.46 29.019l-.186-.18c.026.085.051.169.074.251a6.94 6.94 0 0 0 .112-.071z" fill-rule="evenodd" clip-rule="evenodd" fill="#121111"/></svg>