<svg xmlns="http://www.w3.org/2000/svg" width="32" height="32" viewBox="0 0 32 32"><path d="M27.292 10.175a.603.603 0 0 0-.283-.134c-.29-.455-.65-.425-1.049-.156l.007.005.003.002c0-.002 0 0 0 0l-.003-.002c-.002 0-.002.002-.005.002-.296-.046-.379.271-.596.365-.453-.036-.908-.074-1.377-.113.467-1.141 1.288-1.169 2.354-.704-.271-.437-.482-.66-.563-.924-.359-1.187-.937-.87-1.618-.293-.848.713-1.415 1.743-2.534 2.166-.183.069-.271.398.149.746.84.695 2.091-.463 2.706.735.108-.086.271-.151.315-.264.354-.903.943-.49 1.167-.055.729 1.407.889.458 1.155-.219a.41.41 0 0 0 .203-.036c.129-.075.054-.247.011-.403.071-.272.144-.545-.042-.718zM8.789 22.926c3.232.351 5.719-1.414 8.069-3.114 2.549-1.843 4.627-4.323 7.56-5.679.312-.144.792-.259.55-.937-.879.635-2.054.5-2.342-.266-.671-1.764-1.153-1.36-2.388-.474-.979.698-.949 1.475-.992 2.329-.009.171.523.217-.035.596-1.721 1.16-3.46 1.792-5.504.937-.438-.182-1.184.02-1.047.347.27.648.851 1.445 1.45 1.598.51.129 1.072.384 1.469.307-1.078 1.237-3.091 1.162-4.129 2.798-.324.515-1.256.752-2.008.658a1.016 1.016 0 0 1-.905-1.014c-.013-.725.478-.118.708-.216.25-.107.637-.156.594-.507-.026-.211-.311-.329-.594-.322-.973.026-1.865-.224-2.704-.934-.265 1.179.721 1.811.802 2.745.075.826.667 1.062 1.446 1.148z" fill-rule="evenodd" clip-rule="evenodd" fill="#121111"/><path d="M6.626 19.348c.553.122.543-.396.593-.776.044-.321.252-.57.529-.631.607-.135.59-.444.435-.937-.185-.577-.717-.584-1.103-.811-1.288.394-.939 1.305-.689 2.159.098.337-.329.871.235.996zM8.454 16.677c1.391-.108 1.042-1.511 1.473-2.054-.584.397-1.372.879-1.473 2.054zM29.155 10.398l-.102-.183c-.03.031-.09.069-.086.094.018.067.058.13.089.192.032-.031.061-.064.099-.103z" fill-rule="evenodd" clip-rule="evenodd" fill="#121111"/></svg>