<svg xmlns="http://www.w3.org/2000/svg" width="32" height="32" viewBox="0 0 32 32"><path d="M12.531 20.77c.034.347.418.701.878.655 1.011-.101 1.453.577 1.932 1.283.467.687 1.003 1.328 1.527 1.977.643.795 1.316.767 2.162.213 2.067-1.347 1.914-3.72 2.701-5.653.063-.153-.149-.451-.283-.648-.931-1.369-.679-3.019-1.084-4.513-.125-.456.222-.743.549-.948 1.194-.76 2.406-1.49 3.933-2.429-.144 2.637.05 4.893.828 7.09.544 1.54 1.455 2.281 3.084 2.161.93-.069 1.472-.379.719-1.345-.458-.588-.506-1.296-.484-1.962.063-1.85-.686-3.421-1.487-5.001-.342-.677-.752-1.129-1.58-1.019-.58.078-.873-.04-.807-.785.119-1.354-.227-1.568-1.455-1.004-1.65.757-3.23 1.631-4.591 2.867-1.537 1.396-3.317 2.396-5.203 3.271-1.617.752-3.335.717-5.501.894 2.443 1.155 3.928 2.524 4.162 4.896z" fill-rule="evenodd" clip-rule="evenodd" fill="#121111"/></svg>