<svg xmlns="http://www.w3.org/2000/svg" width="32" height="32" viewBox="0 0 32 32"><path d="M25.662 16.74c-.033-.023-.068-.098-.056-.132.487-1.248-.55-1.114-1.121-1.071-1.641.123-1.807-.704-1.759-2.072.031-.91.106-2.227-1.31-2.368a3.595 3.595 0 0 1-1.714-.587 7.805 7.805 0 0 0-2.388-.998c-1.6-.37-2.452-1.277-2.462-2.871-.01-1.577-.224-1.751-1.741-1.279-.408.127-.764.417-1.153.612-1.125.566-2.105 1.568-3.582 1.091.102 1.084 1.379 1.797 1.05 2.598-.992 2.401-.029 5.087-1.245 7.419-.06.115.09.369.188.53 1.396 2.342 1.227 5.169 2.357 7.595.169.36-.137.944.488 1.091.56.13.862-.233 1.221-.604 1.112-1.147 3.001-.982 4.054.411.295-.795.642-1.532 1.479-1.247 1.506.517 1.539-.547 1.595-1.424.063-1.004.463-1.926 1.179-2.388 1.679-1.08 4.05-.688 5.457.656.057-.07.149-.133.161-.209.015-.087-.088-.195-.066-.273.422-1.583 1.239-3.219-.632-4.48z" fill-rule="evenodd" clip-rule="evenodd" fill="#121111"/></svg>