<svg xmlns="http://www.w3.org/2000/svg" width="32" height="32" viewBox="0 0 32 32"><path d="M20.556 10.582c-.456.128-.767.161-.689-.469.21-1.704-.374-2.461-2.077-2.658-.291-.036-.64.063-.824-.196-1.35-1.91-3.59-1.427-5.426-2.016-1.05-.339-1.613.108-1.592 1.33.055 3.099.033 6.197.005 9.296-.008.665.117 1.088.828 1.307.668.203 1.261.605 1.259 1.436-.003 2.109.15 4.237-.104 6.314-.146 1.189-.008 1.533 1.141 1.387.291-.036.589-.005.884-.005.245 0 .505.05.735-.01 1.064-.264 2.788.55 2.706-1.629-.007-.221.205-.144.327-.186 1.542-.499 2.284-1.846 2.729-3.155.295-.867.753-1.356 1.414-1.42 1.789-.165 2.294-1.488 2.469-2.813.148-1.124.637-1.872 1.389-2.558.632-.576.812-1.264.42-1.98-.45-.825-4.612-2.245-5.594-1.975z" fill-rule="evenodd" clip-rule="evenodd" fill="#121111"/></svg>