<svg xmlns="http://www.w3.org/2000/svg" width="32" height="32" viewBox="0 0 32 32"><g fill="#141313"><path d="M5.404 5.088v.591c.452.26.829.885 1.411.614.894-.415 2.101.07 2.756-1.009.217-.354.515-.135.733.075.566.542 1.004 1.117.341 1.891-.367.427-.117.703.243.952.269.186.528.241.792-.014.591-.576.564-2.282-.017-2.906-.327-.348-.826-.55-.949-1.078H8.649c-.35.375-.803.288-1.244.269-.74-.034-1.438.072-2.001.615zM22.522 25.453h.589c1.011-.354 2.337-.562 2.367-2.049.008-.385.123-.726-.427-.898-.41-.127-.689.122-.714.517-.028.415.214.629-.751.644-1.267.022-1.439.756-1.064 1.786zM26.676 22.098c.05.394.412.495.655.368.783-.414 1.518.098 2.274.035v-.884c-.78-.298-1.282-.848-2.409-.187-.352.209-.572.274-.52.668zM7.591 13.06c.826.471 1.212 1.273 1.549 2.07.213.507.49.689.973.642.607-.06.609-.528.627-1.211-.55-1.088-.598-2.58-1.453-3.79-.271-.384-.562-.713-1.057-.622-.596.111-.289.583-.341.937-.046.317-.245.644-.464.892-.406.46-.283.825.166 1.082zM13.139 10.158c.451.156 1.277.351 1.035.975-.303.786-.146 1.42.514 1.468.685.053.436-.917.788-1.402.185-1.066-.846-1.662-1.725-2.164-.528-.3-.938-.295-1.205.257-.275.576.104.698.593.866zM20.575 19.163c.201.177.578.158.607.562-.132.117-.268.262-.426.375-.28.199-.405.511-.213.749.276.344.603.11.896-.092.614-.425 1.201-.845 1.078-1.738-.252-1.821-.848-.306-1.393-.776-.238-.206-.553-.187-.74.145-.172.308-.024.58.191.775zM17.306 15.943c.229.967.413 1.971 1.407 2.503.161.087.373.212.507.166.135-.045.202-.286.325-.484-.733-1.171-1.211-1.946-1.641-2.6-.052-.077-.332-.12-.387-.062-.118.118-.243.336-.211.477zM16.914 14.191c-.043.413.526.293.849.22.117-.023.338-.158.3-.283-.557-1.811-1.509-2.246-1.578-2.241-.091.03-.232.03-.267.09-.512.946.786 1.328.696 2.214zM25.479 20.64c.243.154.507-.153.534-.55-.759-1.473-.469-.505-1.471-.653a.444.444 0 0 0-.502.55c.18.775.976.36 1.439.653zM14.87 15.821c.154.673.785.788 1.312.966.255.084.533-.178.439-.415-.221-.582-.756-.836-1.263-1.017-.338.03-.55.19-.488.466zM11.565 11.04c-.033-.442-.355-.572-.711-.589-.403-.017-.845.082-.918.545-.072.438.322.567.678.579.407.015.776-.098.951-.535zM19.568 14.505c.02.327.156.602.521.541.379-.063.521-.395.607-.732-.075-.324-.245-.574-.589-.538-.407.04-.56.338-.539.729z"/></g><g fill="none"><path d="M5.404 5.088v.591c.452.26.829.885 1.411.614.894-.415 2.101.07 2.756-1.009.217-.354.515-.135.733.075.566.542 1.004 1.117.341 1.891-.367.427-.117.703.243.952.269.186.528.241.792-.014.591-.576.564-2.282-.017-2.906-.327-.348-.826-.55-.949-1.078H8.649c-.35.375-.803.288-1.244.269-.74-.034-1.438.072-2.001.615zM22.522 25.453h.589c1.011-.354 2.337-.562 2.367-2.049.008-.385.123-.726-.427-.898-.41-.127-.689.122-.714.517-.028.415.214.629-.751.644-1.267.022-1.439.756-1.064 1.786zM26.676 22.098c.05.394.412.495.655.368.783-.414 1.518.098 2.274.035v-.884c-.78-.298-1.282-.848-2.409-.187-.352.209-.572.274-.52.668zM7.591 13.06c.826.471 1.212 1.273 1.549 2.07.213.507.49.689.973.642.607-.06.609-.528.627-1.211-.55-1.088-.598-2.58-1.453-3.79-.271-.384-.562-.713-1.057-.622-.596.111-.289.583-.341.937-.046.317-.245.644-.464.892-.406.46-.283.825.166 1.082zM13.139 10.158c.451.156 1.277.351 1.035.975-.303.786-.146 1.42.514 1.468.685.053.436-.917.788-1.402.185-1.066-.846-1.662-1.725-2.164-.528-.3-.938-.295-1.205.257-.275.576.104.698.593.866zM20.575 19.163c.201.177.578.158.607.562-.132.117-.268.262-.426.375-.28.199-.405.511-.213.749.276.344.603.11.896-.092.614-.425 1.201-.845 1.078-1.738-.252-1.821-.848-.306-1.393-.776-.238-.206-.553-.187-.74.145-.172.308-.024.58.191.775zM17.306 15.943c.229.967.413 1.971 1.407 2.503.161.087.373.212.507.166.135-.045.202-.286.325-.484-.733-1.171-1.211-1.946-1.641-2.6-.052-.077-.332-.12-.387-.062-.118.118-.243.336-.211.477zM16.914 14.191c-.043.413.526.293.849.22.117-.023.338-.158.3-.283-.557-1.811-1.509-2.246-1.578-2.241-.091.03-.232.03-.267.09-.512.946.786 1.328.696 2.214zM25.479 20.64c.243.154.507-.153.534-.55-.759-1.473-.469-.505-1.471-.653a.444.444 0 0 0-.502.55c.18.775.976.36 1.439.653zM14.87 15.821c.154.673.785.788 1.312.966.255.084.533-.178.439-.415-.221-.582-.756-.836-1.263-1.017-.338.03-.55.19-.488.466zM11.565 11.04c-.033-.442-.355-.572-.711-.589-.403-.017-.845.082-.918.545-.072.438.322.567.678.579.407.015.776-.098.951-.535zM19.568 14.505c.02.327.156.602.521.541.379-.063.521-.395.607-.732-.075-.324-.245-.574-.589-.538-.407.04-.56.338-.539.729z"/></g></svg>