<svg xmlns="http://www.w3.org/2000/svg" width="32" height="32" viewBox="0 0 32 32"><path d="M28.146 15c-1.683-1.715-3.426-2.596-5.594-2.087-1.144.269-2.119.015-3.112-.462-.837-.4-1.682-.787-2.537-1.146-1.173-.49-2.274-.372-3.339.37-.557.389-1.195.665-1.813.961-1.435.682-2.451 1.749-3.091 3.202a32.7 32.7 0 0 1-1.229 2.5c-.645 1.18-.093 2.549 1.236 2.657.828.063 1.511.363 2.195.717.766.396 1.573.688 2.401.497 1.366-.316 2.62.021 3.876.438.666.218 1.372.379 2.028.245 2.195-.455 4.368-.352 6.578-.118 1.531.16 2.299-.73 2.389-2.313.076-1.356-.249-2.646-.746-3.869-.333-.819-.311-1.322.758-1.592z" fill-rule="evenodd" clip-rule="evenodd" fill="#121111"/></svg>