<svg xmlns="http://www.w3.org/2000/svg" width="32" height="32" viewBox="0 0 32 32"><path d="M7.081 23.201c-.006.563.167.944.564 1.406.802.93 1.673 1.932.99 3.386-.256.543-.095.971.703 1.071 1.533.191 3.433-.848 3.988-2.493.441-1.307 1.02-1.502 2.141-.726 1.135.786 3.093 1.317 3.613.438.957-1.62 2.827-2.354 3.453-4.126.171-.483.387-.873.867-1.11 1.3-.645 2.104-1.972 3.554-2.464 1.21-.411.521-1.082-.058-1.502-.332-.241-.82-.292-1.25-.365-.794-.134-1.322-.728-1.334-1.365-.025-1.383-1.04-1.9-1.93-2.416-1.972-1.142-2.548-3.148-3.4-5.003h-1.18c-1.146.117-1.983 2.027-3.429.57-.161-.162-.662-.018-.998.034-1.063.166-2.118.437-3.187.509-.778.054-.957.332-.941 1.06.046 2.113-.027 4.229.037 6.34.027.899-.219 1.294-1.142 1.139-.828-.14-1.107.204-1.072 1.047.062 1.521.027 3.047.011 4.57z" fill-rule="evenodd" clip-rule="evenodd" fill="#121111"/></svg>