<svg xmlns="http://www.w3.org/2000/svg" width="32" height="32" viewBox="0 0 32 32"><path d="M28.369 18.35c.284-.423-.458-1.131-.723-1.163-.9-.109-1.203-.879-1.698-1.349-.769-.729-1.587-1.492-1.371-2.852.188-1.177-.346-2.188-1.71-2.311-.793-.069-1.427.096-2.313-.446-1.731-1.063-3.86-.171-5.164.92-.889.744-1.813 1.964-2.439 3.116-.373.688-.747 1.112-1.379 1.53-1.085.719-2.266.774-3.459.779-.137.754.245 1.297.446 1.89.186.548.644 1.295.2 1.654-.892.724-1.782.949-.613 2.441.771.981.438 1.376 1.718.453.265-.189.51-.235.803-.264 3.507-.349 6.768 1.098 10.188 1.404.896.08 1.919-.583 2.697.373.097-.092.284-.192.277-.271-.243-1.945 1.128-2.077 2.721-2.186-.698-.63-.316-1.396-.639-1.991-.488-.898-.865-1.588.719-.937.748.309 1.401-.291 1.739-.79z" fill-rule="evenodd" clip-rule="evenodd" fill="#121111"/></svg>