<svg xmlns="http://www.w3.org/2000/svg" width="32" height="32" viewBox="0 0 32 32"><path d="M21.42 7.422c.236-.837.33-1.74-1.044-1.645-.337.024-.735.039-.858-.385-.094-.319.193-.83-.506-.767-.543.049-.757.45-.903.849-.432 1.172-1.323 2.051-1.922 3.114-.334.602-.804.995-1.558.502-1.077-.703-1.339-.148-1.377.882-.158 4.307-.351 8.613-.53 12.918h-.034c0 .54-.063 1.091.019 1.616.07.437-.427 1.2.459 1.252.682.04 1.489.477 1.947-.669.33-.821.974-1.714 1.726-2.127 2.803-1.546 3.37-4.069 3.156-6.867-.14-1.823.415-3.545.387-5.342-.021-1.181.722-2.209 1.038-3.331z" fill-rule="evenodd" clip-rule="evenodd" fill="#121111"/></svg>