<svg xmlns="http://www.w3.org/2000/svg" width="32" height="32" viewBox="0 0 32 32"><path d="M25.72 17.914c-.877-.854-1.351-1.945-.61-3.192.18-.303.324-.653.053-.957-1.3-1.447-2.717-2.739-4.595-3.287.816-1.515 2.08-2.595 3.663-3.341.466-.219 1.107-.418 1.022-1.094-.084-.655-.838-.328-1.195-.633h-3.836c-.793.244-1.624.199-2.434.314-1.835.262-2.855 1.39-2.697 3.19.094 1.071-.355 1.367-1.287 1.5-1.287.183-2.491-.021-3.739-.362-1.54-.424-2.294.441-1.866 1.964.271.264.691.215.982.431-.398-.202-.86-.245-1.254-.459-1.216.146-2.442.216-3.642.506v4.428c1.271.761 2.121 1.897 2.928 3.115.694 1.052 1.846 1.402 3.086 1.41 1.617.012 3.236-.003 4.855.007 1.692.012 3.333.142 4.182 1.96h.295c1.15-.331 2.36-.521 3.303-1.357.292-.262.021.143.122.099.076.303.26.555.54.644 1.326.431 2.104-1.121 3.396-.958.401.05.472-.41.451-.773-.234-1.239-.797-2.255-1.723-3.155zm-5.995.601c-.699-.323-1.439-.57-2.09-.966-.403-.245-1.325-.437-.81-1.15.331-.452.764-1.175 1.769-.7 1.065.51 2.143.831 2.089 2.385-.114.355-.364.706-.958.431zm-.005-3.683c-.324-.235.308-1.412.573-1.185.34.287.735.365 1.12.685-.686-.129-.982 1.022-1.693.5z" fill="#141313"/></svg>