<svg xmlns="http://www.w3.org/2000/svg" width="32" height="32" viewBox="0 0 32 32"><path d="M21.408 27.498c.375.034.747.137 1.04-.308.324-.496.063-.815-.189-1.165-.539-.743-1.475-1.068-1.994-2.226-.23.804-.391 1.216-.461 1.644-.166.996.597 1.963 1.604 2.055zM8.313 10.91c.879-.209 1.521-.717 2.006-1.39-.243-.605-.689-1.055-1.117-.838-.678.342-1.881.176-1.813 1.451.029.547.249.938.924.777zM27.58 16.596c-1.167-.254-.766.855-.998 1.328-.27.546.389.812.764.809.711-.005 1.417-.317 1.46-1.146.036-.715-.514-.991-1.226-.991zM15.531 14.363c.609-1.043 1.647-.047 2.474-.603-.81-.802-1.811-.377-2.599-.786-.279-.145-.615.116-.531.457.099.388.586 1.052.656.932zM14.983 28.301c.579-.024.864-.346.881-.917-.182-.423-.215-1.02-.896-.898-.533.097-1.095.336-1.007.981.066.469.443.857 1.022.834zM24.749 25.695c.495-.044.655-.351.603-.843.036-.434-.17-.745-.647-.742-.563.004-.498.473-.548.851-.059.46.035.786.592.734zM9.424 11.616c.002.353.434.455.823.457.313-.063.831.071.766-.527-.035-.32-.216-.715-.644-.632-.4.077-.948.182-.945.702zM26.976 13.621c.238-.788.262-1.441-.067-2.027-.118-.209-.502.013-.576.214-.263.695-.054 1.263.643 1.813z" fill-rule="evenodd" clip-rule="evenodd" fill="#121111"/></svg>