<svg xmlns="http://www.w3.org/2000/svg" width="32" height="32" viewBox="0 0 32 32"><path d="M7.137 20.809c.665-.228 1.457-.062 2.192-.102.822-.044 1.371-.045 1.611 1.087.327 1.541 2.131 1.967 2.878.746.621-1.012 1.17-.205 1.743-.239.773-.044.803.684.707 1.013-.36 1.213.485 2.157.453 3.352 1.338-.577 2.39-.279 3.394.523.318.254.844.47 1.214.396 1.124-.222 1.844.223 2.404 1.118.229.372.545.579.984.373.357-.167.438-.489.418-.864-.026-.497-.294-.442-.692-.45-.72-.014-.929-.517-.859-1.202.069-.665.372-1.293.164-2.015-.075-.259.287-.929.476-.938 2.229-.111 1.198-.996.559-1.946-.466-.691-.53-1.567-.514-2.407a34.49 34.49 0 0 1 .123-2.155c.137-1.666.297-3.467 1.479-4.636.97-.959.489-1.822.305-2.593-.161-.661-.947-1.268-1.871-1.077-.91.187-1.565-.174-2.099-.863H20.14c-.62.517-1.448.193-2.135.564-1.275.688-2.5.764-3.824-.167-.548-.385-1.363.25-1.398 1.051-.066 1.651-.733 3.108-1.311 4.597-.479 1.231-1.355 2.271-1.307 3.759.02.567-.349 1.832-1.736 1.207-.438-.197-1.129.065-1.667.229-.36.11-.934.208-.642.886.197.46.12 1.059 1.017.753z" fill-rule="evenodd" clip-rule="evenodd" fill="#121111"/></svg>