<svg xmlns="http://www.w3.org/2000/svg" width="32" height="32" viewBox="0 0 32 32"><path d="M11.211 28.355c.221.745.65.809 1.232.216.647-.662 1.376-1.083 2.214-.188.353.374.869.407 1.146-.041.406-.655 1.101-.556 1.652-.838.195.435-.165 1.079.419 1.292.655.239.914-.385 1.297-.745.497-.468.984-.984 1.57-1.309.891-.493 1.272-1.253 1.246-2.164-.038-1.347.075-2.536 1.072-3.627.514-.562.84-1.243 1.585-1.638.682-.363 1.044-.942 1.205-1.847.476-2.705.291-5.584 1.869-8.034.339-.523.148-1.015-.1-1.501h-3.244c-.372.641-1.494-.12-1.588.666-.17 1.41-1.066 2.551-1.231 3.859-1.956-.565-3.92-1.064-6.001-.913-1.248.09-.972.98-.931 1.739.056 1.037.699.511 1.134.382.672-.197 1.169-.239 1.577.535.404.762 0 .973-.484 1.395-.594.519-1.055 1.254-.284 1.999 1.016.981 1.444 2.721.714 3.921-.135.219.105 2.26-1.208.653-.032-.036-.199-.019-.25.03-1.096 1.016-1.58.158-2.145-.646-.269-.38-.789-.465-.824.138-.055.932-.469.991-1.242.872-1.009-.156-1.15.551-.866 1.253.118.288.194.626.384.91.365.545.494.957-.473.7-.392-.104-.721.254-.937.592-.266.411.139.596.316.868.348.526.977.791 1.176 1.471z" fill-rule="evenodd" clip-rule="evenodd" fill="#121111"/></svg>