<svg xmlns="http://www.w3.org/2000/svg" width="32" height="32" viewBox="0 0 32 32"><path d="M11.514 25.772c.271-2.229 1.554-2.439 3.265-2.04.478.112.746-.218.835-.849.25-1.728 1.329-2.167 2.631-1.118.406.328.819.515 1.29.605 1.144.219 2.124-.061 3.281-.407 1.864-.559 3.905-1.424 6.03-.8.301.088.976-.12.995-.262.058-.393 0-.901-.474-1.122-.609-.285-.79-.991-1.184-1.328-.976-.829-1.653-1.943-2.751-2.649-.833-.537-1.99-.829-1.635-2.399.211-.931-.716-1.768-1.534-2.119-.762-.326-1.314.317-1.853.998-.925 1.167-1.962 2.359-3.741 2.176-.213-.021-.633.117-.641.208-.199 2.385-2.57 1.076-3.547 2.104-3.038-.525-4.59 3.08-3.273 5.532.64 1.189 1.955 1.895 2.306 3.47z" fill-rule="evenodd" clip-rule="evenodd" fill="#121111"/></svg>