<svg xmlns="http://www.w3.org/2000/svg" width="32" height="32" viewBox="0 0 32 32"><path d="M9.977 23.02c1.101 1.09 2.289 2.211 1.046 3.991-.209.3-.022.866-.054 1.307-.064.854.296.9.952.563 4.136-2.125 8.484-3.045 13.135-2.406.594.082 1.382.452 1.799-.318.377-.7.065-1.267-.58-1.708-.164-.112-.14-.464-.262-.671-1.319-2.227-.07-4.269.858-6.027.824-1.562.86-2.757.36-4.322-.943-2.959-2.25-3.449-4.69-2.486-1.53.604-2.291.17-3.064-1.058-.562-.893-1.751-1.415-2.506-.909-1.987 1.334-1.19-.318-1.297-1.044h-.886c-.103.538-1.208.189-.941 1.058-.653.158-1.16.877-1.994.348-1.063-.673-2.718.236-2.648 1.491.091 1.612.742 3.097 1.419 4.551-.112.103-.211.061-.357.033-.459-.089-1.04-.348-1.361.106-.296.415.257.718.391 1.055.212.535.133 1.486-.591 1.647-.685.153-.66.311-.42.792.557 1.107.375 2.079-.566 2.818.559.882 1.662.6 2.257 1.189z" fill-rule="evenodd" clip-rule="evenodd" fill="#121111"/></svg>