<svg xmlns="http://www.w3.org/2000/svg" width="32" height="32" viewBox="0 0 32 32"><path d="M18.176 6.437c-.221-.375-.108-1.21-.589-1.179-.687.045-.235.766-.199 1.206-.39 2.591-.665 5.209-1.21 7.77-.313 1.472-1.03 2.811-.315 4.393.221.485.257 1.4-.604 1.761-.344.142-.673.306-.229.709.377.343.175.717.055 1.087-.451 1.369.712 3.793 2.009 4.076.331.072.929.36 1.006-.41.077-.767-.108-1.458-.956-1.523-1.042-.078-1.445-1.177-1.243-1.491 1.431-2.229.148-4.774.995-7.059.421-1.139.75-2.371.429-3.673-.102-.405.175-.94.367-1.379.614-1.382 1.425-2.698.484-4.288z" fill-rule="evenodd" clip-rule="evenodd" fill="#121111"/></svg>