<svg xmlns="http://www.w3.org/2000/svg" width="32" height="32" viewBox="0 0 32 32"><path d="M10.534 24.456c1.199.786 1.92 1.71 1.585 3.228-.096.432.227.597.632.591.639-.007 1.292.075 1.914-.03 3.117-.525 6.13.043 9.14.734.021-.995.299-2.038-.777-2.872-1.183-.917-1.634-2.34-2.012-3.737-.348-1.287.403-2.305 1.093-3.21 1.001-1.317.321-2.233-.488-3.175-.283-.33-.694-.546-1.006-.856-.267-.265-.707-.519-.572-.952.183-.586.741-.312 1.147-.334.517-.029 1.037-.007 1.815-.007-1.751-1.787-.757-4.196-2.041-5.903h-1.181c.404.39.084 1.077.603 1.43 1.113.757.523 1.378-.248 1.818-.506.289-.938.642-1.091 1.134-.774 2.486-2.627 4.409-3.511 6.838-.233.64-.646 1.54-1.42.309-.15-.239-.393-.277-.749-.233-1.519.184-2.385 1.218-2.93 2.416-.38.838-1.168 1.982.097 2.811z" fill-rule="evenodd" clip-rule="evenodd" fill="#121111"/></svg>