<svg xmlns="http://www.w3.org/2000/svg" width="32" height="32" viewBox="0 0 32 32"><path d="M8.205 19.343c-.005.074.212.188.343.248 1.556.688 3.04 1.646 4.887.67.308-.163 1.776-.207 1.153 1.202-.283.64.468.86.686 1.306.167.338.515.17.916-.077.967-.597 1.709-.145 2.16 1.082.038.104.206.248.282.231.173-.039.463-.156.468-.255.052-1.09.951-1.007 1.637-1.24 1.538-.519 2.75-2.617 2.022-3.748-.558-.87-.528-1.384.55-1.815-.349-.157-.474-.229-.608-.27-.27-.086-.802.248-.721-.353.027-.198.395-.983.82-.133.017.036.245-.002.354-.051 1.801-.804 3.558-1.662 4.334-3.866-1.463.23-2.257-.38-2.793-1.509-.415-.874-1.702-1.292-2.161-.701-.389.499-.328 1.302-1.118 1.562-1.153.377-.576.813-.007 1.227-.056.065-.097.157-.167.195-1.035.579-2.014 1.381-3.127 1.671-1.541.406-3.1.188-4.544-.754-.617-.401-1.15-.701-1.557-1.381-.483-.807-3.123.005-3.353 1.225-.229 1.219-.881 1.455-1.797 1.712-.539.15-.772.384-.411 1.058.518.967 1.857 1.409 1.752 2.764z" fill-rule="evenodd" clip-rule="evenodd" fill="#121111"/></svg>