<svg xmlns="http://www.w3.org/2000/svg" width="32" height="32" viewBox="0 0 32 32"><path d="M23.865 13.119c-.995-.342-2.118.389-2.774-.325-.696-.757-1.398-.889-2.313-.859-.703.02-1.424-.127-1.192-1.155.073-.339-.172-.538-.309-.788-.852-1.561-.463-2.846 1.144-3.857.284-.177.928-.18.596-.759-.305-.528-.818-.318-1.129-.002-.742.761-1.614 1.112-2.656 1.272-.838.13-1.789.425-1.912 1.464-.127 1.085-.994 1.483-1.667 2.025-.554.45-1.092 1.556-.804 2.178.61 1.32.226 2.73.31 4.092.041.622-.773 1.017-1.321 1.441-.278.216-1.066.829-.464 1.35.714.615 1.622 1.382 2.46 1.4 2.111.048 3.346 1.28 4.429 2.74.426.572.808.716 1.408.666.478-.039.96-.118 1.434-.08.809.064 1.514.257.698 1.259-.372.462-.11.685.329.831.178.061.423.442.515-.024.271-1.376 1.251-3.122.379-4.071-1.1-1.197 1.093-2.029-.117-2.874-.028-.022.389-.166.624-.188.708-.063 1.394-.026 2.119-.337.437-.189.583-.076.435-.606-.442-1.563-1.288-3.112-.222-4.793z" fill-rule="evenodd" clip-rule="evenodd" fill="#121111"/></svg>