<svg xmlns="http://www.w3.org/2000/svg" width="32" height="32" viewBox="0 0 32 32"><path d="M27.087 14.738c-.704-.099-1.099-.625-1.523-1.081-1.947-2.106-4.086-4.088-4.702-7.179-1.267 1.44-2.618 1.397-3.922.203-.874-.799-2.101-1.302-3.191-.907-.988.357-1.75.303-2.637-.063-1.542-.636-3.153-1.63-4.371.532-.057.101-.256.122-.388.18v.296c.534.609 2.126.571 1.168 2.087-1.342 2.123-.657 3.908 1.744 4.629.442.134.794.3 1.112.634.926.972 1.562.826 2.329-.263.339-.482-.45-.943.164-1.292.597.255 1.358.622 1.28 1.247-.184 1.463.827 1.537 1.739 1.827a11.819 11.819 0 0 1 4.172 2.347c.678.587.973 1.328.612 2.236-.613 1.542-.428 1.856 1.262 2.255.319.075.706.392.937.054.26-.382-.077-.724-.361-1.009-.137-.14-.255-.296-.382-.445.075-.066.149-.134.224-.203.62.142 1.361.37 1.381 1.032.033 1.129.799 1.662 1.453 2.327l.171.373c.262-.156.162-.363.078-.566-.251-.567-1.031-1.11.112-1.662.485-.236.354-.88.104-1.322-.303-.537-.219-.953.298-1.239.956-.528.416-.925-.123-1.236-1.121-.651-.61-1.689-.499-2.5.098-.719.755-1.031 1.526-.505.212.144.505-.026.592-.276.093-.275-.114-.478-.359-.511zm-16.339-3.334c.01-.048.021-.096.03-.146l-.03.149v-.003l-.102-.154c.034.054.068.104.102.154zm.034.063c.889-.063 1.458.396 1.824 1.179-.366-.783-.935-1.239-1.824-1.179z" fill-rule="evenodd" clip-rule="evenodd" fill="#121111"/></svg>