<svg xmlns="http://www.w3.org/2000/svg" width="32" height="32" viewBox="0 0 32 32"><path d="M20.913 15.036c-.808-.648-1.375-1.639-2.66-.923-.344.192-.73-.137-1.05-.389-1.736-1.372-3.797-1.304-5.804-1.127-1.875.168-3.708.642-4.502 2.621.921.216 1.784-.039 3.401-1.185.653-.463 1.541-.826 1.846-.055.289.734.714.605 1.158.754 2.159.723 4.748.413 6.282 2.647.235.343.684.323 1.086.321.332-.003.747-.09.918.292.205.455-.284.541-.515.747-.196.177-.35.337-.161.783 2.184-.713 4.58.296 7.077-.864-1.494-.761-2.693-1.578-4.018-1.986a9.1 9.1 0 0 1-3.058-1.636z" fill-rule="evenodd" clip-rule="evenodd" fill="#121111"/><path d="M10.537 16.2c.3-.057.723-.11.625-.571-.069-.334-.274-.627-.703-.607-.496.031-.41.495-.479.762-.103.4.266.472.557.416z" fill-rule="evenodd" clip-rule="evenodd" fill="#121111"/></svg>