<?xml version="1.0" encoding="iso-8859-1"?>
<!-- Generator: Adobe Illustrator 16.0.0, SVG Export Plug-In . SVG Version: 6.00 Build 0)  -->
<!DOCTYPE svg PUBLIC "-//W3C//DTD SVG 1.1//EN" "http://www.w3.org/Graphics/SVG/1.1/DTD/svg11.dtd">
<svg version="1.1" id="Layer_1" xmlns="http://www.w3.org/2000/svg" xmlns:xlink="http://www.w3.org/1999/xlink" x="0px" y="0px"
	 width="32px" height="32px" viewBox="0 0 32 32" style="enable-background:new 0 0 32 32;" xml:space="preserve">
<path style="fill-rule:evenodd;clip-rule:evenodd;fill:#121111;" d="M20.913,15.036c-0.808-0.648-1.375-1.639-2.66-0.923
	c-0.344,0.192-0.73-0.137-1.05-0.389c-1.736-1.372-3.797-1.304-5.804-1.127c-1.875,0.168-3.708,0.642-4.502,2.621
	c0.921,0.216,1.784-0.039,3.401-1.185c0.653-0.463,1.541-0.826,1.846-0.055c0.289,0.734,0.714,0.605,1.158,0.754
	c2.159,0.723,4.748,0.413,6.282,2.647c0.235,0.343,0.684,0.323,1.086,0.321c0.332-0.003,0.747-0.09,0.918,0.292
	c0.205,0.455-0.284,0.541-0.515,0.747c-0.196,0.177-0.35,0.337-0.161,0.783c2.184-0.713,4.58,0.296,7.077-0.864
	c-1.494-0.761-2.693-1.578-4.018-1.986C22.809,16.315,21.813,15.757,20.913,15.036z"/>
<path style="fill-rule:evenodd;clip-rule:evenodd;fill:#121111;" d="M10.537,16.2c0.3-0.057,0.723-0.11,0.625-0.571
	c-0.069-0.334-0.274-0.627-0.703-0.607c-0.496,0.031-0.41,0.495-0.479,0.762C9.877,16.184,10.246,16.256,10.537,16.2z"/>
</svg>
