<svg xmlns="http://www.w3.org/2000/svg" width="32" height="32" viewBox="0 0 32 32"><path d="M11.361 19.897c.677.137 1.333.337 2.016.24.722-.099 1.275-.11 1.717.687.306.556.978.769 1.199-.201.188-.841.769-1.004 1.507-1.104 1.504-.205 3.168-.313 4.212-1.485 1.544-1.735 3.254-2.678 5.605-2.334.331.048.925.071.938-.44.015-.477-.387-.703-.872-.97-1.141-.624-2.013.079-2.857.428-1.045.433-2.152-.339-3.222.418-.12-.928.011-1.983-1.113-2.054-1.571-.096-3.21-.387-4.665.535-1.037.659-2.074.411-2.861-.255-1.15-.972-2.026-.554-2.963.195-.604.485-1.122 1.063-2.063.729-.713-.255-.53.365-.454.69.523 2.239 1.157 4.372 3.876 4.921z" fill-rule="evenodd" clip-rule="evenodd" fill="#121111"/></svg>