<svg xmlns="http://www.w3.org/2000/svg" width="32" height="32" viewBox="0 0 32 32"><path d="M27.641 18.16c-.17-.597-.584-1.309-1.251-1.49-.5-.134-.958-.535-1.535-.377-.354.097-.648-.144-.696-.394-.274-1.384-1.698-.603-2.356-1.28-.148-.151-.25.202-.204.38.178.688-.591.862-.725.762-.426-.319-.976-.656-1.033-1.153.196-.355.353-.627.166-.706-1.417-.596-2.822-1.354-4.302-1.566-.385-.055-1.014.617-1.596-.108-.093-.115-.54-.12-.667-.004-1.481 1.348-3.354 1.859-5.193 2.39-.538.153-.861 1.062-1.604.495-.24.771.328 1.081.818 1.44.171.125.212.299.16.514-.227.962.424 1.53 1.041 2.016 1.137.894 2.354 1.679 3.514 2.536 1.15.855 2.366.892 3.132-.223.587-.848 1.18-.921 1.879-.499 1.371.825 3.063.218 4.414 1.063.064.04.357-.133.421-.265.24-.519.646-.497 1.112-.454 1.039.099 1.771-.514 2.269-1.28.346-.533.879-.761 1.264-1.188.283-.317 1.144-.003.972-.609z" fill-rule="evenodd" clip-rule="evenodd" fill="#121111"/></svg>