<svg xmlns="http://www.w3.org/2000/svg" width="32" height="32" viewBox="0 0 32 32"><path d="M26.734 15.041c-.807-1.013-.487-2.216-.737-3.305-.134-.585-1.048-.838-.767-1.271 1.41-2.169-1.459-2.987-1.404-4.705.003-.113-.383-.384-.607-.156-.947.959-2.377.88-3.412 1.624-.449.321-.868.298-1.36.067l.642-1.22c-.804.612-1.865.578-2.194-.021-.838-1.53-2.115-.803-3.374-.964 1.057.467.049 1.182.363 1.667.27.416.534.803-.068 1.011-.485.172-.368 1.209-1.431.665-1.288-.657-1.836-.078-1.767 1.384.026.539-.038 1.112-.567 1.41-.24.138-.397.176-.293.499.327 1.021.108 1.433-.893 1.622-.298.058-.79.165-.637.375.798 1.098-.802 2.456.438 3.46.142.116.113.304.08.52-.302 1.986.389 2.89 2.389 3.235.431.074.852.214 1.478.372-.784.812-.984 1.708-1.154 2.631-.165.896.219 1.275 1.025.981 1.213-.441 2.335-.05 3.499.132.438.07.886.63.939.561.883-1.137 2.193.208 3.181-.608.473-.391 1.304-.42 1.964-.091.786.391.867.096.589-.564-.268-.639-.312-.971.517-1.381 1.626-.807 1.568-.974.072-2.134-.347-.266-.758-.466-1.057-.777-.619-.646-1.255-1.809-.635-2.251 1.21-.862 2.778-1.677 4.192-1.667 1.293.009 1.161-.886.989-1.101z" fill-rule="evenodd" clip-rule="evenodd" fill="#121111"/></svg>