<svg xmlns="http://www.w3.org/2000/svg" width="32" height="32" viewBox="0 0 32 32"><path d="M25.697 11.504c-.279-2.379-2.02-3.956-3.343-5.754-.078-.106-.143-.256-.335-.141-1.229.743-2.973.592-3.591 2.41-.602 1.769-.955 1.779-2.505.613-1.532-1.153-1.725-1.11-2.842.515-1.444 2.101-2.583 4.554-4.436 6.199-2.577 2.289-2.344 4.955-2.178 7.788.035.587.139 1.169.187 1.755.106 1.311.822 1.993 2.114 1.777 1.875-.315 3.76-.654 5.582-1.182 1.391-.403 2.598-.508 3.906.284.919.559 1.811.428 2.438-.726.747-1.373 1.687-2.64 2.532-3.96.736-1.151.523-1.675-.798-2.028-1.624-.434-3.187-.208-4.74.367-.677.25-1.358.786-2.245.039 1.365.262 1.885-.716 2.485-1.508.539-.713 1.277-1.044 2.079-1.28 1.579-.464 2.921-1.363 4.231-2.306.96-.692 1.601-1.646 1.459-2.862z" fill-rule="evenodd" clip-rule="evenodd" fill="#121111"/></svg>