<svg xmlns="http://www.w3.org/2000/svg" width="32" height="32" viewBox="0 0 32 32"><path d="M27.002 21.165c-.329-.187-.639-.334-.841.12-.226.507.132.734.522.845.271.077.574.024.862.032v-.887c-.18-.034-.391-.022-.543-.11zM7.667 20.494c.298.132.341.624.223 1.064-.196.731.116 1.01.914 1.248 1.186.354 2.264.104 3.386-.061.497.063.918.015.909-.643.285.006.573.008.861.011.084.192.171.385.257.577l-.696-.016c.005.086-.023.221.02.254.287.2.545.121.766-.131.267-.016.533-.029.8-.042.766 1.275 1.482 1.4 2.47.435.708-.289 1.414-.58 2.116-.865-.35-.629-.85-.271-1.324-.186.076-.828 1.617-1.053.632-2.041-.017-.018.092-.222.13-.219 1.467.129.667-.842.723-1.428.054-.549.072-.996-.646-1.018-.659-.019-1.317.08-1.444.842-.06.363-.057.648-.455.83-.235-1.896-.816-.705-1.372-.19-.248.229-1.105.168-.86.427.592.631.053 1.939 1.084 2.045 1.021.105.991.734 1.13 1.383-.755.229-1.306-.637-2.067-.389-.062-.367-.023-.807-.583-.824-.257-2.02-.507-2.188-2.486-1.75-.168.035-.351.015-.53.015.002-.015 0-.026.002-.044a.043.043 0 0 0 .007-.01c.644-.711.892-1.808 1.667-2.396.024-.019.041-.038.063-.054.109-.076.239-.133.371-.186.039-.017.07-.041.11-.053.181-.061.382-.1.612-.107.327-.018.443-.482.399-.854-.043-.387-.331-.457-.637-.432-1.535.125-1.368-1.107-1.063-1.759.499-1.066.482-2.128.571-3.212h-.005c-.091.004-.185.013-.278.018-.102.008-.201.008-.305.02-.092.012-.177.035-.265.052-.101.02-.207.031-.303.061a2.143 2.143 0 0 0-.378.163c-.04.02-.085.029-.122.051a1.35 1.35 0 0 0-.38.341c-.852 1.17-1.86 1.728-3.293 1.739-.797.008-1.412.521-1.541 1.328-.168 1.045 1.013.313 1.313.857-.364.538-.691-.017-1.016.003-.444.028-.879.117-.764.627.342 1.522-.993 3.518 1.277 4.519z" fill="#121111"/></svg>