<svg xmlns="http://www.w3.org/2000/svg" width="32" height="32" viewBox="0 0 32 32"><path d="M16.492 26.541c.573-.01 1.032-.118 1.296-.49.638-.903 1.389-1.424 2.577-1.316.665.061.762-.631.938-1.138.914-2.628.397-5.327.302-7.984-.038-1.091.496-2.104-.008-3.3-.661-1.574-2.503-2.366-2.609-4.235-.003-.06-.247-.122-.385-.16-.937-.253-1.861-.685-2.845-.548-.796.113-1.214-.24-1.498-.869-.518-1.142-1.589-1.66-2.472-1.025-.676.485-.802 1.739-1.159 2.653-.01.026.125.146.205.161 1.378.264.563 1.098.195 1.369-.675.495-.399.92-.278 1.497.587 2.793 1.943 5.237 3.415 7.628.306.497.389.934.372 1.5-.019.637-.029 1.499.345 1.876 1.028 1.025.031 2.609 1.146 3.526-.707.89.133.737.463.855z" fill-rule="evenodd" clip-rule="evenodd" fill="#121111"/></svg>