<svg xmlns="http://www.w3.org/2000/svg" width="32" height="32" viewBox="0 0 32 32"><path d="M27.348 16.188c-.975-.773-1.949-1.483-3.195-1.724a795.694 795.694 0 0 0-3.428-.648l-.023-.342c.483 0 .965.015 1.447-.005.253-.012.52-.125.538-.403.027-.411-.341-.444-.617-.449-.539-.01-1.081.023-1.617.077-.573.058-1.064-.181-1.141-.694-.189-1.249-.828-1.611-2.015-1.367-.275.059-.61-.29-.935-.343-1.426-.229-2.629-1.376-4.144-1.105-.736.133-1.38.21-2.136.015-1.229-.316-1.856.563-1.907 1.854-.047 1.198 1.046 2.505-.232 3.624-.048.044-.047.212-.003.281.828 1.34-.188 1.725-1.098 2.059.125.972 1.455 1.21 1.286 2.072-.197 1.007.42 1.674.638 2.489.224.837 1.464 1.309 1.81.809.556-.804 1.117-1.621 1.528-2.501.501-1.08 1.797-1.654 2.768-.95.922.67 2.012.547 2.604.045 1.723-1.464 3.645-.726 5.475-.792.576-.021 1.431-.25 1.819.298 1.161 1.638 1.859.129 2.575-.38.699-.498.905-1.204.003-1.92z" fill-rule="evenodd" clip-rule="evenodd" fill="#121111"/></svg>