<svg xmlns="http://www.w3.org/2000/svg" width="32" height="32" viewBox="0 0 32 32"><path d="M17.876 27.226c.202.363 1.973.058 2.772-.662 1.508-1.358 3.281-2.3 4.962-3.391.361-.235 1.027-.303.915-.974-.094-.564-.58-.703-1.054-.891-.93-.368-1.188-1.061-1.093-2.078.229-2.451.175-4.871-1.433-6.978-.304-.398-1.057-.969-.725-1.301 1.058-1.059.445-2.411.875-3.534-1.207-.372-2.395.171-3.575.086-2.532-.182-4.771.534-6.882 1.851-.285.177-.458.251-.28.64.4.876.106 1.92.861 2.915-1.6-.232-2.439.486-3.269 1.501-1.115 1.364-3.207 1.072-4.45 2.325v1.771c3.566 2.196 7.169 4.339 10.322 7.137.633.562 1.535.649 2.054 1.583z" fill-rule="evenodd" clip-rule="evenodd" fill="#121111"/></svg>