<svg xmlns="http://www.w3.org/2000/svg" width="32" height="32" viewBox="0 0 32 32"><path d="M15.31 19.275c-.967.094-.679.564-.385 1.091.189.336.323.703.509 1.116 1.198-.826 2.34-1.646 3.742-2.034 1.346-.375 2.652-.894 3.961-1.389 1.854-.698 3.707-1.429 5.391-2.485.492-.308 1.416-.813 1.116-1.302-.355-.584-1.353-.641-2.138-.591-.271.017-.532.219-.795.344a5.54 5.54 0 0 1-2.401.568c-2.157.008-4.297.145-6.439.526-1.655.294-2.497 1.409-3.364 2.558-.278.37-.292 1.002.565.784.273-.07.637-.277.766.093.132.373-.145.683-.528.721zM11.408 19.734c.115-.301-.165-.497-.413-.389-.766.333-1.901.173-2.185 1.152-.143.493.616.444 1.1.519.848.053 1.225-.578 1.498-1.282z" fill-rule="evenodd" clip-rule="evenodd" fill="#121111"/></svg>