<svg xmlns="http://www.w3.org/2000/svg" width="32" height="32" viewBox="0 0 32 32"><path d="M23.607 9.691c-.521-.188-.94-.467-1.347-.841-.289-.267-.759-.728-1.131-.336-1.051 1.1-2.649.492-3.003.01-1.131-1.554-3.088-1.557-4.312-2.781-.224-.227-.828-.474-.848-.442-.887 1.345-2.601.961-3.726 1.8-.309.231-.328.469-.285.729.188 1.152-.003 2.13-1.048 2.832-.216.144-.319.435-.279.783.085.684-.213 1.224-.884 1.485-.302.12-.614.325-.47.622.812 1.689-1.06 4.314 1.83 5.272.046.016.116.054.116.083.072 1.269.653.696 1.331.353-.51 1.183-1.647 2.051-1.228 3.474.005.02-.332.14-.51.216-.813.351.137.9-.132 1.409-.12.227.446.032.73.009.937-.082 1.86-.054 2.426.972.731 1.331 1.073 1.262 2.159.068.425-.469.562-.928.745-1.482.764-2.337 1.947-4.307 4.615-4.92 3.353-.771 5.068-3.323 6.461-6.172.264-.537-.673-2.953-1.21-3.143z" fill-rule="evenodd" clip-rule="evenodd" fill="#121111"/></svg>