<svg xmlns="http://www.w3.org/2000/svg" width="32" height="32" viewBox="0 0 32 32"><path d="M6.868 17.226c.72-1.43 2.155-1.54 3.302-2.143.298-.159.652-.243.899-.457.249-.216.415-.591.283-.912-.139-.337-.452-.495-.826-.233-.484.342-1.038.007-1.542.156-.018-.355.263-.515.503-.617.347-.151.795-.145.732-.701-.048-.43-.465-.413-.708-.608-1.039-.832-1.532.627-2.415.445.741.354 1.662.495 1.169 1.646-.6.318-1.232.465-1.912.352v1.476c1.503.026.331.932.515 1.596zM27.253 10.233c.133-.063.313-.259.167-.482-.139-.217-.287-.276-.59-.238-1.45.18-2.861.005-4.293-.36-1.17-.295-2.51-.934-3.59-.474-1.883.806-3.956.589-5.845 1.553-1.274.648-1.568 1.277-1.368 2.409.162.92.41 1.832 1.209 2.479.75.605 1.484.137 2.347-.138l-.728 2.436c2.879-.932 3.561-1.037 5.261.151 1.168.819 2.075 1.547 3.724 1.391.928-.086 1.24-.398 1.869-.848.995-.711.444-1.256.27-1.988-.284-1.191-.925-2.565-.188-3.605.536-.757.792-1.823 1.755-2.286z" fill-rule="evenodd" clip-rule="evenodd" fill="#121111"/></svg>