<svg xmlns="http://www.w3.org/2000/svg" width="32" height="32" viewBox="0 0 32 32"><path d="M7.153 15.908c-.122 3.044.017 6.099-.056 9.146-.026 1.084.236 1.425 1.373 1.404 4.026-.075 8.054-.029 12.081-.029h7.4c-1.017-1.358-2.981-1.884-2.237-3.881.039-.105-.344-.33-.464-.537-1.242-2.135-2.435-4.295-3.288-7 1.401.852 1.323.819 1.796-.343.661-1.621.684-3.136-.084-4.747-.341-.713-.5-1-1.349-.695-.653.235-1.52.331-2.132-.085-1.714-1.165-3.292-.76-4.849.244-.592.381-1.112.298-1.777.158-1.842-.389-3.556-1.316-5.552-1.131-.91.084-.911.39-1.046 1.124-.4 2.151.269 4.239.184 6.372z" fill-rule="evenodd" clip-rule="evenodd" fill="#121111"/></svg>