<svg xmlns="http://www.w3.org/2000/svg" width="32" height="32" viewBox="0 0 32 32"><path d="M27.265 14.995c-.784.058-1.533.14-2.142-.569-.261-.303-.695-.199-1.103-.074-.969.298-2.042 1.652-2.877-.192-.011-.024-.093-.017-.141-.024-1.508-.214-2.688-1.179-3.499-2.248-1.101-1.448-2.706-1.208-4.061-1.707-.459-.168-1.84-.14-1.477 1.268.139.538-.343.589-.586.858-1.055 1.162-2.763 1.399-3.723 2.699-.413.559-.796 1.297-.138 1.636 1.075.547 1.926 1.483 3.217 1.692 2.104.34 4.26.495 6.155 1.698 2.465 1.566 5.374 1.213 7.808 1.715 1.332.013 2.449.013 2.812-1.22.152-.517.615-1.109.589-1.313-.157-1.249.498-2.424.255-3.625-.082-.411-.613-.627-1.089-.594z" fill-rule="evenodd" clip-rule="evenodd" fill="#121111"/></svg>