<svg xmlns="http://www.w3.org/2000/svg" width="32" height="32" viewBox="0 0 32 32"><path d="M8.302 20.109c.675-.001 1.475-.822 2.006.345.104.227.378-.125.456-.356.45-1.345 1.031-2.147 2.258-.597.204.257.615.253.825.116.866-.569 1.795-.212 2.677-.215 1.685-.003 3.283.492 4.519 1.666 1.446 1.372 2.77 2.874 4.136 4.329.236.251.553.355.81.529 1.138.776 1.668-.463 1.938-.856.5-.729-.62-.243-.826-.598a2.605 2.605 0 0 0-.167-.242c-1.34-1.825-3.368-2.996-4.643-4.886-.155-.229-.434-.376-.665-.548-1.116-.826-2.908-.659-3.441-2.355-.049-.152-.366-.319-.483-.138-.398.618-.499.148-.701-.136-.652-.922-1.175-1.868-1.301-3.042-.195-1.825-.874-3.503-1.965-5.267-.678 1.12-1.548 1.638-2.628 1.916-.892.23-1.173 1.59-2.369 1.394-.02-.003-.124.346-.146.536-.224 1.952-.974 3.737-1.644 5.563-.549 1.498.221 2.844 1.354 2.842z" fill-rule="evenodd" clip-rule="evenodd" fill="#121111"/></svg>