<svg xmlns="http://www.w3.org/2000/svg" width="32" height="32" viewBox="0 0 32 32"><path d="M23.798 15.335c-.1-.529-.013-.757-.617-.699-1.117.106-.91-.614-.498-1.065.704-.771.417-1.27-.203-1.828-.4-.36-.804-.729-1.137-1.148-1.194-1.5-3.023-.946-4.497-1.146-.893-.122-2.535.651-2.534 2.356 0 .266-.246.348-.376.511-1.161 1.449-2.317 2.931-2.538 4.861-.068.595.13 1.208-.84 1.126-.388-.032-.554.41-.608.725-.069.414.37.356.61.467.833.383 1.564 1.046 1.824 1.814.87 2.571 3.187 3.065 5.245 3.96 1.686.733 2.997-.997 4.798-.654 1.357.259 2.652-1.509 4.347-1.198.144.026.356-.293.531-.458l3.833-3.615c-2.086-.336-3.728-1.164-5.415-1.77-.978-.35-1.735-1.237-1.925-2.239z" fill-rule="evenodd" clip-rule="evenodd" fill="#121111"/></svg>