<svg xmlns="http://www.w3.org/2000/svg" width="32" height="32" viewBox="0 0 32 32"><path d="M13.772 25.476c1.47-.296 2.919-.701 4.395-.956.739-.125 1.335-.349 1.96-.807 1.156-.846 2.141-1.862 3.186-2.814 1.066-.979 1.006-1.36-.202-2.266-.247-.188-.851-.377-.586-.666.829-.898-.177-1.47-.419-1.997-.214-.462-.333-.947-.178-1.226.555-1.004.106-1.792-.438-2.518-.486-.648-.448-1.134.152-1.608.741-.584.49-1.199-.152-1.482-1.67-.736-.998-1.814-.487-2.829.163-.327.481-.644.088-.839-.704-.349-1.271-1.061-2.193-.902-1.107.188-2.118.535-2.219 1.856-.063.814-.833 1.275-1.177 1.142-1.228-.477-2.914.636-3.779-1.122-.19-.385-.696-.309-1.085.137-.52.59.102.665.328.821.478.329.995.631 1.539.826.818.29 1.318.711 1.309 1.667-.009.9.572 1.686.295 2.723-.166.62.641 1.319 1.441 1.564.666.204.541.729.486 1.21-.031.271-.186.278-.347.082-.037-.139-.05-.313-.247-.219-.077.036-.142.132-.177.217-.518 1.239-1.564 1.94-2.605 2.688-1.351.968-2.478 2.082-1.355 3.958.123.207.002.574-.043.865-.176 1.121 1.392 2.717 2.51 2.495z" fill-rule="evenodd" clip-rule="evenodd" fill="#121111"/></svg>