<svg xmlns="http://www.w3.org/2000/svg" width="32" height="32" viewBox="0 0 32 32"><path d="M10.094 14.668c.571.894 1.084 1.546.933 2.591-.146 1.012-.086 2.075-.587 3.005-.355.66.23.687.527.943 1.171 1.012 2.676.604 4.007.923 1 .24 2.47 1.208 2.748-.985.05-.394.661-.506 1.13-.523.75-.031 1.455.137 2.153.389.99.355 2.659-.353 3.061-1.26.169-.383-.012-.44-.324-.596-.828-.411-.778-1.065-.575-1.9.174-.726.312-1.787-.596-2.121-.834-.307-.304-.605-.117-.785.9-.877 1.427-1.916 1.968-3.06.55-1.16-.011-1.182-.693-1.381a21.821 21.821 0 0 1-6.952-3.442c-.804-.599-1.495-.408-1.554.587-.058.972-.441 1.309-1.328 1.315-.351.005-.697.11-.856.471-.512 1.168-1.234.642-1.864.188-.33-.24-.562-.573-.997-.276-.477.324-.184.649-.001 1 .531 1.014.286 1.184-.869 1.119-.239-.015-.436-.105-.619-.207-.307-.17-.578-.365-.95-.264-.331.082-.658.189-.993.237-.451.064-1.063-.158-1.05.64.011.684.208 1.179.999 1.376 1.308.325 2.493.595 3.399 2.016zM27.596 22.099c-.342.482-.185 1.016.091 1.499.15.264.365.523.685.382.522-.238.522-.778.528-1.247.005-.461.157-.964-.292-1.544-.38.331-.769.568-1.012.91z" fill-rule="evenodd" clip-rule="evenodd" fill="#121111"/></svg>