<svg xmlns="http://www.w3.org/2000/svg" width="32" height="32" viewBox="0 0 32 32"><path d="M17.716 27.845c.515-.536.865-1.63 1.998-.674.333.281.484-.084.615-.485.323-.986-.511-1.542-.762-2.296-.451-1.361-.3-1.689 1.148-1.587.687.048 1.404.098 1.639-.786.095-.354-.443-.917.301-1.046.554-.096.733.403.931.779.628 1.193 1.49 1.453 2.61.679.334-.231.603-.41.711.167.075.399.268.671.694.506.309-.12.428-.419.588-.742.731-1.479.827-3.002.851-4.624.015-.966-.102-1.458-.927-1.966-1.411-.87-1.326-1.96.106-2.955.69-.479.88-1.011.521-1.875-.556-1.331-1.478-1.492-2.586-.979-1.168.541-1.377-.056-1.376-.984.001-.382.077-.785.216-1.14.243-.621.118-.932-.583-.956-1.715-.054-3.431-.103-5.143-.194-.691-.037-.929.191-.955.905-.041 1.157.595 2.775-.228 3.348-.833.581-2.361.177-3.586.175-.432 0-.89.16-1.299-.096-.306-.191-.61-.191-.703.164-.328 1.266-1.166 2.348-1 3.815.131 1.165-.683 1.891-1.821 1.899 1.147 4.662 4.789 7.59 8.04 10.948z" fill-rule="evenodd" clip-rule="evenodd" fill="#121111"/></svg>