<svg xmlns="http://www.w3.org/2000/svg" width="32" height="32" viewBox="0 0 32 32"><path d="M13.004 20.344c1.916-.328 3.761-.413 5.276 1.134.267.272.694.233.982.127 1.552-.554 3.381.174 4.788-1.068.256-.226.774-.17.964.08.655.856 1.706.598 2.51.996.428.214.771.164.995-.244.23-.424.028-.704-.365-.959-.549-.355-1.391-.65-.445-1.525.311-.285-.127-.49-.382-.594-.881-.36-2.099-.391-1.745-1.897.012-.052-.204-.191-.334-.24-1.643-.609-3.288-1.236-5.025-.297-.264.142-.403.189-.703-.108-1.419-1.417-3.14-2.287-5.19-2.207-.802.028-1.516-.092-2.279-.325-1.157-.352-2.229-1.022-3.5-.996-.387.01-.845-.125-1.013.349-.159.449.321.535.571.732.54.425 1.141.714 1.804.938 2.356.803 3.889 4.201 2.431 5.808.229.109.468.33.66.296z" fill-rule="evenodd" clip-rule="evenodd" fill="#121111"/></svg>