<svg xmlns="http://www.w3.org/2000/svg" width="32" height="32" viewBox="0 0 32 32"><path d="M11.284 20.182c-1.165 1.855-.34 3.429.492 4.775.67 1.08.45 1.39-.57 1.956.769.166 1.479.15 1.99.462 1.183.722 2.102.122 3.243-.154 2.607-.631 4.705-2.708 7.548-2.553.683.038.903-.569 1.183-.975.401-.58-.375-.749-.61-.912-.706-.485-1.271-1.18-1.209-1.893.116-1.307-.019-2.601.052-3.897.023-.412.568-.745.185-1.217-1.134-1.388-.438-3.128-.863-4.673-.213-.772-.035-1.597-.852-2.149-.36-.245-.73-.489-.497-1.187.336-1.003-.38-1.204-1.127-.815-.653.339-1.287.335-1.968.329-1.77-.017-3.54.05-5.306-.013-.981-.034-1.368.554-1.123 1.245.742 2.093.225 4.358 1.004 6.436.18.48.329 1.262.079 1.561-.922 1.1-.963 2.578-1.651 3.674z" fill-rule="evenodd" clip-rule="evenodd" fill="#121111"/></svg>