<?xml version="1.0" encoding="iso-8859-1"?>
<!-- Generator: Adobe Illustrator 16.0.0, SVG Export Plug-In . SVG Version: 6.00 Build 0)  -->
<!DOCTYPE svg PUBLIC "-//W3C//DTD SVG 1.1//EN" "http://www.w3.org/Graphics/SVG/1.1/DTD/svg11.dtd">
<svg version="1.1" id="Layer_1" xmlns="http://www.w3.org/2000/svg" xmlns:xlink="http://www.w3.org/1999/xlink" x="0px" y="0px"
	 width="32px" height="32px" viewBox="0 0 32 32" style="enable-background:new 0 0 32 32;" xml:space="preserve">
<path style="fill-rule:evenodd;clip-rule:evenodd;fill:#121111;" d="M11.284,20.182c-1.165,1.855-0.34,3.429,0.492,4.775
	c0.67,1.08,0.45,1.39-0.57,1.956c0.769,0.166,1.479,0.15,1.99,0.462c1.183,0.722,2.102,0.122,3.243-0.154
	c2.607-0.631,4.705-2.708,7.548-2.553c0.683,0.038,0.903-0.569,1.183-0.975c0.401-0.58-0.375-0.749-0.61-0.912
	c-0.706-0.485-1.271-1.18-1.209-1.893c0.116-1.307-0.019-2.601,0.052-3.897c0.023-0.412,0.568-0.745,0.185-1.217
	c-1.134-1.388-0.438-3.128-0.863-4.673c-0.213-0.772-0.035-1.597-0.852-2.149c-0.36-0.245-0.73-0.489-0.497-1.187
	c0.336-1.003-0.38-1.204-1.127-0.815c-0.653,0.339-1.287,0.335-1.968,0.329c-1.77-0.017-3.54,0.05-5.306-0.013
	c-0.981-0.034-1.368,0.554-1.123,1.245c0.742,2.093,0.225,4.358,1.004,6.436c0.18,0.48,0.329,1.262,0.079,1.561
	C12.013,17.608,11.972,19.086,11.284,20.182z"/>
</svg>
