<svg xmlns="http://www.w3.org/2000/svg" width="32" height="32" viewBox="0 0 32 32"><path d="M22.177 14.995c-.33-.29-1.01-.749.153-.889.615-.075.491-.675.442-1.045-.123-.935-.518-1.843-.81-2.7-.392-1.152-.682-2.199-.409-3.364.088-.377-.1-.73-.31-.587-.854.589-.973-.162-1.383-.57-.601-.599-1.267-.747-2.076-.125-.424.326-.797 1.114-1.653.667-.871-.101-1.846.452-2.065 1.012-.336.859-.766.841-1.458.973-.862.163-.186 1.146-.61 1.664-.157.192-.221.807.34.948 2.063.521 1.417 2.199 1.508 3.548.034.505-.928 1.282.417 1.391-.021.195.251.565-.166.531-.471-.038-.62.112-.273.4.861.716.672 1.194-.171 1.742-.643.417-.708 1.261-.664 1.863.113 1.537.261 3.127.979 4.521.414.805 1.363 1.402 2.164 1.443.85.041.567-1.126.857-1.727.623-1.292.438-3.138 2.406-3.536.201-.038.467-.295.507-.492.234-1.148 1.16-1.549 2.027-2.085 1.752-1.086 1.789-2.236.248-3.583z" fill-rule="evenodd" clip-rule="evenodd" fill="#121111"/></svg>