<svg xmlns="http://www.w3.org/2000/svg" width="32" height="32" viewBox="0 0 32 32"><path d="M28.057 16.733c-.358-.175-.76-.395-1.122-.235-2.208.972-3.825-.54-5.53-1.387-1.396-.693-2.946-.853-3.828.094-1.06 1.136-2.108.906-3.26.924-1.326.021-2.656.065-3.978-.012-1.242-.073-1.165.481-.762 1.304.117.239.494.336.391.69-1.031.67-.695-1.778-1.959-.802-1.1.85-.194 1.667-.226 2.557 1.845-.583 3.589-.515 5.339-.429.46.022 1.247.28 1.336-.211.294-1.622 1.58-1.118 2.515-1.333.56-.128 1.345.125 1.639-.43.6-1.132 1.246-.711 2.032-.314.826.417 1.73.675 2.555 1.093 1.566.794 3.121.622 4.692.078.349-.121.784-.123.788-.691.001-.479-.247-.712-.622-.896z" fill-rule="evenodd" clip-rule="evenodd" fill="#121111"/></svg>