<svg xmlns="http://www.w3.org/2000/svg" width="32" height="32" viewBox="0 0 32 32"><path d="M10.459 16.024c.027.327.914 1.637 1.331 1.562 1.148-.205 2.436.578 3.469-.447.244-.245.541-.621 1.1-.267-.728.468-.66 1.256-.349 1.744.34.523.949-.029 1.434-.184.375-.12.735-.099 1.164.273-.539.153-1.023.212-1.428.425-.56.297-1.333.255-.759 1.534.354.792.877 1.146 1.319 1.712.922 1.182 1.597 1.168 2.279-.136.112-.217.193-.452.323-.657.416-.646.472-1.729 1.261-1.884 1.569-.308 2.856-1.408 4.61-1.278 1.767.13 2.344-.673 2.092-2.097-.118-.656-.74-.729-1.057-1.144-.325-.426-.539-.813.225-.868 1.266-.09 1.219-.988 1.107-1.816-.117-.855-.487-1.495-1.61-1.351-.916.116-1.864-.053-2.797-.017-2.985.119-6.11-.654-8.821 1.333-.178.13-.472.113-.712.138-2.314.251-4.666.262-6.886 1.04.028.039.075.119.137.178.808.752 2.422.479 2.568 2.207z" fill-rule="evenodd" clip-rule="evenodd" fill="#121111"/></svg>