<svg xmlns="http://www.w3.org/2000/svg" width="32" height="32" viewBox="0 0 32 32"><path d="M12.785 17.677c-.42 1.437.002 2.663-.626 3.937-.668 1.354-1.989 2.304-2.249 3.887-.089.547-.273.839.502.983 1.57.291 2.981 1.058 4.722.894 2.532-.24 5.104-.098 7.657-.042.917.021 1.315-.163 1.277-1.191a90.416 90.416 0 0 1-.002-6.335c.031-.943-.305-1.158-1.183-1.141-2.503.051-5.01 0-7.515.027-.951.009-1.833-.081-2.583-1.019zM5.516 12.569c.57.169 1.087.02 1.306-.603.262-.746.745-1.354 1.142-2.019.5-.839.274-1.398-.787-1.419-.794-.043-1.323.224-1.483 1.07-.08.421-.158.951-.643 1.079-.692.183-.797.651-.696 1.205.113.616.73.558 1.161.687z" fill-rule="evenodd" clip-rule="evenodd" fill="#121111"/></svg>