<svg xmlns="http://www.w3.org/2000/svg" width="32" height="32" viewBox="0 0 32 32"><path d="M10.407 7.76c-.189-.046-.211.249-.237.449-.104.807-.775 1.248-1.175 1.863-.322.492-1.352 1.183-.619 1.701.948.672.608 1.969 1.726 2.584.501.276 1.024.682 1.652.813-.922.657-1.676 1.23-.309 2.111.422.274.381.618.282 1.117-.095.472.18 1.463.889.965.707-.496.646.068.861.289.192.194.036.588.382.738l.566-.837c.418.183.481.769 1.034.814.195-.97-.305-1.775-.578-2.627l-.014-.015a.735.735 0 0 1 .044-.061c.013-.017.025-.028.039-.041.01-.009.021-.021.031-.028.017-.013.036-.015.055-.02.009 0 .017-.005.026-.005a.16.16 0 0 1 .093.056c.368.394.805.441 1.105.045.37-.49-.317-.422-.453-.655-.115-.195-.13-.449-.189-.68.364-.044.68-.389 1.098-.12.356.231.549.694 1.055.738.055-.485-.035-1.051.191-1.426.566-.94.388-1.424-.684-1.625-.505-.094-1.051-.383-1.122-.839-.164-1.086-.992-1.708-1.547-2.508-.435-.627-.377-1.104-.051-1.604.118.023.224.064.32.114.042.025.077.056.116.082.051.033.106.065.152.106l.016.017c.483.425.773 1.091 1.536 1.037l.013.017.005.034-.083.125c.035.02.071.036.106.055a7.704 7.704 0 0 1-.023-.177l.036-.054h.003c-.022.002-.038-.005-.059-.002-.035-.048-.074-.097-.11-.145l-.014-.017a.738.738 0 0 1-.101-.173c-.096-.252.128-.214.243-.202.376.038.358.769.907.531-.625-1.571-.205-2.488 1.311-2.563 1.083-.053 2.239-.325 3.261.273.614.357 1.018.028 1.178-.396.184-.487.309-.92.7-1.335.398-.426-.104-.779-.493-.989-.239-.133-.688-.32-.713.088-.106 1.67-1.627 1.272-2.134 1.023-1.778-.879-3.457-.308-5.201-.183-.732.053-1.095.802-1.854.651-1.213-.234-2 1.203-3.269.891zM21.906 23.647c-1.467-.517-3.135-.293-4.642-.867-.417-.158-.664.147-.774.469-.102.3.051.617.392.658 1.966.23 3.855 1.159 5.91.629.397-.104.615-.243.605-.773-.485-.262-.919.087-1.491-.116zM24.018 12.842c-.142-.394-.322-.887-.899-.764-.347.074-.958.11-.822.591.129.453.741.557 1.145.653.408.01.722-.077.576-.48zM29.225 21.52c-.02.216.107.447.307.379.621-.211 1.031-.641 1.126-1.534-.799.18-1.362.371-1.433 1.155z" fill-rule="evenodd" clip-rule="evenodd" fill="#121111"/></svg>