<svg xmlns="http://www.w3.org/2000/svg" width="32" height="32" viewBox="0 0 32 32"><path d="M24.003 19.437c1.346-.722 2.431-1.813 3.617-2.761.279-.224.627-.499.084-.739-.505-.227-1.275-1.102-1.437-.615-.298.903-.641.372-.9.23-.423-.23-.853-.269-1.282-.216-.822.104-1.079-.173-1.028-1.026.156-2.546.008-5.108.317-7.649.115-.945-.095-1.419-1.226-1.376-2.358.092-4.722.061-7.082.01-.803-.015-1.228.173-1.064 1.038.296 1.547-.197 2.324-2.195 1.794.728.767 1.126 1.264 1.607 1.669.481.411 1.034.737 1.57 1.08.78.505.898 1.516 1.723 2.069.514.343-.215 1.483-.962 1.49-1.524.016-3.05.047-4.572-.012-.743-.028-1.035.334-1.487.862-1.544 1.794-1.647 3.911-1.672 6.077-.005.517-.43.992.278 1.537 2.146 1.647 4.283 3.156 7.199 2.697.28-.043.61-.015.874.091 1.139.452 1.962 1.033 3.23-.365.93-1.021 1.893-2.329 3.323-2.953.532-.233.51-.719.311-1.264-.273-.751.042-1.275.774-1.668z" fill-rule="evenodd" clip-rule="evenodd" fill="#121111"/></svg>