<svg xmlns="http://www.w3.org/2000/svg" width="32" height="32" viewBox="0 0 32 32"><path d="M9.322 15.269c-.075.395.379 1.168.769 1.317 1.541.591 2.295 1.897 3.111 3.137.342.518.589.415.908.124.355-.326.854-.654.963-1.066.401-1.539 1.761-1.036 2.707-1.376 1.564-.563 2.124.761 2.646 1.701.489.88 1.001 1.937.189 3.109 2.755-.877 3.854-.8 3.694 2.23-.034.662.59.67.861.762 1.06.36 1.367-1.624 2.705-.955.221.11.286-.742.485-1.124.086-.17.105-.307-.002-.52-.419-.834-.388-.902.571-.754.4.062.687-.159.482-.305-1.016-.723.12-2.256-1.146-2.846-.137-.063-.233-.487-.161-.672.367-.959.013-1.681-.308-2.625-.547-1.618-1.532-3.01-2.024-4.636-.171-.562-.67-1.489-1.425-.178-.252.437-1.006.892-1.77.434-.957-.572-1.912.879-3.013.039-.163-.125-.979.457-.905-.572.026-.356-.338-.309-.545-.267-1.73.342-3.329-.134-4.941-.678-.687-.232-1.945 1.073-1.57 1.62.703 1.025.216 1.084-.654 1.208-1.072.155-1.894.6-2.504 1.695-.727 1.309 1.026.381.877 1.198z" fill-rule="evenodd" clip-rule="evenodd" fill="#121111"/></svg>