<svg xmlns="http://www.w3.org/2000/svg" width="32" height="32" viewBox="0 0 32 32"><path d="M20.695 18.943c-.169-.347-.006-.892-.635-1.019-.792-.162-1.103-.887-1.45-1.509-.39-.701.26-2.826.881-3.01 1.073-.31 1.907-2.935 1.021-3.583-1.028-.752-1.795-1.982-3.248-2.082a1.872 1.872 0 0 0-.203-.186c.114-2.065-1.626-2.697-2.872-3.703-1.144-.927-1.434.489-2.126.799-.264.12-.513.271-.761.424-.425.259-.771.614-.707 1.136.067.548.205 1.114 1.062.975-.399.681-.903.785-1.438.894-.513.104-1.775 2.371-1.469 2.729.754.88 1.235 2.248 2.8 1.965.847-.153 1.181.267.928.961-.273.754-.018.889.577 1.292.411.281.98 1.085.376 2.006-.68 1.035-1.061 2.219-.65 3.555.475 1.549 1.325 2.762 2.672 3.638h1.475c-.011-.481.189-.856.686-.907 1.612-.163 2.927-1.585 4.692-1.1.111.028.265-.099.409-.156-1.128-.766-1.473-1.999-2.02-3.119z" fill-rule="evenodd" clip-rule="evenodd" fill="#121111"/></svg>