<svg xmlns="http://www.w3.org/2000/svg" width="32" height="32" viewBox="0 0 32 32"><path d="M17.104 19.47c.85.216.932-1.141 1.515-.805 1.72.986 2.191-.723 2.926-1.409.663-.62.776-1.81 2.068-.902.163.116.545-.085.828-.127 1.353-.191 2.558-.813 3.879-1.292-.471-.461-.652-1.315-1.576-.903-.239.106-.382.039-.441-.17-.48-1.686-1.984-1.835-3.31-2.051-1.35-.222-2.885-.541-4.09-.113-1.703.604-3.382.733-4.978.344-1.431-.351-2.313.271-3.303.903-.782.497-1.469 1.147-2.252 1.647-.984.627-.324 1.784-.889 2.569-.125.176 3.112 1.79 3.598 1.691.651-.133 1.674.344 1.641.417-.577 1.221.644 1.466 1.054 2.124.306.487.684.939 1.29.692.661-.267 1.151-.82 1.271-1.537.089-.533-.255-1.338.769-1.078z" fill-rule="evenodd" clip-rule="evenodd" fill="#121111"/></svg>