<svg xmlns="http://www.w3.org/2000/svg" width="32" height="32" viewBox="0 0 32 32"><path d="M26.22 12.472c-.128-1.332-.692-2.226-2.152-.986-.175.146-.574.058-.867.036-1.797-.137-3.145-1.165-4.371-2.343-.982-.943-1.904-1.534-3.146-.437-.32.283-.724.51-1.124.651-.49.175-.406.464-.533.869-.304.948-1.025 1.787-1.7 2.563-.075.085-1.131.115-1.588-.4-.146-.163-.347-.498-.575-.271-1.061 1.044-2.386.495-3.659.644.13 1.097.298 2.226 1.271 2.826.8.495.693-1.065 1.53-.943.132.637-.034 1.371.667 1.891l.099-1.538c1.367-.234.716.781.838 1.261.238.938 1.396 1.275 1.438 2.314l-.926.196c.303.999 1.074 1.004 1.874.949 1.383.394 2.018 2.392 3.86 1.801.248.23-.075.36-.1.545l.056.059-.058-.054c-.065.048-.13.099-.192.148l.237.219h-.002c-.187.325-.243.541.235.714.826.295 1.634.168 2.454.064.179.153.541.031.587.39h-2.569c-.035.194-.068.391-.102.588 1.967-.489 3.478.928 5.507.88-.722-.575-1.318-1.053-1.914-1.527-.583-.62-.958-1.596-1.572-1.956-2.299-1.35-3.286-3.768-4.95-5.618-.429-.473-.188-1.228.085-1.654.327-.514.738 0 1.026.305.408.433.767.346 1.066-.098.257-.387.65-.309 1.014-.421 1.244-.382 2.342.341 3.538.387 1.075.041 2.257-.416 3.247.232.859.561 1.64 1.619 2.005-.374.043-.236.673.024.959-.38-.476-.502-1.395-.521-1.493-1.532z" fill-rule="evenodd" clip-rule="evenodd" fill="#121111"/></svg>