<svg xmlns="http://www.w3.org/2000/svg" width="32" height="32" viewBox="0 0 32 32"><path d="M29.22 13.244c.082-.841.369-2.097-.995-2.306-1.888-.288-3.739-.567-5.53-1.338-1.732-.745-3.568-.446-5.323.144-.564.19-1.165.452-1.041 1.213.116.724.832.691 1.296.714 1.22.055 2.289.473 3.343 1.019.485.25.689.446.472 1.104-.582 1.763-.154 3.273 1.511 4.299a.754.754 0 0 1 .225.19c.301.451 1.331.37 1.06 1.165-.219.639-.966.185-1.446.341-.269.089-.598.197-.747.406-.432.605-1.016.521-1.597.446-3-.385-6.029-.583-8.955-1.448a3.602 3.602 0 0 0-1.74-.072c-.881.179-1.016.903-1.17 1.522-.156.622.399.915.913 1.134.672.291 1.414.485 1.987.908.952.701 1.752 1.67 2.765.058.168-.269.805-.273 1.235-.346 1.142-.187 2.256.01 3.337.355a6.478 6.478 0 0 0 3.495.142c2.269-.538 4.465-.956 6.313.86 1.239-1.963-.788-2.768-1.398-4.252 1.067.061 1.843-.458 1.785-1.272-.076-1.103-.38-2.125.673-2.933.048-.039-.046-.399-.164-.498-.554-.457-.368-.938-.304-1.555z" fill-rule="evenodd" clip-rule="evenodd" fill="#121111"/><path d="M20.29 18.598c.237.092.549.329.722-.105.106-.267-.012-.48-.229-.627-.77-.515-1.553-.999-2.437-1.168-.328.039-.687-.11-.838.229-.199.45.194.615.49.747.752.33 1.521.634 2.292.924z" fill-rule="evenodd" clip-rule="evenodd" fill="#121111"/></svg>