<svg xmlns="http://www.w3.org/2000/svg" width="32" height="32" viewBox="0 0 32 32"><path d="M28.032 11.519c-1.016-.339-1.507-1.989-2.953-1.213-.125.067-.38-.021-.536-.108-1.783-.995-2.832-.884-4.483.37-.396.298-.913.403-1.467.482-1.179.166-2.576-.045-3.37 1.249-.206.334-.595.316-.926.326-1.123.037-2.256.146-3.194-.72-.467-.431-.982-.327-1.099.3-.146.769-.465.846-1.107.589-.321-.13-.757-.125-.677.403.185 1.223-.184 2.332-.953 2.814.606 1.726 2.211 2.516 3.503 3.541 1.229.976 2.62 1.518 4.438.68 1.452-.668 3.065-1.369 4.886-1.073 1.098.177 2.323-.128 3.064-1.15.625-.863 1.113-1.824 1.661-2.741.68-1.144 1.112-2.497 2.782-2.678.399-.041.974-.889.431-1.071z" fill-rule="evenodd" clip-rule="evenodd" fill="#121111"/></svg>