<svg xmlns="http://www.w3.org/2000/svg" width="32" height="32" viewBox="0 0 32 32"><path d="M10.173 18.039c-.27.061-.791-.362-.749.278.038.567.591.431.942.387 1.388-.18 2.587.102 3.9.726 1.292.618 2.952 1.172 4.381.243 1.552-1.009 3.317-1.519 4.99-2.133 1.393-.515 2.313-1.316 3.155-2.364.693-.861.411-1.679-.526-2.174-.904-.477-1.791-1.063-1.412-2.449-.822.457-1.498.644-2.188-.242-.317-.406-1.132-.533-1.199.471-.013.201-.002.408-.232.464-1.237.29-2.583.514-3.735.201-1.172-.316-1.484.186-1.91.98-.619-.335-1.529-2.063-1.669.326-.018.308-.984.439-1.445.821-.172.142-.373-.384-.33-.523.479-1.595-.917-1.831-1.76-2.401-.774-.523-.935-.425-1.369.554-.183.413-.387.09-.563.07-.445-.054-.816.099-.935.5-.232.771-.948 1.1-1.422 1.641 1.495 1.073 3.156-.938 4.507.297-.605 1.269-1.825 1.367-3.043 1.476-.239.021-.569.078-.539.353a.447.447 0 0 0 .67.346c.625-.358 1.261-.18 1.872-.092.869.123 1.214.884 1.408 1.598.121.437-.416.559-.799.646z" fill-rule="evenodd" clip-rule="evenodd" fill="#121111"/></svg>