<svg xmlns="http://www.w3.org/2000/svg" width="32" height="32" viewBox="0 0 32 32"><path d="M27.204 11.152c-1.06.125-1.82.668-2.515 1.242-.984.816-1.302.96-2.079.045-.37-.432-.648-.318-.635.108.034 1.057-.523.813-1.119.625-.999-.322-2.018-.602-3-.971-.474-.178-1.362-.55-1.167-.872.677-1.119-.255-1.273-.785-1.695-.344-.271-.161-.51-.097-.863.281-1.57-.552-2.319-1.938-1.87-.23.074-.502.163-.718.105-1.318-.355-1.15.461-.913 1.198.435 1.348-.752 3.819-2.1 3.997-1.335.181-1.272.739-.623 1.568.606.776.646 1.188-.524 1.127-.37-.021-.853.081-.778.585.209 1.432 1.56 2.228 3.097 1.848-.309 3.271 1.688 5.837 2.659 8.714.205.614.592.795 1.294.137 1.162-1.093 1.333-2.414 1.312-3.794-.013-.743.259-1.224.797-1.507 1.989-1.048 3.06-3.285 5.284-4.03.3-.101.137-.542.072-.812-.101-.418-.336-.813-.382-1.232-.049-.431.439-1.107.571-.915.512.75 1.331.238 1.996.757-2.52 1.309.68 1.162.3 1.952 1.235-1.152 1.28-2.892 2.609-3.752.352-.228.833-.523.573-.71-.403-.29-.247-1.095-1.191-.985z" fill-rule="evenodd" clip-rule="evenodd" fill="#121111"/></svg>