<svg xmlns="http://www.w3.org/2000/svg" width="32" height="32" viewBox="0 0 32 32"><path d="M12.618 16.147c-1.326-1.339-2.849-2.099-4.357-3.009 1.451 2.936 2.345 4.038 4.17 5.33.5.663 1.187.972 1.992 1.075 1.796.227 3.563.73 5.191.44-1.912-.891-4.241-1.036-6.473-1.581-.019-.772.358-1.368-.523-2.255zM27.322 16.506c-.137-.953-.821-.298-1.24-.422-.549-.092-1.099-.18-1.87-.305.764.981 1.148 1.969 2.395 2.142.533.074 1.518.266 1.393.824-.319 1.436.813.848 1.3 1.188.127-3.29.527-3.038-1.978-3.427zM19.341 16.033c-.377 1.638-.375 1.643.879 1.95.067.017.092.17.156.243.183.193.454.295.661.162.316-.206.113-.525.012-.775-.122-.305-.589-.535-.271-.922.13-.159.694.096.548-.389-.125-.412-.577-.299-.896-.238-.257.05-.514.3-.612-.176.642-.468 1.684.351 2.263-.835-.966.429-1.904-.172-2.72.422-.004.188.021.38-.02.558zM19.359 15.454c-.03-.007-.05-.002-.076-.007-.171-.186-.346-.36-.456-.584-.01-.017-.021-.031-.031-.051a1.11 1.11 0 0 1-.072-.275c-.041-.354.056-.801-.548-.851-.525-.043-.672.305-.813.662-.442 1.11-1.468.938-2.211.755-.914-.227-.799.151-.652.685.101.367.249.737.459 1.052.573.865 1.608.605 2.418.865.773.247.521-.74.831-1.072.271-.287.235-.897.579-1.119.115-.074.271-.103.497-.064.015.015.029.029.043.046.012-.008.021-.01.033-.02l-.001-.022zM23.157 16.566c.332-.601.907-1.16.319-1.986-.777.594-.662 1.271-.319 1.986z" fill-rule="evenodd" clip-rule="evenodd" fill="#121111"/></svg>