<svg xmlns="http://www.w3.org/2000/svg" width="32" height="32" viewBox="0 0 32 32"><path d="M7.318 19.934c1.221.176 2.338.581 3.43 1.183 2.562 1.404 4.687 3.383 6.992 5.122 1.362 1.028 2.918.675 4.393.755.997.052 1.173-1.028 1.559-1.739.304-.558.791-.752 1.355-.55.523.187 1.035.187 1.761.177-.207-.384-.304-.603-.431-.799-.639-.98-1.434-1.857-1.155-3.219.186-.901-.54-1.573-1.174-2.008-1.025-.702-2.092-1.144-2.803-2.39-1.057-1.855-1.278-2.063.144-3.743.567-.667-.324-1.393.24-1.99-1.761-.092-2.094-1.576-2.711-2.781-.128-.25-.177-.644-.551-.563-.953.209-1.782-.331-2.7-.385-.886-.05-4.304 1.609-4.605 2.458-.078.218-.063.487-.041.728.199 2.118.079 4.044-2.411 4.859-.686.224-1.31.665-1.925 1.063-.437.285-1.309.394-.889 1.221.454.891-.053 2.372 1.522 2.601z" fill-rule="evenodd" clip-rule="evenodd" fill="#121111"/></svg>