<svg xmlns="http://www.w3.org/2000/svg" width="32" height="32" viewBox="0 0 32 32"><path d="M25.249 11.244c-2.085-1.639-4.078-1.636-6.105-.135-2.087 1.544-5.829.326-6.257-2.166-.194-1.134-.51-.995-1.148-.515-.896.673-1.727.948-2.509-.144-.215-.298-.453-.246-.746-.033-.284.209-.355.41-.273.74.359 1.45.563 2.973 1.77 4.042.298.262.447.615.245.857-1.313 1.585.024 2.315 1.006 3.099.556.442.933.807 1.012 1.616.048.488.214 1.655.996 1.492 1.672-.349 1.937.837 2.641 1.801.945 1.297 2.39 2.372 3.948 2.291 1.277-.064 2.157-.902 3.135.901.525.97 2.641.547 4.027.833.896.183.382-.97.889-1.253.084-.049.164-.111.242-.167.387-.276.733-1.388.666-1.834-.061-.399-.294-.531-.586-.743-.892-.641-1.95-1.292-.682-2.555.249-.248.364-.783-.032-.875-1.384-.314-.752-1.465-.995-2.229-.35-1.108.594-2.018.635-3.393.254-1.184-1.19-1.088-1.879-1.63z" fill-rule="evenodd" clip-rule="evenodd" fill="#121111"/></svg>