<?xml version="1.0" encoding="iso-8859-1"?>
<!-- Generator: Adobe Illustrator 16.0.0, SVG Export Plug-In . SVG Version: 6.00 Build 0)  -->
<!DOCTYPE svg PUBLIC "-//W3C//DTD SVG 1.1//EN" "http://www.w3.org/Graphics/SVG/1.1/DTD/svg11.dtd">
<svg version="1.1" id="Layer_1" xmlns="http://www.w3.org/2000/svg" xmlns:xlink="http://www.w3.org/1999/xlink" x="0px" y="0px"
	 width="32px" height="32px" viewBox="0 0 32 32" style="enable-background:new 0 0 32 32;" xml:space="preserve">
<path style="fill-rule:evenodd;clip-rule:evenodd;fill:#121111;" d="M12.1,25.677c2.71,0.115,4.929-1.292,7.222-2.393
	c1.309-0.627,2.59-1.349,4.05-1.313c1.297,0.031,2.116-0.351,2.334-1.664c0.195-1.184,1.289-2.154,0.877-3.463
	c-0.422-1.343-0.163-2.856-1.004-4.084c-0.425-0.621,0.476-0.578,0.459-1.217c-1.327,0.254-2.183-0.281-2.858-1.367
	c-0.475-0.762-0.998-0.428-1.229,0.285c-0.292,0.898-0.905,0.898-1.626,0.674c-0.848-0.265-1.41-0.867-1.95-1.563
	c2.077-0.981,2.652-3.293,4.619-4.263c-0.872-0.648-1.374-0.737-2.354-0.367c-1.604,0.605-3.466,0.499-4.071,2.625
	c-0.086,0.3-0.917,0.199-0.744,0.708c0.168,0.5,0.803,0.429,1.264,0.521c0.234,0.046,0.576-0.31,0.706,0.202
	c-1.023,0.74-1.914,1.804-3.372,1.575c-0.997-0.158-1.975-0.247-2.995-0.173c-1.346,0.097-1.18,0.597-0.5,1.33
	c-0.278,0.378-0.802-0.086-1.049,0.373c0.657,0.65,1.503,0.696,2.399,0.78c-0.949,0.092-1.067,0.987-1.598,1.441
	c-0.622,0.528-0.639,0.783,0.224,1.097c1.22,0.447,2.375,1.077,3.797,0.945c-0.639,0.316-1.458,0.417-1.646,1.119
	c-0.189,0.703-0.449,1.282-1.091,1.611c-0.587,0.301-0.687,0.629-0.205,1.1c-0.625,0.248-0.419,1.652-1.655,1.137
	c-0.299-0.123-0.855,0.175-0.869,0.7c0.438,0.426,0.965-0.009,1.479,0.243c-0.43,0.337-0.859,0.627-1.234,0.976
	c-0.283,0.267-0.416,0.73,0.149,0.682c0.85-0.074,0.82,1.42,1.834,0.908c0.186-0.094,0.212,0.201,0.162,0.288
	C11.218,25.823,11.703,25.663,12.1,25.677z"/>
</svg>
