<svg xmlns="http://www.w3.org/2000/svg" width="32" height="32" viewBox="0 0 32 32"><path d="M12.1 25.677c2.71.115 4.929-1.292 7.222-2.393 1.309-.627 2.59-1.349 4.05-1.313 1.297.031 2.116-.351 2.334-1.664.195-1.184 1.289-2.154.877-3.463-.422-1.343-.163-2.856-1.004-4.084-.425-.621.476-.578.459-1.217-1.327.254-2.183-.281-2.858-1.367-.475-.762-.998-.428-1.229.285-.292.898-.905.898-1.626.674-.848-.265-1.41-.867-1.95-1.563 2.077-.981 2.652-3.293 4.619-4.263-.872-.648-1.374-.737-2.354-.367-1.604.605-3.466.499-4.071 2.625-.086.3-.917.199-.744.708.168.5.803.429 1.264.521.234.046.576-.31.706.202-1.023.74-1.914 1.804-3.372 1.575-.997-.158-1.975-.247-2.995-.173-1.346.097-1.18.597-.5 1.33-.278.378-.802-.086-1.049.373.657.65 1.503.696 2.399.78-.949.092-1.067.987-1.598 1.441-.622.528-.639.783.224 1.097 1.22.447 2.375 1.077 3.797.945-.639.316-1.458.417-1.646 1.119-.189.703-.449 1.282-1.091 1.611-.587.301-.687.629-.205 1.1-.625.248-.419 1.652-1.655 1.137-.299-.123-.855.175-.869.7.438.426.965-.009 1.479.243-.43.337-.859.627-1.234.976-.283.267-.416.73.149.682.85-.074.82 1.42 1.834.908.186-.094.212.201.162.288-.407.693.078.533.475.547z" fill-rule="evenodd" clip-rule="evenodd" fill="#121111"/></svg>