<svg xmlns="http://www.w3.org/2000/svg" width="32" height="32" viewBox="0 0 32 32"><path d="M25.693 8.979c-1.139-.617-1.914-1.749-3.1-2.154-2.672-.915-4.255.422-4.837 2.906-.362 1.542-.872 3.031-.49 4.707.213.932.408 2.016-.145 3.02-.24.437.203.668.556.514 1.164-.506 1.955.173 2.971.843-1.875.903-3.532 1.78-4.202 3.816-.989 3.008-.978 3.22 2.168 2.562 2.767-.579 6.073-.836 6.404-4.838.03-.36.321-.706.52-1.043.235-.396.329-.797.24-1.259-.401-2.094-.404-4.182.084-6.271.227-.971.293-2.553-.169-2.803zM9.651 22.138c-.827.895-1.556 1.917-2.513 2.638-1.214.917-.973 1.782-.243 2.946 1.712-1.375 2.068-3.739 3.848-4.977.376-.262-.07-.6-.294-.828-.379-.384-.574-.019-.798.221z" fill-rule="evenodd" clip-rule="evenodd" fill="#121111"/></svg>