<svg xmlns="http://www.w3.org/2000/svg" width="32" height="32" viewBox="0 0 32 32"><path d="M28.785 18.186c-.824-.703-1.798-1.16-2.779-1.599-.365-.162-1.081-.195-.907-.714.305-.91-.219-.735-.705-.719-1.407.044-2.392-.691-2.828-1.919-.38-1.062-.979-1.839-1.963-2.209-1.509-.567-.395-1.843-.803-2.722-.182-.395.755-.326 1.108-.619.175-.145.437-.252.662-.258.713-.02.5-.514.375-.814-.148-.353.394-1.016-.474-1.072-.483-.032-1.182.002-1.402-.287-.841-1.1-1.729-.336-2.647-.354-1.115-.021-1.57 1.731-2.822.854-.38.973-.853 1.194-1.506.202-.026-.038-.333.017-.354.077-.298.937-1.111.787-1.805.876-.252.034-.608.259-.547.336.697.894-.401 1.752.038 2.714.449.982 1.563 1.766 2.267 1.209 1.66-1.312 3.163-.9 3.726 1.16.271.999.953 1.539 1.655 2.048 1.263.92 2.286 2.098 3.98 2.546 1.147.306 2.041 1.603 3.163 2.328.715.461.9 1.448.852 2.2-.026.451-.646.976-1.383 1.198-1.35.409-2.666.188-3.994.139-.418-.014-.677.061-.747.477-.066.403.146.579.525.737.94.389 1.872.816 2.756 1.315.396.224.744.561 1.181.289.438-.272.421-.735.212-1.254.069-.438.046-1.256.632-1.165 1.297.204 1.273-.906 1.869-1.422 1.001-.87 1.186-1.387-.016-2.111-.093-.056-.038-.466.042-.678.297-.804 1.162-.804 2.039-.002.257.235.425.795.869.334.415-.429.076-.827-.269-1.121z" fill-rule="evenodd" clip-rule="evenodd" fill="#121111"/><path d="M13.34 16.75c-.596.232-2.401.341-1.256 1.98.156.224.021.649.021 1.122-.108.53-.333 1.451.66 1.393.661-.038 1.734-.292 1.543-1.565-.077-.497.26-1.057.187-1.556-.096-.659-.24-1.732-1.155-1.374z" fill-rule="evenodd" clip-rule="evenodd" fill="#121111"/></svg>