<svg xmlns="http://www.w3.org/2000/svg" width="32" height="32" viewBox="0 0 32 32"><path d="M27.387 15.48c-2.944-.697-5.38-2.729-8.481-3.017-3.232-.3-6.453-.908-9.672.019-.75.217-1.337.695-1.364 1.544-.031.971.726.959 1.42 1.087.55.101 1.162.045 1.595.6 1.429 1.823 2.979 3.413 5.64 2.995.548-.084 1.148.255 1.595.668.689.639 1.061.775 1.565-.321.541-1.183 2.608.302 3.123-1.449.069-.238.403.067.619.12.27.065.531.159.79.26.78.305 1.54.683 2.421.588.637-.023 1.275-.017 1.886-.266.303-.125.572-.238.406-.613-.376-.843-.664-2.007-1.543-2.215z" fill-rule="evenodd" clip-rule="evenodd" fill="#121111"/></svg>