<svg xmlns="http://www.w3.org/2000/svg" width="32" height="32" viewBox="0 0 32 32"><path d="M21.883 12.375c1.188.658 1.981.062 3.106-.372 1.369-.531 1.868-1.636 3.073-2.438-2.913.395-2.918.399-5.224-1.473-.25-.204-.469-.362-.773-.247-.383.144-.228.471-.204.747.08.941.036 2.105-.797 2.452-1.537.637-1.554 1.603-1.206 2.93.422-.264 1.127-.657 1.107-.698-.631-1.297.809-.962.918-.901zM7.022 26.517c.886-.142.65.271.59.735-.073.559-.315 1.302.415 1.499.66.177.716-.647 1.024-1.039.118-.15.181-.345.29-.502.327-.472.376-.96 1.371-.835 1.665.211 2.652-1.216 2.208-2.651.338.03.636.017.721.514.2 1.162.75 1.407 1.519.579.876-.942 2.067-.714 3.057-1.141 1.04-.45 2.584-.255 2.525-2.268-.027-.879.004-2.364.592-2.83 1.346-1.066.937-2.08.496-3.218-.173-.446.119-1.41-.844-1.144-.785.219-1.688.658-1.5 1.701.274 1.521-.628 2.537-1.372 3.611-.287.416-1.057.925-1.35.691-1.172-.934-1.079.115-1.453.702-.33.517-.354 1.414-1.361 1.332-2.09-.167-3.902.565-5.519 1.843-.298.236-.128.533-.066.812-.56.07-.994.385-1.393.747-.347.317-.388.931.05.862z" fill-rule="evenodd" clip-rule="evenodd" fill="#121111"/></svg>