<svg xmlns="http://www.w3.org/2000/svg" width="32" height="32" viewBox="0 0 32 32"><path d="M27.306 12.341c-.263-.12-.406-.291-.356-.555.272-1.429-.636-2.601-.844-3.925-.11-.7-.421-.821-1.073-.415-2.159 1.345-4.457 2.487-6.516 3.97-2.274 1.634-3.798.714-5.338-.547-.51-.421-.923-.644-1.564-.429-.702.238-.659.88-.626 1.341.3 4.313-1.293 8.291-2.194 12.381-.705 3.203-.841 3.171 2.337 3.765.096.019.187.058.283.079 2.008.413 3.137.043 4.177-1.729.648-1.103 1.51-1.504 2.677-1.693.709-.115 1.66.036 1.964-.944.233-.749.666-1.294 1.387-1.589.614-.25.55-.523.141-.954-1.315-1.387-2.6-2.801-4.065-4.388 2.721-.747 5.346-1.464 7.968-2.196.655-.182 1.292-.389 1.823-.878.88-.814.905-.799-.181-1.294z" fill-rule="evenodd" clip-rule="evenodd" fill="#121111"/></svg>