<svg xmlns="http://www.w3.org/2000/svg" width="32" height="32" viewBox="0 0 32 32"><path d="M13.949 16.597c-1.158-.489-2.408.156-3.604-.478-1.279-.675-2.349.425-3.167 1.131-.882.76.353 1.295.718 1.94.483.854.908.005 1.344.082.313.055.754-.148.895.255.141.403-.167.545-.548.67-.965.317-.536.872-.206 1.437.522.894 1.697.42 2.443 1.595.033-.737-.002-.992.064-1.215.159-.539-.428-1.237.489-1.636.828-.363 1.318.103 1.847.491.395.294.688.661 1.273.532.768-.172 1.257.088 1.552.912.239.668.864 1.134 1.568.545 1.567-1.309 3.374-1.152 5.138-.809.749.146.853-.08.925-.615.157-1.144.914-1.761 1.903-2.138.407-.156 1.53-1.754 1.337-1.766-.911-.055-1.311-1.139-2.236-1.062-.953.079-1.585-.269-2.098-1.112-.463-.759-.973-1.741-2.219-.874-.21.146-.937-.104-1.159-.382-.877-1.098-1.861-.663-2.874-.365-.703.207-1.408.449-2.129.538-1.276.156-1.132 1.177-.903 1.816.229.64-.055.633-.353.508z" fill-rule="evenodd" clip-rule="evenodd" fill="#121111"/></svg>