<svg xmlns="http://www.w3.org/2000/svg" width="32" height="32" viewBox="0 0 32 32"><path d="M8.88 9.239c-.354.357-.054.682.146.901.726.797.867 1.875 1.393 2.777.548.936.521 2.036-.487 2.909-.462.4-.785 1-1.057 1.565-.844 1.756-.514 2.753 1.116 3.66 1.795.999 3.586 2.005 5.376 3.015.297.167.815.355.823.551.072 1.646 1.616 1.895 2.503 2.756.851.829 1.443.613 1.822-.461.692-1.951 1.672-3.685 3.538-4.773.278-.163.63-.485.283-.829-1.518-1.51-.813-3.413-.953-5.162-.176-2.194-.417-4.422 1.815-5.907-1.936-.949-3.6-1.17-4.962.552-.099.124-.469.065-.705.042-1.221-.113-2.417-.265-3.433-1.072-.654-.518-1.369-.889-2.272-.875-.73.01-1.31-.269-1.312-1.208 0-1.213-.948-.928-1.425-.59-.826.586-1.485 1.416-2.209 2.149z" fill-rule="evenodd" clip-rule="evenodd" fill="#121111"/></svg>