<svg xmlns="http://www.w3.org/2000/svg" width="32" height="32" viewBox="0 0 32 32"><path d="M11.373 17.63c.347 1.144.701 2.241 1.28 3.286.167.3.77.66-.014.966.484.487.232 1.277.674 1.738.216.226.647.148.958-.062.278-.188.319-1.03.911-.349.331.382.406.769-.089 1.121-.256.183-.387.472-.178.76.202.28.503.254.79.115.715-.349 1.423-.089 2.067.139 1.226.433 2.599-.061 3.253-1.294.051-.051.102-.099.153-.147.763-.086 1.514-.326 2.275-.298a2.707 2.707 0 0 1 1.386.431c.577.369.47-.414.478-.694.013-.444-.462-.584-.74-.846-.477-.446-.603-1.102-.395-1.582.198-.455.816-.658 1.4-.416.539.223.845.111.804-.538-.028-.433.34-.341.582-.466 1.871-.968 4.848-1.037 3.756-4.494-.038-.12.034-.295.098-.423.47-.927.271-1.789-.217-2.64-.611-1.063-.63-2.115.115-3.134.073-.166.115-.327-.05-.464l-.217.262c-.276.075-.631.063-.816.235-.885.816-1.639 1.112-2.733.158-.602-.523-1.322.44-2.034.618-.621.158-.113.605.005.927.15.416.077 1.03-.393.73-.871-.558-1.849-.648-2.744-1.023-1.007-.423-1.864-1.107-3.129-.754-.865.242-1.868.175-2.778.038-1.851-.278-3.244.224-4.165 1.914-.253.466-.578 1.103-.998 1.225-1.233.361-.854 1.11-.57 1.812.43 1.053.972 2.152 1.275 3.149z" fill-rule="evenodd" clip-rule="evenodd" fill="#121111"/></svg>