<svg xmlns="http://www.w3.org/2000/svg" width="32" height="32" viewBox="0 0 32 32"><path d="M10.903 19.141c.867.229 1.177-.348.944-1.095-.26-.835-.591-1.667-1.026-2.426-.54-.946-.669-1.921-.562-2.966.02-.147.036-.293.056-.439.112-.857.209-1.81-.963-1.883-1.105-.069-1.273.894-1.379 1.738-.097.779-.08 1.572-.186 2.35-.34 2.549.607 4.056 3.116 4.721zM29.878 25.69c.144-1.213-.199-2.325-.675-3.417-.295-.682-.927-.654-1.096-.166-.547 1.6-1.829 1.107-3.002 1.367 1.359.802 2.625 1.657 3.742 2.743.583.567.947.178 1.031-.527zM16.315 26.358c.812.148 1.635.219 2.66.35-.559-1.042-1.409-1.45-2.204-1.851-.392-.197-1.146-.541-1.364.093-.202.59.142 1.268.908 1.408z" fill-rule="evenodd" clip-rule="evenodd" fill="#121111"/></svg>