<svg xmlns="http://www.w3.org/2000/svg" width="32" height="32" viewBox="0 0 32 32"><path d="M7.782 12.88c.273.207.188.524.288.702.836 1.489 1.761 2.928 2.688 4.363.06.092.382-.012.569.029 1.796.387 3.858 3.814 3.206 5.296-.265.598-.863 1.244-.352 1.866.58.706.862-.482 1.468-.42.368.038 1.038.151.863-.831-.403-2.263-.278-2.356 1.858-3.211.314-.125.716-.138.951-.347.98-.867 1.729-.672 2.325.415.329.597.919.676 1.1.133.55-1.677 2.001-1.741 3.169-1.993.54-.747-1.132-.836-.279-1.463 1.338-.985 1.682-2.584 2.604-3.814.344-.456-.194-.9-.347-.844-1.229.479-2.034-.746-3.152-.705-.704.026-1.114-.354-.689-1.112.394-.701.004-.555-.51-.78-.595-.262-1.4-.305-1.801-1.365-.283-.747-.922-2.156-2.472-2.145-.808.007-2.085.157-1.988-1.427.014-.23-.38-.54-.925-.365-.766.25-1.42.801-2.496.757 1.593 1.639 1.557 1.9-.15 2.986-.281.177-.813.43-.786.554.375 1.82-1.001 1.379-1.916 1.545-.238.041-.627.112-.666.25-.338 1.177-1.119.958-1.94.685-.425-.142-.844-.005-1.059.31-.305.442.149.71.439.931z" fill-rule="evenodd" clip-rule="evenodd" fill="#121111"/></svg>