<svg xmlns="http://www.w3.org/2000/svg" width="32" height="32" viewBox="0 0 32 32"><path d="M12.135 27.794c2.971-.389 5.75-1.218 7.909-3.468 1.129-1.178 2.315-1.951 4.146-1.516 1.511.355 2.32-.865 1.65-2.229-.867-1.763-1.18-3.629-1.069-5.563.079-1.391-.298-2.625-1.059-3.744-.771-1.132-1.653-2.19-2.424-3.324-.702-1.032-1.432-1.6-2.668-.749-.335.228-.863.297-1.28.254-2.109-.226-3.711.726-5.4 1.856-1.375.926-1.111 1.782-.629 2.908.229.537.732.602 1.166.801.481.223.616.614.511 1.095-.101.459-.473.622-.886.574-1.574-.181-1.579.882-1.425 1.897.105.708.391 1.43.761 2.047.582.967.551 1.878-.06 2.749-.898 1.291-1.938 2.511-.752 4.175.123.171.048.479.06.673-.254 1.262.305 1.712 1.449 1.564z" fill-rule="evenodd" clip-rule="evenodd" fill="#121111"/></svg>