<svg xmlns="http://www.w3.org/2000/svg" width="32" height="32" viewBox="0 0 32 32"><path d="M26.975 18.127c-.114-.688-.704-.66-1.29-.62-.757.053-1.565.258-2.328-.398.621-.576 1.225-1.129 1.819-1.692.363-.344.741-.745 1.278-.49.634.302 1.179.069 1.801-.012 1.191-.159 1.91-.782 1.834-1.862-.08-1.15-.943-2.212-1.869-2.649-.479-.229-.72 1.271-1.154 1.938-.075.115-.105.259-.247.617-.275-.595-.66-1.045-.646-1.479.038-1.168-.686-1.528-1.562-1.973-1.623-.826-3.251-.762-4.998-.576-1.986.213-3.265 1.076-3.971 2.936-.749 1.969-1.635 3.888-2.89 5.596-.88 1.198-1.864 2.32-2.871 3.564 2.55.321 4.928.66 7.316.917 2.817.305 3.194.596 3.894 3.346.097.379.129.813.338 1.119.395.587.689 1.372 1.574 1.379 2.673.017 5.347.005 8.112.005-1.09-3.488-3.562-6.169-4.14-9.666z" fill-rule="evenodd" clip-rule="evenodd" fill="#121111"/></svg>