<svg xmlns="http://www.w3.org/2000/svg" width="32" height="32" viewBox="0 0 32 32"><path d="M29.435 15.514c-1.045-.37-1.829-1.236-3.019-1.347-1.318-.12-2.633-.157-3.951-.219-1.654-.082-3.353.552-4.959-.605-.704-.51-1.675-.013-1.919.925-.228.878-.724.81-1.267.538a4.871 4.871 0 0 0-2.698-.51c-.702.067-1.54.581-1.3 1.078.471.976-.271.987-.673 1.235-.412.252-.745.512-1.005.997.654.235 1.195.351 1.641.794.622.622 1.122.024 1.605-.367.028-.021.222.11.296.204.584.74 1.531.776 2.616 1.372-1.537.086-2.301 1.419-3.852 1.025-.782-.2-1.655.482-1.513 1.525.149 1.095.893.769 1.553.451.251-.12.443-.021.661.139 1.514 1.112 3.026.085 4.539-.038.278-.021.307-.293.39-.538.463-1.369 2.361-2.168 3.695-1.604.587.25 1.53-.019 1.596-.237.496-1.655 1.884-1.231 2.997-1.455.238-.049.587-.078.679-.236.839-1.429 2.45-1.496 3.732-2.102.805-.38.824-.788.156-1.025z" fill-rule="evenodd" clip-rule="evenodd" fill="#121111"/></svg>