<svg xmlns="http://www.w3.org/2000/svg" width="32" height="32" viewBox="0 0 32 32"><path d="M25.31 26.696c.387-.868-.599-1.753-.535-2.049.312-1.434-.725-1.626-1.469-2.149-.109-.076-.188-.203-.266-.316-1.59-2.309-3.09-4.696-5.649-6.11-.267-.146-.692-.181-.425-.719.178-.357.328-.603.742-.427.447.189.712.007 1.003-.327.569-.653.083-.92-.233-1.501-.626-1.155-1.033-1.83-2.495-1.095-.605.305-1.778-.332-1.654-1.028.292-1.646-1.355-1.784-1.808-2.803-.22-.495-.836-.518-1.264-.26-.431.26-.43.739-.183 1.177.221.392.354.755.253 1.247-.139.682-.681.703-.91.394-.83-1.118-1.117.021-1.582.314-.315.197-.249.681-.665.891-1.767.901.887 1.728.078 2.669-.152.176.084.459.327.563.131.055.306.112.427.069 1.41-.485 1.252.747 1.154 1.299-.149.836-.208 1.694-.417 2.52-.09.358-.529.771-.13 1.06.432.313.781-.151 1.134-.411.814-.595 1.518-1.631 2.723-.49.374.355.897-.137 1.249-.465.999-.927 1.635-.887 2.459.17.75.961 1.789 1.749 1.401 3.26-.147.568.467 1.07.891 1.443.518.452 1.324.714.986 1.598-.272.715.291 1.567-.268 2.125-.78.781-.752 1.055.384 1.147.349.029.674.337 1.202.617.126-1.077.165-1.974 1.63-1.272.769.368 1.544-.318 1.91-1.141z" fill-rule="evenodd" clip-rule="evenodd" fill="#121111"/></svg>