<svg xmlns="http://www.w3.org/2000/svg" width="32" height="32" viewBox="0 0 32 32"><path d="M27.949 13.709c.132-.17-.034-.447-.238-.637-.843-.79-1.805-1.28-2.977-.997-.655.158-1.184.073-1.577-.451-.604-.8-1.552-1.023-2.371-1.41-1.019-.482-2.018.105-2.926.541-.84.403-.209 1.179-.144 1.707.146 1.172-.582 1.657-1.384 1.963-.859.324-1.511-.063-2.02-.941-1.11-1.905-3.619-2.511-4.604-1.019-1.136 1.718-2.433 3.555-1.676 6.06 1.534-1.129 3.136-1.409 4.931-1.348 1.979.07 3.979 1.148 5.963.015.063-.036.224-.008.27.049 1.048 1.304 3.012 1.061 4.047 2.438.454.605 1.229.667 1.843.18.403-.321.769-.348 1.218-.271 1.307.229 1.758-1.05 2.569-1.617.606-.42-.081-1.301-.412-1.957-.354-.702-1.273-1.316-.512-2.305z" fill-rule="evenodd" clip-rule="evenodd" fill="#121111"/></svg>