<svg xmlns="http://www.w3.org/2000/svg" width="32" height="32" viewBox="0 0 32 32"><path d="M24.775 8.323c-.341-.512-1.025-.79-1.396-.51-.946.725-1.965.38-2.952.485-.398.043-.962-.169-.938.564.031.984-.749 1.277-1.405 1.681-1.211.75-2.135 1.884-2.392 3.176-.34 1.713-.932 3.25-1.747 4.766-.924 1.717-1.304 3.701-2.423 5.322-1.035 1.496-1.167 3.319-2.179 4.885 1.078.063 1.914.068 2.74.166 1.129.137 1.91-.14 2.1-1.405.057-.368.158-.879.594-.941 1.652-.237 2.737-1.448 3.729-2.51.535-.574 2.829-1.162.92-2.796-.293-.25-.021-.757.228-1.059.572-.697 1.193-1.29 2.216-1.219.746.054 1.5.012 2.355.012-1.23-1.332-1.153-1.837.497-2.701 1.136-.596 2.138-1.568 1.936-2.656-.269-1.451-.453-3.372-2.944-3.551.365-.398.543-.557.677-.747.202-.287.712-.472.384-.962z" fill-rule="evenodd" clip-rule="evenodd" fill="#121111"/></svg>