<svg xmlns="http://www.w3.org/2000/svg" width="32" height="32" viewBox="0 0 32 32"><path d="M28.045 11.933c-1.96-1.063-3.453-2.715-5.063-4.208-.368-.341-.639-.606-1.107-.447-3.306 1.116-6.555 2.32-8.793 5.239-1.309 1.706-2.085 3.931-4.481 4.6-.414.115-.531.524-.401.975.646 2.207 2.204 3.955 3.079 6.08.382.927 1.741 1.888 2.788 2.681.872.659 1.977.678 2.952.637.809-.035.723-1.165 1.114-1.732.922-1.335 1.335-3.342 3.536-3.263 1.238.045 2.311-.407 3.319-.975 2.39-1.341 2.622-4.169 4.08-6.163.217-.295.226-.741.347-1.167-.32-.819-.424-1.744-1.37-2.257z" fill-rule="evenodd" clip-rule="evenodd" fill="#121111"/></svg>