<svg xmlns="http://www.w3.org/2000/svg" width="32" height="32" viewBox="0 0 32 32"><path d="M11.786 18.376c1.167.765 2.442 1.399 3.421 2.413 3.083 3.202 6.739 5.452 10.938 6.88.83.283 1.294.436 1.1-.748-.183-1.118-.106-2.215.456-3.276.441-.837.724-1.984.219-2.689-.795-1.111-1.854-2.232-3.063-2.783-.84-.384-1.743-.631-2.592-1.291 1.525-1.098 1.591-2.493.969-4.069-.294-.747-.584-1.588-1.4-1.71-.793-.119-.394.976-.889 1.312-.147.097-.171.356-.299.497-.316.351-.907.525-1.146.294-.463-.445-1.561-.581-1.397-1.206.339-1.278-.316-2.297-.528-3.411-.288-1.519-2.709-2.573-3.741-1.528-.697.706-1.558 1.59-1.855 2.524-.365 1.148-1.063 1.816-1.914 2.464-.902.688-1.723 1.439-2.327 2.419-.268.432-.369.738.084 1.114 1.247 1.036 2.638 1.923 3.964 2.794z" fill-rule="evenodd" clip-rule="evenodd" fill="#121111"/></svg>