<svg xmlns="http://www.w3.org/2000/svg" width="32" height="32" viewBox="0 0 32 32"><path d="M13.333 22.572c-.639.448-1.287.886-1.938 1.32-.465.311-.665.706-.448 1.254.228.582.634.337 1.078.32.961-.037 1.806-.345 2.646-.752.63-.306 1.443-.625 1.869.076.725 1.196 1.616.963 2.645.653 1.013-.308 2.186-.375 2.271-1.82.027-.46.299-.675.699-.832 1.309-.501 1.523-1.203.747-2.354-.202-.297-.629-.447-.442-.978.584-1.662.279-2.277-1.169-3.239-.839-.558-1.597-1.273-2.266-2.032-.398-.454-.622-1.107-.278-1.777.892-1.732.87-1.881-.778-2.904-.523-.327-.841-.576-.245-1.059.844-.681.441-1.259-.12-1.814-.695-.687-1.417-1.344-2.358-2.232-.033 1.907-1.263 3.081-1.907 4.526-.948 2.129-2.452 4.321-.634 6.718 1.023 1.351 1.288 2.911 1.576 4.509.186 1.055-.104 1.821-.948 2.417z" fill-rule="evenodd" clip-rule="evenodd" fill="#121111"/></svg>