<svg xmlns="http://www.w3.org/2000/svg" width="32" height="32" viewBox="0 0 32 32"><path d="M27.365 14.287c-.847-.04-.599-.528-.436-.986.137-.384.199-.615-.281-.938-3.955-2.646-3.941-2.666-8.324-2.896a1.184 1.184 0 0 1-.289-.051c-2.262-.701-4.64-.313-7.022-.73-1.287.216-2.526.778-3.675 1.55a.769.769 0 0 0-.29.46c-.243 1.269.461 2.393.644 3.599.055.353 1.035.543 1.565.854.801.469 1.662.493 2.553.528.832.037 1.709.551 1.353 1.396-.622 1.468-.047 2.076 1.216 2.378.965.233 1.182.971 1.563 1.713.243.468 4.208.026 4.667-.476.507-.555 1.264-.558 1.837-.946.644-.439.675.966 1.386.449.987-.719-.537-.773-.334-1.466.517-1.765 1.326-3.086 3.276-3.376.406-.061.497-.436.75-.648.213-.179.033-.401-.159-.414z" fill-rule="evenodd" clip-rule="evenodd" fill="#121111"/></svg>