<svg xmlns="http://www.w3.org/2000/svg" width="32" height="32" viewBox="0 0 32 32"><path d="M8.962 22.494c-.709.563-.186 1.168.185 1.273 1.468.42 2.654 1.402 4.073 1.879.632.211 1.402.06 1.833-.322 1.734-1.54 3.441-1.345 5.217-.171.778.514.816.104.894-.584.264-2.365.839-4.578 2.743-6.285 1.106-.992.521-2.885-.874-3.326a24.877 24.877 0 0 1-2.066-.745c-2.227-.936-5.562-4.419-5.142-7.399.307-.732.129-1.802-.69-1.93-1.045-.16-2.164-.807-3.354.38-1.624 1.616-2.402 3.651-3.576 5.489-1.254 1.966-1.316 3.751.045 5.61.721.984 1.319 2.056 1.994 3.076.185.278.232.51.028.795-.513.711-.587 1.685-1.31 2.26z" fill-rule="evenodd" clip-rule="evenodd" fill="#121111"/></svg>