<svg xmlns="http://www.w3.org/2000/svg" width="32" height="32" viewBox="0 0 32 32"><path d="M5.804 17.622c-.067.285 1.217 2.65 1.496 2.69 1.636.23 2.555 1.764 4.162 2.218.788.223 1.325.475 1.968-.008.769-.579 1.419-.531 2.262-.052 2.727 1.544 5.508 2.986 8.27 4.466 1.564.838 2.642.204 2.651-1.551.025-5.044-.055-10.093.145-15.13.058-1.466-.239-1.908-1.604-1.883-.419.007-.847-.223-1.154-.585-.382-.448-.894-.585-1.394-.523-1.95.02-2.829.943-2.735 2.758.058 1.105-.687 1.203-1.475 1.009-.402-.099-.724-.493-1.105-.714-1.325-.769-3.038-.467-4.129-2.171-.715-1.116-2.707-.693-4.136-.883-.725-.095-.307.86-.999 1.086-1.641.537-.994 2.743-2.324 3.615-.029.019.017.189.06.271.974 1.79.456 3.588.041 5.387z" fill-rule="evenodd" clip-rule="evenodd" fill="#121111"/></svg>