<svg xmlns="http://www.w3.org/2000/svg" width="32" height="32" viewBox="0 0 32 32"><path d="M6.633 17.184c.04 1.646 1.161 3.146 2.122 3.771 1.29.838 3.272 1.119 5.02.528.385-.13.744-.293 1.127-.146 1.22.466 2.214-.181 2.787-.995 1.141-1.621 2.646-1.697 4.259-1.35 1.086.233 2.252.242 2.922-.425.676-.675 1.004-1.698 2.091-1.965.017-.002.013-.091.017-.139.156-1.999.694-4.03-.702-5.856-.247-.321-.465-.639-.859-.741-1.26-.327-2.121-1.181-2.877-2.162-.375-.482-.807-.978-1.427-.879-2.289.367-4.566.813-6.845 1.246-.346.064-.662.263-.789.601-.23.61-.483.499-.964.211-.853-.511-3.343.163-3.615 1.028-.282.894-.089 1.912-1.61 1.83-.389-.02-.55 1.168-.51 1.835.031.52.139.973-.427 1.252v1.179c.538.281.271.783.28 1.177z" fill-rule="evenodd" clip-rule="evenodd" fill="#121111"/></svg>