<svg xmlns="http://www.w3.org/2000/svg" width="32" height="32" viewBox="0 0 32 32"><path d="M11.128 23.269c.019.04 0 .098.001.146.062 1.441 1.095 2.612 2.479 2.808.793.112 2.909-1.093 3.162-1.862a379.616 379.616 0 0 0 2.495-7.795c.338-1.109.487-2.375.909-3.334.367-.833-.249-2.327 1.244-2.639.069-.015.157-.289.12-.405-.504-1.556-.305-3.321-1.402-4.703-.278-.351-.754-.646-.858-.127-.217 1.082-1.318 1.6-1.574 2.335-.657 1.888-2.118 2.566-3.653 3.164-1.99.774-2.767 2.06-2.196 4.157.166.607.336 1.211.488 1.762-.074.312-.063.598-.197.775-1.305 1.74-2.082 3.56-1.018 5.718z" fill-rule="evenodd" clip-rule="evenodd" fill="#121111"/></svg>