<svg xmlns="http://www.w3.org/2000/svg" width="32" height="32" viewBox="0 0 32 32"><path d="M21.412 24.145c.053-.024.041-.184.062-.279.513-2.424-.573-5.084-2.633-6.449-.669-.442-1.434-3.207-1.054-3.924.051-.094.289-.089.461-.119-.159-.538-.246-1.048.534-1.165.316-.047.495-.285.247-.465-1.131-.821-.567-2.073-.852-3.103-.241-.876-.619-2.056-1.453-1.972-1.097.11-2.05-.311-2.917-.34.107 1.378 2.852 2.159.707 4.017-.041.034.171.312.124.393-.818 1.396 1.145 3.347-.891 4.51-.081.046-.04.367-.001.548.098.468-.02.955-.282 1.253-.817.928-.151 1.398.532 1.75.263.136.529.232.635.485.431 1.028 1.225 1.167 2.14.848.745-.261 1.003.122 1.122.712.126.626.207 1.277-.2 1.845-.833 1.159-.25 2.021.514 2.917.416.486 1.157.723 1.178 1.558.006.242.637.432.566.064-.279-1.446.105-2.462 1.461-3.084z" fill-rule="evenodd" clip-rule="evenodd" fill="#121111"/><path d="M18.396 13.639c.036.007.082-.042.123-.066l-.242-.161c-.055.115-.026.199.119.227z" fill-rule="evenodd" clip-rule="evenodd" fill="#121111"/><path d="M18.278 13.413c.007-.017-.001-.026.01-.044-.012.003-.027.003-.041.006a.202.202 0 0 0 .007.023l.024.015z" fill-rule="evenodd" clip-rule="evenodd" fill="#121111"/></svg>