<svg xmlns="http://www.w3.org/2000/svg" width="32" height="32" viewBox="0 0 32 32"><path d="M28.046 15.438c-.532-.846-1.146-.644-1.524.137-.814 1.674-2.736 2.108-3.816 3.482-.146.186-.538.232-.821.247-.397.021-.729.209-.798.533-.267 1.246-1.05.963-2.181.452.94 1.402.946 1.297 2.048 1.359.702.04 1.104-.742 1.567-.582 2.392.824 2.754-1.035 3.307-2.482.243-.643.678-.844 1.066-.694 1.357.521 2.166-.227 3.005-1.094-.532-.567-1.403-.644-1.853-1.358zM9.012 16.979c.267 1.893 1.393 3.091 3.021 3.953.394.209.799.305 1.077.11.422-.29.09-.702-.122-.997-.468-.66-.691-1.346-.552-2.174.105-.612-.189-1.093-.661-1.532-.867-.813-2.201-.16-3.109-1.022.117.552.267 1.102.346 1.662z" fill-rule="evenodd" clip-rule="evenodd" fill="#121111"/></svg>