<svg xmlns="http://www.w3.org/2000/svg" width="32" height="32" viewBox="0 0 32 32"><path d="M15.231 19.955c1.894 1.802 4.13 3.094 6.738 3.411 1.51.185 3.095 1.525 4.654-.29.842-.979 1.174-2.901.255-3.834-.68-.691-1.8-.68-2.306-1.412-1.08-1.566-2.764-2.147-4.299-2.997-.481-.265-.895-.592-1.436-.008-.17.183-.991.586-.743-.476.138-.594-.533-.41-.835-.567-.479-.25-.896.412-1.545.065.279-.257.464-.5.707-.634.362-.205.75-.344.384-.851-.311-.43-.526-.098-.83.056-.414.211-.83.43-1.377.338-.542-.088-.401.599-.662.884-.218.24.082.412.364.39.421-.031.575.334.492.555-.365.983.176 2.037-.217 2.964-.437 1.035.016 1.799.656 2.406zM9.041 10.944c1.872.862 3.566-.225 5.319-.553.785-.148.518-.699.079-1.053-1.717-1.383-3.694-2.151-5.658-2.487-.871.194-1.825-.278-2.131.31-.396.761-.022 1.821.173 2.602.136.545 1.428.818 2.218 1.181zM13.861 11.248c.018.205.129.817.481.726.632-.115 1.243-.028 1.271-.535.023-.392-.451-.684-.939-.693-.395-.012-.854.037-.813.502z" fill-rule="evenodd" clip-rule="evenodd" fill="#121111"/></svg>