<svg xmlns="http://www.w3.org/2000/svg" width="32" height="32" viewBox="0 0 32 32"><path d="M25.479 19.804c-.212-.916-.737-1.458-1.312-2.136-.657-.775-2.308-1.501-.81-3.104-.629-.031-1.054-.095-1.472-.064-.365.026-.795.73-1.058.02-.194-.535.471-.831.813-.908 1.386-.319.175-.78.071-1.129-.048-.168-.359-.341-.568-.36-.68-.064-.533-.648-.445-.907.212-.623.61-.183.928-.02.668.342 1.965-.382 1.967-1.096 0-.453-.5-.744-.629-.607-.87.925-2.402.411-3.185 1.67-.548-1.28-1.552-2.06-2.315-3.034-1.063-1.356-2.817-1.621-4.208-2.465-1.295-.782-2.961-.641-4.359.157-1.451.825-1.507 2.43-.348 3.72.566.631 1.785.987 1.367 2.176-.341.968.076 1.623.461 2.454.734 1.581 2.329 2.149 3.483 3.196.559.513 1.901.997 2.897-.114-.05.78.447 1.246.661 1.83.101.278.819.271.411.73-.306.345-1.002.458-1.216.173-1.386-1.852-1.977.254-2.676.652-1.095.622.186 1.427.346 2.162.236 1.067.992 1.244 1.795.514.313-.28.65-.475 1.061-.318 1.313.504 2.774.172 4.035.636.597.219 2.669-.29 1.564 1.731-.181.334.23.699.517.971.338.322.788.327 1.083.11.766-.555 2.39-2.918 1.873-3.903-.46-.884-.523-1.827-.732-2.737z" fill-rule="evenodd" clip-rule="evenodd" fill="#121111"/></svg>