<svg xmlns="http://www.w3.org/2000/svg" width="32" height="32" viewBox="0 0 32 32"><path d="M12.364 16.38c-1.27-.099-2.552-.012-3.829-.026-.542-.006-1.028.236-.623.728.862 1.04.743 2.292 1.088 3.441.327 1.089.345 1.987-.184 2.934-.322.577-.65 1.14-.36 1.763.522.03.404-.514.809-.626 1.837-.509 3.29.093 4.647 1.412.463.451 1.247 2.857 2.492.46.03-.059.218-.111.24-.086.714.839 1.481.045 2.209.042 2.203-.01 4.404-.161 6.606-.223 1.163-.032 1.398-.747.936-1.54-.452-.774-.511-1.581-.602-2.378-.368-3.212-.643-6.436-.978-9.651-.231-2.233-.25-2.23 1.935-2.463.041-.005.067-.149.11-.252l-5.681-3.7c-.106 2.228-.106 2.228-2.087 2.228h-.147c-3.17 0-3.187 0-3.18 3.208.001.786-.029 1.442-.941 1.729-.647.204-.91.738-.782 1.399.277 1.432-.43 1.697-1.678 1.601z" fill-rule="evenodd" clip-rule="evenodd" fill="#121111"/></svg>