<svg xmlns="http://www.w3.org/2000/svg" width="32" height="32" viewBox="0 0 32 32"><path d="M28.98 13.454c-.843-2.456-2.345-4.487-3.849-6.538-.399-.545-.809-.683-1.477-.642-2.693.161-4.353 1.311-5.03 3.938-.423 1.639-1.185 2.832-2.76 3.484-.608.252-1.025.713-1.355 1.289-1.151 2.015-1.42 4.237-1.476 6.486-.024.976.004 1.845-1.156 2.17-.348.097-.596.271-.48.74.199.809 2.466 2.818 3.321 2.852 2.725.105 5.439.32 8.123-.552 2.141-.696 3.801-1.716 4.117-4.145.067-.522.266-.971.735-1.204 1.779-.883 2.122-2.404 1.867-4.155.311-1.344-.162-2.507-.58-3.723z" fill-rule="evenodd" clip-rule="evenodd" fill="#121111"/></svg>