<svg xmlns="http://www.w3.org/2000/svg" width="32" height="32" viewBox="0 0 32 32"><path d="M27.394 17.524c-.632-.301-2.159.302-2.344 1.019-.268 1.047-1.064 1.092-1.896 1.233-.843.146-1.555.011-2.051-.718-.791-1.154-1.423-2.352-.836-3.823.112-.284.365-.814-.073-.9-1.292-.25-1.479-1.433-2.089-2.253-.396-.533-.922-.918-1.475-.523-.838.595-1.03.066-1.434-.495-.548-.764-1.285-1.527-2.325-1.033-.944.446-1.766.236-2.666.013-.938-.232-1.75-.838-2.757-.856-.841-.015-1.134.302-.601 1.009.982 1.294 1.155 3.148 2.781 4.002.149.076.313.302.313.46.007 1.285 1.256 1.23 1.717 2.014l.271-.245c-.79-1.335-1.582-2.669-2.374-4.004l.104.012.067-.082c2.042 1.163 3.169 3.216 4.71 4.864.125.132.26.386.215.525-.531 1.603.858 1.859 1.726 2.356 1.051.601 2.223.987 3.335 1.48.456.201 1.005.47 1.409.249 1.201-.656 1.905.107 2.88 1.035-.401-1.239 1.911-1.011.485-2.625 2.113.55 2.645-.675 3.118-2.006.119-.331.133-.544-.21-.708z" fill-rule="evenodd" clip-rule="evenodd" fill="#121111"/></svg>