<svg xmlns="http://www.w3.org/2000/svg" width="32" height="32" viewBox="0 0 32 32"><path d="M25.249 13.865c-1.112-.69-2.011-1.605-3.073-2.319-1.911-1.286-3.83-2.563-5.671-3.942-.821-.615-1.661-.699-2.605-.707-.746-.006-.872.228-.776.956.481 3.632.604 7.308 1.365 10.907.098.466-.003.845-.656.854-2.125.029-4.246-.062-6.376.192-1.178.14-1.597.457-1.478 1.646.09.917 1.078 1.457.851 2.491-.084.383.393.263.673.257.633-.014 1.269.077 1.887-.152.201-.075.455-.515.634.038.548 1.683 1.139 3.131 3.497 2.284.401-.145 1.074-.005 1.087-.545.033-1.318 1.584-1.757 1.611-3.03.001-.079.243-.245.292-.219.923.488.99-.571 1.491-.792 1.152-.508 2.119-1.49 3.542-1.352 1.468.142 2.821-.69 4.309-.579.482.036.721-.444.899-.853.321-.735.397-1.511.324-2.439.856-1.696-1.131-2.263-1.827-2.696z" fill-rule="evenodd" clip-rule="evenodd" fill="#121111"/></svg>