<svg xmlns="http://www.w3.org/2000/svg" width="32" height="32" viewBox="0 0 32 32"><path d="M24.772 16.792c-1.105-.958-2.392-1.611-2.075-3.396.015-.081-.515-.206-.72-.389-.773-.687-1.882-1.127-1.138-2.634.333-.676.525-2.091-1.229-1.775-.359.064-.555-.332-.733-.632-.2-.336-.412-.754-.86-.711-1.878.188-3.152-1.08-4.635-1.854-.642-.334-1.277-.665-2.076-.411-1.087.344-2.125.884-3.378.538-.429-.12-1.072.267-1.373.96 2 .033 2.638 1.545 3.228 2.895.939 2.149 2.434 3.854 4.001 5.502 1.111 1.165 1.833 2.554 1.56 4.033-.344 1.874-.74 3.665-.544 5.61.068.68.124 1.11.618 1.502.417-.57 1.939.318 1.623-1.252-.088-.438.445-.601.636-.915.78-1.271 2.776-2.008 1.784-4.088-.255-.533.319-.723.698-.93.663-.355.58.144.622.53.028.263.194.313.39.15.549-.457 1.148.03 1.622-.063 1.051-.206 2.06 1.012 3.251-.185-1.478-.41-.657-1.952-1.272-2.485z" fill-rule="evenodd" clip-rule="evenodd" fill="#121111"/></svg>