<svg xmlns="http://www.w3.org/2000/svg" width="32" height="32" viewBox="0 0 32 32"><path d="M16.562 16.862c.533-.072 1.072-.245 1.597-.207 1.124.082 2.276-.555 2.417-1.292.345-1.794 1.456-3.23 1.869-4.952.213-.887 1.952-1.617 2.695-1.15.27.17.518.208.824.071.374-.168.259-.458.272-.744.04-.846-.546-1.588-.385-2.45.142-.759-.334-1.042-1.097-1.285.178.925-.094 1.346-.954 1.516-2.316.464-3.709 1.777-4.314 4.198-.293 1.172-.918 2.822-2.902 2.34-.133-.034-.348.163-.492.291-1.564 1.397-3.092 2.841-4.7 4.188-.634.53-.985 1.09-.815 1.876.18.831-.186 1.131-.902 1.481-1.382.673-1.372 1.351-.15 2.236.912.663 1.881 1.275 2.682 2.059 1.033 1.009 1.77 1.081 2.826-.058 1.113-1.201 1.157-1.555-.38-2.133-.326-.123-.708-.315-.559-.716.192-.521.523-.171.802-.015 1.136.642 2.101.543 3.241-.247 1.548-1.071 1.818-1.583.936-3.291-.276.99-1.099.65-1.785.653-.674.005-.834-.26-.553-.879.091-.199.013-.526-.333-.505-.472.029-.624-.18-.534-.606.079-.388.412-.338.694-.379z" fill-rule="evenodd" clip-rule="evenodd" fill="#121111"/></svg>