<svg xmlns="http://www.w3.org/2000/svg" width="32" height="32" viewBox="0 0 32 32"><path d="M26.005 17.488c-.102-.337.089-.512.193-.726.13-.26.21-.543.315-.833-1.028-.459-1.896-.483-2.801.12-.41.273-1.071.392-1.556.288-1.519-.325-2.878-1.377-4.575-.915-.255.069-.37-.377-.546-.594-.563-.694-1.438-.747-2.245-.804-.297-.022-.683.313-.652.688.159 2.032-1.544 1.127-1.907.879-1.32-.905-2.369-.449-3.506.197-1.532.874-1.534.859.058 1.876.197.127.507.36.485.504-.267 1.85 1.223 1.729 2.286 2.119.354.129.824.339.944.632.377.927 1.111.968 1.91.989 1.068.031 2.089.235 3.143.509 1.756.456 3.474-.228 5.107-.92.348-.149.813-.324.621-.97-.161-.549.261-.488.622-.39.404.111.724-.108 1.091-.229 1.239-.403 2.119-1.692 3.678-1.19-.482-1.79-1.781-1.048-2.665-1.23z" fill-rule="evenodd" clip-rule="evenodd" fill="#121111"/></svg>