<svg xmlns="http://www.w3.org/2000/svg" width="32" height="32" viewBox="0 0 32 32"><path d="M25.266 14.914c.825.219 1.191-.51 1.82-.646.375-.078.771-.146.788-.698.014-.485-.257-.759-.627-.896-1.736-.635-3.129-1.922-5.028-2.338-1.247-.273-2.379-1.111-3.416-2.11-1.336-1.29-2.356-3.231-4.644-3.255-.33-.005-.677-.245-.933.108-.29.398.009.737.181 1.082.291.582.9 1.089.422 1.925-.562-.25-.926-1.183-1.713-.68-.863.553-1.854 1.073-2.129 2.143-.262 1.021-.208 2.125-1.732 2.159-.395.009-.446.622-.374 1.009.176.945.044 1.981.751 2.788.456.521.349 1.007-.193 1.355-1.189.764-.424 1.761.144 1.936 1.308.405 2.046 1.508 3.186 2.099 1.385.718 2.601 1.835 3.353 3.219.538.992 1.248 1.527 2.261 1.96.21-1.028.515-2.172.064-2.82-.918-1.315-.131-2.143.508-2.956 1.029-1.313 1.838-2.828 3.154-3.969.565.704-.149 1.793.804 2.035 1.065.271 2.035-.308 2.878-.874.688-.462.464-1.199.125-1.843-.216-.414-.258-.894.35-.733z" fill-rule="evenodd" clip-rule="evenodd" fill="#121111"/></svg>