<svg xmlns="http://www.w3.org/2000/svg" width="32" height="32" viewBox="0 0 32 32"><path d="M8.462 19.901c2.786.13 3.036 2.708 4.639 3.932 1.417 1.084 2.384 2.364 4.587 2.628 2.627.313 3.553-1.027 4.766-2.579.386-.495.262-.935-.029-1.329-.438-.592-.739-1.106-.186-1.827.236-.308.061-.804-.22-1.091-.764-.773-.493-1.508-.171-2.399.374-1.021.226-2.492-.67-2.834-2.117-.809-1.907-2.954-2.983-4.313a2.713 2.713 0 0 1-.546-1.465c-.107-2.448-.093-2.406-2.161-3.055-.932-.294-1.437-.034-1.493.884-.099 1.597-.699 2.973-1.489 4.343-.954 1.647-.992 3.77-2.628 5.092-.212.17.005.532.07.82.28 1.2-.009 2.229-1.486 3.193z" fill-rule="evenodd" clip-rule="evenodd" fill="#121111"/></svg>