<svg xmlns="http://www.w3.org/2000/svg" width="32" height="32" viewBox="0 0 32 32"><path d="M16.564 24.708c.246-.594-.458-1.545.37-2.183 1.312-1.014 2.778-1.766 4.396-2.105 1.531-.323 2.335-1.811 3.799-2.195.073-.019.152-.142.168-.228.355-1.901 1.832-1.914 3.293-1.984.408-.02.954.241 1.188-.275.21-.466.078-.975-.235-1.391-.288-.383-.578-.69-.517-1.278.259-2.49-.563-3.601-3.7-3.485-.959.035-1.799.034-2.541-.766-.71-.766-1.391-.526-1.823.419-.264.577-.605 1.124-.821 1.717-.46 1.268-1.335 1.967-2.636 2.287-1.515.372-3.7 3.534-3.226 4.994.596 1.838-.43 2.711-1.558 3.692-1.159 1.008-2.311 2.011-3.957 2.267l.135.513 7.665.001z" fill-rule="evenodd" clip-rule="evenodd" fill="#121111"/></svg>