<svg xmlns="http://www.w3.org/2000/svg" width="32" height="32" viewBox="0 0 32 32"><path d="M14.799 10.972c-1.572-.64-2.679.287-3.974.616-.426.109-.54.333-.484.74.054.396.055.897.521.951 2.304.266 3.066 1.144 2.607 3.715-.272 1.526-.625 2.745-1.554 3.877-.187.228-.463.407-.353.745.559 1.716 1.082 3.431.894 5.277-.028.267.115.603.531.514.273-.058.721-.092.581-.476-.618-1.691.816-1.738 1.71-2.097 1.05-.42 1.523-1.032 1.514-2.196-.009-1.045-.05-2.1-.532-2.988-.5-.923-.311-1.633.405-2.118 1.427-.964 2.322-2.583 4.198-3.032 1.523-.364 2.663-2.152 2.409-3.426-.243-1.218-.209-2.437-.221-3.653-.01-.956-.09-1.337-1.188-.798-1.25.614-2.643 1.199-4.03 1.051-2.199-.235-2.394-.133-1.735 1.992.086.279.075.66.26.826 1.439 1.289.829 2.368-.335 3.46-.352-.574-.85-1.016-.466-1.845.269-.579-.003-.827-.758-1.135z" fill-rule="evenodd" clip-rule="evenodd" fill="#121111"/></svg>