<svg xmlns="http://www.w3.org/2000/svg" width="32" height="32" viewBox="0 0 32 32"><path d="M19.669 11.282c.854-1.04.812-2.297-.271-3.221-1.091-.931-.87.734-1.469.847-.134.027-.257.113-.389.164-.976.368-1.568 1.047-1.804 2.077-.362 1.591-1.736 2.601-2.363 4.086-.458 1.086-.466 1.725.449 2.454 1.127.901 1.775 2.05 1.483 3.582-.055.295-.597.742.123.932.466.122.916.67 1.448.023.233-.283.708-.36.968-.632.44-.453.707-.307.779.197.305 2.147 1.904 4.021 1.243 6.413 1.369-.898 1.466-2.541.332-4.098-.214-.295-.714-.517-.408-.976.701-1.052.228-1.822-.429-2.685-.733-.97-.325-1.879.752-2.424 1.017-.514 2.121-.989 2.659-2.286-.877.053-1.717-.396-1.891-.979-.262-.891-.391-1.867-1.641-1.98-.234-.021-.354-.344-.201-.707.149-.34.416-.53.63-.787z" fill-rule="evenodd" clip-rule="evenodd" fill="#121111"/></svg>