<svg xmlns="http://www.w3.org/2000/svg" width="32" height="32" viewBox="0 0 32 32"><path d="M11.916 15.292c.255.395.458.882.382 1.396-.327 2.197.72 4.221.8 6.365.047 1.32.792 2.277 1.598 3.216.398.463.748.804 1.25.085.385-.546.69-.351.942.184.601 1.281 1.789.832 2.689.69.896-.143 1.346-.873 1.316-1.957-.086-3.042-.012-6.088-.043-9.134-.01-.742.089-1.255.98-1.232.652.016.799-.382.79-.964-.026-1.375.028-2.751-.024-4.124-.026-.725.305-.861.912-1.172 1.521-.777 3.219.312 4.665-.634.293-.191.953-.028.882-.526-.085-.583-.702-.394-1.105-.349-2.22.248-4.394.728-6.68.479-1.139-.125-2.252-.436-3.374-.481-2.885-.117-5.796.176-8.602-.839-.527-.15-.866.245-1.156.519-.543.514-.036 1.067.225 1.418 1.602 2.148 2.109 4.837 3.553 7.06z" fill-rule="evenodd" clip-rule="evenodd" fill="#121111"/></svg>