<svg xmlns="http://www.w3.org/2000/svg" width="32" height="32" viewBox="0 0 32 32"><path d="M24.183 6.035C22.296 4.2 19.82 4.526 17.526 4.306a2.122 2.122 0 0 0-1.905.889c-1.697 2.377-3.894 4.281-6.191 6.037-3.468 2.649-3.902 7.509-1.007 10.815 1.324 1.511 3.387 1.886 4.646 3.406h3.836c1.899-.514 3.293-1.978 5.089-2.716 1.163-.479 1.744-1.48 1.563-2.859-.314-2.438.197-4.635 2.073-6.381.877-.817 1.269-1.864 1.155-3.038-.181-1.861-1.327-3.187-2.602-4.424z" fill-rule="evenodd" clip-rule="evenodd" fill="#121111"/></svg>