<svg xmlns="http://www.w3.org/2000/svg" width="32" height="32" viewBox="0 0 32 32"><path d="M28.753 18.657c-1.554.79-2.846-.467-4.33-.476-1.758-.013-3.298-1.331-4.89-2.177-.528-.278-.469-1.167-.999-1.174-1.85-.021-2.897-1.516-4.343-2.256-.814-.417-1.484-1.692-2.426-.759-.728.726-1.821.092-2.388 1.089-.394.693-.537 1.477-.937 2.12-.658 1.062-.067 1.473.768 1.687.829.211 1.436.731 2.139 1.134 1.861 1.063 3.687 2.237 5.984 2.242.75 0 1.671-.412 2.271.233.874.937 1.859 1.299 3.097 1.681 1.688.524 3.376.646 4.771.971 1.973-.099 2.034-.192 1.622-1.893-.145-.591-.048-1.155.189-1.717.21-.493-.111-.917-.528-.705z" fill-rule="evenodd" clip-rule="evenodd" fill="#121111"/></svg>