<svg xmlns="http://www.w3.org/2000/svg" width="32" height="32" viewBox="0 0 32 32"><path d="M28.03 6.707c-1.086-.336-1.785-1.465-3.171-1.237-2.511.413-5.216.08-6.993 2.585-.449.631-1.324 1.164-2.139 1.17-1.07.005-1.379.604-1.496 1.405-.349 2.394-1.464 4.312-3.325 5.849-.339.28-.438.849-.647 1.284l-.207.233c-.334.135-.893-.159-.998.359-.099.487.771.063.751.485-.451.769-2.705-.856-1.747 1.525-.125.049-.246.113-.376.146-.376.096-.865.112-.623.714.179.442.462.744 1.023.497.322-.142.676-.128.996.05.91.507 1.638.154 2.436-.357.897-.579 1.865-1.307 2.984-1.05.665.153 1.582-.123 1.938.355.592.795 1.241.884 2.121.964 1.568.139 2.045 1.042 1.394 2.303-.2.39-.559.771-.047 1.153.51.379 1.2.499 1.649.15.33-.257.656-.945.123-1.421-.464-.416-.426-.548.098-.905.883-.605 1.118-2.936.559-3.856-.278-.455-1.027-.854-.578-1.483.378-.525 1-.257 1.601-.19.989.108 2.557.059 2.602-.967.038-.892.36-1.067.849-1.421.49-.354.62-.889.575-1.438-.051-.609-.52-.759-1.056-.777-.343-.012-.759-.008-.735-.497.025-.52.335-.773.886-.73.38.031.821.094.94-.439.24-1.086.979-2.054.783-3.243-.07-.418.232-1.093-.17-1.216z" fill-rule="evenodd" clip-rule="evenodd" fill="#121111"/></svg>