<svg xmlns="http://www.w3.org/2000/svg" width="32" height="32" viewBox="0 0 32 32"><path d="M28.786 9.489c-.431-.845-1.002-1.365-1.926-.604-.742.609-1.468.706-2.399.353-1.038-.392-2.211-.328-3.056.429-.667.599-1.251.516-1.864.204-.932-.477-1.82-.927-2.855-.292-.306.188-.521.001-.764-.2-1.461-1.206-3.111-1.476-4.235-.72-.967.65-1.814 3.351-1.291 4.548.35.802.12 1.59-.267 2.039-1.264 1.466-1.789 3.032-1.244 4.927-.67 1.579.322 1.609 1.414 1.469 1.446-.184 2.309.569 2.939 1.732 1.239 2.289 1.244 2.323 3.646 1.71.393-.1.76-.082 1.135-.123.834-.09 1.499-.528 1.588-1.293.137-1.172.915-1.834 1.674-2.477.604-.512 1.438-1.019 2.104.01.472.732.757.323 1.051-.114.874-1.301 1.255-2.848 2.276-4.106 1.071-1.32.958-3.426 2.844-4.3.432-.2.526-1.147.166-1.452-.587-.498-.641-1.157-.936-1.74z" fill-rule="evenodd" clip-rule="evenodd" fill="#121111"/></svg>