<svg xmlns="http://www.w3.org/2000/svg" width="32" height="32" viewBox="0 0 32 32"><path d="M26.853 4.282c-.361-.23-.902-.194-1.263.077-1.305.976-2.946.917-4.377 1.494-.442.178-.881.156-1.232-.192-.757-.752-1.263-.433-1.743.331-.676 1.076-1.343 2.15-2.444 2.893-.663.446-1.2 1.123-1.969.163-.316-.394-.679-.097-.855.168-.476.718-1.028 1.093-1.942.9-.615-.13-.852.245-.839.872.038 1.766-.928 2.727-2.629 3.06-.608.12-.945-.894-1.515-.187v.886c1.753.708 3.156 2.035 4.174 3.444 1.302 1.799 3.195 2.896 4.527 4.592.101.128.355.258.489.217 1.847-.535 3.464 1.129 5.393.463.995-.34 1.617 1.084 2.653 1.247.585.094 1.104.023 1.488-.398.488-.536-.211-.724-.401-1.055-.226-.392-.426-.792-.364-1.249.142-1.045 1.462-1.957.348-3.151-.027-.028.05-.18.104-.257 1.137-1.599 1.187-3.425 1.026-5.267-.091-1.043-.051-2.057.29-3.043.548-1.589 1.844-3.041.86-4.9-.016-.028.038-.089.045-.137.053-.332.725-.622.176-.971z" fill-rule="evenodd" clip-rule="evenodd" fill="#121111"/></svg>