<svg xmlns="http://www.w3.org/2000/svg" width="32" height="32" viewBox="0 0 32 32"><path d="M10.021 24.52c.971.639 2.223.539 2.791-.521.877-1.635 2.287-1.93 3.727-.748.198.165.384.359.616.245.81-.394 1.504.208 2.205.218 1.802.026 3.555-.896 5.416-.403 1.126-2.075 2.947-3.856 3.464-6.146.581-2.587.478-5.311-.801-7.941-.223-.11-.55.632-1.014.184-1.587-1.532-3.038-.818-4.587.175-2.311 1.48-4.42 3.374-6.833 4.527-1.731.827-2.229 1.593-2.02 3.239a1.96 1.96 0 0 1-.021.587c-.218 1.277-.563 2.355-2.244 2.301-.847-.028-1.706.262-2.554.45-1.134.251-.841.758-.476 1.297.648.951 1.31 1.864 2.331 2.536z" fill-rule="evenodd" clip-rule="evenodd" fill="#121111"/></svg>