<svg xmlns="http://www.w3.org/2000/svg" width="32" height="32" viewBox="0 0 32 32"><path d="M10.273 23.6c-.692.747-.12 3.151.833 3.499.294.106.605.113.815-.142.742-.907 1.679-.57 2.588-.438.311.045.604.387.936.057 1.373-1.361 3.071-1.77 4.949-1.837.749-.028 1.196-.521.39-1.239-.622-.555-1.216-1.141-1.848-1.681-1.19-1.023-1.061-2.198.425-2.794 1.939-.775 3.517-2.111 5.261-3.189.615-.38.896-.954.86-1.604-.084-1.631.665-2.813 1.837-3.821.66-.566 1.292-1.17 1.936-1.759-1.179.082-2.011-.568-2.899-1.138-.479-.308-.945-.081-1.186.471-.807 1.859-2.116 3.137-4.16 3.521-.543.1-.691.417-.479.823.429.826-.016.927-.654.864-.72-.069-1.496.039-2.123-.42-1.04-.756-1.728-.334-2.26.625a5.257 5.257 0 0 1-2.419 2.269c-1.148.544-2.236 1.219-3.406 1.706-.802.333-1.287.833-1.534 1.693.427.15.747.267 1.068.374 3.014 1.018 3.223 1.835 1.07 4.16z" fill-rule="evenodd" clip-rule="evenodd" fill="#121111"/></svg>