<svg xmlns="http://www.w3.org/2000/svg" width="32" height="32" viewBox="0 0 32 32"><path d="M6.27 22.381c.292 1.695 1.657 2.237 3.07 1.252.599-.415 1.128-1.182 2.033-.642.19.113.273.013.294-.112.192-1.132 1.154-2.025.611-3.43-.346-.894-1.043-2.546 1.085-2.753.114-.013.319-.183.308-.25-.251-1.53 1.158-2.377 1.493-3.553.653-2.296 3.18-1.561 4.212-3.071.216-.316.462.144.679.289 1.155.761 2.515.438 3.139-.738.431-.81 2.139-1.081 2.322-.314.307 1.289.749.36 1.154.267.188-.041.371-.108.577-.173-.012-.625-.733-.295-.688-.637.129-.973.159-.932-.778-1.292-1.072-.413-2.19-.101-3.258-.127-.91-.021-2.13-.049-2.906.978-.251.333-.937.482-1.416.468-.811-.028-2.081.502-2.388 1.179-.199.44-.285.512-.573.174-.636-.745-.807.382-1.261.252.019.336-.556.637-.137.97.59.469.227.949-.077 1.181-.86.652-1.157 1.678-1.812 2.444-.815.959-1.616 1.883-2.817 2.503-1.821.938-3.855 1.957-2.922 4.703.046.132.031.288.056.432z" fill-rule="evenodd" clip-rule="evenodd" fill="#121111"/></svg>