<svg xmlns="http://www.w3.org/2000/svg" width="32" height="32" viewBox="0 0 32 32"><path d="M21.696 19.745c.303.013.55-.12.505-.536-.065-.62.367-.999.795-1.313.665-.49.965-1.213 1.357-1.886.722-1.239-.804-1.032-1.11-1.659-.421-.857-.994-1.782-2.241-1.842-1.577-.077-2.824-.813-3.461-2.309-.235-.553-.485-.27-.757-.188-1.197-.615-.646.464-.812.821-.146.322.399.629.06.971-1.353 1.364-1.577 2.395-.729 3.989.269.502.202.92.067 1.386-.971 3.396-.971 3.398-4.377 4.587-.736.257-1.481.493-2.229.726-.558.174-.819.373-.466 1.035.66 1.247 1.221 2.546 1.801 3.833.108.238.233.527.485.464 1.353-.336 2.688-.744 4.091-.854.064-.005.166-.142.176-.223.117-1.336 1.082-1.555 2.149-1.648.465-.039.687-.346.759-.766.151-.889.793-1.23 1.568-1.275.749-.047.948-.219.874-1.058-.086-1.002-.253-2.332 1.495-2.255z" fill-rule="evenodd" clip-rule="evenodd" fill="#121111"/></svg>