<svg xmlns="http://www.w3.org/2000/svg" width="32" height="32" viewBox="0 0 32 32"><path d="M7 18.891c.476.158 1.017.331.873.96-.138.608.616.789.536 1.178-.11.54-.866.245-1.2.627-.183.211-.477.288-.578.619-.114.377-.372.756-.184 1.124.229.447.714.247 1.052.164 1.295-.32 2.641.069 3.904-.255 1.333-.344 1.947.375 2.351 1.373.328.811.994 1.012 1.488.617.77-.614 1.575-.443 2.357-.441 1.388.003 1.407-.591.888-1.603-.307-.598-1.026-.924-1.037-1.756-.002-.193-.915-.354-.368-.881.37-.355.467-1.415 1.482-.703.195.137 1.031.033 1.425-.481.862-1.124 1.638-2.366 2.693-3.278.921-.797.444-2.27 1.803-2.702-1.237-.728-2.186-2.159-1.821-3.073.412-1.035 1.35-.054 2.032-.217.475-.115.959-.207 1.417-.37.299-.108.637-.245.55-.718-.116-.627-2.352-2.878-2.957-2.717-1.101.292-2.283-.094-3.299.442-.53.278-1.453.314-1.329 1.261.203 1.547-.064 2.073-1.544 2.717-.213.091-.266.224-.218.443.259 1.185-1.328 1.614-1.152 2.809.033.226-.427-.013-.613.036-1.073.288-2.613.474-2.853 1.457-.364 1.497-1.159 1.516-2.323 1.723-1.695.298-3.277.113-4.874-.375v.296c.724.378.658 1.445 1.499 1.724z" fill-rule="evenodd" clip-rule="evenodd" fill="#121111"/></svg>