<svg xmlns="http://www.w3.org/2000/svg" width="32" height="32" viewBox="0 0 32 32"><path d="M23.962 5.932c.234.533.27 1.305-.281 1.372-1.97.232-2.224 2.015-3.096 3.206-.387.531-.691 1.3.148 1.871.433.295.42.79.26 1.195-.235.599-.651.342-1.081.152-.377-.169-.507.123-.507.466-.596.891-1.032 2.006-2.705 1.647l1.065 1.348c-.177.821-1.019 1.157-1.295 1.815 1.74.775 1.993-.226 1.858-1.667-.005-.043.031-.091.046-.137l2.068-1.986c1.027-.06 1.719-.889 2.651-1.182.125-.038.27-.318.248-.464-.243-1.635 1.047-2.884 1.087-4.453.042-1.527.526-3.083-.343-4.526-.77.383-.335.87-.123 1.343zM14.418 21.84c1.069-.709 1.069-.709 1.107-2.416-1.21 1.791-1.21 1.791-1.107 2.416z" fill-rule="evenodd" clip-rule="evenodd" fill="#121111"/></svg>