<svg xmlns="http://www.w3.org/2000/svg" width="32" height="32" viewBox="0 0 32 32"><path d="M20.208 11.523c-.908-.17-1.582-.146-2.422.44-1.255.874-2.716 1.474-4.138 2.077-.878.372-1.816.444-2.505-.502-.133-.183-.397-.395-.594-.39-1.199.036-1.275.095-1.798-.989-.406-.84-1.163-.807-1.707-.663-.753.2-.639 1.042-.499 1.644.186.802.253 1.71-.16 2.623-.179.398.119.521.225.754.125.278.184.038.334-.023 1.528-.623 3.563.002 4.505 1.33.695.978 1.219.984 1.832.019.165.457.424.903.475 1.372.11 1.025.778.987 1.468.836 1.918-.421 2.187-1.124.936-2.613-.66-.788-.521-1.077.419-1.377.608-.193 1.227-.504 1.578-1.186.729-1.417 1.576-1.525 2.977-.894.947.425 1.216 1.483 2.141 1.834.059.073.122.142.189.207-.975 1.794.293 2.841 1.336 4.078.377-.73.763-1.184 1.591-1.468 1.224-.42.87-3.223-.219-4.423-1.633-1.802-3.748-2.271-5.964-2.686z" fill-rule="evenodd" clip-rule="evenodd" fill="#121111"/></svg>