<svg xmlns="http://www.w3.org/2000/svg" width="32" height="32" viewBox="0 0 32 32"><path d="M19.465 20.194c-1.65-.984-2.923-2.411-4.271-3.747-.348-.347-.746-.816.216-.941.959-.125.533-.884.195-.928-2.001-.255-2.621-2.337-4.219-3.046-1.626-.721-3.316-1.312-5.205-2.053 0 2.551-.015 4.886.005 7.22.017 2.236.033 2.22 2.153 2.386.608.047 1.137-.142 1.346-.64.778-1.83 2.834-2.298 3.81-.591 1.313 2.304 3.538 2.501 5.625 3.151.235.072.617.137.709-.28.059-.281-.126-.389-.364-.531zM26.959 14.778c-.464-.347-.714-.941-1.398-1.175-.372.946.507 1.266.729 1.866.108.293.521.336.771.151.395-.287.19-.621-.102-.842zM22.534 11.257c-.086-.071-.208-.229-.252-.208-.262.114-.058.254.01.384.112.237.409.505-.105.642-.49-.116-1.02-.662-1.211.45-.084.49-.754 1.36-1.484 1.067-1.088-.436-1.914.448-2.909.137 1.728 2.049 4.594 1.059 5.624-.98.307-.313.998.293 1.118-.464.096-.615-.406-.778-.791-1.028zM21.9 10.882c.252-.367-.216-.47-.53-.525-.125-.227-.363-.425-.543-.233-.273.294.175.308.285.459.258.15.573.616.788.299z" fill-rule="evenodd" clip-rule="evenodd" fill="#121111"/></svg>