<svg xmlns="http://www.w3.org/2000/svg" width="32" height="32" viewBox="0 0 32 32"><path d="M21.148 16.819c-1.674.178-.745-1.147-1.149-1.657-.659.128-1.209 1.071-1.997.012-.61-.818-1.684-1.473-1.448-2.576.518-2.426 1.668-3.286 4.171-3.498.112-.432-.791-.46-.383-1.049.763-1.096-.188-1.377-.842-1.226-1.817.424-2.703-.769-3.723-1.82-.235-.245-.473-.517-.766-.665-.309-.158-.657-.24-.572.389.18 1.345-.636 2.035-1.753 2.503-.715.301-1.531.502-1.701 1.437-.218 1.198-.773.96-1.642.571-.71-.319.3-.958-.523-1.122-.675.508-1.111.939-.919 2.177.194 1.261 1.211 1.479 1.719 2.267 1.427 2.213 2.689 4.574 3.642 6.953.815 2.035 2.153 2.909 3.816 3.729 1.095.536 2.088 1.163 2.756 2.212h1.182c.243-1.374 1.083-2.572.753-4.172-.117-.564.066-1.71.38-2.584.237-.665-.521-1.93-1.001-1.881z" fill-rule="evenodd" clip-rule="evenodd" fill="#121111"/></svg>