<svg xmlns="http://www.w3.org/2000/svg" width="32" height="32" viewBox="0 0 32 32"><path d="M22.616 25.314c.413.282.306.786.502 1.171 1.234-2.338.827-4.45-1.397-5.575.728 1.064.27 1.215-.495 1.398-.507.122-.9.71-1.355 1.075-.02.017-.14-.12-.225-.158-1.119-.509-2.838.319-3.11 1.527-.047.21-.435.54.053.698.263.085.404-.104.521-.366.544-1.221 1.715.028 2.45-.577.048-.04.387.262.281.562-.49 1.387.231 2.014 1.463 2.261.304.061.439.637.854.271.39-.343.399-.802.206-1.208-.225-.473-.352-.845.252-1.079zM13.068 10.424c-.015-.005-.136.235-.125.351.145 1.484.938 2.652 1.848 3.765-.042.641-.674.1-.876.47.207.396.391.846.66 1.234.221.317.282 1.014.837.778.547-.23.537-.864.424-1.405-.072-.344-.768-.573-.172-1.03l.251-.18c.908.699 2.256.515 3.045 1.508.062.077.444.747.883.181.368-.476-.272-.509-.295-.802.142-.104.284-.205.423-.308h.001a.47.47 0 0 0 .152-.21l.081-.109c-.022-.005-.042-.016-.064-.022a.322.322 0 0 0-.043-.125.522.522 0 0 0-.106-.122c-.077-.063-.302-.058-.375.008-.016.015-.022.031-.036.045-.426-.172-.847-.374-1.276-.525-.017-.008-.035-.012-.051-.017a3.454 3.454 0 0 0-.39-.113c-.045-.012-.089-.02-.135-.029a3.335 3.335 0 0 0-.492-.055 2.348 2.348 0 0 0-.343.021c-.051.004-.101.007-.153.017a2.442 2.442 0 0 0-.512.151c-.24-1.3-.953-2.651.728-3.632.308-.177.709-.943.3-1.45-.508-.629-.282-1.271-.167-2.008-.365.053-.637.151-.892.115-2.237-.299-2.172-.301-2.379 2.104-.027.321 1.006 1.804-.751 1.394zM20.409 18.21c-.215-.06-.134.296-.164.469a.317.317 0 0 0-.238.024c-.484.232-1.256 1.027-1.442.232-.298-1.277-1.431-.809-2.005-1.577l-.138 2.396c.492.331.946-.591 1.32.056.123.211.052.509-.245.742-1.077.846.148 1.162.49 1.475.668.609.691-.247.921-.586.161-.235.312-.479.467-.717.495-.191 1.139.575 1.536-.24.629.15 1.116-.153.812-.72-.689-1.28.684-.558.83-.951-.166-.512-.422-.943-.338-1.542.071-.509-.375-.879-.931-.874-.357.004-.864-.231-1.045.235-.172.442.304.641.567.91.673.688.667.962-.397.668zM11.293 20.533c-.68.948-1.894 1.422-2.615 2.867 1.42-.752 2.419-1.363 2.82-2.617 1.246-.346 1.722-1.037.996-2.313-.44.684-.499 1.571-1.201 2.063z" fill-rule="evenodd" clip-rule="evenodd" fill="#121111"/></svg>