<svg xmlns="http://www.w3.org/2000/svg" width="32" height="32" viewBox="0 0 32 32"><path d="M8.963 18.397c-.065.05-.127.104-.192.153l.36.03c1.021.445 2.366.255 2.938 1.594.113.264.497.893.872.502.855-.896 1.28-.167 2.011.18.952.454 1.954.709 2.528 1.698.099.168.339.305.495.129.593-.67.889-.132 1.205.277.243.313.438.318.854.213 1.396-.363 2.817-1.012 4.215.169.329.278.937.557 1.573.247-.526-.913-.326-1.703.523-2.263 1.823-1.194 2.765-2.567 1.134-4.6-.413-.514.504-1.237-.12-1.626-1.064-.663-.531-.961.171-1.331.208-.11.446-.26.55-.453.357-.681-1.23-4.481-1.953-4.742-.132-.045-.281-.107-.411-.088-2.581.355-5.17-.493-7.753.045-.458.097-1.182-.127-1.088-.448.324-1.107-.499-.813-.939-.865-.84-.096-1.664.099-2.423.466-1.662.805-3.317 1.641-5.161 1.929-.834.13-.752.877-.714 1.225.08.69.354 1.31-.288 1.884-.165.15.048.341.166.489 1.213 1.525 1.005 3.447 1.447 5.186z" fill-rule="evenodd" clip-rule="evenodd" fill="#121111"/></svg>