<svg xmlns="http://www.w3.org/2000/svg" width="32" height="32" viewBox="0 0 32 32"><path d="M15.096 20.17c.64.237.555.749.553 1.301-.005 1.512.183 3.027-.63 4.552 1.635-.341 1.81-.339 3.279-.019 1.519.328 2.304-.354 2.186-1.854-.071-.915.406-1.65 1.105-2.107.583-.376.937-.453.153-1.039-.809-.608-1.042-1.391-.092-2.2.39-.329.865-.891.2-1.338-.816-.548-.795-1.511-1.497-2.284.974.091 2.065.122 2.016-.831-.067-1.275.872-2.438.396-3.63-.423-1.059.144-1.493.766-2.061.665-.604 2.289-.813.373-2.248-.882-.66-1.813-1.113-2.335-.743-1.078.759-2.149-.2-3.115.354-.146.082-.418.002-.377-.271.16-1.1-.423-1.052-1.127-.715-.734.35-1.782.408-1.359 1.772 1.05 3.381.314 6.506-1.614 9.39-1.071 1.607-.596 3.334 1.119 3.971z" fill-rule="evenodd" clip-rule="evenodd" fill="#121111"/></svg>