<svg xmlns="http://www.w3.org/2000/svg" width="32" height="32" viewBox="0 0 32 32"><path d="M18 11.611c1.163.707 1.405-.097 2.163-.829.914-.885 1.134-1.682 1.115-2.741-.008-.449-.163-.898-.23-1.238-1.23-.003-1.49 1.587-2.625 1.536-.933-.043-1.146.435-1.38 1.122-1.032 3.021-1.78 6.16-3.634 8.843a.701.701 0 0 0-.081.69c1.033 2.867 2.068 5.732 3.102 8.598.125.015.25.032.375.046.506-3.594 1.877-6.977 2.455-10.686-1.051.226-2.083 1.15-2.629.461-.511-.646.535-1.275 1.159-1.736.046-.034.024-.159.033-.24-1.165-.601-1.371-2.822-.336-3.629.141-.112.415-.257.513-.197z" fill-rule="evenodd" clip-rule="evenodd" fill="#121111"/></svg>