<svg xmlns="http://www.w3.org/2000/svg" width="32" height="32" viewBox="0 0 32 32"><path d="M25.898 13.114c-1.505-.043-2.786-.898-4.273-.947-4.551-.151-9.108.214-13.658-.142-.646-.05-.919.311-1.388.834-1.093 1.223-.987 2.011.103 3.005.12.107-.069.533-.078.814-.017.53-.406 1.022-.125 1.636-.706 1.434.508.907 1.062.893.504-.014 1.026-.521 1.523-.188.836.567 1.582.149 2.319-.118.364-.132.683-.248 1.087-.266 3.075-.138 6.15.694 9.243-.158 1.079-.298 1.974-.645 2.387-1.644.319-.769.839-1.155 1.534-1.438.332-.134.998-.292.78-.596-.41-.568-.17-1.676-.516-1.685z" fill-rule="evenodd" clip-rule="evenodd" fill="#121111"/></svg>