<svg xmlns="http://www.w3.org/2000/svg" width="32" height="32" viewBox="0 0 32 32"><path d="M21.297 9.269c-.845-.737-1.775-1.394-2.375-2.386-.333-.549-.813-.441-1.283-.187-1.997 1.09-3.35 2.652-3.649 4.991-.126.979-.287 2.039-.949 2.738-1.491 1.57-1.151 3.249-.678 5.046.447 1.696.906 3.4.67 5.204-.238 1.824 1.013 3.142 3.525 3.145.967-.094 2.969-.25 3.769-1.412 1.946-2.829 3.798-5.924 1.81-9.637-.672-1.256-.679-2.589-.014-3.946.66-1.342.316-2.557-.826-3.556z" fill-rule="evenodd" clip-rule="evenodd" fill="#121111"/></svg>