<svg xmlns="http://www.w3.org/2000/svg" width="32" height="32" viewBox="0 0 32 32"><path d="M9.694 17.947c.474.355.86 1.499 1.612 1.391.952-.137 1.075.49 1.393.942.5.713.985 1.198 1.988 1.2 1.259.003 2.513.31 3.773.45.48.05.976.066 1.391-.306 1.511-1.357 3.123-1.017 4.733-.231.865.424 1.563.733 1.603-.729.026-.953.571-1.524 1.547-1.821.686-.205.81-.715.707-1.261-.113-.609-.592-.641-1.142-.525-2.173.454-2.661-.064-2.169-2.296.178-.805.166-1.606-.416-2.212-.82-.86-1.455-1.829-2.046-2.847-.482-.828-1.071-.935-1.919-.316-.958.693-2.195 1.138-3.308.832-3.024-.835-5.38-.823-6.953 2.271-.668 1.31-1.4 2.51-3.166 2.671 1.056.77 1.352 2.019 2.372 2.787z" fill-rule="evenodd" clip-rule="evenodd" fill="#121111"/></svg>