<svg xmlns="http://www.w3.org/2000/svg" width="32" height="32" viewBox="0 0 32 32"><path d="M8.957 14.437c-.688-.355-1.172-.118-.879.807.072.224.123.483.084.706-.266 1.533.795 3.255 2.302 3.699.434-1.812 2.216-2.524 4.035-1.693 1.662.756 3.468.444 5.175.324 1.132-.08 1.652 0 1.711 1.227 1.287-.68 1.271-.677.972-2.122-.064-.322.231-.559.513-.642 1.123-.339 1.892-.12 1.782 1.511.891-1.734 2.38-2.246 3.904-2.71.115-.033.262-.158.287-.267.078-.346-.238-.343-.442-.446-1.787-.918-3.903-.423-5.69-1.333.002.007.01.017.007.023-.014.039-.045.089-.078.099-1.808.44-3.25-.331-4.61-1.386-.374-.29-.741-.59-1.141-.84-.216-.135-.523-.097-.648.137-.158.293.145.398.339.53.185.125.49.076.566.43l-5.557 2.119c.105-1.019.804-1.559 2.108-2.054-2.404.265-2.784.634-2.522 2.034-.742.046-1.456.243-2.218-.153z" fill-rule="evenodd" clip-rule="evenodd" fill="#121111"/><path d="M22.687 13.487c.007.005.017.005.023.01a.431.431 0 0 0-.021-.067c-.001.019-.01.052-.002.057z" fill-rule="evenodd" clip-rule="evenodd" fill="#121111"/></svg>