<svg xmlns="http://www.w3.org/2000/svg" width="32" height="32" viewBox="0 0 32 32"><path d="M26.965 14.755c.145-1.478-.132-2.846-1.478-3.738-1.097-.728-1.985-1.612-2.079-2.979-.041-.601-.356-.475-.665-.469-.658.012-1.017.465-1.417.925-.894 1.029-1.646 2.21-2.885 2.903-.67.376-1.326.817-1.601-.414-.076-.353-.345-.497-.782-.471-4.163.25-7.139 3.548-6.813 7.651.073.931-.15 1.622-.976 2.111-.464.273-.892.611-1.309.951-.73.595-.738 2.977.03 3.492.274.183.661.575 1.104-.003.853-1.106 2.258-.961 2.911.37.402.822.896 1.07 1.718.975.874-.099 1.761-.124 2.628-.272 1.095-.187 1.83-.685 1.969-1.985.092-.869.115-1.758.375-3.091 1.114 1.482 2.143 1.126 3.316.5.615-.328 1.412-.385 2.193.189 1.178.865 2.625.19 3.599-.293.862-.429 1.061-2.024.578-3.084-.5-1.098-.527-2.135-.416-3.268z" fill-rule="evenodd" clip-rule="evenodd" fill="#121111"/></svg>