<svg xmlns="http://www.w3.org/2000/svg" width="32" height="32" viewBox="0 0 32 32"><path d="M17.188 9.401c-1.313.198-1.663 1.238-2.003 2.197-.662 1.859-2.276 3.18-2.768 5.132-.137.546-.4 1.285.012 1.494 1.396.704.1 1.559.234 2.311.025.14-.403.334-.209.604.796 1.109 1.337 2.481 2.886 2.826.917.205 2.535 1.326 3.201 2.159.093.115.327.157.498.162.167.005.482.038.443-.224-.214-1.438.28-2.399 1.72-2.858.198-.063.313-.478.41-.75 1.049-2.978.555-6.155 1.168-9.191.324-1.603-.979-3.003-.508-4.969.006-.248-.265-.627-.811-.88-.484-.224-1.025-.684-.908-1.139.318-1.225-.689-.867-1.168-1.138-.229.504-1.43.367-.9 1.383.183.354-.033.538-.368.63-.645.17-.704.644-.512 1.152.202.534-.039 1.041-.417 1.099z" fill-rule="evenodd" clip-rule="evenodd" fill="#121111"/></svg>