<svg xmlns="http://www.w3.org/2000/svg" width="32" height="32" viewBox="0 0 32 32"><path d="M9.443 11.102c.541.148 1.125.386 1.468.914.619.957 1.59 1.336 2.627 1.341 1.762.012 3.39.288 4.988 1.129 1.084.571 1.5 1.328 1.164 2.337-.24.716.082 1.124.313 2.054.269-.803.472-1.139 1.109-1.109.565.024 1.177-.419 1.137-1.079-.035-.591-.364-1.134-1.182-.812-.075.031-.262-.216-.394-.339-1.08-1.006-2.264-1.854-2.887-3.336-.37-.879-1.007-1.734-1.554-2.57-1.054-1.608-2.756-2.299-4.119-3.435-1.69-1.41-4.122-1.095-5.288.355-.416.518-.624 1.273-.292 1.624.941.989 1.372 2.496 2.91 2.926zM27.364 21.134a2.306 2.306 0 0 0-.364-.882c-.555-.844-1.613-1.516-2.541-1.496-.717.048-1.285.214-1.744.713a3 3 0 0 0-.424.62c-.537 1.028-.482 2.059-.659 3.098-.202 1.183.459 1.889 1.18 2.631.709.732 1.309.323 1.965-.05.247-.143.559-.174.842-.245 1.554-.404 2.173-1.326 1.96-2.945a43.677 43.677 0 0 0-.215-1.444z" fill-rule="evenodd" clip-rule="evenodd" fill="#121111"/></svg>