<svg xmlns="http://www.w3.org/2000/svg" width="32" height="32" viewBox="0 0 32 32"><path d="M21.208 11.209c.332-1.297 1.148-2.52.784-3.742 0-.362.037-.521-.006-.655-.178-.562.501-1.491-.548-1.657-.978-.155-1.98-.119-2.375 1.14-.126.401-.417.769-.689 1.105-1.35 1.664-.998 3.361.831 4.474 1.035.63 1.747.335 2.003-.665zM19.6 13.97c-1.027.18-1.168 1.477-2.223 1.556.222.462.87.14.834.73.274-.154.592-.269.782-.495.424-.499.715-1.083.607-1.791zM18.212 16.277c0-.01-.002-.015-.001-.021-.02.01-.041.02-.06.031.021-.005.061-.005.061-.01zM15.631 23.283c-.012.003.167.307.411.355.579-.115.845-.598 1.008-1.103.096-.295-.201-.358-.472-.377-.82-.056-.324 1.005-.947 1.125z" fill-rule="evenodd" clip-rule="evenodd" fill="#121111"/></svg>