<svg xmlns="http://www.w3.org/2000/svg" width="32" height="32" viewBox="0 0 32 32"><path d="M10.043 13.099c-.058.094-.504.058-.689-.055-1.157-.707-1.101.142-1.037.835.079.862.204 1.659.912 2.383.785.8 1.287 1.856.123 2.899-.536.478-.395 1.108-.265 1.774.145.735.759 1.467.265 2.25-.73 1.161.045 1.428.9 1.4 1.076-.036 2.276-.175 3.173-.583 1.225-.555 1.414-.077 1.695.809.395 1.247 1.298 1.581 2.401 1.074.709-.327 1.396-.403 2.208-.4.548-.253 1.525.59 1.832-.729.172-.737 1.035-1.491.906-2.09-.322-1.475-.344-2.567 1.328-3.107.12-.038.097-.457.183-.68.249-.639.492-1.319 1.025-1.753 1.211-.99 1.074-2.221.344-3.229-1.652-2.281.005-4.531-.146-6.782-.012-.148.18-.367.337-.464.688-.435.356-1.065.063-1.37-.4-.421-1.162-.527-1.556.002-.565.762-1.362 1.088-2.154 1.342-3.202 1.023-5.974 2.662-8.126 5.282-.142.173-.391.341-.601.354-1.091.078-2.331-.452-3.121.838z" fill-rule="evenodd" clip-rule="evenodd" fill="#121111"/></svg>