<svg xmlns="http://www.w3.org/2000/svg" width="32" height="32" viewBox="0 0 32 32"><path d="M29.596 18.83c-2.27-.213-3.153-1.823-3.963-3.621-.601-1.334-2.052-3.258-3.73-3.188-1.484.062-2.512-.601-3.531-1.473-1.767-1.514-3.621-2.615-5.979-1.071.75 1.038.107 2.229-1.344 2.377-.413.042-.846-.259-.973.46-.091.511-.241.881.419 1.147.304.125.513.584.677.93 1.01 2.133 3.204 3.629 3.34 6.25.016.312.403.731.72.879.705.324.92.958 1.274 1.54.524.858 1.137 1.664 2.08 3.022-.217-1.834.695-1.512 1.385-1.498.682.015 1.407 0 2.029.226.534.197.823.154 1.079-.298.58-1.03 1.6-1.318 2.628-1.362 1.462-.062 2.761-.627 4.107-1.059 1.19-.382 1.162-1.513 1.232-2.411s-.895-.799-1.45-.85z" fill-rule="evenodd" clip-rule="evenodd" fill="#121111"/></svg>