<svg xmlns="http://www.w3.org/2000/svg" width="32" height="32" viewBox="0 0 32 32"><path d="M24.936 21.41c.023-.472.373-1.01.565-1.468.525-1.248 1.864-2.068 1.966-3.413.148-1.962.353-3.779 2.747-4.738-1.696-.624-1.915-1.776-1.883-3.077.028-1.119-.435-1.643-1.675-1.618-3.663.072-7.328.047-10.991.009-.812-.008-1.152.19-1.091 1.057.037.542.351 1.338-.756 1.369-.45.012-.341.519-.345.845-.01.983.009 1.967-.012 2.95-.006.315.123.654-.212.939-1.846 1.56-2.138 2.311-1.287 4.396.536 1.313.721 2.876 1.797 3.854.873.795 1.664 1.648 2.503 2.461.948.918 1.374 2.928 3.437 2.055.09-.038.319.063.376.161.544.93 1.491.682 2.294.771 1.187.132 3.524-.99 3.593-1.907.104-1.382-.891-2.26-2.064-2.881-.035-.018-.051-.076-.289-.45 1.215.161 1.286-.478 1.327-1.315z" fill-rule="evenodd" clip-rule="evenodd" fill="#121111"/></svg>