<svg xmlns="http://www.w3.org/2000/svg" width="32" height="32" viewBox="0 0 32 32"><path d="M28.206 20.766c-.903-.303-.894-.743-.938-1.537-.09-1.576-.5-3.136-1.78-4.214-.485-.406-.874-.919-1.328-1.269-.927-.716-1.122-2.25-2.019-2.491-1.143-.308-1.811-1.002-2.609-1.652-.411-.334-.903-.311-1.396-.362-1.499-.155-2.972.788-4.318.488-1.629-.363-1.807.702-2.061 1.533-.623 2.031-1.601 3.713-3.896 4.856 1.859.008 2.241 1.266 2.76 2.291.435.858.598 1.895 1.917 1.69.975-.15 2.029.491 2.949-.354.267-.244.782-.51 1.049-.41 1.377.513 2.669 1.261 4.225 1.239-1.133.871-2.159.442-3.213.002-.42-.175-.802-.597-1.357-.343-1.453.664-2.889 1.261-4.573 1.242-1.385-.016-.663 1.234-.802 1.936-.092.458-.178 1.077.624.973 1.247-.162 2.532-.229 3.716-.605 2.664-.847 5.518-.858 7.975-.17 2.113.593 4.059.621 6.153.606.008-.496-.039-.964-.003-1.439.061-.843-.285-1.747-1.075-2.01z" fill-rule="evenodd" clip-rule="evenodd" fill="#121111"/></svg>