<svg xmlns="http://www.w3.org/2000/svg" width="32" height="32" viewBox="0 0 32 32"><path d="M19.886 25.95c.244.273.627.063.966-.005.748-.148 1.515-.275 2.275-.305.914-.035 1.224-.374.919-1.271-.271-.795-.332-1.348.799-1.708 1.473-.47 1.552-1.712.349-2.666-.19-.151-.439-.228-.622-.387-1.088-.927-1.122-2.108-.259-3.204.29-.367 1.085-.927.425-1.436-1.112-.855-.31-1.103.444-1.499-.584-.507-1.211-.932-1.588-.54-1.162 1.215-2.116.01-3.105-.184-.918-.18-1.226-1.047-.928-1.938.132-.392.059-.533-.255-.646-1.438-.516-2.541-1.107-3.022-2.906-.255-.945-1.576-2.061-2.945-2.351-1.813-.385-3.301.688-4.897 1.227-.277.096-.508.485-.312.968.464 1.127.434 2.546 2.134 3.074-2.03-.408-.849 1.242-1.417 1.737.412.15.884-.198 1.254.16.048.999-1.155 1.609-.908 2.572.235.917 1.54.969 1.905 1.902-.37.332-.964-.142-1.353.408.134.176.303.349.417.548.289.505 1.421 1.102-.267 1.352-.646.097-.316.644.085 1.079 1.07 1.157 2.642 1.472 3.816 2.376 1.407 1.08 1.796.095 2.138-.855.255-.707.3-.574.937-.317 1.513.612 1.97 2.582 3.835 2.707-.193.418-.34.776-.528 1.109-.18.32-.657.594-.292.999z" fill-rule="evenodd" clip-rule="evenodd" fill="#121111"/></svg>