<svg xmlns="http://www.w3.org/2000/svg" width="32" height="32" viewBox="0 0 32 32"><path d="M22.521 24.621c.064.695.408.773.997.38.473-.315.292.241.432.404.689.807.851 2.159 2.176 2.307.409.046.999.307 1.285-.209.232-.421-.112-.725-.479-.934-.304-.17-.219-.501-.325-.741-.458-1.047.015-2.005.067-3.006.046-.909-.209-1.816.334-2.662.137-.212.271-.563-.038-.583-1.025-.069-1.357-1.258-2.369-1.346-.967-.084-1.268-.759-1.277-1.658-.012-1.134-.165-2.255-.608-3.308-.259-.622-.804-.851-1.447-.761-.485.067-.587.444-.569.878.013.343-.051.696.008 1.03.193 1.153-.306 1.631-1.433 1.606-1.04-.022-1.65.564-2.311 1.349-.46.545-.012.855.065.81 1.09-.622 1.606.546 2.266.864.943.455 2.197.49 2.834 1.4.698.996 1.841 1.691 2.067 3.179-.26.019-.502.075-.735.046-.748-.092-.994.344-.94.955zM10.329 14.107c1.105.016.827-1.047 1.31-1.608-.526-.676-.819-1.6-1.889-1.612-.687-.008-1.28.247-1.385 1.029-.082.586 1.407 2.183 1.964 2.191z" fill-rule="evenodd" clip-rule="evenodd" fill="#121111"/></svg>