<?xml version="1.0" encoding="iso-8859-1"?>
<!-- Generator: Adobe Illustrator 16.0.0, SVG Export Plug-In . SVG Version: 6.00 Build 0)  -->
<!DOCTYPE svg PUBLIC "-//W3C//DTD SVG 1.1//EN" "http://www.w3.org/Graphics/SVG/1.1/DTD/svg11.dtd">
<svg version="1.1" id="Layer_1" xmlns="http://www.w3.org/2000/svg" xmlns:xlink="http://www.w3.org/1999/xlink" x="0px" y="0px"
	 width="32px" height="32px" viewBox="0 0 32 32" style="enable-background:new 0 0 32 32;" xml:space="preserve">
<path style="fill-rule:evenodd;clip-rule:evenodd;fill:#121111;" d="M22.521,24.621c0.064,0.695,0.408,0.773,0.997,0.38
	c0.473-0.315,0.292,0.241,0.432,0.404c0.689,0.807,0.851,2.159,2.176,2.307c0.409,0.046,0.999,0.307,1.285-0.209
	c0.232-0.421-0.112-0.725-0.479-0.934c-0.304-0.17-0.219-0.501-0.325-0.741c-0.458-1.047,0.015-2.005,0.067-3.006
	c0.046-0.909-0.209-1.816,0.334-2.662c0.137-0.212,0.271-0.563-0.038-0.583c-1.025-0.069-1.357-1.258-2.369-1.346
	c-0.967-0.084-1.268-0.759-1.277-1.658c-0.012-1.134-0.165-2.255-0.608-3.308c-0.259-0.622-0.804-0.851-1.447-0.761
	c-0.485,0.067-0.587,0.444-0.569,0.878c0.013,0.343-0.051,0.696,0.008,1.03c0.193,1.153-0.306,1.631-1.433,1.606
	c-1.04-0.022-1.65,0.564-2.311,1.349c-0.46,0.545-0.012,0.855,0.065,0.81c1.09-0.622,1.606,0.546,2.266,0.864
	c0.943,0.455,2.197,0.49,2.834,1.4c0.698,0.996,1.841,1.691,2.067,3.179c-0.26,0.019-0.502,0.075-0.735,0.046
	C22.713,23.574,22.467,24.01,22.521,24.621z"/>
<path style="fill-rule:evenodd;clip-rule:evenodd;fill:#121111;" d="M10.329,14.107c1.105,0.016,0.827-1.047,1.31-1.608
	c-0.526-0.676-0.819-1.6-1.889-1.612c-0.687-0.008-1.28,0.247-1.385,1.029C8.283,12.502,9.772,14.099,10.329,14.107z"/>
</svg>
