<svg xmlns="http://www.w3.org/2000/svg" width="32" height="32" viewBox="0 0 32 32"><path d="M7.287 14.954c-.05.564.212 1.323 1.175.818.209-.109.546-.154.874.191-.629.222-.773 1.358-1.789.647-.221-.156-.732.074-.519.387.37.546.449 1.488 1.15 1.588 1.15.165 1.204.978 1.393 1.774.322 1.341 1.461 1.989 2.824 1.601-.083.721-.616.55-1.082.57-.668.028-1.412-.168-1.982.59 1.221.448 2.453.7 3.498 1.396 2.126.845 4.419 1.356 6.177 2.953.605.55.857.138 1.086-.295.836-1.568 2.19-2.597 3.569-3.631.813-.611 1.72-1.268 2.051-2.24.346-1.017.403-1.976 1.701-2.454.641-.237 1.057-1.6.581-2.19-.593-.734-.968.337-1.394.708-.324.284-.725.463-1.054.156-.347-.323.063-.674.15-1.015.156-.596 1.086-.761.849-1.572-.415-1.418-1.65-2.592-1.275-4.253.019-.091-.169-.226-.255-.343-.668-.908-1.259-1.887-2.027-2.699-.641-.676-.946-1.896-2.088-1.873-1.659.034-3.393-.423-4.954.608-.456.303-.978.25-1.54.023-.66-.267-1.602-.201-1.883.4-.869 1.858-1.955 3.49-3.521 4.839-.44.377-.646.951-1.386.789-.32-.07-.938.194-.627.419.951.696.371 1.357.298 2.108z" fill-rule="evenodd" clip-rule="evenodd" fill="#121111"/></svg>