<svg xmlns="http://www.w3.org/2000/svg" width="32" height="32" viewBox="0 0 32 32"><path d="M27.863 11.491c1.246.432 2.543.141 1.773-1.442-.618-1.271-1.957-.29-3.021.087.478.54.778 1.191 1.248 1.355zM22.742 12.778l-.066-.015c-.236-.049-.474-.097-.711-.154-.121-.028-.238-.067-.358-.101-.144-.041-.289-.077-.428-.125-.153-.056-.294-.129-.439-.197-.095-.045-.196-.079-.287-.13a2.97 2.97 0 0 1-.625-.476c-1.659-1.679-2.18-1.829-4.06-.463-.453.329-.858.668-1.431.482-1.455-.471-2.763-.125-3.301 1.312-.609 1.624-1.676 3-2.173 4.682-.347 1.172.264 1.248.953 1.04.656-.2 1.203-.396 1.788.066-.333.398-.104.622.248.811.335.139.182.979.873.606.401-.002.716-.151.893-.53.254-.081.638-.084.615-.425-.017-.26-.294-.45-.614-.435l-.597-.313c-.031-.063-.074-.123-.09-.189-.004-.018.065-.065.107-.08 1.64-.55 2.629.839 3.747 1.485 1.237.715 1.746 1.391 3.055-.152 1.682-1.981 4.344-2.137 6.878-2.039.302.013.766.289.79-.278.021-.531-.546-.216-.787-.408-.115-.104-.229-.21-.344-.312.051-.082.084-.19.156-.238.38-.25 1.079-.317 1.074-.771-.006-.601-.633-.288-1.008-.351-.108-.019-.211-.278-.254-.444a1.517 1.517 0 0 0-.221-.505.978.978 0 0 0-.242-.218c-.034-.024-.058-.065-.094-.084-.259-.145-.588-.173-.965-.125.009-.008.016-.01.025-.017l-.031-.013c-.075-.548.731-.334.834-.634.003-.01.011-.015.013-.021a.363.363 0 0 0-.027-.19c-.212-.562-.854-.245-1.302-.336-.376-.076-.736-.237-1.113-.293a.889.889 0 0 0-.286-.003c-.237.047-.316.236-.149.587-.016-.002-.03-.007-.045-.01v.004z" fill-rule="evenodd" clip-rule="evenodd" fill="#121111"/></svg>