<?xml version="1.0" encoding="iso-8859-1"?>
<!-- Generator: Adobe Illustrator 16.0.0, SVG Export Plug-In . SVG Version: 6.00 Build 0)  -->
<!DOCTYPE svg PUBLIC "-//W3C//DTD SVG 1.1//EN" "http://www.w3.org/Graphics/SVG/1.1/DTD/svg11.dtd">
<svg version="1.1" id="Layer_1" xmlns="http://www.w3.org/2000/svg" xmlns:xlink="http://www.w3.org/1999/xlink" x="0px" y="0px"
	 width="32px" height="32px" viewBox="0 0 32 32" style="enable-background:new 0 0 32 32;" xml:space="preserve">
<path style="fill-rule:evenodd;clip-rule:evenodd;fill:#121111;" d="M27.863,11.491c1.246,0.432,2.543,0.141,1.773-1.442
	c-0.618-1.271-1.957-0.29-3.021,0.087C27.093,10.676,27.393,11.327,27.863,11.491z"/>
<path style="fill-rule:evenodd;clip-rule:evenodd;fill:#121111;" d="M22.742,12.778c-0.022-0.005-0.044-0.01-0.066-0.015
	c-0.236-0.049-0.474-0.097-0.711-0.154c-0.121-0.028-0.238-0.067-0.358-0.101c-0.144-0.041-0.289-0.077-0.428-0.125
	c-0.153-0.056-0.294-0.129-0.439-0.197c-0.095-0.045-0.196-0.079-0.287-0.13c-0.227-0.132-0.438-0.287-0.625-0.476
	c-1.659-1.679-2.18-1.829-4.06-0.463c-0.453,0.329-0.858,0.668-1.431,0.482c-1.455-0.471-2.763-0.125-3.301,1.312
	c-0.609,1.624-1.676,3-2.173,4.682c-0.347,1.172,0.264,1.248,0.953,1.04c0.656-0.2,1.203-0.396,1.788,0.066
	c-0.333,0.398-0.104,0.622,0.248,0.811c0.335,0.139,0.182,0.979,0.873,0.606c0.401-0.002,0.716-0.151,0.893-0.53
	c0.254-0.081,0.638-0.084,0.615-0.425c-0.017-0.26-0.294-0.45-0.614-0.435c-0.199-0.104-0.397-0.209-0.597-0.313
	c-0.031-0.063-0.074-0.123-0.09-0.189c-0.004-0.018,0.065-0.065,0.107-0.08c1.64-0.55,2.629,0.839,3.747,1.485
	c1.237,0.715,1.746,1.391,3.055-0.152c1.682-1.981,4.344-2.137,6.878-2.039c0.302,0.013,0.766,0.289,0.79-0.278
	c0.021-0.531-0.546-0.216-0.787-0.408c-0.115-0.104-0.229-0.21-0.344-0.312c0.051-0.082,0.084-0.19,0.156-0.238
	c0.38-0.25,1.079-0.317,1.074-0.771c-0.006-0.601-0.633-0.288-1.008-0.351c-0.108-0.019-0.211-0.278-0.254-0.444
	c-0.052-0.204-0.126-0.37-0.221-0.505c-0.067-0.093-0.155-0.156-0.242-0.218c-0.034-0.024-0.058-0.065-0.094-0.084
	c-0.259-0.145-0.588-0.173-0.965-0.125c0.009-0.008,0.016-0.01,0.025-0.017c-0.011-0.005-0.021-0.008-0.031-0.013l0,0l0,0l0,0l0,0
	c-0.075-0.548,0.731-0.334,0.834-0.634c0.003-0.01,0.011-0.015,0.013-0.021c0.009-0.051,0.002-0.113-0.027-0.19
	c-0.212-0.562-0.854-0.245-1.302-0.336c-0.376-0.076-0.736-0.237-1.113-0.293c-0.111-0.017-0.207-0.017-0.286-0.003
	c-0.237,0.047-0.316,0.236-0.149,0.587c-0.016-0.002-0.03-0.007-0.045-0.01V12.778z"/>
</svg>
