<svg xmlns="http://www.w3.org/2000/svg" width="32" height="32" viewBox="0 0 32 32"><path d="M20.63 12.782c-1.326.273-2.779.429-4.035.422-.994-.002-2.092-.771-3.476-.787-1.443-.015-2.406.36-3.318 1.2-.827.759-1.663 1.409-2.828 1.194-1.07-.2-1.349.521-1.693 1.236-.432.9.286 1.484.773 1.859 1.924 1.472 4.557 1.44 6.601.105.189-.125.471-.197.693-.171 1.137.145 2.141-.711 3.345-.37.403.115 1.164-.216 1.438-.586 1.239-1.669 3.283-1.093 4.256-.605 1.799.903 2.416.111 3.226-1.022.255-.355.457-.745.735-1.205-.642-.474-1.4-.311-1.979-.745-1.133-.85-2.377-.805-3.738-.525z" fill-rule="evenodd" clip-rule="evenodd" fill="#121111"/></svg>