<svg xmlns="http://www.w3.org/2000/svg" width="32" height="32" viewBox="0 0 32 32"><path d="M23.798 9.788c-.107.145-.244.444-.292.43-1.457-.451-2.754.556-4.193.424-1.305-.12-2.598-.075-3.741.858-.61.498-1.403.664-2.325.546-2.337-.301-4.806-1.282-6.895.773v.887c.476-.094.946-.153 1.337.226-.06.492-.898.905-.672.97.98.281.455 1.749 1.604 1.831.271.019.742.283.73.812-.452.387-1.289.084-1.58.851 1.314.981 2.686-.003 4.018.112.81.069 1.697.199 2.212-.742.205-.372.467-.237.698.017 1.176 1.288 2.832.579 4.223.985.235.069.754.135.559-.627-.229-.891.082-1.732 1.289-1.789.971-.047 1.492-.849 1.059-1.489-.901-1.329.221-1.177.824-1.403.59-.219 1.232-.624 1.736-.662 1.225-.094 1.604-1.795 3.11-1.166-.495-.725-.863-1.231-1.195-1.757-.662-1.058-1.751-1.101-2.506-.087z" fill-rule="evenodd" clip-rule="evenodd" fill="#121111"/></svg>