<svg xmlns="http://www.w3.org/2000/svg" width="32" height="32" viewBox="0 0 32 32"><path d="M11.771 20.299c2.987 1.199 6.069 2.188 9.169 3.063 1.251.354 3.062.826 3.883-.257 1.662-2.195 3.931-4.313 3.107-7.2 0-.784-.021-1.178.003-1.57.128-2.007.294-2.56-2.667-1.866-1.802.42-3.699.384-5.329 1.483-.3.203-.898.126-1.293-.011-1.143-.396-2.095.039-3.069.521-2.411 1.194-3.509.965-5.236-1.098-.344-.41-.613-.886-.95-1.304-.176-.219-.376-.49-.717-.425-.361.068-2.022 3.007-1.846 3.329 1.196 2.196 2.542 4.372 4.945 5.335z" fill-rule="evenodd" clip-rule="evenodd" fill="#121111"/></svg>