<svg xmlns="http://www.w3.org/2000/svg" width="32" height="32" viewBox="0 0 32 32"><path d="M8.993 26.784c1.545-2.137 3.238-4.107 5.517-5.435 1.123-.653 2.038-1.499 2.958-2.383 1.915-1.837 2.973-4.21 4.198-6.484 1.016-1.884 2.308-3.631 2.188-5.977-.055-1.062-.466-.86-1.082-.646-1.646.574-3.149 1.239-2.536 3.477.098.356-.272.602-.435.895-1.361 2.455-3.797 3.941-5.491 6.097-.324.412-.804.193-1.231.232-1.629.146-2.944.943-4.128 2.045-1.495 1.387-.936 3.171-1.006 4.826-.051 1.205-.266 2.492 1.048 3.353z" fill-rule="evenodd" clip-rule="evenodd" fill="#121111"/></svg>