<svg xmlns="http://www.w3.org/2000/svg" width="32" height="32" viewBox="0 0 32 32"><path d="M9.43 18.386c1.404.953 2.338 2.336 3.211 3.674.812 1.247 1.718 1.717 3.037 1.399.91-.219 1.542-.086 2.133.668.362.462.919.772 1.389 1.149.524-1.28 1.449-.19 2.164-.36 1.299-.31 2.69-.185 3.714-1.439.703-.86 1.761-1.581 2.851-.211.535-1.66-1.245-1.799-1.613-2.849-.501-1.431-1.472-2.502-2.865-3.153-.569-.267-.619-.609-.088-.931 1.626-.986 1.844-1.941.593-3.385-.666-.769-.916-1.576-.857-2.556.018-.302.228-.971-.463-.744-.498.161-1.639.178-1.371.721.721 1.458-.561 1.876-1.051 2.697-.501.84-1.2.839-2.032.472-1.344-.592-2.823.65-4.178-.246-.049-.032-.295.218-.439.347-1.066.945-2.186.9-2.961-.208-.623-.89-1.486-.818-1.999-.226-.717.829-1.132 1.921-1.657 2.911-.091.174-.042.495.152.486 1.301-.056 1.528 1.24 2.33 1.784z" fill-rule="evenodd" clip-rule="evenodd" fill="#121111"/></svg>