<svg xmlns="http://www.w3.org/2000/svg" width="32" height="32" viewBox="0 0 32 32"><path d="M26.81 15.904c.043-.248.376-.597-.026-.752-.321-.123-.812-.365-1.054.08-.497.913-.926.278-1.185-.088-.375-.533.075-1.39.39-1.337 1.567.271.839-.886.96-1.434.156-.707-.352-1.296-.549-1.943-.455-1.489-2.072-2.169-3.52-1.505-1.812.83-2.914 2.435-4.074 3.909-.453.576-.969.896-1.402.677-1.418-.714-2.469-.646-3.14.939-.017.041-.075.062-.108.099-.412.438-.935.567-1.476.382-.593-.204-.062-.668-.146-1.01-.153-.625-.317-1.224-1.167-1.726 0 1.499-.027 2.809.008 4.117.029 1.071-.598 1.404-1.508 1.533-.995.142-1.676-.267-2.09-1.166-.863.834-.829.819-.488 1.651.517 1.265.99 2.542 1.764 3.686.151.224.281.74.189.809-.97.714-.153 1.32.054 1.973.308.968 1.701 1.55 2.676 1.319 1.196-.281 2.315-.851 3.631-.747 3.21.255 5.813-.922 8.054-3.296 1.133-1.202 1.666-2.816 2.893-3.835.806-.672 1.152-1.408 1.314-2.335z" fill-rule="evenodd" clip-rule="evenodd" fill="#121111"/></svg>