<svg xmlns="http://www.w3.org/2000/svg" width="32" height="32" viewBox="0 0 32 32"><path d="M7.151 10.528c1.257-.082 2.383.617 3.613.3.2-.053 1.23.582.307 1.269-.424.314-.508.713-.597 1.234-.146.857.486 2.077-.944 2.485-.28.08-.013.313.06.452.331.629.285 1.21.239 1.934-.053.854-.244 1.561-.518 2.322-.094.263-.108.841.326.846 1.265.012 1.526.984 2.007 1.824.331.577.881 1.308 1.591.599 1.005-1.004 2.121-1.607 3.494-1.272 2.31.564 3.024-1.94 4.798-2.349-.491-1.43 2.428-2.213.72-3.925-.352-.354.041-.971.324-1.348.928-1.244 1.288-3 3.23-3.348.542-.097.968-.776 1.477-1.146.503-.367.426-.871.323-1.333-.15-.68-.648-.278-1.042-.285-.799-.01-1.638.184-2.341-.481-.193-.185-.716-.249-.951-.12-1.239.686-2.281-.076-3.297-.487-.485-.196-.915-.353-1.439-.456-2.022-.398-4.074-.101-6.116-.319-1.602-.172-3.184-.679-4.845-.594-.987.048-1.077.389-1.079 1.205-.002 1.098 1.031 1.917.66 2.993z" fill-rule="evenodd" clip-rule="evenodd" fill="#121111"/></svg>