<svg xmlns="http://www.w3.org/2000/svg" width="32" height="32" viewBox="0 0 32 32"><path d="M12.977 5.895c-.002-.011-.009-.016-.012-.022-.23-.723-.976-1.011-1.386-1.608-.316-.462-1.085-.108-1.647-.051-.168.017-.36.199-.284.43.179.545.703.716 1.145.747.11.01.215.029.321.058.625.156 1.183.582 1.863.446zM13.012 5.921c.005-.012.009-.024.015-.032h-.001l.001-.002c-.017.006-.033.002-.049.008.001.005.005.01.007.015.009.001.017.008.027.011zM10.946 15.891c.813 3.139.463 6.463 1.642 9.561.434 1.139 1.004 1.783 2.146 2.114 1.719.502 2.972-.677 4.388-1.152 3.288-1.11 4.336-3.821 3.345-6.769-.909-2.697-2.249-5.354-3.981-7.682-.924-1.24-1.233-3.06-3.015-3.583h-.001c-.017.04-.033.084-.059.092-1.19.292-2.961-.193-2.573 2.126.082.486-.964.741-.74 1.589.281 1.057-.295 1.968-.867 2.791-.218.311-.371.582-.285.913z" fill-rule="evenodd" clip-rule="evenodd" fill="#121111"/></svg>