<svg xmlns="http://www.w3.org/2000/svg" width="32" height="32" viewBox="0 0 32 32"><path d="M24.266 11.615c-.357-1.83.374-2.911 1.488-4.14 1.114-1.227.574-2.509-1.085-2.771-2.789-.445-5.61-1.112-8.327.377-.139.076-.399.015-.57-.061-1.148-.492-2.402-.437-3.591-.713-.43-.101-.976-.258-1.204.221-.515 1.084-1.281 2.22-1.274 3.328.007 1.132-.249 1.344-1.21 1.4-1.1.068-2.25.162-1.794 1.848.087.32-.095.805-.309 1.103-1.207 1.684-.217 2.992.844 4.104.445.467.346 1.586 1.178 1.42 1.316-.262 1.24.701 1.505 1.393 1.017 2.638 1.814 5.44 5.028 6.329h1.771c.019-.639.053-1.275-.526-1.746-.346-.283-.421-.569-.07-.975.31-.358.429-.589 1.025-.327.863.377 1.819.252 2.695-.207.723-.38 1.317-.403 2.124.127 1.573 1.035 2.088.762 3.068-.972.768-1.353.378-3.051 1.39-4.356.292-.375-.096-.96-.456-1.304-1.178-1.122-1.401-2.548-1.7-4.078z" fill-rule="evenodd" clip-rule="evenodd" fill="#121111"/></svg>