<?xml version="1.0" encoding="iso-8859-1"?>
<!-- Generator: Adobe Illustrator 16.0.0, SVG Export Plug-In . SVG Version: 6.00 Build 0)  -->
<!DOCTYPE svg PUBLIC "-//W3C//DTD SVG 1.1//EN" "http://www.w3.org/Graphics/SVG/1.1/DTD/svg11.dtd">
<svg version="1.1" id="Layer_1" xmlns="http://www.w3.org/2000/svg" xmlns:xlink="http://www.w3.org/1999/xlink" x="0px" y="0px"
	 width="32px" height="32px" viewBox="0 0 32 32" style="enable-background:new 0 0 32 32;" xml:space="preserve">
<path style="fill-rule:evenodd;clip-rule:evenodd;fill:#121111;" d="M24.266,11.615c-0.357-1.83,0.374-2.911,1.488-4.14
	c1.114-1.227,0.574-2.509-1.085-2.771c-2.789-0.445-5.61-1.112-8.327,0.377c-0.139,0.076-0.399,0.015-0.57-0.061
	c-1.148-0.492-2.402-0.437-3.591-0.713c-0.43-0.101-0.976-0.258-1.204,0.221c-0.515,1.084-1.281,2.22-1.274,3.328
	c0.007,1.132-0.249,1.344-1.21,1.4c-1.1,0.068-2.25,0.162-1.794,1.848c0.087,0.32-0.095,0.805-0.309,1.103
	c-1.207,1.684-0.217,2.992,0.844,4.104c0.445,0.467,0.346,1.586,1.178,1.42c1.316-0.262,1.24,0.701,1.505,1.393
	c1.017,2.638,1.814,5.44,5.028,6.329c0.591,0,1.181,0,1.771,0c0.019-0.639,0.053-1.275-0.526-1.746
	c-0.346-0.283-0.421-0.569-0.07-0.975c0.31-0.358,0.429-0.589,1.025-0.327c0.863,0.377,1.819,0.252,2.695-0.207
	c0.723-0.38,1.317-0.403,2.124,0.127c1.573,1.035,2.088,0.762,3.068-0.972C25.8,20,25.41,18.302,26.422,16.997
	c0.292-0.375-0.096-0.96-0.456-1.304C24.788,14.571,24.565,13.145,24.266,11.615z"/>
</svg>
