<svg xmlns="http://www.w3.org/2000/svg" width="32" height="32" viewBox="0 0 32 32"><path d="M27.043 21.784c0-1.08.021-1.912-.003-2.743-.074-2.419-1.143-4.729-.57-7.251.279-1.229-.652-1.964-1.97-1.868-.536.041-.949-.091-1.38-.322-1.164-.626-2.341-1.229-3.492-1.877-1.958-1.101-2.216-1.106-3.847.393-.539.495-1.095 1.044-1.421 1.681-1.078 2.099-2.553 3.946-3.692 5.99-.786 1.413-.287 3.076-.301 4.632-.008.89.831.47 1.137.812.216.241.254.633.427.926.83 1.412 1.392 2.943 2.863 3.987 2.951 2.092 6.26 2.01 9.601 2.01.769 0 .734-.467.706-.977-.083-1.526.099-3.031.265-4.548.126-1.144.471-1.554 1.677-.845z" fill-rule="evenodd" clip-rule="evenodd" fill="#121111"/></svg>