<svg xmlns="http://www.w3.org/2000/svg" width="32" height="32" viewBox="0 0 32 32"><path d="M25.281 6.421c-1.306-.635-2.741-1.017-4.146-1.422-.796-.231-.439.877-.99 1.004-.048.012-.107.058-.139.043-1.338-.658-2.488.233-3.724.436-.711.117-1.7.607-1.716.917-.049.978-.739 1.324-1.319 1.516-1.396.459-1.447 2.024-2.492 2.721-.176.118-.327.304-.131.462.994.804.219.726-.327.619-.948-.182-1.796.135-2.128.915-.388.91-.153 1.999.213 2.906.273.677.218 2.129-.397 2.589-1.397 1.048-1.5 2.055-.471 3.538.55.793 1.368 1.359 1.445 2.549.063.961 2.114 1.593 2.402.879.496-1.231 1.393-.854 2.223-1.057a5.66 5.66 0 0 1 .462-.089c.791-.135 1.663-.288 1.309-1.602.009 0 .018-.003.026-.003.076.064.152.128.228.189.041-.066.081-.137.122-.207-.115.009-.23.013-.345.018-.013-.009-.025-.022-.038-.031l.004.02-.005-.024c.004.014.003.024.006.039-.06.048-.119.091-.178.134.001.018.001.029.004.043l-.021-.028a.259.259 0 0 1 .017-.015c-.21-1.441.183-2.479 1.817-2.733.828-.13 1.559-.828 1.614-1.419.069-.733-.951-.98-1.625-1.146-1.095-.267-1.119-.854-.764-1.732.275-.677.646-1.22 1.265-1.636.987-.663 2.075-1.047 3.203-1.363.788-.224 1.782-.644 1.76-1.389-.025-.844.428-.985.857-1.367.985-.881 2.242-.257 3.292-.579.146-.53-.503-.644-.337-1.315.183-.738-.124-1.967-.976-2.38z" fill-rule="evenodd" clip-rule="evenodd" fill="#121111"/><path d="M18.765 10.031c-.76-.08-1.339.068-1.458.872-.026.18.306.588.333.573.586-.259 1.037-.66 1.125-1.445z" fill-rule="evenodd" clip-rule="evenodd" fill="#121111"/></svg>