<svg xmlns="http://www.w3.org/2000/svg" width="32" height="32" viewBox="0 0 32 32"><path d="M27.084 14.33c-.778.939-1.4.64-1.954-.221-.148-.23-.34-.325-.593-.372-1.365-.258-1.353-.948-.669-1.955.315-.464.732-1.201.236-1.603-.766-.622-1.631-1.198-2.648-1.417-.551.573-1.14.512-1.765.094-.791-.526-1.439-.636-1.33.635.027.316-.044.552-.259.422-.867-.519-1.616.451-2.526.137-.243-.084-1.124-.442-1.533.222-.439.71-.945.823-1.713.396-.678-.377-1.356.135-1.049.727.364.7-.025.943-.338 1.172-1.45 1.061-1.931 2.901-3.296 4.021-.137.112-.178.343-.258.521-.339.749.408 1.745-.578 2.394-.149.099.256.495.58.37.399-.153.713-.34.841-.889.209-.891 1.15-.617 1.78-.804.562-.166.625.365.684.723.385 2.354 1.123 2.882 3.271 2.317.229-.063.507-.137.713-.065 1.386.481 2.088-.65 2.263-1.457.195-.903.714-1.249 1.204-1.782.456.389.029.887.331 1.282.7.923 1.963 1.372 2.212 2.686.037.195.591.137.537-.102-.3-1.304.855-2.041 1.124-3.107.088-.353-.287-.881.216-1.037.537-.169.556.396.7.74.155.364.493.602.819.434.889-.461 1.553-.103 2.239.528-.057-.559.28-1.075-.202-1.506-.382-.34-.095-.612.117-.877.264-.328.449-.144.711.059.286.219 1.042.295.938.064-.412-.91.2-1.72.039-2.546-.093-.471-.462-.665-.844-.204zM21.405 8.496c-.031-.014-.08.024-.121.036.063.062.127.122.19.185.058-.091.052-.171-.069-.221z" fill-rule="evenodd" clip-rule="evenodd" fill="#121111"/><path d="M21.474 8.717c-.011.015-.005.029-.02.044l-.001.002h.003c.012-.012.024-.015.036-.028a.153.153 0 0 1-.018-.018z" fill-rule="evenodd" clip-rule="evenodd" fill="#121111"/></svg>