<svg xmlns="http://www.w3.org/2000/svg" width="32" height="32" viewBox="0 0 32 32"><path d="M9.056 16.501c-.032.677-.029 1.414 1.052 1.325.552-.043.789.521 1.008.911.255.453-.188.672-.521.889-1.225.799-2.029 1.804-1.532 3.341-.099.232-.204.405-.237.593-.037.204.132.313.269.461 1.052 1.136 2.56 1.381 3.962.65 3.637-1.893 7.232-3.873 10.95-5.591 1.542-.713 2.429-1.491 2.223-3.228a.936.936 0 0 1 .021-.293c.198-.952 2.149-4.259 2.938-4.976.36-.323.9-.646.525-1.19-.349-.505-.778.007-1.177.104-.569.139-1.172.382-1.725.307-1.724-.228-3.256.289-4.83.882-1.287.482-2.724.683-4.013.11-.903-.4-1.658-.398-2.522-.073-1.007.377-2.001.679-3.089.095-.664-.353-1.141.021-1.17.794-.046 1.197-.658 1.849-1.834 2.025-.744.113-.784.805-.555 1.187.34.576.285 1.085.257 1.677z" fill-rule="evenodd" clip-rule="evenodd" fill="#121111"/></svg>