<svg xmlns="http://www.w3.org/2000/svg" width="32" height="32" viewBox="0 0 32 32"><path d="M21.955 16.979c.264-1.169.173-2.75.907-3.413 1.627-1.473.082-3.853 1.829-5.11.012-.01-.118-.248-.207-.36-.653-.815-1.832-.798-2.584-1.853-.726 1.537-2.616 1.086-3.325 2.301-.736 1.269-1.801 2.261-2.569 3.48-.923 1.458-2.147 2.832-2.633 4.427-.562 1.837-1.023 3.843.202 5.81.545.872.862 1.821 1.881 2.263.766.334 1.032 1.025 1.136 1.766.076.552-.171 1.341.745 1.237.672-.075.665-.773.619-1.317-.096-1.184.166-2.409.941-3.147 1.78-1.704 2.544-3.802 3.058-6.084z" fill-rule="evenodd" clip-rule="evenodd" fill="#121111"/></svg>