<svg xmlns="http://www.w3.org/2000/svg" width="32" height="32" viewBox="0 0 32 32"><path d="M10.176 13.396c-.182-.016-.481-.12-.467.314.041 1.353-.785 1.579-1.909 1.431-.382-.05-.818-.113-1.153.025-.509.205-1.011.771-.292 1.12 1.003.493 1.477 1.122 1.894 2.172.291.732.209.961-.223 1.388-.273.274-.637.567-.711.905-.097.431-.423.954.035 1.374.44.403.877.186 1.339-.038.747-.365 1.478-1.03 2.368-.237.204.183.571.061.576-.204.012-1.199.824-.956 1.537-.908.431.031.839-.01.819-.56-.026-.716.578-.999.948-1.402.637-.695 1.334-.42 1.78.42.4.757.545 1.412.389 2.301-.24 1.364.632 1.941 1.779 1.183 1.954-1.287 4.118-1.461 6.324-1.461 1.812-.003 1.812.056 1.305-1.688-.026-.094-.096-.186-.096-.276.005-1.573-.921-1.799-2.182-1.481-.66.167-.734-.171-.767-.696-.035-.639-.165-1.617-.794-1.564-1.943.166-3.756.233-5.755-.196-1.287-.279-2.97-.431-4.484-.188-.343.056-.937.364-1.098-.317-.142-.601.517-.639.795-.894.452-.411 1.144-.426 1.659-.101.757.479 1.317.191 1.984-.327-1.088-.281-1.112-.293-.641-1.146.247-.448-.09-.63-.301-.865-.178-.198-3.752.855-3.718 1.096.118.813-.329.864-.94.82z" fill-rule="evenodd" clip-rule="evenodd" fill="#121111"/></svg>