<svg xmlns="http://www.w3.org/2000/svg" width="32" height="32" viewBox="0 0 32 32"><path d="M28.218 24.836c-1.399-.784-1.394-2.299-1.628-3.562-.25-1.34.517-2.844-.896-3.991-.452-.368.109-.986.179-1.491.074-.535.805-1.225.146-1.601-2.249-1.286-3.354-3.863-5.919-4.86-2.247-.872-4.146-2.74-6.44-2.043-1.298 0-2.183-.009-3.067.004-.338.006-.917.264-.82.378.935 1.108.518 2.049-.219 3-.029.038.036.217.099.249.95.472.173.856-.02 1.327-.414 1.007-1.955 1.32-1.99 2.063-.059 1.227-.268 2.791.711 3.766.809.805 1.216 1.742 1.693 2.69.175.346.243.797.617.968 1.583.721 3.115 1.787 4.829 1.914 1.649.123 1.953.913 1.99 2.217.037 1.315.663 1.881 1.988 1.54.187-.048.404-.146.565-.094 2.726.88 5.07-.535 7.53-1.237.225-.064.41-.262.616-.396.404-.264.6-.524.036-.841z" fill-rule="evenodd" clip-rule="evenodd" fill="#121111"/></svg>