<svg xmlns="http://www.w3.org/2000/svg" width="32" height="32" viewBox="0 0 32 32"><path d="M12.268 20.179c.733.458 1.046 1.134 1.072 1.946.019.624-.051 1.25.351 1.77-.553.437-1.324-.128-1.652.581-.089.196 2.19 3.042 2.416 3.036.046-.001.091-.05.137-.05 2.344-.015 4.042-1.691 6.117-2.396.163-.055.248-.311.406-.415.792-.515 1.068-1.689 2.253-1.721.281-.008.385-.374.168-.551-.483-.4-.346-1-.576-1.471-.466-.955.158-3.904 1.057-4.072 1.157-.216.91-.893.917-1.576.01-.836-.06-1.678.02-2.506.092-.929-.307-1.345-1.11-1.769-2.92-1.542-5.978-2.827-8.734-4.668h-1.183c-.97.884-.715 1.94-.208 2.859.55.996.507 1.962.441 3.026-.11 1.795-.38 3.464-1.917 4.658-.219.17-.323.486-.489.729-.71 1.039-.555 1.921.514 2.59z" fill-rule="evenodd" clip-rule="evenodd" fill="#121111"/></svg>