<svg xmlns="http://www.w3.org/2000/svg" width="32" height="32" viewBox="0 0 32 32"><path d="M23.083 15.275c.507-.043 1.182.334 1.372-.365.187-.691.519-1.535-.301-2.125-.526-.382-.605-.891-.708-1.506-.154-.941-1.051-2.072-1.726-1.771-1.044.469-2.248-.062-3.125.754-.104-.094-.213-.186-.318-.278.691-1.439-.447-2.35-1.139-3.235-.436-.557-1.487-.286-2.256-.233-.691.049-1.722-.441-2.008.287-.31.799-.31 1.846.063 2.728.238.569.456 1.167.927 1.634.771.766.938 1.679.33 2.608-.257.396-.352.778-.021 1.052.897.737.96 1.806 1.332 2.781.39 1.021.192 1.655-.392 2.522-.754 1.116-1.186 2.449-1.052 3.866.015.158-.134.36.145.49 1.386.655 1.572.691 1.86 1.297.462.978 2.045.607 2.177 1.904.38-.288 1.121.077 1.251-.533.157-.734-.437-1.213-1.03-1.311-.848-.138-1.095-.561-1.266-1.329-.153-.693-.418-1.695-.915-1.914-1.307-.577-.723-1.337-.502-2.116.303-1.068 1.004-2.021.92-3.199-.024-.37.006-.67.502-.708.536-.041.706.151.612.673-.045.247.051.573.351.511.903-.186 1.504.52 2.249.747.46-.813-.824-1.361-.085-2.322.807-1.048 1.792-.827 2.753-.909z" fill-rule="evenodd" clip-rule="evenodd" fill="#121111"/></svg>