<svg xmlns="http://www.w3.org/2000/svg" width="32" height="32" viewBox="0 0 32 32"><path d="M19.633 28.026c.87-.214 1.782-.24 2.251-.872.329-.443-.413-.89-.567-1.37a3.092 3.092 0 0 1-.142-1.299c.31-2.299-.045-4.613.146-6.893.14-1.632-1.049-2.824-.999-4.296.046-1.26-.398-2.008-1.465-2.57-.519-.274-1.336-.559-1.004-1.381.584-1.458.37-2.203-1.384-1.961-.224.03-.492-.067-.7-.177-1.558-.811-1.421.478-1.605 1.308-.137.621.449.866.81 1.117.941.657 1.035 1.521.968 2.562-.04.646-1.282 1.753.538 1.94.038.004.059.548.026.833-.091.781-.562 2.04-.267 2.253 1.417 1.018.855 2.4.572 3.408-.38 1.347.59 2.584-.125 3.937-.42.799 2.118 3.47 2.947 3.461z" fill-rule="evenodd" clip-rule="evenodd" fill="#121111"/></svg>