<svg xmlns="http://www.w3.org/2000/svg" width="32" height="32" viewBox="0 0 32 32"><path d="M20.152 12.991c-.999.351-1.042 1.638-.849 1.789 1.281.98-.095 1.184-.382 1.688a9.236 9.236 0 0 0-.211-.233c.089-.754-.951-1.373-.214-2.255.163-.194-.312-.4-.622-.288-.958.351-1.761-.069-2.627-.406-1.376-.53-2.633-1.544-4.355-.588-.794.439-2.135.295-2.857-.546-.634-.735-.021-1.551.39-2.27.033-.057-.041-.177-.135-.526-.608.815-1.614 1.175-1.631 2.196-.043 2.479 2.716 5.276 5.267 5.678 1.338.211 2.903.283 3.663 1.703.548 1.025 1.336 1.641 2.358 2.065.742.31 1.443.557 2.188-.056.747-.612.924-1.347.688-2.227-.098-.365-.353-.697.022-1.07.854-.858 1.205-2.258 2.822-2.302.512-.012 1.491-.425.691-1.378-.802-.959-3.027-1.389-4.206-.974z" fill-rule="evenodd" clip-rule="evenodd" fill="#121111"/></svg>