<svg xmlns="http://www.w3.org/2000/svg" width="32" height="32" viewBox="0 0 32 32"><path d="M5.828 22.483c.153.271.526.14.781-.051.777-.576 1.729-.562 2.546-.403 2.67.521 5.319-.137 7.977.012 1.037.059 2.165-.55 2.619-1.147.512-.675.488-2.08.179-2.99-.748-2.205-1.209-4.244.528-6.211.24-.273.791-.627.549-1.091-.273-.523-.892-.227-1.354-.29-.223-.031-.465.094-.701.139-1.094.202-2.189.571-3.282.566-2.355-.012-4.476.704-6.99 1.685.801.232 1.169.41 1.548.437 2.07.145 2.707.98 2.16 2.979-.146.538-.185.991.031 1.542.514 1.316-.012 1.981-1.396 1.746-.607-.103-1.026.082-1.492.374a117.875 117.875 0 0 1-3.236 1.944c-.32.183-.674.39-.467.759zM26.202 4.52c-.519.133-1.084.258-1.51.556-.86.603-1.639 1.323-2.438 1.981.068.571.603.65.765.563 1.273-.704 2.809-.846 3.943-1.833.386-.336.43-.848.27-1.223-.215-.502-.692-.129-1.03-.044z" fill-rule="evenodd" clip-rule="evenodd" fill="#121111"/></svg>