<svg xmlns="http://www.w3.org/2000/svg" width="32" height="32" viewBox="0 0 32 32"><path d="M14.979 15.646c-1.177.788-1.525 1.924-.58 3.121.756.959 1.296 2.213 2.209 2.878 1.219.888 1.601 1.986 1.889 3.27.235 1.05.474 2.099.71 3.155 1.772-.602 2.231-1.3 1.879-3.045-.091-.448-.086-.772.242-1.039.67-.545 1.295-1.316 2.068-1.53 1.654-.461 1.232-1.741 1.05-2.644a2.02 2.02 0 0 0-1.718-1.615c-.61-.096-1.684-.249-1.879-1.279-.18-.944.75-1.022 1.181-1.489 1.74-1.89 2.013-2.515.335-4.005-.514-.458-.695-1.053-.017-1.619.297-.244.528-.565.765-.871.223-.292.675-.582.308-.998-.392-.445-.678.207-1.023.193-.344-.014-.711 1.069-1.006.021-.354-1.247-1.252-1.346-2.261-1.118-1.53.346-3.219 1.739-3.183 2.625.043 1.062-.052 2.121.099 3.193.143 1.052.005 2.076-1.068 2.796z" fill-rule="evenodd" clip-rule="evenodd" fill="#121111"/></svg>