<svg xmlns="http://www.w3.org/2000/svg" width="32" height="32" viewBox="0 0 32 32"><path d="M28.116 15.308c-.017-.008.012-.092.008-.14-.138-1.538-1.597-1.771-2.762-1.271-2.001.856-3.91.677-5.815-.243-1.683-.812-3.34-.843-4.985.138-1.161.687-2.967.497-4.05-.38-.908-.732-1.639-.512-1.978.593-.432 1.415.24 3.036.656 4.716.471 1.889 2.2 1.205 3.043 2.117.11.118.798-.033.91-.233.607-1.092 1.307-.417 1.772-.023.808.688 1.607.596 2.27.051 1.175-.959 1.734-.265 2.356.76.678-1.421 1.837-1.406 3.105-1.204.415.067.882-.028 1.299-.145 1.49-.415 2.979-.721 4.538-.42.678.13.932-.108.678-.392-1.035-1.156.731-3.014-1.045-3.924z" fill-rule="evenodd" clip-rule="evenodd" fill="#121111"/></svg>