<?xml version="1.0" encoding="iso-8859-1"?>
<!-- Generator: Adobe Illustrator 16.0.0, SVG Export Plug-In . SVG Version: 6.00 Build 0)  -->
<!DOCTYPE svg PUBLIC "-//W3C//DTD SVG 1.1//EN" "http://www.w3.org/Graphics/SVG/1.1/DTD/svg11.dtd">
<svg version="1.1" id="Layer_1" xmlns="http://www.w3.org/2000/svg" xmlns:xlink="http://www.w3.org/1999/xlink" x="0px" y="0px"
	 width="32px" height="32px" viewBox="0 0 32 32" style="enable-background:new 0 0 32 32;" xml:space="preserve">
<path style="fill-rule:evenodd;clip-rule:evenodd;fill:#121111;" d="M6.712,16.663c1.376,0.292,0.924,1.349,0.957,2.225
	c0.017,0.439-0.237,1.071,0.408,1.245c0.493,0.129,0.851-0.172,1.228-0.582c0.865-0.938,2.294-1.144,3.214-0.759
	c1.583,0.665,3.514,0.769,4.682,2.315c0.096,0.129,0.336,0.24,0.494,0.223c0.788-0.091,1.057,0.238,0.979,1.005
	c-0.09,0.857,0.562,0.922,1.184,1.177c0.694,0.283,1.251,0.322,1.706-0.241c0.807-1.004,2.614-1.011,2.711-2.721
	c0.003-0.048,0.178-0.142,0.245-0.122c0.627,0.187,0.941-0.855,1.712-0.36c0.474,0.302,0.436-0.314,0.541-0.599
	c0.291-0.775-0.426-0.792-0.796-0.953c-2.406-1.047-4.885-1.981-5.966-4.707c-0.269-0.675-0.821-0.686-1.455-0.635
	c-0.737,0.058-1.501,0.048-1.414-1.086c0.017-0.237-0.236-0.698-0.401-0.718c-1.069-0.122-2.114-1.633-3.274,0.046
	c-0.308,0.447-1.284,0.427-1.076,1.393c0.059,0.262-0.218,0.288-0.398,0.276c-0.925-0.06-1.94,0.3-2.541-0.907
	c-0.355-0.709-1.088-1.127-1.99-0.834c-1.896,0.389-2.06,0.631-1.264,2.015c0.158-0.802,0.237-1.633,1.292-1.61
	c0.482,0.361,0.387,1.092,0.96,1.429c0.836,0.487,0.229,0.634-0.22,0.894c-0.44,0.252-0.76-0.193-1.115-0.087
	c-0.311,0.094-0.591-0.553-0.851-0.026c-0.191,0.394-0.349,0.807-0.229,1.277C6.168,15.758,7.438,15.739,6.712,16.663z"/>
</svg>
