<svg xmlns="http://www.w3.org/2000/svg" width="32" height="32" viewBox="0 0 32 32"><path d="M6.712 16.663c1.376.292.924 1.349.957 2.225.017.439-.237 1.071.408 1.245.493.129.851-.172 1.228-.582.865-.938 2.294-1.144 3.214-.759 1.583.665 3.514.769 4.682 2.315.096.129.336.24.494.223.788-.091 1.057.238.979 1.005-.09.857.562.922 1.184 1.177.694.283 1.251.322 1.706-.241.807-1.004 2.614-1.011 2.711-2.721.003-.048.178-.142.245-.122.627.187.941-.855 1.712-.36.474.302.436-.314.541-.599.291-.775-.426-.792-.796-.953-2.406-1.047-4.885-1.981-5.966-4.707-.269-.675-.821-.686-1.455-.635-.737.058-1.501.048-1.414-1.086.017-.237-.236-.698-.401-.718-1.069-.122-2.114-1.633-3.274.046-.308.447-1.284.427-1.076 1.393.059.262-.218.288-.398.276-.925-.06-1.94.3-2.541-.907-.355-.709-1.088-1.127-1.99-.834-1.896.389-2.06.631-1.264 2.015.158-.802.237-1.633 1.292-1.61.482.361.387 1.092.96 1.429.836.487.229.634-.22.894-.44.252-.76-.193-1.115-.087-.311.094-.591-.553-.851-.026-.191.394-.349.807-.229 1.277.133.522 1.403.503.677 1.427z" fill-rule="evenodd" clip-rule="evenodd" fill="#121111"/></svg>