<svg xmlns="http://www.w3.org/2000/svg" width="32" height="32" viewBox="0 0 32 32"><path d="M28.135 13.468c-1.167-.37-2.343-1.122-3.483-1.063-1.564.076-2.179-1.139-2.928-1.857-.529-.506-.489-1.561-1.675-1.271-.875.215-2.058.137-2.557.685-.621.683-1.114.605-1.798.548-1.112-.096-2.206-.235-3.296-.509-.839-.209-1.733-.264-2.597.066-.597.231-1.121.43-.554 1.209.343.468.3.864-.305 1.172-.333.168-.611.502-.835.816-.964 1.345-.91 2.633.143 2.722 1.424.12 2.877.71 4.319-.332.982-.71 2.362-.05 2.953 1.081.24.459.563.877.906 1.4-1.461-.139-1.427.998-1.9 1.741 1.427.461 2.084-.493 2.79-1.285.317-.355.689-.757 1.068-.368.591.608 1.322.498 2.028.625a.467.467 0 0 1-.154.304c-.24.22-.671.254-.681.657.328.286 1.024.213 1.048.805.003.084-.007.183-.035.298-.065.274.358.461.5.369.983-.622 2.16-.792 3.124-1.565-.192-.015-.389-.062-.574-.035-.533.076-1.021.023-1.191-.565-.168-.581.541-.802.729-.838 1.643-.319 2.927-1.397 4.437-1.97 1.145-.435.143-1.557.781-2.154.138-.132.155-.554-.263-.686z" fill-rule="evenodd" clip-rule="evenodd" fill="#121111"/></svg>