<svg xmlns="http://www.w3.org/2000/svg" width="32" height="32" viewBox="0 0 32 32"><path d="M13.502 15.827c-.377.305-.688.689-1.039 1.028-1.417 1.367-3.094 2.395-3.629 4.61-.431 1.769-.666 3.532-.865 5.316-.035.324-.197 1.005.283.97.615-.047 1.264.77 1.834-.04.905-1.287 2.264-1.314 3.633-1.314 2.947-.002 5.897-.055 8.842.026 1.193.032 1.751-.138 1.669-1.541-.075-1.283-.217-2.695.642-3.826.723-.958 1.271-2.027 2.171-2.892.747-.716 1.304-1.679 1.101-2.938-.507-3.116-2.179-5.662-3.748-8.339-1.087.941-1.901 2.45-3.64 1.304-.118-.079-.434.158-.664.226-.912.27-1.929.221-2.704.901-.724-1.095-1.881-.377-2.803-.665-1.06-.332-1.492.226-1.874 1.198-.354.901.067 1.772-.235 2.621-.232.648-.307 1.073.639 1.355.993.297 1.531 1.069.387 2z" fill-rule="evenodd" clip-rule="evenodd" fill="#121111"/></svg>