<svg xmlns="http://www.w3.org/2000/svg" width="32" height="32" viewBox="0 0 32 32"><path d="M24.139 9.621c-1.618 1.879-3.899 3.077-5.176 5.32-.457.802-1.256 2.018-2.569.767-.086-.082-.604.066-.639.189-.268.939-.877.569-1.459.461-1.659-.311-3.277-.403-4.878.413-.781.398-1.738.547-2.091-.724-.136-.486-.495-.636-.974-.429v1.179c1.204 1.487 2.427 2.96 3.603 4.468.391.501.827.771 1.459.85 3.306.415 6.61.844 9.908 1.317.477.068.904-.003.917-.417.058-1.724 1.074-3.138 1.438-4.729.229-.997.42-1.487 1.479-1.434.403.019.968-.454.558-.658-1.212-.598-.637-1.581-.755-2.404-.054-.374-.129-.872.313-1.05.511-.204.44.36.611.605.197.283.426.171.616.002.575-.512 1.027-.965 1.094-1.914.117-1.641-1.219-2.694-1.293-4.246-.497 1.084-1.476 1.637-2.162 2.434z" fill-rule="evenodd" clip-rule="evenodd" fill="#121111"/></svg>