<svg xmlns="http://www.w3.org/2000/svg" width="32" height="32" viewBox="0 0 32 32"><path d="M27.406 16.279c-.752.408-1.529.771-2.472 1.235.113-1.041-.62-1.163-1.299-1.456-2.337-1.016-4.743-.161-7.107-.347-.194-.017-.333.108-.423.32-.537 1.275.341 3.288 1.72 3.776 1.223.434 2.683.225 3.637 1.388.137.166.29-.005.462-.122 1.412-.979 2.346-.857 3.34.446.521-.601-.514-1.228.18-1.688 1.107-.735 1.292-2.239 2.478-2.896.369-.207.232-.49.055-.735-.228-.309-.367-.031-.571.079zM10.291 13.145c.74-.737 1.422-.619 2.209-.631.652.394 1.288.819 1.739 1.446.235.331.505.275.729.091.287-.238-.061-.378-.151-.569-.421-.872-1.341-.938-2.057-1.333-.005-.734-.017-1.468-.017-2.202 0-.396.041-.854-.471-.939-1.006-.171-2.044-.466-3.031-.36-.739.078-1.981.157-1.616 1.585-1.257.39.324.915-.067 1.4-.221.276-.614.733.146.959.87.261 1.797 1.339 2.587.553z" fill-rule="evenodd" clip-rule="evenodd" fill="#121111"/></svg>