<svg xmlns="http://www.w3.org/2000/svg" width="32" height="32" viewBox="0 0 32 32"><path d="M12.534 10.835c.032.021.058.031.088.052a.208.208 0 0 1 .03.134l.002.01c-.014.148-.132.307-.015.398.65.51 1.368.887.61 1.934-.33.456.598.19.649.355-.026.775-1.115.466-.869 1.105.25.65.561-.063.852-.155.024-.007.143.138.134.198-.223 1.459.76.367 1.226.575-.79 1.146-.394 1.459.87 1.293 1.335-.176 1.44 1.177 1.621 1.854.28 1.055-.741.93-1.462.837-.244-.031-.666.019-.537.196.238.327-.584.754.143.905.768.159.533.553.195.921-.602.655-.494 1.22.312 1.511.268.098.527.215 1.146.473-2-.084-2.213 1.703-3.595 2.205.597.24.933.06 1.3.005 1.29-.188 2.383-.978 3.775-.947 1.511.031 3.063-.125 4.537-.583.288-.089.706-.271.703-.661-.005-.468-.717-.021-.825-.494.114-.135.19-.267.305-.346.589-.408 1.138-.898.968-1.669-.176-.808-.926-.801-1.56-.742-.439.038-.379-.128-.436-.447-.358-2.037-2.522-2.964-3.07-4.909-.055-.195-.333-.387-.55-.464-.86-.305-.871-.752-.348-1.407.27-.339.409-.778.655-1.141.499-.733.346-1.062-.559-1.035-.704.021-1.409.005-2.225.005.186-.738.699-.887 1.017-1.219.273-.283.475-.872-.156-.773-1.081.172-2.527-.292-3.047 1.233-.043.124-.087.24-.134.348-.333.746-.809 1.033-1.661.498-.017-.027-.018-.054-.052-.078l-.024.008c-.003.007-.008.012-.011.017h-.002z" fill-rule="evenodd" clip-rule="evenodd" fill="#121111"/><path d="M10.614 17.32a.497.497 0 0 0 .393.528c.844.137 1.699.284 2.548.274.412-.002.795-.36.827-.994-.373-.467-.418-1.346-1.36-1.398-.727-.043-2.366 1.052-2.408 1.59zM13.327 9.102c-.907.242-1.43.723-1.365 1.698-.703.069-.358.389-.198.639.077-.175.247-.332.369-.514.137-.036.275-.073.413-.108.249-.548 1.041-.839.781-1.715zM11.732 11.71c.146-.051.107-.153.031-.271a.384.384 0 0 0-.031.271z" fill-rule="evenodd" clip-rule="evenodd" fill="#121111"/></svg>