<svg xmlns="http://www.w3.org/2000/svg" width="32" height="32" viewBox="0 0 32 32"><path d="M25.09 13.628c-.192-.76-.833-1.219-1.579-1.617-1.713-.917-3.085-2.354-4.842-3.259-.704-.362-1.049-1.451-2.116-.668-.196.144-.488.063-.589-.235-.436-1.285-1.608-1.948-2.449-2.887-.704-.788-1.479-1.328-2.287-.075-.23.358-.523.133-.762.003-1.176-.637-1.582.18-1.796 1.045-.443 1.794-.594 3.65-1.188 5.421a6.493 6.493 0 0 0-.158 3.634c.237.97.114 1.765-.568 2.577-.815.971-.833 2.949-.17 3.696 1.044 1.18 1.951 2.567 3.938 2.092.727-.173 1.383.388 2.016.767 1.291.773 2.602 1.283 4.181.81.747-.224 1.624-.2 2.24.523h1.476c.658-.795 1.646-1.009 2.518-1.424 2.124-1.009 2.951-2.527 2.651-4.835-.056-.431.026-.874.023-1.31-.004-1.088 1.545-1.498 1.373-2.25-.177-.774-1.628-.877-1.912-2.008z" fill-rule="evenodd" clip-rule="evenodd" fill="#121111"/></svg>