<svg xmlns="http://www.w3.org/2000/svg" width="32" height="32" viewBox="0 0 32 32"><path d="M7.171 16.825c.308-.052.696.269.869-.402.303-1.177 1.963-1.852 2.843-1.023.858.808 1.442 1.824 2.823 1.689.072-.007.209.204.244.333.422 1.601 1.867 2.114 3.013 2.998.895.689 2.398.502 2.802 1.974.05.184 1.034.817 1.634-.215.697-1.199.296-1.912-1.068-2.89 1.643.379 2.146-.472 2.74-1.204.501-.619.781-.523 1.274.056.184.217.479.81.999.497.708-.423 1.634-.405 2.277-1.146-.648-.349-1.244-.864-1.881-.922-.314-.029-.77.361-1.068-.075-.43-.629.627-.627.597-1.256-1.167.305-2.073.903-2.902 1.647-.21.19-.584.552-.63.517-1.019-.807-2.819-.775-2.754-2.813.017-.517-.732-1.437-1.867-1.369-1.579.092-3.108.403-4.504-1.184-1.274-1.449-3.289-2.027-5.379-1.701-.435.067-.738.072-.73.634.025 1.771.019 3.54.01 5.311-.001.476.269.606.658.544z" fill-rule="evenodd" clip-rule="evenodd" fill="#121111"/></svg>