<?xml version="1.0" encoding="iso-8859-1"?>
<!-- Generator: Adobe Illustrator 16.0.0, SVG Export Plug-In . SVG Version: 6.00 Build 0)  -->
<!DOCTYPE svg PUBLIC "-//W3C//DTD SVG 1.1//EN" "http://www.w3.org/Graphics/SVG/1.1/DTD/svg11.dtd">
<svg version="1.1" id="Layer_1" xmlns="http://www.w3.org/2000/svg" xmlns:xlink="http://www.w3.org/1999/xlink" x="0px" y="0px"
	 width="32px" height="32px" viewBox="0 0 32 32" style="enable-background:new 0 0 32 32;" xml:space="preserve">
<path style="fill:#141313;" d="M8.909,6.411C8.965,6.695,8.919,7,8.919,7.295c0.401,0.614,0.461,1.314,0.6,2.017
	c0.215,1.088,0.169,2.524,2.025,2.136c0.226-0.049,0.514,0.201,0.771,0.313c-0.232,1.979,1.134,3.212,2.206,4.539
	c0.516,0.638,1.322,0.312,1.849-0.14c0.586-0.506-0.24-0.752-0.341-1.155c0.915,0.048,1.871-0.03,1.489,1.486
	c-0.245,0.978,0.242,1.598,1.366,1.462c0.17,0.143,0.342,0.284,0.512,0.426c-1.614,0.617-0.071,1.472-0.168,2.203
	c-2.006,1.093-2.088,1.87-0.322,3.107c0.029,0.021,0.029,0.087,0.047,0.135c0.193,0,0.391,0,0.587,0
	c1.252,0.264,1.655-0.219,1.504-1.479c-0.127-1.066-0.026-2.162-0.026-3.245c0-0.292,0-0.589,0-0.885
	c-1.162-0.92-1.921-2.023-1.893-3.603c0.008-0.399-0.525-0.662-0.413-1.292c0.385-2.138-0.334-4.198-0.696-6.279
	c-0.055-0.312-0.331-0.531-0.644-0.468c-0.334,0.067-0.456,0.36-0.334,0.69c0.346,0.914,0.146,1.448-0.913,1.63
	c-0.444,0.077-0.932,0.374-1.045,0.931c-0.052,0.264,0.087,0.507,0.327,0.596c0.543,0.197,1.052,0.155,1.475-0.311
	c0.139-0.153,0.235-0.437,0.556-0.323c0,0.537-0.128,1.113,0.025,1.598c0.401,1.258,0.52,2.283-1.104,2.717
	c-0.183,0.048-0.253,0.521-0.363,0.837c-0.896-1.073-1.789-2.147-2.688-3.221c0.317-0.479,0.403-0.98,0.188-1.527
	c-0.32-0.815-0.637-1.629-0.936-2.452c-0.134-0.377,0.056-0.939-0.62-0.978c-0.606-0.034-0.587,0.531-0.969,1.075
	c0.177-1.182-0.724-1.733-0.872-2.605C9.087,5.008,8.708,5.396,8.909,6.411z"/>
</svg>
