<svg xmlns="http://www.w3.org/2000/svg" width="32" height="32" viewBox="0 0 32 32"><path d="M8.909 6.411c.056.284.01.589.01.884.401.614.461 1.314.6 2.017.215 1.088.169 2.524 2.025 2.136.226-.049.514.201.771.313-.232 1.979 1.134 3.212 2.206 4.539.516.638 1.322.312 1.849-.14.586-.506-.24-.752-.341-1.155.915.048 1.871-.03 1.489 1.486-.245.978.242 1.598 1.366 1.462.17.143.342.284.512.426-1.614.617-.071 1.472-.168 2.203-2.006 1.093-2.088 1.87-.322 3.107.029.021.029.087.047.135h.587c1.252.264 1.655-.219 1.504-1.479-.127-1.066-.026-2.162-.026-3.245v-.885c-1.162-.92-1.921-2.023-1.893-3.603.008-.399-.525-.662-.413-1.292.385-2.138-.334-4.198-.696-6.279-.055-.312-.331-.531-.644-.468-.334.067-.456.36-.334.69.346.914.146 1.448-.913 1.63-.444.077-.932.374-1.045.931a.517.517 0 0 0 .327.596c.543.197 1.052.155 1.475-.311.139-.153.235-.437.556-.323 0 .537-.128 1.113.025 1.598.401 1.258.52 2.283-1.104 2.717-.183.048-.253.521-.363.837-.896-1.073-1.789-2.147-2.688-3.221.317-.479.403-.98.188-1.527a102.18 102.18 0 0 1-.936-2.452c-.134-.377.056-.939-.62-.978-.606-.034-.587.531-.969 1.075.177-1.182-.724-1.733-.872-2.605-1.012-.222-1.391.166-1.19 1.181z" fill="#141313"/></svg>