<?xml version="1.0" encoding="iso-8859-1"?>
<!-- Generator: Adobe Illustrator 16.0.0, SVG Export Plug-In . SVG Version: 6.00 Build 0)  -->
<!DOCTYPE svg PUBLIC "-//W3C//DTD SVG 1.1//EN" "http://www.w3.org/Graphics/SVG/1.1/DTD/svg11.dtd">
<svg version="1.1" id="Layer_1" xmlns="http://www.w3.org/2000/svg" xmlns:xlink="http://www.w3.org/1999/xlink" x="0px" y="0px"
	 width="32px" height="32px" viewBox="0 0 32 32" style="enable-background:new 0 0 32 32;" xml:space="preserve">
<path style="fill-rule:evenodd;clip-rule:evenodd;fill:#121111;" d="M26.066,14.676c0.033-0.833-0.073-1.688,0.066-2.502
	c0.247-1.444-0.405-2.054-1.731-2.232c-1.244-0.17-2.244-0.588-2.259-2.128c-0.007-0.696-0.486-0.585-1.033-0.478
	c-1.072,0.211-1.839,1.563-2.794,1.275c-1.578-0.476-2.688,1.488-4.203,0.533c-0.026-0.017-0.117,0.012-0.133,0.043
	c-0.715,1.419-1.379,2.878-2.898,3.658c0.479,2.325-1.851,3.274-2.493,5.063c-0.388,1.082-1.841,0.73-2.471,1.597
	c0.308,0.362,0.621,0.783,1.159,0.742c1.032-0.081,1.802,0.814,1.881,1.343c0.261,1.727,1.263,0.358,1.827,0.608
	c0.232-0.75,0.783-0.27,1.202-0.32c1.328-0.16,2.354,0.802,3.549,0.973c1.651,0.236,3.369-0.178,5.023,0.576
	c-0.071-2.761,0.299-3.206,2.269-3.201c0.582,0.002,0.862,0.355,1.259,0.615c1.068,0.695,2.138,0.415,2.704-0.721
	c0.521-1.048,0.562-2.188-0.226-3.039C26.064,16.328,26.03,15.56,26.066,14.676z"/>
</svg>
