<svg xmlns="http://www.w3.org/2000/svg" width="32" height="32" viewBox="0 0 32 32"><path d="M26.066 14.676c.033-.833-.073-1.688.066-2.502.247-1.444-.405-2.054-1.731-2.232-1.244-.17-2.244-.588-2.259-2.128-.007-.696-.486-.585-1.033-.478-1.072.211-1.839 1.563-2.794 1.275-1.578-.476-2.688 1.488-4.203.533-.026-.017-.117.012-.133.043-.715 1.419-1.379 2.878-2.898 3.658.479 2.325-1.851 3.274-2.493 5.063-.388 1.082-1.841.73-2.471 1.597.308.362.621.783 1.159.742 1.032-.081 1.802.814 1.881 1.343.261 1.727 1.263.358 1.827.608.232-.75.783-.27 1.202-.32 1.328-.16 2.354.802 3.549.973 1.651.236 3.369-.178 5.023.576-.071-2.761.299-3.206 2.269-3.201.582.002.862.355 1.259.615 1.068.695 2.138.415 2.704-.721.521-1.048.562-2.188-.226-3.039-.7-.753-.734-1.521-.698-2.405z" fill-rule="evenodd" clip-rule="evenodd" fill="#121111"/></svg>