<svg xmlns="http://www.w3.org/2000/svg" width="32" height="32" viewBox="0 0 32 32"><path d="M26.072 11.4c-.279.044-.862.255-.677-.312.431-1.326-.64-1.277-1.312-1.596-.498-.231-1.166-.115-1.511-.804.341-.161.698-.329 1.057-.5-1.016-.537-2.304.55-3.147-.684-.045-.065-.361-.044-.458.321-.313 1.191-1.167 1.647-2.196.976-.934-.61-1.808-.531-2.776-.462-.43.032-.883.271-1.249-.382-.69-1.236-2.02-1.396-3.346-.889-.598.23-1.453 1.055-1.966.389-.737-.951-1.054-.17-1.406.148-.8.726-.717 1.881-1.193 2.791-.214.411.792.067.834.704.026.408.448.793.468 1.196.09 1.813.783 1.878 2.256 1.761.589-.046 1.273-.026 1.478.298.838 1.318 2.029 1.139 3.243.979.468-.06.99.037.588.523-1.272 1.545.833 3.2-.252 4.698a1.41 1.41 0 0 0 .196.161c.729.473.814 1.287 1.091 2.011.436 1.141 1.683 1.615 2.661.965 1.051-.701 2.151-1.353 3.123-2.416-1.577-.17-1.282-1.369-1.511-2.337.838-.142 1.923.493 2.076.333.806-.84 1.955-.679 2.826-1.222.746-.464 1.126-.867.338-1.679-.719-.739-.791-1.494.364-1.989.231-.099.851-.257.438-.639-.776-.714-.023-.846.319-1.167.232-.221.688-.339.502-.781-.146-.343-.466-.451-.858-.395z" fill-rule="evenodd" clip-rule="evenodd" fill="#121111"/></svg>