<svg xmlns="http://www.w3.org/2000/svg" width="32" height="32" viewBox="0 0 32 32"><path d="M11.176 8.077c.386.698.958 1.275 1.282 2.044.153.363.697.392 1.175.233.867-.289.705.729 1.158 1.021.221.142-.058.413-.316.47-1.431.32-.81.755-.086 1.235 1.632 1.084 2.605 2.791 3.828 4.238.905 1.074.033 2.626.395 3.939.201.73-.102 1.264-.909 1.487-1.298.357-1.824 1.823-3.102 2.238-.081.026-.164.305-.158.31 1.103.605-.033 1.713.599 2.486.147-.067.329-.12.474-.224 1.479-1.062 2.692-2.483 4.43-3.199.489-.199.975-.516 1.107-1.101.521-2.31.306-4.531-1.42-6.256-.989-.987-1.952-1.966-2.835-3.053-.793-.978-.625-1.662.129-2.52.696-.793 1.433-1.516 2.456-2.188-1.495-.449-1.931-.665-1.83-1.194.153-.792-.154-1.061-.788-.907-.659.161-.932-.992-1.531-.432-1.025.957-2.216.828-3.432.734-.463-.034-.727.457-.626.639z" fill-rule="evenodd" clip-rule="evenodd" fill="#121111"/></svg>