<svg xmlns="http://www.w3.org/2000/svg" width="32" height="32" viewBox="0 0 32 32"><path d="M8.05 22.072c.081.569.643.663 1.324.678.123-.029.405-.161.685-.159 1.209.015 1.87-1.261 3.028-1.284 1.008-.021 1.886-.605 2.768-.726 1.723-.231 2.773-1.782 4.441-1.907 2.231-.168 3.452-1.854 4.916-3.18.266-.24.106-.545-.027-.81-.221-.438-.474-.86-.675-1.305-1.118-2.467-1.109-2.436-3.762-2.075-2.234.305-4.397.651-5.469 3.041-.124.276-.394.454-.841.245-1.985-.922-4.185-.43-6.256-.846-.139-.028-.519.322-.495.433.186.859-.534 1.41-.668 2.167-.365 2.052.758 3.807 1.031 5.728zM27.939 22.824c-.651-.415-1.329-.485-2.01-.176-.181.084-.085.349.093.464.701.459 1.318.26 1.917-.288z" fill-rule="evenodd" clip-rule="evenodd" fill="#121111"/></svg>