<svg xmlns="http://www.w3.org/2000/svg" width="32" height="32" viewBox="0 0 32 32"><path d="M7.475 21.985c.031 2.399 1.69 3.855 4.09 3.639.637-.058 1.203.151 1.802.456 1.871.954 3.262.619 4.488-.992.773-1.02 2.313-1.191 2.774-2.551.033-.101.24-.153.372-.21.677-.292 2.202.47 1.693-1.358-.015-.051.654-.321 1.019-.441 1.333-.44 2.676-.861 4.187-1.344-.704-.389-.862-.778-.545-1.375a6.3 6.3 0 0 0 .732-3.592 1.844 1.844 0 0 1 .087-.701c.465-1.494.132-2.361-1.244-3.095-.854-.454-1.804-.774-2.561-1.351-1.166-.886-2.356-.504-3.558-.322-.925.139-1.604 1.329-1.456 2.304.142.922.154 1.84-.198 2.751-.277.704-.047 1.282.573 1.801.599.502 1.124.829 1.97.274-.473.579.502 1.306-.423 1.791-1.075.565-1.462-.39-1.784-.921-.613-1.013-2.188-.708-2.518-2.019-.046-.18-.288.044-.446.143-1.107.688-2.075.329-2.863-.539-.232-.257-.433-.461-.689-.315-.804.454-1.081-.415-1.85-.681 0 .322.005.502 0 .681-.069 2.91-.066 2.938-2.853 3.117-.661.042-.829.257-.812.87.034 1.326-.005 2.654.013 3.98z" fill-rule="evenodd" clip-rule="evenodd" fill="#121111"/></svg>