<svg xmlns="http://www.w3.org/2000/svg" width="32" height="32" viewBox="0 0 32 32"><path d="M29.238 12.911c.146-1.99-.295-2.194-2.319-2.752-1.42-.394-2.647-1.466-4.264-1.199-.101.017-.298-.11-.331-.21-.519-1.581-1.737-.638-2.553-.569-.76.064-1.794.328-1.831 1.529-.012.332-.026.697-.48.8-1.83.416-2.754 1.917-3.836 3.226-.578.698-1.16.956-2.161.735-1.04-.231-2.133-.584-3.232-.393-.181.586.226.915.504 1.197 1.236 1.259 1.275 3.296 2.855 4.321 1.482.96 3.194 1.646 3.387 3.857.06.674.769 1.403 1.787 1.458.716.038 1.561.017 1.842 1.04.063.226.676.452 1.011.422.767-.069 1.438.275 2.152.351 1.803.191 3.46.347 4.833-1.5 1.168-1.572 1.345-3.576 2.661-5.012.289-.317-.031-.664-.209-.929-.489-.727-.543-1.966-.322-2.27.975-1.335.408-2.769.506-4.102z" fill-rule="evenodd" clip-rule="evenodd" fill="#121111"/></svg>