<?xml version="1.0" encoding="iso-8859-1"?>
<!-- Generator: Adobe Illustrator 16.0.0, SVG Export Plug-In . SVG Version: 6.00 Build 0)  -->
<!DOCTYPE svg PUBLIC "-//W3C//DTD SVG 1.1//EN" "http://www.w3.org/Graphics/SVG/1.1/DTD/svg11.dtd">
<svg version="1.1" id="Layer_1" xmlns="http://www.w3.org/2000/svg" xmlns:xlink="http://www.w3.org/1999/xlink" x="0px" y="0px"
	 width="32px" height="32px" viewBox="0 0 32 32" style="enable-background:new 0 0 32 32;" xml:space="preserve">
<path style="fill-rule:evenodd;clip-rule:evenodd;fill:#121111;" d="M27.292,10.175c-0.062-0.058-0.153-0.104-0.283-0.134
	c-0.29-0.455-0.65-0.425-1.049-0.156l0.007,0.005l0,0l0.003,0.002c0-0.002,0,0,0,0L25.967,9.89c-0.002,0-0.002,0.002-0.005,0.002
	c-0.296-0.046-0.379,0.271-0.596,0.365c-0.453-0.036-0.908-0.074-1.377-0.113c0.467-1.141,1.288-1.169,2.354-0.704
	c-0.271-0.437-0.482-0.66-0.563-0.924c-0.359-1.187-0.937-0.87-1.618-0.293c-0.848,0.713-1.415,1.743-2.534,2.166
	c-0.183,0.069-0.271,0.398,0.149,0.746c0.84,0.695,2.091-0.463,2.706,0.735c0.108-0.086,0.271-0.151,0.315-0.264
	c0.354-0.903,0.943-0.49,1.167-0.055c0.729,1.407,0.889,0.458,1.155-0.219c0.097,0.002,0.16-0.013,0.203-0.036
	c0.129-0.075,0.054-0.247,0.011-0.403C27.405,10.621,27.478,10.348,27.292,10.175z"/>
<path style="fill-rule:evenodd;clip-rule:evenodd;fill:#121111;" d="M8.789,22.926c3.232,0.351,5.719-1.414,8.069-3.114
	c2.549-1.843,4.627-4.323,7.56-5.679c0.312-0.144,0.792-0.259,0.55-0.937c-0.879,0.635-2.054,0.5-2.342-0.266
	c-0.671-1.764-1.153-1.36-2.388-0.474c-0.979,0.698-0.949,1.475-0.992,2.329c-0.009,0.171,0.523,0.217-0.035,0.596
	c-1.721,1.16-3.46,1.792-5.504,0.937c-0.438-0.182-1.184,0.02-1.047,0.347c0.27,0.648,0.851,1.445,1.45,1.598
	c0.51,0.129,1.072,0.384,1.469,0.307c-1.078,1.237-3.091,1.162-4.129,2.798c-0.324,0.515-1.256,0.752-2.008,0.658
	c-0.517-0.066-0.896-0.473-0.905-1.014c-0.013-0.725,0.478-0.118,0.708-0.216c0.25-0.107,0.637-0.156,0.594-0.507
	c-0.026-0.211-0.311-0.329-0.594-0.322c-0.973,0.026-1.865-0.224-2.704-0.934c-0.265,1.179,0.721,1.811,0.802,2.745
	C7.418,22.604,8.01,22.84,8.789,22.926z"/>
<path style="fill-rule:evenodd;clip-rule:evenodd;fill:#121111;" d="M6.626,19.348c0.553,0.122,0.543-0.396,0.593-0.776
	c0.044-0.321,0.252-0.57,0.529-0.631c0.607-0.135,0.59-0.444,0.435-0.937c-0.185-0.577-0.717-0.584-1.103-0.811
	c-1.288,0.394-0.939,1.305-0.689,2.159C6.489,18.689,6.062,19.223,6.626,19.348z"/>
<path style="fill-rule:evenodd;clip-rule:evenodd;fill:#121111;" d="M8.454,16.677c1.391-0.108,1.042-1.511,1.473-2.054
	C9.343,15.02,8.555,15.502,8.454,16.677z"/>
<path style="fill-rule:evenodd;clip-rule:evenodd;fill:#121111;" d="M29.155,10.398c-0.033-0.058-0.067-0.12-0.102-0.183
	c-0.03,0.031-0.09,0.069-0.086,0.094c0.018,0.067,0.058,0.13,0.089,0.192C29.088,10.47,29.117,10.437,29.155,10.398z"/>
</svg>
