<?xml version="1.0" encoding="iso-8859-1"?>
<!-- Generator: Adobe Illustrator 16.0.0, SVG Export Plug-In . SVG Version: 6.00 Build 0)  -->
<!DOCTYPE svg PUBLIC "-//W3C//DTD SVG 1.1//EN" "http://www.w3.org/Graphics/SVG/1.1/DTD/svg11.dtd">
<svg version="1.1" id="Layer_1" xmlns="http://www.w3.org/2000/svg" xmlns:xlink="http://www.w3.org/1999/xlink" x="0px" y="0px"
	 width="32px" height="32px" viewBox="0 0 32 32" style="enable-background:new 0 0 32 32;" xml:space="preserve">
<path style="fill-rule:evenodd;clip-rule:evenodd;fill:#121111;" d="M12.268,20.179c0.733,0.458,1.046,1.134,1.072,1.946
	c0.019,0.624-0.051,1.25,0.351,1.77c-0.553,0.437-1.324-0.128-1.652,0.581c-0.089,0.196,2.19,3.042,2.416,3.036
	c0.046-0.001,0.091-0.05,0.137-0.05c2.344-0.015,4.042-1.691,6.117-2.396c0.163-0.055,0.248-0.311,0.406-0.415
	c0.792-0.515,1.068-1.689,2.253-1.721c0.281-0.008,0.385-0.374,0.168-0.551c-0.483-0.4-0.346-1-0.576-1.471
	c-0.466-0.955,0.158-3.904,1.057-4.072c1.157-0.216,0.91-0.893,0.917-1.576c0.01-0.836-0.06-1.678,0.02-2.506
	c0.092-0.929-0.307-1.345-1.11-1.769c-2.92-1.542-5.978-2.827-8.734-4.668c-0.394,0-0.787,0-1.183,0
	c-0.97,0.884-0.715,1.94-0.208,2.859c0.55,0.996,0.507,1.962,0.441,3.026c-0.11,1.795-0.38,3.464-1.917,4.658
	c-0.219,0.17-0.323,0.486-0.489,0.729C11.044,18.628,11.199,19.51,12.268,20.179z"/>
</svg>
