<?xml version="1.0" encoding="iso-8859-1"?>
<!-- Generator: Adobe Illustrator 16.0.0, SVG Export Plug-In . SVG Version: 6.00 Build 0)  -->
<!DOCTYPE svg PUBLIC "-//W3C//DTD SVG 1.1//EN" "http://www.w3.org/Graphics/SVG/1.1/DTD/svg11.dtd">
<svg version="1.1" id="Layer_1" xmlns="http://www.w3.org/2000/svg" xmlns:xlink="http://www.w3.org/1999/xlink" x="0px" y="0px"
	 width="32px" height="32px" viewBox="0 0 32 32" style="enable-background:new 0 0 32 32;" xml:space="preserve">
<path style="fill-rule:evenodd;clip-rule:evenodd;fill:#121111;" d="M23.865,13.119c-0.995-0.342-2.118,0.389-2.774-0.325
	c-0.696-0.757-1.398-0.889-2.313-0.859c-0.703,0.02-1.424-0.127-1.192-1.155c0.073-0.339-0.172-0.538-0.309-0.788
	c-0.852-1.561-0.463-2.846,1.144-3.857c0.284-0.177,0.928-0.18,0.596-0.759c-0.305-0.528-0.818-0.318-1.129-0.002
	c-0.742,0.761-1.614,1.112-2.656,1.272c-0.838,0.13-1.789,0.425-1.912,1.464c-0.127,1.085-0.994,1.483-1.667,2.025
	c-0.554,0.45-1.092,1.556-0.804,2.178c0.61,1.32,0.226,2.73,0.31,4.092c0.041,0.622-0.773,1.017-1.321,1.441
	c-0.278,0.216-1.066,0.829-0.464,1.35c0.714,0.615,1.622,1.382,2.46,1.4c2.111,0.048,3.346,1.28,4.429,2.74
	c0.426,0.572,0.808,0.716,1.408,0.666c0.478-0.039,0.96-0.118,1.434-0.08c0.809,0.064,1.514,0.257,0.698,1.259
	c-0.372,0.462-0.11,0.685,0.329,0.831c0.178,0.061,0.423,0.442,0.515-0.024c0.271-1.376,1.251-3.122,0.379-4.071
	c-1.1-1.197,1.093-2.029-0.117-2.874c-0.028-0.022,0.389-0.166,0.624-0.188c0.708-0.063,1.394-0.026,2.119-0.337
	c0.437-0.189,0.583-0.076,0.435-0.606C23.645,16.349,22.799,14.8,23.865,13.119z"/>
</svg>
