<?xml version="1.0" encoding="iso-8859-1"?>
<!-- Generator: Adobe Illustrator 16.0.0, SVG Export Plug-In . SVG Version: 6.00 Build 0)  -->
<!DOCTYPE svg PUBLIC "-//W3C//DTD SVG 1.1//EN" "http://www.w3.org/Graphics/SVG/1.1/DTD/svg11.dtd">
<svg version="1.1" id="Layer_1" xmlns="http://www.w3.org/2000/svg" xmlns:xlink="http://www.w3.org/1999/xlink" x="0px" y="0px"
	 width="32px" height="32px" viewBox="0 0 32 32" style="enable-background:new 0 0 32 32;" xml:space="preserve">
<path style="fill-rule:evenodd;clip-rule:evenodd;fill:#121111;" d="M15.31,19.275c-0.967,0.094-0.679,0.564-0.385,1.091
	c0.189,0.336,0.323,0.703,0.509,1.116c1.198-0.826,2.34-1.646,3.742-2.034c1.346-0.375,2.652-0.894,3.961-1.389
	c1.854-0.698,3.707-1.429,5.391-2.485c0.492-0.308,1.416-0.813,1.116-1.302c-0.355-0.584-1.353-0.641-2.138-0.591
	c-0.271,0.017-0.532,0.219-0.795,0.344c-0.761,0.363-1.542,0.563-2.401,0.568c-2.157,0.008-4.297,0.145-6.439,0.526
	c-1.655,0.294-2.497,1.409-3.364,2.558c-0.278,0.37-0.292,1.002,0.565,0.784c0.273-0.07,0.637-0.277,0.766,0.093
	C15.97,18.927,15.693,19.237,15.31,19.275z"/>
<path style="fill-rule:evenodd;clip-rule:evenodd;fill:#121111;" d="M11.408,19.734c0.115-0.301-0.165-0.497-0.413-0.389
	c-0.766,0.333-1.901,0.173-2.185,1.152c-0.143,0.493,0.616,0.444,1.1,0.519C10.758,21.069,11.135,20.438,11.408,19.734z"/>
</svg>
