<?xml version="1.0" encoding="iso-8859-1"?>
<!-- Generator: Adobe Illustrator 16.0.0, SVG Export Plug-In . SVG Version: 6.00 Build 0)  -->
<!DOCTYPE svg PUBLIC "-//W3C//DTD SVG 1.1//EN" "http://www.w3.org/Graphics/SVG/1.1/DTD/svg11.dtd">
<svg version="1.1" id="Layer_1" xmlns="http://www.w3.org/2000/svg" xmlns:xlink="http://www.w3.org/1999/xlink" x="0px" y="0px"
	 width="32px" height="32px" viewBox="0 0 32 32" style="enable-background:new 0 0 32 32;" xml:space="preserve">
<path style="fill-rule:evenodd;clip-rule:evenodd;fill:#121111;" d="M6.868,17.226c0.72-1.43,2.155-1.54,3.302-2.143
	c0.298-0.159,0.652-0.243,0.899-0.457c0.249-0.216,0.415-0.591,0.283-0.912c-0.139-0.337-0.452-0.495-0.826-0.233
	c-0.484,0.342-1.038,0.007-1.542,0.156c-0.018-0.355,0.263-0.515,0.503-0.617c0.347-0.151,0.795-0.145,0.732-0.701
	c-0.048-0.43-0.465-0.413-0.708-0.608c-1.039-0.832-1.532,0.627-2.415,0.445c0.741,0.354,1.662,0.495,1.169,1.646
	c-0.6,0.318-1.232,0.465-1.912,0.352c0,0.493,0,0.983,0,1.476C7.856,15.656,6.684,16.562,6.868,17.226z"/>
<path style="fill-rule:evenodd;clip-rule:evenodd;fill:#121111;" d="M27.253,10.233c0.133-0.063,0.313-0.259,0.167-0.482
	c-0.139-0.217-0.287-0.276-0.59-0.238c-1.45,0.18-2.861,0.005-4.293-0.36c-1.17-0.295-2.51-0.934-3.59-0.474
	c-1.883,0.806-3.956,0.589-5.845,1.553c-1.274,0.648-1.568,1.277-1.368,2.409c0.162,0.92,0.41,1.832,1.209,2.479
	c0.75,0.605,1.484,0.137,2.347-0.138c-0.264,0.882-0.468,1.566-0.728,2.436c2.879-0.932,3.561-1.037,5.261,0.151
	c1.168,0.819,2.075,1.547,3.724,1.391c0.928-0.086,1.24-0.398,1.869-0.848c0.995-0.711,0.444-1.256,0.27-1.988
	c-0.284-1.191-0.925-2.565-0.188-3.605C26.034,11.762,26.29,10.696,27.253,10.233z"/>
</svg>
