<?xml version="1.0" encoding="iso-8859-1"?>
<!-- Generator: Adobe Illustrator 16.0.0, SVG Export Plug-In . SVG Version: 6.00 Build 0)  -->
<!DOCTYPE svg PUBLIC "-//W3C//DTD SVG 1.1//EN" "http://www.w3.org/Graphics/SVG/1.1/DTD/svg11.dtd">
<svg version="1.1" id="Layer_1" xmlns="http://www.w3.org/2000/svg" xmlns:xlink="http://www.w3.org/1999/xlink" x="0px" y="0px"
	 width="32px" height="32px" viewBox="0 0 32 32" style="enable-background:new 0 0 32 32;" xml:space="preserve">
<path style="fill-rule:evenodd;clip-rule:evenodd;fill:#121111;" d="M10.407,7.76c-0.189-0.046-0.211,0.249-0.237,0.449
	c-0.104,0.807-0.775,1.248-1.175,1.863c-0.322,0.492-1.352,1.183-0.619,1.701c0.948,0.672,0.608,1.969,1.726,2.584
	c0.501,0.276,1.024,0.682,1.652,0.813c-0.922,0.657-1.676,1.23-0.309,2.111c0.422,0.274,0.381,0.618,0.282,1.117
	c-0.095,0.472,0.18,1.463,0.889,0.965c0.707-0.496,0.646,0.068,0.861,0.289c0.192,0.194,0.036,0.588,0.382,0.738
	c0.19-0.282,0.379-0.561,0.566-0.837c0.418,0.183,0.481,0.769,1.034,0.814c0.195-0.97-0.305-1.775-0.578-2.627
	c-0.005-0.005-0.009-0.01-0.014-0.015l0,0h0l0,0h0c0.014-0.022,0.029-0.042,0.044-0.061c0.013-0.017,0.025-0.028,0.039-0.041
	c0.01-0.009,0.021-0.021,0.031-0.028c0.017-0.013,0.036-0.015,0.055-0.02c0.009,0,0.017-0.005,0.026-0.005
	c0.029,0.005,0.059,0.019,0.093,0.056c0.368,0.394,0.805,0.441,1.105,0.045c0.37-0.49-0.317-0.422-0.453-0.655
	c-0.115-0.195-0.13-0.449-0.189-0.68c0.364-0.044,0.68-0.389,1.098-0.12c0.356,0.231,0.549,0.694,1.055,0.738
	c0.055-0.485-0.035-1.051,0.191-1.426c0.566-0.94,0.388-1.424-0.684-1.625c-0.505-0.094-1.051-0.383-1.122-0.839
	c-0.164-1.086-0.992-1.708-1.547-2.508c-0.435-0.627-0.377-1.104-0.051-1.604c0.118,0.023,0.224,0.064,0.32,0.114
	c0.042,0.025,0.077,0.056,0.116,0.082c0.051,0.033,0.106,0.065,0.152,0.106c0.005,0.004,0.01,0.012,0.016,0.017
	c0.483,0.425,0.773,1.091,1.536,1.037c0.004,0.005,0.009,0.012,0.013,0.017c0.002,0.01,0.003,0.024,0.005,0.034
	c-0.028,0.041-0.056,0.084-0.083,0.125c0.035,0.02,0.071,0.036,0.106,0.055c-0.008-0.057-0.016-0.117-0.023-0.177
	c0.012-0.017,0.023-0.035,0.036-0.054h0.003c-0.022,0.002-0.038-0.005-0.059-0.002c-0.035-0.048-0.074-0.097-0.11-0.145
	c-0.005-0.005-0.009-0.012-0.014-0.017c-0.041-0.056-0.077-0.11-0.101-0.173c-0.096-0.252,0.128-0.214,0.243-0.202
	c0.376,0.038,0.358,0.769,0.907,0.531c-0.625-1.571-0.205-2.488,1.311-2.563c1.083-0.053,2.239-0.325,3.261,0.273
	c0.614,0.357,1.018,0.028,1.178-0.396c0.184-0.487,0.309-0.92,0.7-1.335c0.398-0.426-0.104-0.779-0.493-0.989
	c-0.239-0.133-0.688-0.32-0.713,0.088c-0.106,1.67-1.627,1.272-2.134,1.023c-1.778-0.879-3.457-0.308-5.201-0.183
	c-0.732,0.053-1.095,0.802-1.854,0.651C12.463,6.635,11.676,8.072,10.407,7.76z"/>
<path style="fill-rule:evenodd;clip-rule:evenodd;fill:#121111;" d="M21.906,23.647c-1.467-0.517-3.135-0.293-4.642-0.867
	c-0.417-0.158-0.664,0.147-0.774,0.469c-0.102,0.3,0.051,0.617,0.392,0.658c1.966,0.23,3.855,1.159,5.91,0.629
	c0.397-0.104,0.615-0.243,0.605-0.773C22.912,23.501,22.478,23.85,21.906,23.647z"/>
<path style="fill-rule:evenodd;clip-rule:evenodd;fill:#121111;" d="M24.018,12.842c-0.142-0.394-0.322-0.887-0.899-0.764
	c-0.347,0.074-0.958,0.11-0.822,0.591c0.129,0.453,0.741,0.557,1.145,0.653C23.85,13.332,24.164,13.245,24.018,12.842z"/>
<path style="fill-rule:evenodd;clip-rule:evenodd;fill:#121111;" d="M29.225,21.52c-0.02,0.216,0.107,0.447,0.307,0.379
	c0.621-0.211,1.031-0.641,1.126-1.534C29.859,20.545,29.296,20.736,29.225,21.52z"/>
</svg>
