<?xml version="1.0" encoding="iso-8859-1"?>
<!-- Generator: Adobe Illustrator 16.0.0, SVG Export Plug-In . SVG Version: 6.00 Build 0)  -->
<!DOCTYPE svg PUBLIC "-//W3C//DTD SVG 1.1//EN" "http://www.w3.org/Graphics/SVG/1.1/DTD/svg11.dtd">
<svg version="1.1" id="Layer_1" xmlns="http://www.w3.org/2000/svg" xmlns:xlink="http://www.w3.org/1999/xlink" x="0px" y="0px"
	 width="32px" height="32px" viewBox="0 0 32 32" style="enable-background:new 0 0 32 32;" xml:space="preserve">
<path style="fill-rule:evenodd;clip-rule:evenodd;fill:#121111;" d="M9.322,15.269c-0.075,0.395,0.379,1.168,0.769,1.317
	c1.541,0.591,2.295,1.897,3.111,3.137c0.342,0.518,0.589,0.415,0.908,0.124c0.355-0.326,0.854-0.654,0.963-1.066
	c0.401-1.539,1.761-1.036,2.707-1.376c1.564-0.563,2.124,0.761,2.646,1.701c0.489,0.88,1.001,1.937,0.189,3.109
	c2.755-0.877,3.854-0.8,3.694,2.23c-0.034,0.662,0.59,0.67,0.861,0.762c1.06,0.36,1.367-1.624,2.705-0.955
	c0.221,0.11,0.286-0.742,0.485-1.124c0.086-0.17,0.105-0.307-0.002-0.52c-0.419-0.834-0.388-0.902,0.571-0.754
	c0.4,0.062,0.687-0.159,0.482-0.305c-1.016-0.723,0.12-2.256-1.146-2.846c-0.137-0.063-0.233-0.487-0.161-0.672
	c0.367-0.959,0.013-1.681-0.308-2.625c-0.547-1.618-1.532-3.01-2.024-4.636c-0.171-0.562-0.67-1.489-1.425-0.178
	c-0.252,0.437-1.006,0.892-1.77,0.434c-0.957-0.572-1.912,0.879-3.013,0.039c-0.163-0.125-0.979,0.457-0.905-0.572
	c0.026-0.356-0.338-0.309-0.545-0.267c-1.73,0.342-3.329-0.134-4.941-0.678c-0.687-0.232-1.945,1.073-1.57,1.62
	c0.703,1.025,0.216,1.084-0.654,1.208c-1.072,0.155-1.894,0.6-2.504,1.695C7.718,15.38,9.471,14.452,9.322,15.269z"/>
</svg>
