<?xml version="1.0" encoding="iso-8859-1"?>
<!-- Generator: Adobe Illustrator 16.0.0, SVG Export Plug-In . SVG Version: 6.00 Build 0)  -->
<!DOCTYPE svg PUBLIC "-//W3C//DTD SVG 1.1//EN" "http://www.w3.org/Graphics/SVG/1.1/DTD/svg11.dtd">
<svg version="1.1" id="Layer_1" xmlns="http://www.w3.org/2000/svg" xmlns:xlink="http://www.w3.org/1999/xlink" x="0px" y="0px"
	 width="32px" height="32px" viewBox="0 0 32 32" style="enable-background:new 0 0 32 32;" xml:space="preserve">
<path style="fill-rule:evenodd;clip-rule:evenodd;fill:#121111;" d="M27.387,15.48c-2.944-0.697-5.38-2.729-8.481-3.017
	c-3.232-0.3-6.453-0.908-9.672,0.019c-0.75,0.217-1.337,0.695-1.364,1.544c-0.031,0.971,0.726,0.959,1.42,1.087
	c0.55,0.101,1.162,0.045,1.595,0.6c1.429,1.823,2.979,3.413,5.64,2.995c0.548-0.084,1.148,0.255,1.595,0.668
	c0.689,0.639,1.061,0.775,1.565-0.321c0.541-1.183,2.608,0.302,3.123-1.449c0.069-0.238,0.403,0.067,0.619,0.12
	c0.27,0.065,0.531,0.159,0.79,0.26c0.78,0.305,1.54,0.683,2.421,0.588c0.637-0.023,1.275-0.017,1.886-0.266
	c0.303-0.125,0.572-0.238,0.406-0.613C28.554,16.852,28.266,15.688,27.387,15.48z"/>
</svg>
