<?xml version="1.0" encoding="iso-8859-1"?>
<!-- Generator: Adobe Illustrator 16.0.0, SVG Export Plug-In . SVG Version: 6.00 Build 0)  -->
<!DOCTYPE svg PUBLIC "-//W3C//DTD SVG 1.1//EN" "http://www.w3.org/Graphics/SVG/1.1/DTD/svg11.dtd">
<svg version="1.1" id="Layer_1" xmlns="http://www.w3.org/2000/svg" xmlns:xlink="http://www.w3.org/1999/xlink" x="0px" y="0px"
	 width="32px" height="32px" viewBox="0 0 32 32" style="enable-background:new 0 0 32 32;" xml:space="preserve">
<path style="fill-rule:evenodd;clip-rule:evenodd;fill:#121111;" d="M8.88,9.239C8.526,9.596,8.826,9.921,9.026,10.14
	c0.726,0.797,0.867,1.875,1.393,2.777c0.548,0.936,0.521,2.036-0.487,2.909c-0.462,0.4-0.785,1-1.057,1.565
	c-0.844,1.756-0.514,2.753,1.116,3.66c1.795,0.999,3.586,2.005,5.376,3.015c0.297,0.167,0.815,0.355,0.823,0.551
	c0.072,1.646,1.616,1.895,2.503,2.756c0.851,0.829,1.443,0.613,1.822-0.461c0.692-1.951,1.672-3.685,3.538-4.773
	c0.278-0.163,0.63-0.485,0.283-0.829c-1.518-1.51-0.813-3.413-0.953-5.162c-0.176-2.194-0.417-4.422,1.815-5.907
	c-1.936-0.949-3.6-1.17-4.962,0.552c-0.099,0.124-0.469,0.065-0.705,0.042c-1.221-0.113-2.417-0.265-3.433-1.072
	c-0.654-0.518-1.369-0.889-2.272-0.875c-0.73,0.01-1.31-0.269-1.312-1.208c0-1.213-0.948-0.928-1.425-0.59
	C10.263,7.676,9.604,8.506,8.88,9.239z"/>
</svg>
