<?xml version="1.0" encoding="iso-8859-1"?>
<!-- Generator: Adobe Illustrator 16.0.0, SVG Export Plug-In . SVG Version: 6.00 Build 0)  -->
<!DOCTYPE svg PUBLIC "-//W3C//DTD SVG 1.1//EN" "http://www.w3.org/Graphics/SVG/1.1/DTD/svg11.dtd">
<svg version="1.1" id="Layer_1" xmlns="http://www.w3.org/2000/svg" xmlns:xlink="http://www.w3.org/1999/xlink" x="0px" y="0px"
	 width="32px" height="32px" viewBox="0 0 32 32" style="enable-background:new 0 0 32 32;" xml:space="preserve">
<path style="fill-rule:evenodd;clip-rule:evenodd;fill:#121111;" d="M7.782,12.88c0.273,0.207,0.188,0.524,0.288,0.702
	c0.836,1.489,1.761,2.928,2.688,4.363c0.06,0.092,0.382-0.012,0.569,0.029c1.796,0.387,3.858,3.814,3.206,5.296
	c-0.265,0.598-0.863,1.244-0.352,1.866c0.58,0.706,0.862-0.482,1.468-0.42c0.368,0.038,1.038,0.151,0.863-0.831
	c-0.403-2.263-0.278-2.356,1.858-3.211c0.314-0.125,0.716-0.138,0.951-0.347c0.98-0.867,1.729-0.672,2.325,0.415
	c0.329,0.597,0.919,0.676,1.1,0.133c0.55-1.677,2.001-1.741,3.169-1.993c0.54-0.747-1.132-0.836-0.279-1.463
	c1.338-0.985,1.682-2.584,2.604-3.814c0.344-0.456-0.194-0.9-0.347-0.844c-1.229,0.479-2.034-0.746-3.152-0.705
	c-0.704,0.026-1.114-0.354-0.689-1.112c0.394-0.701,0.004-0.555-0.51-0.78c-0.595-0.262-1.4-0.305-1.801-1.365
	c-0.283-0.747-0.922-2.156-2.472-2.145c-0.808,0.007-2.085,0.157-1.988-1.427c0.014-0.23-0.38-0.54-0.925-0.365
	c-0.766,0.25-1.42,0.801-2.496,0.757c1.593,1.639,1.557,1.9-0.15,2.986c-0.281,0.177-0.813,0.43-0.786,0.554
	c0.375,1.82-1.001,1.379-1.916,1.545c-0.238,0.041-0.627,0.112-0.666,0.25c-0.338,1.177-1.119,0.958-1.94,0.685
	c-0.425-0.142-0.844-0.005-1.059,0.31C7.038,12.391,7.492,12.659,7.782,12.88z"/>
</svg>
