<?xml version="1.0" encoding="iso-8859-1"?>
<!-- Generator: Adobe Illustrator 16.0.0, SVG Export Plug-In . SVG Version: 6.00 Build 0)  -->
<!DOCTYPE svg PUBLIC "-//W3C//DTD SVG 1.1//EN" "http://www.w3.org/Graphics/SVG/1.1/DTD/svg11.dtd">
<svg version="1.1" id="Layer_1" xmlns="http://www.w3.org/2000/svg" xmlns:xlink="http://www.w3.org/1999/xlink" x="0px" y="0px"
	 width="32px" height="32px" viewBox="0 0 32 32" style="enable-background:new 0 0 32 32;" xml:space="preserve">
<path style="fill-rule:evenodd;clip-rule:evenodd;fill:#121111;" d="M25.31,26.696c0.387-0.868-0.599-1.753-0.535-2.049
	c0.312-1.434-0.725-1.626-1.469-2.149c-0.109-0.076-0.188-0.203-0.266-0.316c-1.59-2.309-3.09-4.696-5.649-6.11
	c-0.267-0.146-0.692-0.181-0.425-0.719c0.178-0.357,0.328-0.603,0.742-0.427c0.447,0.189,0.712,0.007,1.003-0.327
	c0.569-0.653,0.083-0.92-0.233-1.501c-0.626-1.155-1.033-1.83-2.495-1.095c-0.605,0.305-1.778-0.332-1.654-1.028
	c0.292-1.646-1.355-1.784-1.808-2.803c-0.22-0.495-0.836-0.518-1.264-0.26c-0.431,0.26-0.43,0.739-0.183,1.177
	c0.221,0.392,0.354,0.755,0.253,1.247c-0.139,0.682-0.681,0.703-0.91,0.394C9.587,9.612,9.3,10.751,8.835,11.044
	c-0.315,0.197-0.249,0.681-0.665,0.891c-1.767,0.901,0.887,1.728,0.078,2.669c-0.152,0.176,0.084,0.459,0.327,0.563
	c0.131,0.055,0.306,0.112,0.427,0.069c1.41-0.485,1.252,0.747,1.154,1.299c-0.149,0.836-0.208,1.694-0.417,2.52
	c-0.09,0.358-0.529,0.771-0.13,1.06c0.432,0.313,0.781-0.151,1.134-0.411c0.814-0.595,1.518-1.631,2.723-0.49
	c0.374,0.355,0.897-0.137,1.249-0.465c0.999-0.927,1.635-0.887,2.459,0.17c0.75,0.961,1.789,1.749,1.401,3.26
	c-0.147,0.568,0.467,1.07,0.891,1.443c0.518,0.452,1.324,0.714,0.986,1.598c-0.272,0.715,0.291,1.567-0.268,2.125
	c-0.78,0.781-0.752,1.055,0.384,1.147c0.349,0.029,0.674,0.337,1.202,0.617c0.126-1.077,0.165-1.974,1.63-1.272
	C24.169,28.205,24.944,27.519,25.31,26.696z"/>
</svg>
