<?xml version="1.0" encoding="iso-8859-1"?>
<!-- Generator: Adobe Illustrator 16.0.0, SVG Export Plug-In . SVG Version: 6.00 Build 0)  -->
<!DOCTYPE svg PUBLIC "-//W3C//DTD SVG 1.1//EN" "http://www.w3.org/Graphics/SVG/1.1/DTD/svg11.dtd">
<svg version="1.1" id="Layer_1" xmlns="http://www.w3.org/2000/svg" xmlns:xlink="http://www.w3.org/1999/xlink" x="0px" y="0px"
	 width="32px" height="32px" viewBox="0 0 32 32" style="enable-background:new 0 0 32 32;" xml:space="preserve">
<path style="fill-rule:evenodd;clip-rule:evenodd;fill:#121111;" d="M10.273,23.6c-0.692,0.747-0.12,3.151,0.833,3.499
	c0.294,0.106,0.605,0.113,0.815-0.142c0.742-0.907,1.679-0.57,2.588-0.438c0.311,0.045,0.604,0.387,0.936,0.057
	c1.373-1.361,3.071-1.77,4.949-1.837c0.749-0.028,1.196-0.521,0.39-1.239c-0.622-0.555-1.216-1.141-1.848-1.681
	c-1.19-1.023-1.061-2.198,0.425-2.794c1.939-0.775,3.517-2.111,5.261-3.189c0.615-0.38,0.896-0.954,0.86-1.604
	c-0.084-1.631,0.665-2.813,1.837-3.821c0.66-0.566,1.292-1.17,1.936-1.759c-1.179,0.082-2.011-0.568-2.899-1.138
	c-0.479-0.308-0.945-0.081-1.186,0.471c-0.807,1.859-2.116,3.137-4.16,3.521c-0.543,0.1-0.691,0.417-0.479,0.823
	c0.429,0.826-0.016,0.927-0.654,0.864c-0.72-0.069-1.496,0.039-2.123-0.42c-1.04-0.756-1.728-0.334-2.26,0.625
	c-0.567,1.019-1.357,1.767-2.419,2.269c-1.148,0.544-2.236,1.219-3.406,1.706c-0.802,0.333-1.287,0.833-1.534,1.693
	c0.427,0.15,0.747,0.267,1.068,0.374C12.217,20.458,12.426,21.275,10.273,23.6z"/>
</svg>
