<?xml version="1.0" encoding="iso-8859-1"?>
<!-- Generator: Adobe Illustrator 16.0.0, SVG Export Plug-In . SVG Version: 6.00 Build 0)  -->
<!DOCTYPE svg PUBLIC "-//W3C//DTD SVG 1.1//EN" "http://www.w3.org/Graphics/SVG/1.1/DTD/svg11.dtd">
<svg version="1.1" id="Layer_1" xmlns="http://www.w3.org/2000/svg" xmlns:xlink="http://www.w3.org/1999/xlink" x="0px" y="0px"
	 width="32px" height="32px" viewBox="0 0 32 32" style="enable-background:new 0 0 32 32;" xml:space="preserve">
<path style="fill-rule:evenodd;clip-rule:evenodd;fill:#121111;" d="M10.043,13.099c-0.058,0.094-0.504,0.058-0.689-0.055
	c-1.157-0.707-1.101,0.142-1.037,0.835c0.079,0.862,0.204,1.659,0.912,2.383c0.785,0.8,1.287,1.856,0.123,2.899
	c-0.536,0.478-0.395,1.108-0.265,1.774c0.145,0.735,0.759,1.467,0.265,2.25c-0.73,1.161,0.045,1.428,0.9,1.4
	c1.076-0.036,2.276-0.175,3.173-0.583c1.225-0.555,1.414-0.077,1.695,0.809c0.395,1.247,1.298,1.581,2.401,1.074
	c0.709-0.327,1.396-0.403,2.208-0.4c0.548-0.253,1.525,0.59,1.832-0.729c0.172-0.737,1.035-1.491,0.906-2.09
	c-0.322-1.475-0.344-2.567,1.328-3.107c0.12-0.038,0.097-0.457,0.183-0.68c0.249-0.639,0.492-1.319,1.025-1.753
	c1.211-0.99,1.074-2.221,0.344-3.229c-1.652-2.281,0.005-4.531-0.146-6.782c-0.012-0.148,0.18-0.367,0.337-0.464
	c0.688-0.435,0.356-1.065,0.063-1.37c-0.4-0.421-1.162-0.527-1.556,0.002c-0.565,0.762-1.362,1.088-2.154,1.342
	c-3.202,1.023-5.974,2.662-8.126,5.282c-0.142,0.173-0.391,0.341-0.601,0.354C12.073,12.339,10.833,11.809,10.043,13.099z"/>
</svg>
