<?xml version="1.0" encoding="iso-8859-1"?>
<!-- Generator: Adobe Illustrator 16.0.0, SVG Export Plug-In . SVG Version: 6.00 Build 0)  -->
<!DOCTYPE svg PUBLIC "-//W3C//DTD SVG 1.1//EN" "http://www.w3.org/Graphics/SVG/1.1/DTD/svg11.dtd">
<svg version="1.1" id="Layer_1" xmlns="http://www.w3.org/2000/svg" xmlns:xlink="http://www.w3.org/1999/xlink" x="0px" y="0px"
	 width="32px" height="32px" viewBox="0 0 32 32" style="enable-background:new 0 0 32 32;" xml:space="preserve">
<path style="fill-rule:evenodd;clip-rule:evenodd;fill:#121111;" d="M24.936,21.41c0.023-0.472,0.373-1.01,0.565-1.468
	c0.525-1.248,1.864-2.068,1.966-3.413c0.148-1.962,0.353-3.779,2.747-4.738c-1.696-0.624-1.915-1.776-1.883-3.077
	c0.028-1.119-0.435-1.643-1.675-1.618c-3.663,0.072-7.328,0.047-10.991,0.009c-0.812-0.008-1.152,0.19-1.091,1.057
	c0.037,0.542,0.351,1.338-0.756,1.369c-0.45,0.012-0.341,0.519-0.345,0.845c-0.01,0.983,0.009,1.967-0.012,2.95
	c-0.006,0.315,0.123,0.654-0.212,0.939c-1.846,1.56-2.138,2.311-1.287,4.396c0.536,1.313,0.721,2.876,1.797,3.854
	c0.873,0.795,1.664,1.648,2.503,2.461c0.948,0.918,1.374,2.928,3.437,2.055c0.09-0.038,0.319,0.063,0.376,0.161
	c0.544,0.93,1.491,0.682,2.294,0.771c1.187,0.132,3.524-0.99,3.593-1.907c0.104-1.382-0.891-2.26-2.064-2.881
	c-0.035-0.018-0.051-0.076-0.289-0.45C24.824,22.886,24.895,22.247,24.936,21.41z"/>
</svg>
