<?xml version="1.0" encoding="iso-8859-1"?>
<!-- Generator: Adobe Illustrator 16.0.0, SVG Export Plug-In . SVG Version: 6.00 Build 0)  -->
<!DOCTYPE svg PUBLIC "-//W3C//DTD SVG 1.1//EN" "http://www.w3.org/Graphics/SVG/1.1/DTD/svg11.dtd">
<svg version="1.1" id="Layer_1" xmlns="http://www.w3.org/2000/svg" xmlns:xlink="http://www.w3.org/1999/xlink" x="0px" y="0px"
	 width="32px" height="32px" viewBox="0 0 32 32" style="enable-background:new 0 0 32 32;" xml:space="preserve">
<path style="fill-rule:evenodd;clip-rule:evenodd;fill:#121111;" d="M25.281,6.421c-1.306-0.635-2.741-1.017-4.146-1.422
	c-0.796-0.231-0.439,0.877-0.99,1.004c-0.048,0.012-0.107,0.058-0.139,0.043c-1.338-0.658-2.488,0.233-3.724,0.436
	c-0.711,0.117-1.7,0.607-1.716,0.917c-0.049,0.978-0.739,1.324-1.319,1.516c-1.396,0.459-1.447,2.024-2.492,2.721
	c-0.176,0.118-0.327,0.304-0.131,0.462c0.994,0.804,0.219,0.726-0.327,0.619c-0.948-0.182-1.796,0.135-2.128,0.915
	c-0.388,0.91-0.153,1.999,0.213,2.906c0.273,0.677,0.218,2.129-0.397,2.589c-1.397,1.048-1.5,2.055-0.471,3.538
	c0.55,0.793,1.368,1.359,1.445,2.549c0.063,0.961,2.114,1.593,2.402,0.879c0.496-1.231,1.393-0.854,2.223-1.057
	c0.143-0.036,0.302-0.063,0.462-0.089c0.791-0.135,1.663-0.288,1.309-1.602h0c0.009,0,0.018-0.003,0.026-0.003
	c0.076,0.064,0.152,0.128,0.228,0.189c0.041-0.066,0.081-0.137,0.122-0.207c-0.115,0.009-0.23,0.013-0.345,0.018
	c-0.013-0.009-0.025-0.022-0.038-0.031c0-0.003,0.002,0.007,0.004,0.02l0,0l-0.005-0.024c0.004,0.014,0.003,0.024,0.006,0.039
	c-0.06,0.048-0.119,0.091-0.178,0.134c0.001,0.018,0.001,0.029,0.004,0.043l-0.021-0.028c0.005-0.005,0.011-0.01,0.017-0.015
	c-0.21-1.441,0.183-2.479,1.817-2.733c0.828-0.13,1.559-0.828,1.614-1.419c0.069-0.733-0.951-0.98-1.625-1.146
	c-1.095-0.267-1.119-0.854-0.764-1.732c0.275-0.677,0.646-1.22,1.265-1.636c0.987-0.663,2.075-1.047,3.203-1.363
	c0.788-0.224,1.782-0.644,1.76-1.389c-0.025-0.844,0.428-0.985,0.857-1.367c0.985-0.881,2.242-0.257,3.292-0.579
	c0.146-0.53-0.503-0.644-0.337-1.315C26.44,8.063,26.133,6.834,25.281,6.421z"/>
<path style="fill-rule:evenodd;clip-rule:evenodd;fill:#121111;" d="M18.765,10.031c-0.76-0.08-1.339,0.068-1.458,0.872
	c-0.026,0.18,0.306,0.588,0.333,0.573C18.226,11.217,18.677,10.816,18.765,10.031z"/>
</svg>
