<?xml version="1.0" encoding="iso-8859-1"?>
<!-- Generator: Adobe Illustrator 16.0.0, SVG Export Plug-In . SVG Version: 6.00 Build 0)  -->
<!DOCTYPE svg PUBLIC "-//W3C//DTD SVG 1.1//EN" "http://www.w3.org/Graphics/SVG/1.1/DTD/svg11.dtd">
<svg version="1.1" id="Layer_1" xmlns="http://www.w3.org/2000/svg" xmlns:xlink="http://www.w3.org/1999/xlink" x="0px" y="0px"
	 width="32px" height="32px" viewBox="0 0 32 32" style="enable-background:new 0 0 32 32;" xml:space="preserve">
<path style="fill-rule:evenodd;clip-rule:evenodd;fill:#121111;" d="M7.171,16.825c0.308-0.052,0.696,0.269,0.869-0.402
	c0.303-1.177,1.963-1.852,2.843-1.023c0.858,0.808,1.442,1.824,2.823,1.689c0.072-0.007,0.209,0.204,0.244,0.333
	c0.422,1.601,1.867,2.114,3.013,2.998c0.895,0.689,2.398,0.502,2.802,1.974c0.05,0.184,1.034,0.817,1.634-0.215
	c0.697-1.199,0.296-1.912-1.068-2.89c1.643,0.379,2.146-0.472,2.74-1.204c0.501-0.619,0.781-0.523,1.274,0.056
	c0.184,0.217,0.479,0.81,0.999,0.497c0.708-0.423,1.634-0.405,2.277-1.146c-0.648-0.349-1.244-0.864-1.881-0.922
	c-0.314-0.029-0.77,0.361-1.068-0.075c-0.43-0.629,0.627-0.627,0.597-1.256c-1.167,0.305-2.073,0.903-2.902,1.647
	c-0.21,0.19-0.584,0.552-0.63,0.517c-1.019-0.807-2.819-0.775-2.754-2.813c0.017-0.517-0.732-1.437-1.867-1.369
	c-1.579,0.092-3.108,0.403-4.504-1.184c-1.274-1.449-3.289-2.027-5.379-1.701c-0.435,0.067-0.738,0.072-0.73,0.634
	c0.025,1.771,0.019,3.54,0.01,5.311C6.512,16.757,6.782,16.887,7.171,16.825z"/>
</svg>
