<?xml version="1.0" encoding="iso-8859-1"?>
<!-- Generator: Adobe Illustrator 16.0.0, SVG Export Plug-In . SVG Version: 6.00 Build 0)  -->
<!DOCTYPE svg PUBLIC "-//W3C//DTD SVG 1.1//EN" "http://www.w3.org/Graphics/SVG/1.1/DTD/svg11.dtd">
<svg version="1.1" id="Layer_1" xmlns="http://www.w3.org/2000/svg" xmlns:xlink="http://www.w3.org/1999/xlink" x="0px" y="0px"
	 width="32px" height="32px" viewBox="0 0 32 32" style="enable-background:new 0 0 32 32;" xml:space="preserve">
<path style="fill-rule:evenodd;clip-rule:evenodd;fill:#121111;" d="M29.238,12.911c0.146-1.99-0.295-2.194-2.319-2.752
	c-1.42-0.394-2.647-1.466-4.264-1.199c-0.101,0.017-0.298-0.11-0.331-0.21c-0.519-1.581-1.737-0.638-2.553-0.569
	c-0.76,0.064-1.794,0.328-1.831,1.529c-0.012,0.332-0.026,0.697-0.48,0.8c-1.83,0.416-2.754,1.917-3.836,3.226
	c-0.578,0.698-1.16,0.956-2.161,0.735c-1.04-0.231-2.133-0.584-3.232-0.393c-0.181,0.586,0.226,0.915,0.504,1.197
	c1.236,1.259,1.275,3.296,2.855,4.321c1.482,0.96,3.194,1.646,3.387,3.857c0.06,0.674,0.769,1.403,1.787,1.458
	c0.716,0.038,1.561,0.017,1.842,1.04c0.063,0.226,0.676,0.452,1.011,0.422c0.767-0.069,1.438,0.275,2.152,0.351
	c1.803,0.191,3.46,0.347,4.833-1.5c1.168-1.572,1.345-3.576,2.661-5.012c0.289-0.317-0.031-0.664-0.209-0.929
	c-0.489-0.727-0.543-1.966-0.322-2.27C29.707,15.678,29.14,14.244,29.238,12.911z"/>
</svg>
